<svg width="33" height="32" viewBox="0 0 33 32" fill="none" xmlns="http://www.w3.org/2000/svg">
<path d="M1.65039 1.25H31.3496C31.4591 1.25 31.5625 1.29362 31.6367 1.36719C31.7104 1.44033 31.75 1.53703 31.75 1.63574V24.5381C31.75 24.637 31.7106 24.7344 31.6367 24.8076C31.5625 24.8812 31.4591 24.9248 31.3496 24.9248H6.9209L6.58301 25.1885L1.25 29.3418V1.63574C1.25004 1.53703 1.28962 1.44033 1.36328 1.36719C1.43749 1.29362 1.54086 1.25 1.65039 1.25Z" stroke="url(#paint0_linear_6851_172)" stroke-width="2.5"/>
<rect x="7" y="6" width="20" height="3" fill="url(#paint1_linear_6851_172)"/>
<rect x="7" y="11" width="20" height="3" fill="url(#paint2_linear_6851_172)"/>
<rect x="7" y="16" width="13.2" height="3.3" fill="url(#paint3_linear_6851_172)"/>
<defs>
<linearGradient id="paint0_linear_6851_172" x1="0" y1="0" x2="33" y2="0" gradientUnits="userSpaceOnUse">
<stop offset="0.145833" stop-color="#0049D8"/>
<stop offset="1" stop-color="#00A3FF"/>
</linearGradient>
<linearGradient id="paint1_linear_6851_172" x1="7" y1="6" x2="27" y2="6" gradientUnits="userSpaceOnUse">
<stop offset="0.145833" stop-color="#0049D8"/>
<stop offset="1" stop-color="#00A3FF"/>
</linearGradient>
<linearGradient id="paint2_linear_6851_172" x1="7" y1="11" x2="27" y2="11" gradientUnits="userSpaceOnUse">
<stop offset="0.145833" stop-color="#0049D8"/>
<stop offset="1" stop-color="#00A3FF"/>
</linearGradient>
<linearGradient id="paint3_linear_6851_172" x1="7" y1="16" x2="20.2" y2="16" gradientUnits="userSpaceOnUse">
<stop offset="0.145833" stop-color="#0049D8"/>
<stop offset="1" stop-color="#00A3FF"/>
</linearGradient>
</defs>
</svg>
