<svg width="69" height="69" viewBox="0 0 69 69" fill="none" xmlns="http://www.w3.org/2000/svg">
<rect opacity="0.1" width="69" height="69" rx="5" fill="#512BD4"/>
<path d="M18 23C18 20.2386 20.2386 18 23 18H46C48.7614 18 51 20.2386 51 23V46C51 48.7614 48.7614 51 46 51H23C20.2386 51 18 48.7614 18 46V23Z" fill="url(#paint0_linear_539_1352)"/>
<path fill-rule="evenodd" clip-rule="evenodd" d="M46 21.5H23C22.1716 21.5 21.5 22.1716 21.5 23V46C21.5 46.8284 22.1716 47.5 23 47.5H46C46.8284 47.5 47.5 46.8284 47.5 46V23C47.5 22.1716 46.8284 21.5 46 21.5ZM23 18C20.2386 18 18 20.2386 18 23V46C18 48.7614 20.2386 51 23 51H46C48.7614 51 51 48.7614 51 46V23C51 20.2386 48.7614 18 46 18H23Z" fill="url(#paint1_linear_539_1352)"/>
<path fill-rule="evenodd" clip-rule="evenodd" d="M58 28H51V25H58C58.8284 25 59.5 25.6716 59.5 26.5C59.5 27.3284 58.8284 28 58 28Z" fill="url(#paint2_linear_539_1352)"/>
<path fill-rule="evenodd" clip-rule="evenodd" d="M58 36H51V33H58C58.8284 33 59.5 33.6716 59.5 34.5C59.5 35.3284 58.8284 36 58 36Z" fill="url(#paint3_linear_539_1352)"/>
<path fill-rule="evenodd" clip-rule="evenodd" d="M58 44H51V41H58C58.8284 41 59.5 41.6716 59.5 42.5C59.5 43.3284 58.8284 44 58 44Z" fill="url(#paint4_linear_539_1352)"/>
<path fill-rule="evenodd" clip-rule="evenodd" d="M11 41H18V44H11C10.1716 44 9.5 43.3284 9.5 42.5C9.5 41.6716 10.1716 41 11 41Z" fill="url(#paint5_linear_539_1352)"/>
<path fill-rule="evenodd" clip-rule="evenodd" d="M11 33H18V36H11C10.1716 36 9.5 35.3284 9.5 34.5C9.5 33.6716 10.1716 33 11 33Z" fill="url(#paint6_linear_539_1352)"/>
<path fill-rule="evenodd" clip-rule="evenodd" d="M11 25H18V28H11C10.1716 28 9.5 27.3284 9.5 26.5C9.5 25.6716 10.1716 25 11 25Z" fill="url(#paint7_linear_539_1352)"/>
<path fill-rule="evenodd" clip-rule="evenodd" d="M27.5 11.5V18.5H24.5V11.5C24.5 10.6716 25.1716 10 26 10C26.8284 10 27.5 10.6716 27.5 11.5Z" fill="url(#paint8_linear_539_1352)"/>
<path fill-rule="evenodd" clip-rule="evenodd" d="M35.5 11.5V18.5H32.5V11.5C32.5 10.6716 33.1716 10 34 10C34.8284 10 35.5 10.6716 35.5 11.5Z" fill="url(#paint9_linear_539_1352)"/>
<path fill-rule="evenodd" clip-rule="evenodd" d="M43.5 11.5V18.5H40.5V11.5C40.5 10.6716 41.1716 10 42 10C42.8284 10 43.5 10.6716 43.5 11.5Z" fill="url(#paint10_linear_539_1352)"/>
<path fill-rule="evenodd" clip-rule="evenodd" d="M40.5 58V51H43.5V58C43.5 58.8284 42.8284 59.5 42 59.5C41.1716 59.5 40.5 58.8284 40.5 58Z" fill="url(#paint11_linear_539_1352)"/>
<path fill-rule="evenodd" clip-rule="evenodd" d="M32.5 58V51H35.5V58C35.5 58.8284 34.8284 59.5 34 59.5C33.1716 59.5 32.5 58.8284 32.5 58Z" fill="url(#paint12_linear_539_1352)"/>
<path fill-rule="evenodd" clip-rule="evenodd" d="M24.5 58V51H27.5V58C27.5 58.8284 26.8284 59.5 26 59.5C25.1716 59.5 24.5 58.8284 24.5 58Z" fill="url(#paint13_linear_539_1352)"/>
<path d="M33.999 37.138H30.107L29.463 39H27.405L30.919 29.214H33.201L36.715 39H34.643L33.999 37.138ZM33.467 35.57L32.053 31.482L30.639 35.57H33.467ZM39.9885 29.228V39H38.0285V29.228H39.9885Z" fill="white"/>
<defs>
<linearGradient id="paint0_linear_539_1352" x1="5.62069" y1="19.1385" x2="65.6702" y2="19.8593" gradientUnits="userSpaceOnUse">
<stop offset="0.48188" stop-color="#752BD4"/>
<stop offset="1" stop-color="#BC2BD4"/>
</linearGradient>
<linearGradient id="paint1_linear_539_1352" x1="5.62069" y1="19.1385" x2="65.6702" y2="19.8593" gradientUnits="userSpaceOnUse">
<stop offset="0.48188" stop-color="#752BD4"/>
<stop offset="1" stop-color="#BC2BD4"/>
</linearGradient>
<linearGradient id="paint2_linear_539_1352" x1="5.62069" y1="19.1385" x2="65.6702" y2="19.8593" gradientUnits="userSpaceOnUse">
<stop offset="0.48188" stop-color="#752BD4"/>
<stop offset="1" stop-color="#BC2BD4"/>
</linearGradient>
<linearGradient id="paint3_linear_539_1352" x1="5.62069" y1="19.1385" x2="65.6702" y2="19.8593" gradientUnits="userSpaceOnUse">
<stop offset="0.48188" stop-color="#752BD4"/>
<stop offset="1" stop-color="#BC2BD4"/>
</linearGradient>
<linearGradient id="paint4_linear_539_1352" x1="5.62069" y1="19.1385" x2="65.6702" y2="19.8593" gradientUnits="userSpaceOnUse">
<stop offset="0.48188" stop-color="#752BD4"/>
<stop offset="1" stop-color="#BC2BD4"/>
</linearGradient>
<linearGradient id="paint5_linear_539_1352" x1="5.62069" y1="19.1385" x2="65.6702" y2="19.8593" gradientUnits="userSpaceOnUse">
<stop offset="0.48188" stop-color="#752BD4"/>
<stop offset="1" stop-color="#BC2BD4"/>
</linearGradient>
<linearGradient id="paint6_linear_539_1352" x1="5.62069" y1="19.1385" x2="65.6702" y2="19.8593" gradientUnits="userSpaceOnUse">
<stop offset="0.48188" stop-color="#752BD4"/>
<stop offset="1" stop-color="#BC2BD4"/>
</linearGradient>
<linearGradient id="paint7_linear_539_1352" x1="5.62069" y1="19.1385" x2="65.6702" y2="19.8593" gradientUnits="userSpaceOnUse">
<stop offset="0.48188" stop-color="#752BD4"/>
<stop offset="1" stop-color="#BC2BD4"/>
</linearGradient>
<linearGradient id="paint8_linear_539_1352" x1="5.62069" y1="19.1385" x2="65.6702" y2="19.8593" gradientUnits="userSpaceOnUse">
<stop offset="0.48188" stop-color="#752BD4"/>
<stop offset="1" stop-color="#BC2BD4"/>
</linearGradient>
<linearGradient id="paint9_linear_539_1352" x1="5.62069" y1="19.1385" x2="65.6702" y2="19.8593" gradientUnits="userSpaceOnUse">
<stop offset="0.48188" stop-color="#752BD4"/>
<stop offset="1" stop-color="#BC2BD4"/>
</linearGradient>
<linearGradient id="paint10_linear_539_1352" x1="5.62069" y1="19.1385" x2="65.6702" y2="19.8593" gradientUnits="userSpaceOnUse">
<stop offset="0.48188" stop-color="#752BD4"/>
<stop offset="1" stop-color="#BC2BD4"/>
</linearGradient>
<linearGradient id="paint11_linear_539_1352" x1="5.62069" y1="19.1385" x2="65.6702" y2="19.8593" gradientUnits="userSpaceOnUse">
<stop offset="0.48188" stop-color="#752BD4"/>
<stop offset="1" stop-color="#BC2BD4"/>
</linearGradient>
<linearGradient id="paint12_linear_539_1352" x1="5.62069" y1="19.1385" x2="65.6702" y2="19.8593" gradientUnits="userSpaceOnUse">
<stop offset="0.48188" stop-color="#752BD4"/>
<stop offset="1" stop-color="#BC2BD4"/>
</linearGradient>
<linearGradient id="paint13_linear_539_1352" x1="5.62069" y1="19.1385" x2="65.6702" y2="19.8593" gradientUnits="userSpaceOnUse">
<stop offset="0.48188" stop-color="#752BD4"/>
<stop offset="1" stop-color="#BC2BD4"/>
</linearGradient>
</defs>
</svg>
