<svg width="131" height="131" viewBox="0 0 131 131" fill="none" xmlns="http://www.w3.org/2000/svg">
<path d="M65 130C100.899 130 130 100.899 130 65C130 29.1015 100.899 0 65 0C29.1015 0 0 29.1015 0 65C0 100.899 29.1015 130 65 130Z" fill="#FBE5FF"/>
<path d="M90.7743 59.9993C91.2762 58.5112 91.5322 56.953 91.5325 55.3847C91.5323 52.7894 90.8317 50.2411 89.5027 48.0015C86.8321 43.4149 81.8782 40.5831 76.5168 40.5831C75.4605 40.5832 74.4072 40.6932 73.3744 40.9115C71.9852 39.3672 70.28 38.131 68.3713 37.2844C66.4625 36.4378 64.3936 36 62.3009 36H62.2069L62.1716 36.0002C55.6779 36.0002 49.9192 40.1346 47.923 46.2296C45.8566 46.6472 43.9045 47.4955 42.1973 48.7178C40.4902 49.94 39.0673 51.508 38.024 53.3168C36.699 55.5698 36.0008 58.1282 36 60.7331C36.0005 64.3939 37.3777 67.9243 39.865 70.6407C39.363 72.1288 39.1069 73.6869 39.1067 75.2553C39.1069 77.8506 39.8075 80.3989 41.1365 82.6385C42.7169 85.3535 45.1304 87.5031 48.0289 88.7773C50.9275 90.0516 54.1612 90.3846 57.264 89.7283C58.6533 91.2726 60.3586 92.5088 62.2675 93.3554C64.1764 94.2021 66.2454 94.6399 68.3383 94.64H68.4323L68.4705 94.6398C74.9677 94.6398 80.7246 90.5052 82.7208 84.4046C84.7871 83.9869 86.7392 83.1385 88.4464 81.9163C90.1536 80.694 91.5765 79.126 92.6199 77.3173C93.9435 75.0663 94.6404 72.51 94.64 69.9075C94.6395 66.2468 93.2623 62.7164 90.775 60.0002L90.7743 59.9993ZM68.436 90.8063H68.4207C65.8209 90.8055 63.3036 89.9056 61.3066 88.2631C61.4252 88.2001 61.5424 88.1345 61.6581 88.0665L73.4914 81.3223C73.7867 81.1565 74.0322 80.9164 74.2031 80.6266C74.3739 80.3368 74.464 80.0075 74.4641 79.6722V63.2004L79.4657 66.0499C79.492 66.0629 79.5146 66.082 79.5316 66.1056C79.5486 66.1292 79.5594 66.1565 79.5631 66.1853V79.817C79.5562 85.8776 74.5788 90.7941 68.436 90.8063ZM44.5069 80.7223C43.5295 79.0547 43.0145 77.1625 43.0138 75.2361C43.0138 74.6078 43.0695 73.9779 43.1778 73.3588C43.2657 73.4108 43.4193 73.5033 43.5294 73.5658L55.3628 80.31C55.6578 80.4799 55.9933 80.5694 56.3349 80.5693C56.6765 80.5693 57.012 80.4796 57.3069 80.3096L71.7541 72.0786V77.7779L71.7543 77.7878C71.7543 77.8152 71.7479 77.8423 71.7355 77.8668C71.723 77.8914 71.705 77.9128 71.6828 77.9292L59.7204 84.7441C58.0278 85.7053 56.1092 86.2114 54.1562 86.2119C52.2012 86.2117 50.2807 85.7043 48.5871 84.7407C46.8935 83.7771 45.4864 82.3911 44.5069 80.7217V80.7223ZM41.3938 55.233C42.6935 53.0056 44.7456 51.3001 47.1912 50.415C47.1912 50.5155 47.1853 50.6936 47.1853 50.8173V64.3059L47.1851 64.317C47.1852 64.6519 47.2751 64.9808 47.4457 65.2704C47.6162 65.5599 47.8614 65.7998 48.1564 65.9656L62.6036 74.1953L57.6022 77.0448C57.5775 77.0609 57.5492 77.0707 57.5197 77.0733C57.4903 77.0759 57.4607 77.0714 57.4335 77.06L45.4699 70.2394C43.7786 69.2727 42.3746 67.8844 41.3985 66.2136C40.4223 64.5428 39.9084 62.6483 39.9082 60.7198C39.9089 58.7943 40.4214 56.9026 41.3944 55.2336L41.3938 55.233ZM82.4874 64.6685L68.0401 56.4378L73.0418 53.5892C73.0664 53.5732 73.0948 53.5634 73.1242 53.5607C73.1536 53.5581 73.1833 53.5627 73.2105 53.5741L85.1739 60.3889C86.8665 61.3541 88.272 62.7417 89.2493 64.4123C90.2266 66.0829 90.7413 67.9778 90.7418 69.9067C90.7418 74.5108 87.8301 78.6304 83.4522 80.2205V66.3286C83.4528 66.3235 83.4528 66.3181 83.4528 66.313C83.4527 65.9793 83.3634 65.6516 83.1939 65.3628C83.0244 65.0741 82.7807 64.8346 82.4874 64.6685ZM87.4656 57.2757C87.3492 57.2054 87.2321 57.1365 87.1141 57.0689L75.2808 50.3245C74.9857 50.1549 74.6504 50.0654 74.3089 50.0653C73.9674 50.0654 73.6321 50.1549 73.337 50.3245L58.8896 58.5554V52.8561L58.8894 52.8463C58.8894 52.7906 58.9162 52.7382 58.9612 52.7048L70.9236 45.8957C72.6156 44.9332 74.5344 44.4265 76.4875 44.4264C82.6382 44.4264 87.6262 49.348 87.6262 55.4168C87.6259 56.0396 87.5721 56.6612 87.4656 57.2751V57.2757ZM56.1703 67.4337L51.1676 64.5841C51.1414 64.5712 51.1187 64.5521 51.1018 64.5285C51.0848 64.5049 51.074 64.4775 51.0703 64.4488V50.8169C51.073 44.7513 56.061 39.8339 62.209 39.8339C64.8128 39.8344 67.3343 40.7344 69.3359 42.3778C69.2458 42.4263 69.0888 42.5118 68.9844 42.5743L57.1511 49.3185C56.8558 49.4842 56.6103 49.7242 56.4395 50.0139C56.2687 50.3036 56.1787 50.6328 56.1786 50.968V50.9788L56.1703 67.4337ZM58.8873 61.6537L65.3219 57.9867L71.7564 61.6513V68.9828L65.3219 72.6476L58.8873 68.9828V61.6537Z" fill="url(#paint0_linear_6576_1833)"/>
<defs>
<linearGradient id="paint0_linear_6576_1833" x1="35.9999" y1="35.9999" x2="94.64" y2="35.9999" gradientUnits="userSpaceOnUse">
<stop stop-color="#5300BD"/>
<stop offset="1" stop-color="#EB00FF"/>
</linearGradient>
</defs>
</svg>
