<svg width="69" height="69" viewBox="0 0 69 69" fill="none" xmlns="http://www.w3.org/2000/svg">
<rect opacity="0.1" width="69" height="69" rx="5" fill="#0052F2"/>
<path fill-rule="evenodd" clip-rule="evenodd" d="M29.6948 20.5102C29.6948 19.1239 30.8187 18 32.205 18H37.2254C38.6118 18 39.7356 19.1239 39.7356 20.5102V22.2582C41.3245 22.8577 42.7778 23.7334 44.037 24.8268L45.6534 23.9187C46.8621 23.2397 48.3924 23.669 49.0714 24.8777L51.5304 29.2547C52.2094 30.4634 51.78 31.9937 50.5713 32.6727L48.8125 33.6608C48.8964 34.2857 48.9397 34.9235 48.9397 35.5714C48.9397 36.1908 48.9001 36.801 48.8233 37.3995L50.5266 38.3566C51.7352 39.0358 52.1644 40.5662 51.4852 41.7747L51.2095 42.2653H41.8199C39.594 42.2653 37.6361 43.7368 37.0171 45.875L35.3098 51.773C35.2583 51.9509 35.2171 52.1288 35.1858 52.3061H32.205C30.8187 52.3061 29.6948 51.1823 29.6948 49.7959V48.8846C28.2542 48.3411 26.9251 47.5705 25.751 46.6164L24.1991 47.4882C22.9904 48.1673 21.4601 47.7379 20.7811 46.5292L18.3222 42.1522C17.6431 40.9436 18.0725 39.4133 19.2812 38.7343L20.6877 37.9441C20.5582 37.1725 20.4907 36.3798 20.4907 35.5714C20.4907 34.7333 20.5632 33.9121 20.7023 33.1138L19.2816 32.3154C18.073 31.6362 17.6438 30.1059 18.323 28.8973L20.7826 24.5206C21.4617 23.312 22.9921 22.8829 24.2007 23.5621L25.819 24.4715C26.9763 23.5428 28.282 22.7913 29.6948 22.2582V20.5102ZM34.7152 40.5918C37.4879 40.5918 39.7356 38.3441 39.7356 35.5714C39.7356 32.7987 37.4879 30.551 34.7152 30.551C31.9425 30.551 29.6948 32.7987 29.6948 35.5714C29.6948 38.3441 31.9425 40.5918 34.7152 40.5918Z" fill="url(#paint0_linear_539_1356)"/>
<path d="M44.1867 52.404H40.8507L40.2987 54H38.5347L41.5467 45.612H43.5027L46.5147 54H44.7387L44.1867 52.404ZM43.7307 51.06L42.5187 47.556L41.3067 51.06H43.7307ZM53.7485 48.216C53.7485 48.664 53.6405 49.084 53.4245 49.476C53.2165 49.868 52.8845 50.184 52.4285 50.424C51.9805 50.664 51.4125 50.784 50.7245 50.784H49.3205V54H47.6405V45.624H50.7245C51.3725 45.624 51.9245 45.736 52.3805 45.96C52.8365 46.184 53.1765 46.492 53.4005 46.884C53.6325 47.276 53.7485 47.72 53.7485 48.216ZM50.6525 49.428C51.1165 49.428 51.4605 49.324 51.6845 49.116C51.9085 48.9 52.0205 48.6 52.0205 48.216C52.0205 47.4 51.5645 46.992 50.6525 46.992H49.3205V49.428H50.6525ZM56.6213 45.624V54H54.9413V45.624H56.6213Z" fill="url(#paint1_linear_539_1356)"/>
<defs>
<linearGradient id="paint0_linear_539_1356" x1="14.9296" y1="25.0294" x2="55.895" y2="25.7375" gradientUnits="userSpaceOnUse">
<stop offset="0.15625" stop-color="#0049D8"/>
<stop offset="1" stop-color="#00A3FF"/>
</linearGradient>
<linearGradient id="paint1_linear_539_1356" x1="36.1366" y1="44.6882" x2="63.9636" y2="45.3111" gradientUnits="userSpaceOnUse">
<stop offset="0.15625" stop-color="#0049D8"/>
<stop offset="1" stop-color="#00A3FF"/>
</linearGradient>
</defs>
</svg>
