<svg width="93" height="94" viewBox="0 0 93 94" fill="none" xmlns="http://www.w3.org/2000/svg">
<rect x="0.358398" y="0.898438" width="92.383" height="92.383" fill="white"/>
<path d="M63.1188 31.318C58.4963 28.6819 56.6822 31.2615 56.3526 32.8944C56.2776 33.1805 56.7012 33.4899 57.6994 34.0176C58.4888 34.435 59.3297 34.8258 60.2224 34.8052C62.2762 34.7576 63.1541 33.0225 63.3797 31.8651C63.4062 31.7293 63.3894 31.6117 63.3106 31.4981C63.2654 31.4328 63.1877 31.3573 63.1188 31.318Z" fill="url(#paint0_linear_1740_639)"/>
<path d="M69.9825 46.4472C68.0377 41.494 65.0065 42.364 63.7251 43.4285C63.4872 43.6042 63.6229 44.111 64.0689 45.1483C64.4216 45.9685 64.8311 46.8006 65.539 47.3446C67.168 48.5965 68.9403 47.7965 69.8423 47.0369C69.9481 46.9478 70.0088 46.8457 70.0188 46.7078C70.0246 46.6287 70.0115 46.521 69.9825 46.4472Z" fill="url(#paint1_linear_1740_639)"/>
<path d="M67.512 58.1634C68.2197 52.8894 65.1477 52.1764 63.5105 52.4841C63.2172 52.522 63.0895 53.0308 62.9752 54.1541C62.8847 55.0424 62.8382 55.9685 63.1925 56.7881C64.0077 58.6739 65.9454 58.836 67.1029 58.6106C67.2387 58.5842 67.3414 58.5245 67.4171 58.4088C67.4606 58.3424 67.5015 58.242 67.512 58.1634Z" fill="url(#paint2_linear_1740_639)"/>
<path d="M54.3464 69.6735C59.033 67.1531 57.8084 64.2469 56.5989 63.1013C56.3962 62.8861 55.9092 63.081 54.9323 63.6473C54.1599 64.0952 53.3825 64.6007 52.9265 65.3684C51.8774 67.1348 52.8827 68.7993 53.7442 69.6045C53.8453 69.6989 53.9539 69.7471 54.092 69.7406C54.1712 69.7369 54.2765 69.7111 54.3464 69.6735Z" fill="url(#paint3_linear_1740_639)"/>
<path d="M57.613 68.3878C62.2472 65.7724 64.0498 68.3601 64.3721 69.9945C64.4458 70.2809 64.0208 70.5885 63.0202 71.1117C62.2289 71.5255 61.3863 71.9126 60.4937 71.8879C58.4401 71.8311 57.5701 70.0922 57.3496 68.9337C57.3238 68.7978 57.3411 68.6803 57.4203 68.567C57.4658 68.502 57.5439 68.4268 57.613 68.3878Z" fill="url(#paint4_linear_1740_639)"/>
<path d="M64.5728 61.7811C68.4888 58.1782 70.8338 60.2868 71.5202 61.8047C71.6572 62.0668 71.3135 62.4631 70.4586 63.2007C69.7825 63.7839 69.0503 64.3529 68.1756 64.5324C66.1631 64.9452 64.9195 63.4504 64.4408 62.3726C64.3847 62.2463 64.3747 62.1279 64.4261 61.9995C64.4555 61.9258 64.5144 61.8348 64.5728 61.7811Z" fill="url(#paint5_linear_1740_639)"/>
<path d="M68.7068 54.5284C70.5975 49.5544 73.638 50.3913 74.9309 51.4418C75.1707 51.6149 75.0406 52.1231 74.6059 53.1652C74.2621 53.9893 73.8618 54.8257 73.1597 55.3775C71.5445 56.647 69.7636 55.8663 68.8534 55.1166C68.7466 55.0287 68.6848 54.9272 68.6733 54.7894C68.6667 54.7104 68.6786 54.6026 68.7068 54.5284Z" fill="url(#paint6_linear_1740_639)"/>
<path d="M69.7645 44.5579C69.5636 39.2404 72.6897 38.8241 74.29 39.2866C74.5783 39.3524 74.6569 39.8711 74.6635 41.0002C74.6686 41.893 74.6265 42.8194 74.1956 43.6014C73.204 45.4007 71.2597 45.3771 70.129 45.0421C69.9964 45.0028 69.8999 44.9336 69.8355 44.8112C69.7985 44.741 69.7674 44.6372 69.7645 44.5579Z" fill="url(#paint7_linear_1740_639)"/>
<path d="M66.1294 34.3966C65.9285 29.0791 69.0546 28.6628 70.6549 29.1254C70.9432 29.1911 71.0218 29.7098 71.0284 30.8389C71.0335 31.7318 70.9914 32.6581 70.5605 33.4402C69.5689 35.2394 67.6246 35.2158 66.4939 34.8809C66.3613 34.8416 66.2648 34.7724 66.2004 34.65C66.1634 34.5798 66.1324 34.4759 66.1294 34.3966Z" fill="url(#paint8_linear_1740_639)"/>
<path d="M59.9768 27.7013C59.7759 22.3838 62.902 21.9675 64.5024 22.4301C64.7907 22.4958 64.8693 23.0145 64.8758 24.1436C64.881 25.0365 64.8389 25.9628 64.4079 26.7449C63.4163 28.5441 61.472 28.5205 60.3413 28.1856C60.2087 28.1463 60.1122 28.0771 60.0478 27.9547C60.0109 27.8845 59.9798 27.7806 59.9768 27.7013Z" fill="url(#paint9_linear_1740_639)"/>
<path d="M29.9808 31.318C34.6033 28.6819 36.4175 31.2615 36.747 32.8944C36.822 33.1805 36.3984 33.4899 35.4002 34.0176C34.6108 34.435 33.7699 34.8258 32.8772 34.8052C30.8234 34.7576 29.9456 33.0225 29.7199 31.8651C29.6935 31.7293 29.7102 31.6117 29.789 31.4981C29.8342 31.4328 29.9119 31.3573 29.9808 31.318Z" fill="url(#paint10_linear_1740_639)"/>
<path d="M23.1171 46.4472C25.0619 41.494 28.0932 42.364 29.3745 43.4285C29.6124 43.6042 29.4767 44.111 29.0307 45.1483C28.678 45.9685 28.2686 46.8006 27.5606 47.3446C25.9316 48.5965 24.1593 47.7965 23.2573 47.0369C23.1515 46.9478 23.0908 46.8457 23.0808 46.7078C23.075 46.6287 23.0881 46.521 23.1171 46.4472Z" fill="url(#paint11_linear_1740_639)"/>
<path d="M25.5876 58.1634C24.8799 52.8894 27.9519 52.1764 29.5891 52.4841C29.8824 52.522 30.0101 53.0308 30.1245 54.1541C30.2149 55.0424 30.2614 55.9685 29.9071 56.7881C29.0919 58.6739 27.1542 58.836 25.9967 58.6106C25.8609 58.5842 25.7582 58.5245 25.6825 58.4088C25.639 58.3424 25.5981 58.242 25.5876 58.1634Z" fill="url(#paint12_linear_1740_639)"/>
<path d="M38.7532 69.6735C34.0667 67.1531 35.2912 64.2469 36.5007 63.1013C36.7034 62.8861 37.1904 63.081 38.1673 63.6473C38.9398 64.0952 39.7171 64.6007 40.1731 65.3684C41.2222 67.1348 40.2169 68.7993 39.3554 69.6045C39.2543 69.6989 39.1458 69.7471 39.0076 69.7406C38.9284 69.7369 38.8231 69.7111 38.7532 69.6735Z" fill="url(#paint13_linear_1740_639)"/>
<path d="M35.4866 68.3878C30.8524 65.7724 29.0498 68.3601 28.7276 69.9945C28.6539 70.2809 29.0789 70.5885 30.0794 71.1117C30.8707 71.5255 31.7133 71.9126 32.6059 71.8879C34.6595 71.8311 35.5295 70.0922 35.75 68.9337C35.7758 68.7978 35.7585 68.6803 35.6793 68.567C35.6338 68.502 35.5557 68.4268 35.4866 68.3878Z" fill="url(#paint14_linear_1740_639)"/>
<path d="M28.5268 61.7811C24.6108 58.1782 22.2658 60.2868 21.5794 61.8047C21.4424 62.0668 21.7861 62.4631 22.6411 63.2007C23.3171 63.7839 24.0494 64.3529 24.924 64.5324C26.9365 64.9452 28.1801 63.4504 28.6588 62.3726C28.7149 62.2463 28.7249 62.1279 28.6735 61.9995C28.6441 61.9258 28.5852 61.8348 28.5268 61.7811Z" fill="url(#paint15_linear_1740_639)"/>
<path d="M24.3928 54.5284C22.5021 49.5544 19.4616 50.3913 18.1687 51.4418C17.9289 51.6149 18.059 52.1231 18.4937 53.1652C18.8375 53.9893 19.2379 54.8257 19.9399 55.3775C21.5551 56.647 23.336 55.8663 24.2462 55.1166C24.353 55.0287 24.4148 54.9272 24.4263 54.7894C24.4329 54.7104 24.421 54.6026 24.3928 54.5284Z" fill="url(#paint16_linear_1740_639)"/>
<path d="M23.3352 44.5579C23.536 39.2404 20.4099 38.8241 18.8096 39.2866C18.5213 39.3524 18.4427 39.8711 18.4361 41.0002C18.431 41.893 18.4731 42.8194 18.904 43.6014C19.8956 45.4007 21.8399 45.3771 22.9706 45.0421C23.1032 45.0028 23.1997 44.9336 23.2641 44.8112C23.3011 44.741 23.3322 44.6372 23.3352 44.5579Z" fill="url(#paint17_linear_1740_639)"/>
<path d="M26.9703 34.3966C27.1711 29.0791 24.045 28.6628 22.4447 29.1254C22.1564 29.1911 22.0778 29.7098 22.0712 30.8389C22.0661 31.7318 22.1082 32.6581 22.5391 33.4402C23.5307 35.2394 25.475 35.2158 26.6057 34.8809C26.7383 34.8416 26.8348 34.7724 26.8992 34.65C26.9362 34.5798 26.9673 34.4759 26.9703 34.3966Z" fill="url(#paint18_linear_1740_639)"/>
<path d="M33.1228 27.7013C33.3237 22.3838 30.1976 21.9675 28.5973 22.4301C28.309 22.4958 28.2304 23.0145 28.2238 24.1436C28.2186 25.0365 28.2608 25.9628 28.6917 26.7449C29.6833 28.5441 31.6276 28.5205 32.7583 28.1856C32.8909 28.1463 32.9874 28.0771 33.0518 27.9547C33.0888 27.8845 33.1198 27.7806 33.1228 27.7013Z" fill="url(#paint19_linear_1740_639)"/>
<path d="M45.5973 35.6071C45.9153 34.6281 47.3004 34.6281 47.6185 35.6071L49.7144 42.0578C49.8567 42.4956 50.2647 42.7921 50.725 42.7921H57.5077C58.537 42.7921 58.965 44.1093 58.1323 44.7144L52.645 48.7011C52.2726 48.9717 52.1167 49.4513 52.259 49.8891L54.3549 56.3398C54.673 57.3188 53.5525 58.1329 52.7197 57.5279L47.2324 53.5411C46.86 53.2705 46.3557 53.2705 45.9833 53.5411L40.496 57.5278C39.6632 58.1329 38.5427 57.3188 38.8608 56.3398L40.9568 49.8891C41.099 49.4513 40.9432 48.9717 40.5707 48.7011L35.0835 44.7144C34.2507 44.1093 34.6787 42.7921 35.708 42.7921H42.4907C42.951 42.7921 43.359 42.4956 43.5013 42.0578L45.5973 35.6071Z" fill="url(#paint20_linear_1740_639)"/>
<path d="M45.197 35.6053C45.5151 34.6263 46.9001 34.6263 47.2182 35.6053L48.3787 39.1769L46.8835 43.7786C46.7413 44.2164 46.3333 44.5129 45.8729 44.5129H39.0903C38.0609 44.5129 37.6329 45.8301 38.4657 46.4352L43.953 50.4219C44.3254 50.6925 44.4812 51.1721 44.339 51.6099L43.1339 55.3187L40.0958 57.5261C39.263 58.1311 38.1425 57.317 38.4606 56.338L40.5565 49.8873C40.6988 49.4495 40.5429 48.9699 40.1705 48.6993L34.6832 44.7126C33.8504 44.1075 34.2784 42.7903 35.3078 42.7903H42.0905C42.5508 42.7903 42.9588 42.4938 43.1011 42.056L45.197 35.6053Z" fill="url(#paint21_linear_1740_639)"/>
<path d="M38.3311 25.8867C19.3005 32.6032 16.4458 62.1009 39.6773 69.7319C44.2479 71.2332 49.2751 71.4005 53.8366 69.8718C73.6735 63.2238 76.8141 35.5593 54.8982 25.8867" stroke="url(#paint22_linear_1740_639)" stroke-width="2" stroke-linecap="round"/>
<defs>
<linearGradient id="paint0_linear_1740_639" x1="18.0498" y1="22.2891" x2="75.0498" y2="22.2891" gradientUnits="userSpaceOnUse">
<stop offset="0.145833" stop-color="#0049D8"/>
<stop offset="1" stop-color="#00A3FF"/>
</linearGradient>
<linearGradient id="paint1_linear_1740_639" x1="18.0498" y1="22.2891" x2="75.0498" y2="22.2891" gradientUnits="userSpaceOnUse">
<stop offset="0.145833" stop-color="#0049D8"/>
<stop offset="1" stop-color="#00A3FF"/>
</linearGradient>
<linearGradient id="paint2_linear_1740_639" x1="18.0498" y1="22.2891" x2="75.0498" y2="22.2891" gradientUnits="userSpaceOnUse">
<stop offset="0.145833" stop-color="#0049D8"/>
<stop offset="1" stop-color="#00A3FF"/>
</linearGradient>
<linearGradient id="paint3_linear_1740_639" x1="18.0498" y1="22.2891" x2="75.0498" y2="22.2891" gradientUnits="userSpaceOnUse">
<stop offset="0.145833" stop-color="#0049D8"/>
<stop offset="1" stop-color="#00A3FF"/>
</linearGradient>
<linearGradient id="paint4_linear_1740_639" x1="18.0498" y1="22.2891" x2="75.0498" y2="22.2891" gradientUnits="userSpaceOnUse">
<stop offset="0.145833" stop-color="#0049D8"/>
<stop offset="1" stop-color="#00A3FF"/>
</linearGradient>
<linearGradient id="paint5_linear_1740_639" x1="18.0498" y1="22.2891" x2="75.0498" y2="22.2891" gradientUnits="userSpaceOnUse">
<stop offset="0.145833" stop-color="#0049D8"/>
<stop offset="1" stop-color="#00A3FF"/>
</linearGradient>
<linearGradient id="paint6_linear_1740_639" x1="18.0498" y1="22.2891" x2="75.0498" y2="22.2891" gradientUnits="userSpaceOnUse">
<stop offset="0.145833" stop-color="#0049D8"/>
<stop offset="1" stop-color="#00A3FF"/>
</linearGradient>
<linearGradient id="paint7_linear_1740_639" x1="18.0498" y1="22.2891" x2="75.0498" y2="22.2891" gradientUnits="userSpaceOnUse">
<stop offset="0.145833" stop-color="#0049D8"/>
<stop offset="1" stop-color="#00A3FF"/>
</linearGradient>
<linearGradient id="paint8_linear_1740_639" x1="18.0498" y1="22.2891" x2="75.0498" y2="22.2891" gradientUnits="userSpaceOnUse">
<stop offset="0.145833" stop-color="#0049D8"/>
<stop offset="1" stop-color="#00A3FF"/>
</linearGradient>
<linearGradient id="paint9_linear_1740_639" x1="18.0498" y1="22.2891" x2="75.0498" y2="22.2891" gradientUnits="userSpaceOnUse">
<stop offset="0.145833" stop-color="#0049D8"/>
<stop offset="1" stop-color="#00A3FF"/>
</linearGradient>
<linearGradient id="paint10_linear_1740_639" x1="18.0498" y1="22.2891" x2="75.0498" y2="22.2891" gradientUnits="userSpaceOnUse">
<stop offset="0.145833" stop-color="#0049D8"/>
<stop offset="1" stop-color="#00A3FF"/>
</linearGradient>
<linearGradient id="paint11_linear_1740_639" x1="18.0498" y1="22.2891" x2="75.0498" y2="22.2891" gradientUnits="userSpaceOnUse">
<stop offset="0.145833" stop-color="#0049D8"/>
<stop offset="1" stop-color="#00A3FF"/>
</linearGradient>
<linearGradient id="paint12_linear_1740_639" x1="18.0498" y1="22.2891" x2="75.0498" y2="22.2891" gradientUnits="userSpaceOnUse">
<stop offset="0.145833" stop-color="#0049D8"/>
<stop offset="1" stop-color="#00A3FF"/>
</linearGradient>
<linearGradient id="paint13_linear_1740_639" x1="18.0498" y1="22.2891" x2="75.0498" y2="22.2891" gradientUnits="userSpaceOnUse">
<stop offset="0.145833" stop-color="#0049D8"/>
<stop offset="1" stop-color="#00A3FF"/>
</linearGradient>
<linearGradient id="paint14_linear_1740_639" x1="18.0498" y1="22.2891" x2="75.0498" y2="22.2891" gradientUnits="userSpaceOnUse">
<stop offset="0.145833" stop-color="#0049D8"/>
<stop offset="1" stop-color="#00A3FF"/>
</linearGradient>
<linearGradient id="paint15_linear_1740_639" x1="18.0498" y1="22.2891" x2="75.0498" y2="22.2891" gradientUnits="userSpaceOnUse">
<stop offset="0.145833" stop-color="#0049D8"/>
<stop offset="1" stop-color="#00A3FF"/>
</linearGradient>
<linearGradient id="paint16_linear_1740_639" x1="18.0498" y1="22.2891" x2="75.0498" y2="22.2891" gradientUnits="userSpaceOnUse">
<stop offset="0.145833" stop-color="#0049D8"/>
<stop offset="1" stop-color="#00A3FF"/>
</linearGradient>
<linearGradient id="paint17_linear_1740_639" x1="18.0498" y1="22.2891" x2="75.0498" y2="22.2891" gradientUnits="userSpaceOnUse">
<stop offset="0.145833" stop-color="#0049D8"/>
<stop offset="1" stop-color="#00A3FF"/>
</linearGradient>
<linearGradient id="paint18_linear_1740_639" x1="18.0498" y1="22.2891" x2="75.0498" y2="22.2891" gradientUnits="userSpaceOnUse">
<stop offset="0.145833" stop-color="#0049D8"/>
<stop offset="1" stop-color="#00A3FF"/>
</linearGradient>
<linearGradient id="paint19_linear_1740_639" x1="18.0498" y1="22.2891" x2="75.0498" y2="22.2891" gradientUnits="userSpaceOnUse">
<stop offset="0.145833" stop-color="#0049D8"/>
<stop offset="1" stop-color="#00A3FF"/>
</linearGradient>
<linearGradient id="paint20_linear_1740_639" x1="34.2432" y1="34.8711" x2="58.5723" y2="34.8711" gradientUnits="userSpaceOnUse">
<stop offset="0.145833" stop-color="#0049D8"/>
<stop offset="1" stop-color="#00A3FF"/>
</linearGradient>
<linearGradient id="paint21_linear_1740_639" x1="34.2432" y1="34.8711" x2="58.5723" y2="34.8711" gradientUnits="userSpaceOnUse">
<stop offset="0.145833" stop-color="#0049D8"/>
<stop offset="1" stop-color="#00A3FF"/>
</linearGradient>
<linearGradient id="paint22_linear_1740_639" x1="23.1509" y1="25.8867" x2="70.0642" y2="25.8867" gradientUnits="userSpaceOnUse">
<stop offset="0.145833" stop-color="#0049D8"/>
<stop offset="1" stop-color="#00A3FF"/>
</linearGradient>
</defs>
</svg>
