<svg width="25" height="26" viewBox="0 0 25 26" fill="none" xmlns="http://www.w3.org/2000/svg">
<path d="M22.0628 17.7377L18.6291 17.3342C17.8045 17.2367 16.9934 17.529 16.4121 18.1274L13.9247 20.6881C10.099 18.6841 6.9627 15.4693 5.01605 11.5169L7.51696 8.94222C8.09825 8.34379 8.38214 7.50877 8.28751 6.65984L7.89548 3.15276C7.73325 1.74714 6.58419 0.689453 5.20531 0.689453H2.86661C1.33903 0.689453 0.0682958 1.99765 0.162925 3.57027C0.879403 15.4554 10.1125 24.9467 21.6437 25.6843C23.1713 25.7818 24.4421 24.4736 24.4421 22.9009V20.4933C24.4556 19.0877 23.4282 17.9048 22.0628 17.7377Z" fill="url(#paint0_linear_516_176)"/>
<defs>
<linearGradient id="paint0_linear_516_176" x1="0.157959" y1="0.689453" x2="24.4422" y2="0.689453" gradientUnits="userSpaceOnUse">
<stop offset="0.145833" stop-color="#0049D8"/>
<stop offset="1" stop-color="#00A3FF"/>
</linearGradient>
</defs>
</svg>
