<svg width="26" height="26" viewBox="0 0 26 26" fill="none" xmlns="http://www.w3.org/2000/svg">
<path d="M22.6485 17.1785L19.2148 16.775C18.3902 16.6775 17.5791 16.9698 16.9978 17.5682L14.5104 20.1289C10.6847 18.1249 7.5484 14.9101 5.60174 10.9577L8.10265 8.38302C8.68395 7.78459 8.96783 6.94957 8.8732 6.10063L8.48117 2.59355C8.31895 1.18794 7.16988 0.130249 5.791 0.130249H3.45231C1.92472 0.130249 0.653989 1.43844 0.748618 3.01106C1.4651 14.8962 10.6982 24.3875 22.2294 25.1251C23.757 25.2226 25.0277 23.9144 25.0277 22.3417V19.9341C25.0413 18.5285 24.0139 17.3455 22.6485 17.1785Z" fill="url(#paint0_linear_1211_575)"/>
<defs>
<linearGradient id="paint0_linear_1211_575" x1="0.743652" y1="12.6303" x2="25.0279" y2="12.6303" gradientUnits="userSpaceOnUse">
<stop offset="0.154706" stop-color="#00A3FF"/>
<stop offset="1" stop-color="#00FF38"/>
</linearGradient>
</defs>
</svg>
