<svg width="26" height="26" viewBox="0 0 26 26" fill="none" xmlns="http://www.w3.org/2000/svg">
<path d="M22.6646 17.1785L19.2309 16.775C18.4063 16.6775 17.5952 16.9698 17.0139 17.5682L14.5265 20.1289C10.7008 18.1249 7.56451 14.9101 5.61785 10.9577L8.11877 8.38302C8.70006 7.78459 8.98395 6.94957 8.88932 6.10063L8.49728 2.59355C8.33506 1.18794 7.18599 0.130249 5.80711 0.130249H3.46842C1.94084 0.130249 0.670102 1.43844 0.764732 3.01106C1.48121 14.8962 10.7143 24.3875 22.2455 25.1251C23.7731 25.2226 25.0439 23.9144 25.0439 22.3417V19.9341C25.0574 18.5285 24.03 17.3455 22.6646 17.1785Z" fill="url(#paint0_linear_1201_448)"/>
<defs>
<linearGradient id="paint0_linear_1201_448" x1="0.759766" y1="12.6303" x2="25.044" y2="12.6303" gradientUnits="userSpaceOnUse">
<stop stop-color="#FF3087"/>
<stop offset="1" stop-color="#FFC42E"/>
</linearGradient>
</defs>
</svg>
