<svg width="337" height="408" viewBox="0 0 337 408" fill="none" xmlns="http://www.w3.org/2000/svg">
<path d="M80.9155 155.723L81.2123 155.69C81.9218 155.526 82.3649 154.818 82.2014 154.109L69.3387 98.2648C69.1751 97.5553 68.4749 97.1161 67.7574 97.2757C67.0479 97.4392 66.6047 98.1474 66.7683 98.857L79.6309 154.701C79.7707 155.31 80.3155 155.723 80.9155 155.723Z" fill="#5F92D3"/>
<path d="M98.0112 151.786L98.308 151.753C99.0175 151.589 99.4606 150.881 99.2971 150.171L86.4344 94.3274C86.2708 93.6178 85.5679 93.18 84.8531 93.3383C84.1436 93.5018 83.7004 94.21 83.864 94.9195L96.7266 150.763C96.8664 151.374 97.4098 151.786 98.0112 151.786Z" fill="#5F92D3"/>
<path d="M115.106 147.847L115.404 147.814C116.113 147.651 116.556 146.942 116.393 146.233L103.53 90.3891C103.367 89.6808 102.664 89.2404 101.949 89.3999C101.239 89.5635 100.796 90.2717 100.96 90.9812L113.822 146.825C113.962 147.434 114.506 147.847 115.106 147.847Z" fill="#5F92D3"/>
<path d="M105.332 120.221L112.217 118.608L108.735 103.751L101.851 105.366L105.332 120.221Z" fill="#5F92D3"/>
<path d="M106.671 121.391C108.197 121.851 110.376 121.341 111.538 120.249C112.701 119.158 112.407 117.9 110.88 117.44C109.354 116.978 107.175 117.489 106.012 118.579C104.85 119.671 105.145 120.929 106.671 121.391Z" fill="#5F92D3"/>
<path d="M100.327 108.461L111.481 105.846L106.021 82.5468L94.8653 85.1608L100.327 108.461Z" fill="#5F92D3"/>
<path d="M109.307 106.195L110.484 111.223C108.682 112.62 105.838 113.287 103.601 112.837L102.422 107.81C104.226 106.413 107.071 105.747 109.307 106.195Z" fill="#4067B1"/>
<path d="M102.491 110.355C104.965 111.103 108.497 110.274 110.379 108.507C112.264 106.739 111.786 104.7 109.312 103.952C106.839 103.205 103.307 104.032 101.424 105.801C99.5409 107.569 100.018 109.608 102.491 110.355Z" fill="#5F92D3"/>
<path d="M109.436 117.859C109.606 118.587 110.186 118.763 110.732 118.251C111.277 117.739 111.582 116.733 111.41 116.005C111.24 115.277 110.658 115.102 110.114 115.613C109.568 116.125 109.266 117.131 109.436 117.859Z" fill="#D9EFFB"/>
<path d="M89.4812 129.661L96.3643 128.047L92.8825 113.192L85.9981 114.805L89.4812 129.661Z" fill="#5F92D3"/>
<path d="M90.8184 130.83C92.3457 131.29 94.5244 130.78 95.6876 129.689C96.8495 128.597 96.5541 127.339 95.0282 126.879C93.5023 126.417 91.3222 126.927 90.1603 128.019C88.9984 129.11 89.2925 130.368 90.8184 130.83Z" fill="#5F92D3"/>
<path d="M84.4709 117.901L95.627 115.286L90.1643 91.9858L79.0095 94.6011L84.4709 117.901Z" fill="#5F92D3"/>
<path d="M93.4577 115.636L94.6367 120.663C92.8325 122.059 89.9891 122.726 87.7523 122.276L86.5746 117.249C88.3775 115.852 91.2209 115.186 93.4577 115.636Z" fill="#4067B1"/>
<path d="M86.6387 119.795C89.1116 120.543 92.6434 119.715 94.528 117.946C96.4114 116.178 95.9326 114.139 93.4598 113.392C90.9869 112.645 87.4564 113.473 85.5717 115.241C83.6884 117.009 84.1659 119.049 86.6387 119.795Z" fill="#5F92D3"/>
<path d="M93.5832 127.298C93.7534 128.026 94.3337 128.202 94.8784 127.69C95.4257 127.178 95.729 126.173 95.5576 125.444C95.3861 124.717 94.8071 124.541 94.2611 125.052C93.7165 125.565 93.4118 126.57 93.5832 127.298Z" fill="#D9EFFB"/>
<path d="M73.4503 139.028L80.3359 137.415L76.8542 122.558L69.9698 124.173L73.4503 139.028Z" fill="#5F92D3"/>
<path d="M74.7887 140.196C76.3146 140.658 78.4947 140.148 79.6579 139.056C80.8185 137.965 80.5244 136.707 78.9985 136.245C77.4712 135.785 75.2925 136.295 74.1306 137.387C72.9674 138.478 73.2628 139.736 74.7887 140.196Z" fill="#5F92D3"/>
<path d="M68.4406 127.267L79.5967 124.653L74.134 101.352L62.9792 103.967L68.4406 127.267Z" fill="#5F92D3"/>
<path d="M77.4245 125.002L78.6035 130.029C76.798 131.426 73.9546 132.093 71.7191 131.644L70.5401 126.616C72.3443 125.219 75.1877 124.553 77.4245 125.002Z" fill="#4067B1"/>
<path d="M70.609 129.163C73.0819 129.91 76.6137 129.081 78.4983 127.313C80.3803 125.546 79.9029 123.507 77.4301 122.759C74.9572 122.012 71.424 122.839 69.542 124.608C67.6587 126.377 68.1362 128.415 70.609 129.163Z" fill="#5F92D3"/>
<path d="M77.5536 136.666C77.7237 137.394 78.304 137.569 78.8487 137.057C79.3947 136.544 79.698 135.539 79.5279 134.811C79.3565 134.083 78.7775 133.908 78.2302 134.42C77.6855 134.931 77.3821 135.936 77.5536 136.666Z" fill="#D9EFFB"/>
<path d="M173.532 407.695C176.283 407.695 178.909 407.14 180.873 406.007L334.046 317.572C338.378 315.07 337.835 310.699 332.831 307.811L228.532 247.613C225.795 246.033 222.291 245.224 218.969 245.224C216.216 245.224 213.589 245.779 211.627 246.913L58.4536 335.347C54.1198 337.849 54.6632 342.218 59.6669 345.108L163.966 405.304C166.704 406.885 170.209 407.695 173.532 407.695Z" fill="#E4EFF6"/>
<path d="M22.5774 178.687L175.752 90.2528C177.53 89.2255 179.339 89.0672 180.942 89.6158L180.934 89.6L181.211 89.7055L181.278 89.7306L186.815 91.8487L181.846 94.2819L181.918 94.5523L206.868 208.121C208.115 213.804 205.615 220.44 201.281 222.942L51.7925 309.25L52.3253 315.583L46.2758 313.239C44.2434 312.288 42.616 310.139 41.9434 307.076L16.9935 193.508C15.7458 187.825 18.245 181.189 22.5774 178.687Z" fill="#263C7A"/>
<path d="M22.5791 178.687L175.754 90.253C177.532 89.2256 179.341 89.0674 180.943 89.616L180.935 89.6002L181.212 89.7057L181.28 89.7308L186.816 91.8488L181.848 94.2821L181.919 94.5525L198.361 169.401L123.417 227.791L17.7416 184.79C18.7584 182.159 20.4439 179.92 22.5791 178.687Z" fill="#4067B1"/>
<path d="M28.3549 196.144L16.6937 191.18C16.48 186.664 18.3502 182 21.4178 179.504L39.875 187.268L28.3549 196.144Z" fill="#2E4B8D"/>
<path d="M57.647 314.982L210.82 226.548C215.154 224.046 217.653 217.41 216.406 211.727L191.456 98.1587C190.208 92.4745 185.682 89.8962 181.349 92.398L28.1761 180.832C23.8423 183.334 21.3431 189.969 22.5907 195.653L47.5407 309.221C48.7883 314.906 53.3132 317.485 57.647 314.982Z" fill="#D9EFFB"/>
<path d="M60.9673 306.534L205.023 223.404C208.988 221.114 211.276 215.042 210.134 209.842L187.303 105.917C186.16 100.717 182.02 98.356 178.056 100.646L33.9982 183.775C30.0337 186.064 27.7442 192.136 28.8877 197.338L51.7182 301.263C52.8603 306.463 57.0015 308.824 60.9673 306.534Z" fill="white"/>
<path d="M60.9673 306.534L205.023 223.404C208.988 221.114 211.276 215.042 210.134 209.842L187.303 105.917C186.16 100.717 182.02 98.356 178.056 100.646L33.9982 183.775C30.0337 186.064 27.7442 192.136 28.8877 197.338L51.7182 301.263C52.8603 306.463 57.0015 308.824 60.9673 306.534Z" fill="white"/>
<path d="M55.5325 318.832L76.4705 316.068L211.627 238.035C215.96 235.534 223.528 235.847 228.532 238.736L324.304 294.01L336.965 292.338V299.522L336.952 299.523C337.035 301.184 336.09 302.779 334.046 303.961L180.873 392.395C176.539 394.897 168.97 394.584 163.967 391.694L59.6671 331.497C56.8527 329.872 55.4494 327.778 55.5325 325.812V318.832Z" fill="#263C7A"/>
<path d="M157.085 269.525L166.687 263.982H272.26L324.304 294.011L336.965 292.339V299.522L336.952 299.524C337.035 301.184 336.09 302.78 334.046 303.961L180.873 392.395C178.582 393.717 175.388 394.246 172.147 394.031L157.085 269.525Z" fill="#4067B1"/>
<path d="M180.873 385.22L334.046 296.785C338.378 294.283 337.835 289.914 332.831 287.026L228.532 226.827C223.528 223.939 215.959 223.625 211.627 226.127L58.4536 314.562C54.1198 317.064 54.6632 321.433 59.6669 324.321L163.966 384.52C168.97 387.408 176.539 387.721 180.873 385.22Z" fill="#D9EFFB"/>
<path d="M59.6682 321.698L163.968 381.896C168.971 384.784 176.54 385.097 180.874 382.597L334.047 294.162C335.468 293.342 336.354 292.32 336.74 291.216C337.418 293.264 336.554 295.338 334.047 296.785L180.874 385.22C176.54 387.721 168.971 387.408 163.968 384.52L59.6682 324.321C56.3051 322.381 54.9678 319.771 55.7605 317.508C56.2537 319.001 57.5607 320.481 59.6682 321.698Z" fill="white"/>
<path d="M268.9 267.508L275.83 263.507C276.385 263.187 276.317 262.625 275.673 262.254L267.494 257.531C266.851 257.159 265.879 257.12 265.323 257.44L258.392 261.442C257.836 261.764 257.906 262.324 258.548 262.696L266.727 267.419C267.371 267.789 268.343 267.829 268.9 267.508Z" fill="#263C7A"/>
<path d="M258.198 273.689L265.127 269.686C265.683 269.365 265.615 268.805 264.971 268.433L256.79 263.71C256.149 263.34 255.176 263.299 254.621 263.621L247.69 267.622C247.134 267.942 247.204 268.504 247.846 268.875L256.025 273.598C256.668 273.969 257.641 274.009 258.198 273.689Z" fill="#263C7A"/>
<path d="M247.492 279.867L254.422 275.866C254.979 275.544 254.909 274.984 254.266 274.613L246.086 269.89C245.445 269.52 244.471 269.478 243.915 269.799L236.984 273.801C236.429 274.123 236.498 274.684 237.141 275.055L245.321 279.778C245.963 280.148 246.935 280.188 247.492 279.867Z" fill="#263C7A"/>
<path d="M232.691 274.763L239.622 270.763C240.177 270.442 240.109 269.88 239.465 269.509L232.598 265.545C231.956 265.174 230.985 265.133 230.427 265.454L223.497 269.456C222.94 269.777 223.011 270.339 223.652 270.709L230.519 274.675C231.162 275.046 232.135 275.085 232.691 274.763Z" fill="#263C7A"/>
<path d="M221.986 280.944L228.916 276.941C229.473 276.62 229.403 276.06 228.761 275.688L221.893 271.724C221.251 271.353 220.279 271.313 219.723 271.634L212.792 275.635C212.236 275.956 212.307 276.518 212.948 276.888L219.815 280.853C220.457 281.225 221.43 281.265 221.986 280.944Z" fill="#263C7A"/>
<path d="M211.285 287.122L218.215 283.121C218.772 282.8 218.702 282.238 218.059 281.868L211.192 277.903C210.55 277.533 209.577 277.491 209.02 277.814L202.09 281.815C201.534 282.135 201.603 282.697 202.247 283.068L209.114 287.032C209.756 287.403 210.728 287.443 211.285 287.122Z" fill="#263C7A"/>
<path d="M200.583 293.303L207.514 289.301C208.07 288.979 208.001 288.419 207.358 288.047L200.491 284.083C199.847 283.711 198.875 283.671 198.319 283.993L191.388 287.993C190.832 288.315 190.902 288.877 191.544 289.248L198.411 293.212C199.055 293.584 200.027 293.623 200.583 293.303Z" fill="#263C7A"/>
<path d="M189.881 299.481L196.811 295.48C197.367 295.158 197.298 294.597 196.655 294.227L189.787 290.261C189.145 289.89 188.173 289.851 187.616 290.171L180.686 294.173C180.129 294.495 180.199 295.055 180.842 295.426L187.709 299.391C188.352 299.762 189.324 299.802 189.881 299.481Z" fill="#263C7A"/>
<path d="M179.176 305.66L186.107 301.66C186.663 301.337 186.593 300.776 185.951 300.404L179.084 296.441C178.442 296.069 177.47 296.03 176.913 296.35L169.983 300.352C169.426 300.673 169.496 301.234 170.138 301.606L177.005 305.569C177.648 305.942 178.621 305.982 179.176 305.66Z" fill="#263C7A"/>
<path d="M168.475 311.839L175.406 307.837C175.962 307.517 175.892 306.955 175.25 306.585L168.383 302.62C167.74 302.25 166.767 302.21 166.211 302.53L159.281 306.532C158.725 306.852 158.793 307.414 159.437 307.785L166.304 311.749C166.946 312.12 167.918 312.162 168.475 311.839Z" fill="#263C7A"/>
<path d="M157.771 318.019L164.701 314.018C165.258 313.697 165.188 313.135 164.546 312.765L157.679 308.8C157.035 308.428 156.063 308.387 155.506 308.709L148.576 312.712C148.019 313.032 148.089 313.593 148.732 313.965L155.6 317.929C156.242 318.3 157.214 318.339 157.771 318.019Z" fill="#263C7A"/>
<path d="M147.069 324.198L153.999 320.196C154.556 319.875 154.486 319.314 153.842 318.944L146.975 314.978C146.333 314.607 145.361 314.568 144.804 314.889L137.874 318.889C137.317 319.211 137.387 319.773 138.03 320.144L144.897 324.108C145.54 324.479 146.512 324.52 147.069 324.198Z" fill="#263C7A"/>
<path d="M136.367 330.377L143.296 326.377C143.852 326.055 143.784 325.494 143.14 325.124L136.273 321.158C135.631 320.787 134.659 320.746 134.102 321.067L127.171 325.07C126.615 325.391 126.685 325.952 127.327 326.322L134.194 330.288C134.837 330.659 135.81 330.698 136.367 330.377Z" fill="#263C7A"/>
<path d="M216.922 271.838L223.851 267.837C224.407 267.517 224.338 266.955 223.695 266.584L216.828 262.62C216.186 262.249 215.214 262.208 214.657 262.53L207.727 266.531C207.17 266.852 207.24 267.414 207.882 267.784L214.749 271.749C215.392 272.119 216.364 272.159 216.922 271.838Z" fill="#4067B1"/>
<path d="M227.784 265.567L234.715 261.566C235.271 261.244 235.2 260.684 234.559 260.313L227.692 256.347C227.048 255.977 226.076 255.937 225.52 256.258L218.589 260.259C218.032 260.581 218.102 261.141 218.745 261.512L225.612 265.478C226.255 265.848 227.226 265.889 227.784 265.567Z" fill="#4067B1"/>
<path d="M238.661 259.286L253.588 250.668C254.145 250.347 254.075 249.786 253.433 249.414L246.565 245.451C245.923 245.079 244.951 245.038 244.394 245.36L229.468 253.977C228.911 254.299 228.981 254.86 229.623 255.232L236.491 259.195C237.134 259.567 238.105 259.607 238.661 259.286Z" fill="#263C7A"/>
<path d="M231.057 251.647L243.172 244.653C243.728 244.331 243.657 243.771 243.016 243.399L236.149 239.434C235.505 239.064 234.533 239.023 233.977 239.345L221.864 246.337C221.308 246.66 221.378 247.221 222.02 247.593L228.887 251.556C229.529 251.928 230.5 251.967 231.057 251.647Z" fill="#263C7A"/>
<path d="M206.215 278.018L213.147 274.017C213.704 273.696 213.633 273.135 212.992 272.763L206.124 268.798C205.482 268.426 204.509 268.387 203.954 268.709L197.023 272.709C196.466 273.032 196.536 273.592 197.179 273.964L204.046 277.927C204.688 278.299 205.66 278.339 206.215 278.018Z" fill="#4067B1"/>
<path d="M195.513 284.197L202.445 280.196C203.002 279.874 202.93 279.313 202.289 278.943L195.422 274.977C194.78 274.606 193.807 274.567 193.25 274.887L186.32 278.889C185.764 279.21 185.833 279.771 186.476 280.141L193.344 284.107C193.986 284.478 194.957 284.519 195.513 284.197Z" fill="#263C7A"/>
<path d="M184.812 290.376L191.744 286.376C192.3 286.054 192.229 285.492 191.588 285.122L184.721 281.157C184.077 280.786 183.105 280.746 182.549 281.066L175.618 285.069C175.062 285.39 175.132 285.951 175.774 286.322L182.641 290.286C183.285 290.657 184.255 290.698 184.812 290.376Z" fill="#263C7A"/>
<path d="M174.109 296.556L181.04 292.553C181.596 292.232 181.526 291.671 180.883 291.3L174.016 287.336C173.374 286.965 172.402 286.925 171.845 287.246L164.915 291.247C164.358 291.568 164.428 292.13 165.071 292.5L171.938 296.465C172.58 296.835 173.552 296.877 174.109 296.556Z" fill="#263C7A"/>
<path d="M163.405 302.735L170.337 298.734C170.893 298.413 170.822 297.851 170.181 297.481L163.314 293.516C162.671 293.146 161.699 293.103 161.143 293.425L154.212 297.428C153.656 297.748 153.726 298.31 154.368 298.681L161.235 302.645C161.878 303.016 162.85 303.055 163.405 302.735Z" fill="#263C7A"/>
<path d="M152.705 308.915L159.636 304.912C160.193 304.59 160.122 304.03 159.481 303.659L152.614 299.694C151.971 299.323 150.998 299.283 150.441 299.605L143.512 303.605C142.956 303.927 143.024 304.488 143.668 304.859L150.535 308.824C151.177 309.196 152.148 309.235 152.705 308.915Z" fill="#263C7A"/>
<path d="M142 315.092L148.931 311.092C149.488 310.771 149.417 310.21 148.775 309.84L141.909 305.874C141.265 305.503 140.293 305.462 139.736 305.784L132.806 309.785C132.249 310.107 132.319 310.668 132.962 311.038L139.829 315.004C140.472 315.375 141.443 315.414 142 315.092Z" fill="#263C7A"/>
<path d="M131.299 321.273L138.231 317.271C138.786 316.95 138.716 316.389 138.073 316.017L131.207 312.053C130.565 311.682 129.593 311.643 129.036 311.963L122.105 315.964C121.549 316.285 121.619 316.847 122.261 317.219L129.128 321.182C129.772 321.554 130.743 321.595 131.299 321.273Z" fill="#263C7A"/>
<path d="M120.595 327.452L127.526 323.45C128.082 323.13 128.012 322.568 127.369 322.197L120.503 318.233C119.861 317.862 118.889 317.821 118.332 318.143L111.402 322.144C110.845 322.465 110.915 323.027 111.557 323.397L118.424 327.362C119.067 327.732 120.039 327.772 120.595 327.452Z" fill="#263C7A"/>
<path d="M101.57 338.436L116.692 329.706C117.248 329.385 117.179 328.824 116.535 328.454L109.668 324.488C109.026 324.117 108.055 324.078 107.499 324.398L92.3768 333.129C91.8203 333.451 91.8901 334.011 92.5324 334.382L99.3983 338.347C100.042 338.718 101.014 338.759 101.57 338.436Z" fill="#263C7A"/>
<path d="M80.7329 326.407L93.4954 319.037C94.0519 318.716 93.982 318.155 93.3398 317.784L86.4725 313.82C85.8302 313.449 84.8582 313.408 84.3017 313.73L71.5379 321.098C70.9814 321.42 71.0512 321.982 71.6935 322.352L78.5608 326.317C79.2044 326.688 80.175 326.727 80.7329 326.407Z" fill="#263C7A"/>
<path d="M187.474 276.809L194.405 272.808C194.961 272.487 194.891 271.925 194.249 271.553L187.382 267.59C186.739 267.218 185.769 267.178 185.212 267.499L178.28 271.501C177.724 271.823 177.795 272.383 178.436 272.755L185.303 276.719C185.945 277.09 186.919 277.13 187.474 276.809Z" fill="#263C7A"/>
<path d="M198.446 270.476L205.376 266.474C205.933 266.154 205.863 265.592 205.221 265.222L198.353 261.257C197.71 260.886 196.738 260.844 196.181 261.167L189.251 265.169C188.694 265.489 188.764 266.051 189.406 266.422L196.274 270.386C196.917 270.757 197.889 270.796 198.446 270.476Z" fill="#263C7A"/>
<path d="M209.412 264.143L216.342 260.141C216.899 259.821 216.829 259.259 216.186 258.888L209.321 254.922C208.678 254.552 207.705 254.512 207.148 254.834L200.219 258.834C199.663 259.156 199.731 259.718 200.375 260.088L207.242 264.053C207.884 264.423 208.855 264.464 209.412 264.143Z" fill="#4067B1"/>
<path d="M220.381 257.811L227.311 253.809C227.867 253.487 227.798 252.926 227.155 252.556L220.287 248.59C219.645 248.219 218.674 248.18 218.118 248.5L211.187 252.502C210.631 252.823 210.701 253.384 211.343 253.754L218.209 257.72C218.851 258.091 219.824 258.132 220.381 257.811Z" fill="#263C7A"/>
<path d="M176.772 282.987L183.702 278.986C184.259 278.665 184.189 278.104 183.547 277.733L176.68 273.769C176.037 273.398 175.065 273.357 174.509 273.679L167.578 277.679C167.022 278.001 167.092 278.563 167.734 278.933L174.601 282.898C175.243 283.268 176.215 283.309 176.772 282.987Z" fill="#263C7A"/>
<path d="M166.07 289.168L173 285.166C173.557 284.845 173.487 284.284 172.845 283.914L165.977 279.948C165.334 279.576 164.363 279.536 163.807 279.857L156.875 283.859C156.318 284.181 156.389 284.742 157.03 285.112L163.899 289.078C164.541 289.449 165.513 289.488 166.07 289.168Z" fill="#263C7A"/>
<path d="M155.368 295.347L162.298 291.345C162.855 291.023 162.785 290.462 162.141 290.091L155.274 286.127C154.632 285.756 153.661 285.716 153.105 286.037L146.173 290.038C145.616 290.359 145.687 290.921 146.328 291.291L153.196 295.257C153.839 295.628 154.811 295.668 155.368 295.347Z" fill="#263C7A"/>
<path d="M144.665 301.525L151.595 297.524C152.151 297.204 152.082 296.642 151.439 296.271L144.572 292.307C143.929 291.936 142.959 291.895 142.402 292.216L135.47 296.218C134.914 296.539 134.985 297.101 135.626 297.471L142.493 301.436C143.135 301.806 144.109 301.847 144.665 301.525Z" fill="#263C7A"/>
<path d="M133.963 307.705L140.894 303.703C141.45 303.382 141.38 302.82 140.738 302.45L133.871 298.485C133.229 298.115 132.257 298.074 131.7 298.396L124.77 302.397C124.213 302.718 124.283 303.279 124.925 303.65L131.792 307.614C132.435 307.986 133.407 308.026 133.963 307.705Z" fill="#263C7A"/>
<path d="M123.259 313.884L130.19 309.883C130.746 309.563 130.676 309.001 130.034 308.63L123.167 304.664C122.523 304.294 121.553 304.253 120.995 304.576L114.064 308.576C113.508 308.898 113.579 309.46 114.221 309.83L121.088 313.795C121.731 314.165 122.703 314.205 123.259 313.884Z" fill="#263C7A"/>
<path d="M112.557 320.064L119.488 316.063C120.044 315.74 119.974 315.181 119.332 314.809L112.465 310.844C111.821 310.472 110.85 310.433 110.293 310.753L103.362 314.755C102.805 315.076 102.877 315.637 103.518 316.009L110.385 319.973C111.028 320.345 112.001 320.385 112.557 320.064Z" fill="#263C7A"/>
<path d="M101.855 326.242L108.784 322.242C109.341 321.92 109.272 321.358 108.628 320.988L101.761 317.023C101.119 316.653 100.148 316.613 99.5903 316.933L92.6598 320.935C92.1033 321.255 92.1745 321.817 92.8155 322.188L99.6827 326.152C100.325 326.523 101.298 326.564 101.855 326.242Z" fill="#263C7A"/>
<path d="M91.1527 332.422L98.0832 328.42C98.6398 328.099 98.5699 327.538 97.9277 327.166L91.0604 323.203C90.4181 322.831 89.4461 322.791 88.8896 323.112L81.9591 327.113C81.4025 327.435 81.4737 327.996 82.1147 328.368L88.9819 332.331C89.6242 332.703 90.5962 332.743 91.1527 332.422Z" fill="#263C7A"/>
<path d="M193.112 261.525L200.042 257.523C200.599 257.203 200.529 256.641 199.887 256.27L193.019 252.306C192.376 251.935 191.404 251.893 190.847 252.215L183.917 256.218C183.36 256.538 183.43 257.1 184.072 257.471L190.94 261.435C191.583 261.806 192.555 261.845 193.112 261.525Z" fill="#263C7A"/>
<path d="M203.761 255.377L210.692 251.375C211.248 251.055 211.178 250.493 210.536 250.122L203.67 246.158C203.027 245.786 202.055 245.745 201.498 246.067L194.567 250.068C194.012 250.39 194.081 250.951 194.724 251.323L201.592 255.287C202.234 255.658 203.205 255.698 203.761 255.377Z" fill="#263C7A"/>
<path d="M214.411 249.228L221.341 245.227C221.898 244.905 221.828 244.345 221.185 243.973L214.318 240.009C213.676 239.638 212.704 239.598 212.147 239.918L205.218 243.92C204.66 244.242 204.73 244.802 205.374 245.174L212.24 249.137C212.882 249.509 213.854 249.55 214.411 249.228Z" fill="#263C7A"/>
<path d="M225.06 243.079L231.989 239.076C232.546 238.756 232.477 238.195 231.833 237.824L224.966 233.859C224.324 233.489 223.352 233.449 222.795 233.769L215.865 237.771C215.308 238.091 215.378 238.653 216.02 239.024L222.888 242.988C223.53 243.36 224.503 243.401 225.06 243.079Z" fill="#263C7A"/>
<path d="M214.109 236.757L221.039 232.756C221.596 232.434 221.526 231.873 220.884 231.502L218.613 230.192C217.972 229.821 216.998 229.78 216.442 230.102L209.511 234.104C208.956 234.424 209.025 234.986 209.668 235.357L211.937 236.666C212.58 237.038 213.552 237.079 214.109 236.757Z" fill="#263C7A"/>
<path d="M200.212 244.781L207.143 240.78C207.698 240.458 207.629 239.897 206.986 239.526L204.717 238.216C204.074 237.845 203.102 237.804 202.545 238.126L195.614 242.126C195.058 242.448 195.128 243.01 195.771 243.381L198.041 244.69C198.685 245.062 199.655 245.103 200.212 244.781Z" fill="#263C7A"/>
<path d="M189.607 250.903L196.538 246.902C197.093 246.581 197.025 246.019 196.381 245.649L194.113 244.339C193.469 243.967 192.497 243.926 191.941 244.248L185.01 248.251C184.453 248.571 184.523 249.133 185.167 249.504L187.435 250.813C188.079 251.184 189.051 251.225 189.607 250.903Z" fill="#263C7A"/>
<path d="M179.002 257.026L185.933 253.025C186.488 252.705 186.419 252.143 185.776 251.771L183.506 250.461C182.862 250.091 181.892 250.05 181.335 250.372L174.405 254.373C173.848 254.693 173.918 255.255 174.56 255.626L176.83 256.937C177.472 257.307 178.445 257.348 179.002 257.026Z" fill="#263C7A"/>
<path d="M168.397 263.149L175.327 259.148C175.882 258.827 175.814 258.265 175.17 257.895L172.9 256.585C172.257 256.214 171.286 256.172 170.73 256.495L163.798 260.497C163.241 260.817 163.312 261.379 163.953 261.75L166.224 263.059C166.867 263.43 167.84 263.472 168.397 263.149Z" fill="#263C7A"/>
<path d="M109.188 297.331L116.118 293.33C116.675 293.01 116.605 292.448 115.963 292.077L113.693 290.768C113.051 290.397 112.079 290.355 111.522 290.677L104.592 294.679C104.035 295 104.105 295.562 104.747 295.932L107.018 297.242C107.661 297.612 108.631 297.655 109.188 297.331Z" fill="#263C7A"/>
<path d="M98.5824 303.455L105.513 299.454C106.069 299.133 106 298.571 105.357 298.201L103.088 296.89C102.445 296.519 101.472 296.478 100.917 296.8L93.9862 300.801C93.4297 301.122 93.4996 301.684 94.1419 302.054L96.4129 303.365C97.0539 303.736 98.0259 303.777 98.5824 303.455Z" fill="#263C7A"/>
<path d="M87.9789 309.578L94.9094 305.577C95.466 305.255 95.3961 304.693 94.7538 304.323L92.4828 303.013C91.8418 302.642 90.8685 302.601 90.3133 302.923L83.3828 306.925C82.8262 307.245 82.8961 307.807 83.5383 308.178L85.8081 309.487C86.4503 309.858 87.4223 309.9 87.9789 309.578Z" fill="#263C7A"/>
<path d="M77.3715 315.7L84.302 311.7C84.8586 311.379 84.7887 310.817 84.1464 310.446L81.8754 309.136C81.2331 308.765 80.2611 308.724 79.7058 309.045L72.774 313.047C72.2174 313.369 72.2887 313.929 72.931 314.301L75.2007 315.611C75.843 315.981 76.815 316.022 77.3715 315.7Z" fill="#263C7A"/>
<path d="M182.408 267.705L189.339 263.702C189.894 263.382 189.825 262.82 189.182 262.449L182.315 258.485C181.672 258.113 180.7 258.073 180.144 258.395L173.213 262.395C172.657 262.717 172.727 263.279 173.369 263.65L180.236 267.614C180.878 267.985 181.852 268.025 182.408 267.705Z" fill="#263C7A"/>
<path d="M171.705 273.884L178.636 269.882C179.193 269.561 179.123 269 178.48 268.629L171.613 264.664C170.971 264.293 169.999 264.252 169.442 264.574L162.512 268.575C161.955 268.897 162.025 269.458 162.667 269.828L169.535 273.794C170.177 274.165 171.15 274.204 171.705 273.884Z" fill="#263C7A"/>
<path d="M161.003 280.062L167.934 276.061C168.49 275.739 168.421 275.179 167.778 274.807L160.911 270.842C160.269 270.472 159.295 270.432 158.739 270.753L151.81 274.754C151.253 275.074 151.322 275.636 151.965 276.007L158.832 279.971C159.475 280.344 160.447 280.384 161.003 280.062Z" fill="#263C7A"/>
<path d="M150.301 286.242L157.232 282.24C157.788 281.92 157.718 281.358 157.076 280.987L150.209 277.023C149.565 276.652 148.593 276.611 148.037 276.933L141.106 280.934C140.55 281.255 140.62 281.817 141.262 282.187L148.129 286.152C148.773 286.522 149.745 286.563 150.301 286.242Z" fill="#263C7A"/>
<path d="M139.6 292.422L146.53 288.42C147.085 288.098 147.017 287.538 146.373 287.166L139.506 283.203C138.864 282.831 137.892 282.79 137.335 283.112L130.405 287.113C129.848 287.435 129.918 287.996 130.56 288.367L137.428 292.331C138.071 292.703 139.043 292.742 139.6 292.422Z" fill="#263C7A"/>
<path d="M128.893 298.6L135.823 294.599C136.38 294.277 136.311 293.716 135.667 293.346L128.8 289.38C128.158 289.009 127.186 288.97 126.629 289.292L119.699 293.292C119.142 293.613 119.212 294.175 119.854 294.546L126.722 298.51C127.364 298.881 128.337 298.92 128.893 298.6Z" fill="#263C7A"/>
<path d="M118.191 304.779L125.121 300.779C125.678 300.457 125.608 299.897 124.966 299.525L118.099 295.561C117.456 295.189 116.483 295.149 115.926 295.47L108.997 299.471C108.441 299.794 108.509 300.353 109.153 300.725L116.02 304.69C116.662 305.061 117.634 305.101 118.191 304.779Z" fill="#263C7A"/>
<path d="M107.487 310.958L114.418 306.958C114.974 306.636 114.903 306.074 114.262 305.704L107.395 301.739C106.751 301.369 105.779 301.329 105.223 301.649L98.2922 305.651C97.7356 305.971 97.8055 306.533 98.4491 306.904L105.316 310.868C105.959 311.239 106.929 311.281 107.487 310.958Z" fill="#263C7A"/>
<path d="M96.7869 317.138L103.718 313.136C104.274 312.816 104.203 312.254 103.562 311.883L96.6933 307.919C96.051 307.547 95.079 307.506 94.5225 307.828L87.592 311.831C87.0354 312.151 87.1053 312.712 87.7476 313.084L94.6148 317.048C95.2584 317.419 96.2291 317.46 96.7869 317.138Z" fill="#263C7A"/>
<path d="M243.597 268.468L264.009 256.682C264.566 256.362 264.496 255.8 263.853 255.429L256.986 251.465C256.343 251.094 255.372 251.055 254.815 251.375L234.404 263.159C233.848 263.48 233.917 264.042 234.561 264.412L241.428 268.377C242.07 268.748 243.041 268.789 243.597 268.468Z" fill="#263C7A"/>
<path d="M112.113 344.38L132.523 332.596C133.08 332.276 133.011 331.714 132.368 331.342L125.5 327.379C124.858 327.007 123.886 326.967 123.33 327.288L102.918 339.073C102.361 339.394 102.432 339.955 103.073 340.326L109.941 344.29C110.584 344.661 111.556 344.702 112.113 344.38Z" fill="#263C7A"/>
<path d="M154.914 333.319L161.845 329.317C162.402 328.996 162.332 328.434 161.689 328.064L153.509 323.341C152.865 322.97 151.894 322.931 151.338 323.251L144.407 327.253C143.849 327.573 143.921 328.135 144.563 328.506L152.744 333.228C153.386 333.599 154.358 333.64 154.914 333.319Z" fill="#263C7A"/>
<path d="M232.637 288.444L243.721 282.046C244.278 281.723 244.208 281.162 243.565 280.791L235.385 276.068C234.742 275.697 233.77 275.658 233.214 275.978L222.13 282.378C221.574 282.7 221.643 283.259 222.286 283.631L230.467 288.354C231.108 288.725 232.081 288.766 232.637 288.444Z" fill="#263C7A"/>
<path d="M165.228 327.364L176.312 320.965C176.868 320.643 176.799 320.082 176.155 319.711L167.975 314.988C167.333 314.618 166.361 314.578 165.805 314.899L154.721 321.298C154.165 321.618 154.233 322.18 154.877 322.551L163.058 327.275C163.7 327.645 164.67 327.686 165.228 327.364Z" fill="#263C7A"/>
<path d="M217.196 297.359L228.278 290.96C228.836 290.639 228.765 290.078 228.122 289.707L219.943 284.985C219.299 284.614 218.327 284.573 217.771 284.895L206.687 291.293C206.131 291.614 206.202 292.175 206.843 292.546L215.024 297.271C215.666 297.642 216.639 297.681 217.196 297.359Z" fill="#263C7A"/>
<path d="M217.696 284.937L169.507 312.76C168.909 313.104 168.909 313.664 169.507 314.01L177.85 318.825C178.447 319.172 179.416 319.172 180.014 318.825L228.203 291.004L217.696 284.937Z" fill="#263C7A"/>
<path d="M124.999 344.522L117.279 348.978C116.822 349.242 116.88 349.701 117.407 350.006L120.753 351.938C121.279 352.241 122.077 352.276 122.532 352.01L130.253 347.554C130.708 347.29 130.65 346.831 130.124 346.527L126.778 344.595C126.252 344.291 125.455 344.257 124.999 344.522Z" fill="#263C7A"/>
<path d="M135.79 338.291L128.071 342.749C127.615 343.011 127.673 343.471 128.199 343.776L131.545 345.708C132.073 346.013 132.868 346.044 133.326 345.782L141.045 341.324C141.501 341.062 141.443 340.601 140.917 340.298L137.571 338.365C137.043 338.06 136.248 338.028 135.79 338.291Z" fill="#263C7A"/>
<path d="M146.493 332.111L138.776 336.569C138.318 336.832 138.376 337.293 138.902 337.597L142.248 339.53C142.776 339.833 143.571 339.866 144.028 339.602L151.749 335.144C152.204 334.882 152.146 334.422 151.62 334.118L148.274 332.186C147.746 331.883 146.951 331.849 146.493 332.111Z" fill="#263C7A"/>
<path d="M129.881 334.879L122.16 339.335C121.703 339.599 121.761 340.059 122.288 340.362L125.634 342.294C126.16 342.599 126.957 342.632 127.413 342.368L135.134 337.912C135.59 337.648 135.532 337.188 135.005 336.885L131.659 334.952C131.132 334.648 130.336 334.615 129.881 334.879Z" fill="#263C7A"/>
<path d="M144.063 145.467L154.305 139.555C155.256 139.006 155.815 137.648 155.554 136.521C155.294 135.395 154.313 134.925 153.363 135.474L143.123 141.388C142.172 141.936 141.611 143.295 141.871 144.421C142.132 145.547 143.113 146.016 144.063 145.467Z" fill="#D9EFFB"/>
<path d="M119.666 159.552L134.768 150.833C135.718 150.284 136.277 148.927 136.017 147.801C135.759 146.673 134.776 146.205 133.827 146.754L118.725 155.473C117.775 156.021 117.215 157.38 117.475 158.506C117.736 159.632 118.717 160.101 119.666 159.552Z" fill="#D9EFFB"/>
<path d="M161.916 193.274L172.157 187.361C173.108 186.813 173.669 185.454 173.408 184.328C173.148 183.202 172.167 182.732 171.216 183.281L160.975 189.194C160.024 189.743 159.465 191.102 159.725 192.228C159.986 193.354 160.967 193.822 161.916 193.274Z" fill="#D9EFFB"/>
<path d="M140.168 205.83L155.272 197.11C156.22 196.561 156.78 195.204 156.52 194.076C156.261 192.95 155.278 192.482 154.33 193.03L139.226 201.751C138.277 202.298 137.718 203.656 137.978 204.783C138.236 205.909 139.219 206.378 140.168 205.83Z" fill="#D9EFFB"/>
<path d="M174.277 137.709L180.674 134.015C181.624 133.466 182.184 132.108 181.923 130.981C181.663 129.855 180.682 129.387 179.731 129.936L173.335 133.63C172.384 134.178 171.825 135.535 172.086 136.662C172.344 137.789 173.326 138.258 174.277 137.709Z" fill="#D9EFFB"/>
<path d="M154.556 158.779L174.105 147.493C175.054 146.945 175.614 145.587 175.354 144.461C175.095 143.334 174.113 142.865 173.164 143.413L153.616 154.7C152.665 155.249 152.104 156.607 152.364 157.733C152.625 158.86 153.607 159.328 154.556 158.779Z" fill="#D9EFFB"/>
<path d="M171.654 168.28L178.051 164.586C179.002 164.037 179.561 162.68 179.302 161.554C179.042 160.426 178.061 159.958 177.11 160.506L170.713 164.2C169.762 164.749 169.202 166.108 169.462 167.234C169.723 168.36 170.704 168.828 171.654 168.28Z" fill="#D9EFFB"/>
<path d="M136.877 227.1L153.965 217.234C154.916 216.687 155.477 215.328 155.217 214.202C154.956 213.076 153.974 212.608 153.024 213.156L135.935 223.022C134.986 223.571 134.426 224.928 134.686 226.055C134.946 227.182 135.927 227.649 136.877 227.1Z" fill="#D9EFFB"/>
<path d="M177.891 184.051L181.997 181.679C182.948 181.131 183.507 179.774 183.246 178.646C182.987 177.52 182.007 177.052 181.056 177.6L176.949 179.971C175.998 180.52 175.44 181.877 175.7 183.005C175.96 184.131 176.94 184.599 177.891 184.051Z" fill="#D9EFFB"/>
<path d="M180.84 201.718L185.94 198.773C186.891 198.225 187.451 196.866 187.191 195.74C186.93 194.614 185.949 194.145 184.999 194.694L179.898 197.639C178.95 198.188 178.389 199.545 178.649 200.671C178.909 201.797 179.89 202.267 180.84 201.718Z" fill="#D9EFFB"/>
<path d="M160.999 213.172L174.447 205.409C175.396 204.86 175.956 203.502 175.696 202.376C175.436 201.249 174.454 200.781 173.504 201.33L160.057 209.094C159.109 209.642 158.549 210.999 158.808 212.126C159.068 213.252 160.051 213.72 160.999 213.172Z" fill="#D9EFFB"/>
<path d="M178.248 212.902L187.915 207.319C188.866 206.771 189.425 205.414 189.166 204.287C188.905 203.161 187.924 202.693 186.974 203.241L177.307 208.823C176.356 209.371 175.796 210.729 176.056 211.855C176.317 212.981 177.298 213.451 178.248 212.902Z" fill="#D9EFFB"/>
<path d="M122.214 235.61L128.422 232.024C129.373 231.475 129.933 230.118 129.672 228.99C129.412 227.865 128.431 227.396 127.48 227.945L121.273 231.529C120.322 232.078 119.762 233.436 120.022 234.562C120.282 235.689 121.263 236.158 122.214 235.61Z" fill="#D9EFFB"/>
<path d="M147.854 182.021L164.943 172.155C165.893 171.606 166.452 170.249 166.192 169.123C165.932 167.995 164.951 167.527 164.002 168.076L146.913 177.942C145.962 178.491 145.403 179.849 145.663 180.975C145.923 182.102 146.904 182.57 147.854 182.021Z" fill="#D9EFFB"/>
<path d="M146.295 173.235L176.077 156.04C177.028 155.491 177.587 154.133 177.327 153.006C177.067 151.88 176.086 151.412 175.135 151.96L145.353 169.156C144.402 169.704 143.841 171.063 144.103 172.189C144.362 173.315 145.344 173.783 146.295 173.235Z" fill="#D9EFFB"/>
<path d="M162.934 182.998L180.022 173.133C180.973 172.584 181.532 171.226 181.271 170.1C181.012 168.973 180.031 168.505 179.08 169.054L161.992 178.92C161.041 179.469 160.483 180.826 160.742 181.954C161.001 183.08 161.983 183.548 162.934 182.998Z" fill="#D9EFFB"/>
<path d="M134.892 189.504L141.099 185.919C142.05 185.37 142.609 184.013 142.351 182.886C142.09 181.759 141.109 181.291 140.159 181.84L133.949 185.424C133 185.973 132.44 187.331 132.7 188.458C132.959 189.584 133.942 190.052 134.892 189.504Z" fill="#D9EFFB"/>
<path d="M73.6039 186.146L110.372 164.918C111.322 164.369 111.881 163.012 111.621 161.885C111.361 160.758 110.38 160.29 109.43 160.839L72.6623 182.067C71.7127 182.616 71.1522 183.974 71.4134 185.1C71.6732 186.227 72.6544 186.695 73.6039 186.146Z" fill="#D9EFFB"/>
<path d="M163.426 202.086L183.968 190.225C184.918 189.677 185.478 188.32 185.219 187.193C184.958 186.067 183.976 185.599 183.027 186.148L162.484 198.007C161.535 198.555 160.976 199.914 161.235 201.04C161.495 202.166 162.476 202.634 163.426 202.086Z" fill="#D9EFFB"/>
<path d="M163.598 134.188L178.701 125.468C179.651 124.919 180.211 123.562 179.949 122.436C179.69 121.309 178.708 120.841 177.759 121.39L162.657 130.107C161.706 130.657 161.148 132.014 161.408 133.141C161.668 134.267 162.648 134.737 163.598 134.188Z" fill="#D9EFFB"/>
<path d="M180.937 221.034L198.429 210.935C199.379 210.387 199.939 209.028 199.678 207.902C199.418 206.776 198.437 206.307 197.487 206.856L179.997 216.954C179.046 217.503 178.487 218.86 178.747 219.986C179.008 221.113 179.989 221.582 180.937 221.034Z" fill="#D9EFFB"/>
<path d="M62.5697 257.898L72.8118 251.985C73.7627 251.437 74.3219 250.077 74.0608 248.952C73.8023 247.824 72.8211 247.356 71.8702 247.905L61.6293 253.819C60.6785 254.367 60.1193 255.726 60.3791 256.852C60.6402 257.978 61.6202 258.446 62.5697 257.898Z" fill="#D9EFFB"/>
<path d="M55.2092 223.404L74.7585 212.117C75.708 211.568 76.2685 210.211 76.0087 209.084C75.7489 207.958 74.7664 207.489 73.8168 208.038L54.2689 219.325C53.3193 219.873 52.7588 221.232 53.0186 222.358C53.2798 223.484 54.261 223.952 55.2092 223.404Z" fill="#D9EFFB"/>
<path d="M72.3078 232.905L78.7069 229.211C79.6578 228.662 80.2156 227.305 79.9558 226.177C79.696 225.052 78.7161 224.583 77.7652 225.131L71.3662 228.825C70.4166 229.374 69.8574 230.731 70.1172 231.859C70.377 232.984 71.3596 233.453 72.3078 232.905Z" fill="#D9EFFB"/>
<path d="M78.544 248.676L82.6509 246.304C83.6004 245.756 84.1609 244.399 83.8998 243.271C83.64 242.145 82.6587 241.676 81.7078 242.225L77.6023 244.596C76.6514 245.145 76.0922 246.502 76.352 247.63C76.6118 248.755 77.5931 249.224 78.544 248.676Z" fill="#D9EFFB"/>
<path d="M48.507 246.646L65.5953 236.779C66.5462 236.231 67.1054 234.873 66.8455 233.746C66.5844 232.62 65.6045 232.152 64.655 232.701L47.5654 242.567C46.6158 243.116 46.0553 244.473 46.3151 245.6C46.5749 246.725 47.5575 247.195 48.507 246.646Z" fill="#D9EFFB"/>
<path d="M46.9491 237.86L76.7325 220.665C77.6821 220.116 78.2413 218.757 77.9828 217.631C77.723 216.505 76.7418 216.037 75.7909 216.585L46.0075 233.78C45.0579 234.329 44.4974 235.687 44.7585 236.814C45.0183 237.94 45.9996 238.408 46.9491 237.86Z" fill="#D9EFFB"/>
<path d="M63.5912 247.623L80.6795 237.758C81.6304 237.208 82.1883 235.851 81.9285 234.725C81.6686 233.598 80.6874 233.13 79.7379 233.679L62.6496 243.544C61.6987 244.092 61.1395 245.451 61.3993 246.577C61.6591 247.705 62.6403 248.172 63.5912 247.623Z" fill="#D9EFFB"/>
<path d="M64.0812 266.71L84.6222 254.85C85.5731 254.301 86.1336 252.944 85.8724 251.818C85.6126 250.69 84.6314 250.223 83.6806 250.772L63.1396 262.631C62.1887 263.18 61.6308 264.538 61.8906 265.664C62.1504 266.791 63.1303 267.259 64.0812 266.71Z" fill="#D9EFFB"/>
<path d="M25.5342 138.114L9.39417 131.694L13.025 107.948L20.8589 114.889L25.5342 138.114Z" fill="#5F92D3"/>
<path d="M133.554 27.4063L94.5607 11.8241L101.756 27.4063L122.578 32.2253L133.554 27.4063Z" fill="#5F92D3"/>
<path d="M11.272 92.0164C13.3307 90.8268 15.4672 90.1318 17.5905 89.8456C15.4381 75.4939 21.6381 60.3457 33.5367 53.4706C37.116 51.4039 41.0079 50.2051 44.6862 49.9677C40.0241 32.5721 47.2263 12.804 61.9024 4.3251C69.5688 -0.104904 77.8604 -0.629805 85.1615 2.08306L85.1562 2.06986L85.515 2.21362C85.7023 2.28616 85.8895 2.36133 86.0768 2.43782L98.2932 7.24372L93.4214 11.435C100.029 13.5174 105.742 18.8614 108.76 26.7587C114.324 41.3214 108.616 59.0321 96.0117 66.3135L21.0868 129.47C11.6228 134.938 5.87652 132.655 1.69842 121.719C-2.47968 110.784 1.80661 97.4843 11.272 92.0164Z" fill="#5F92D3"/>
<path d="M105.348 20.3452L63.3187 3.55499C70.5829 -0.156236 78.3074 -0.462196 85.1614 2.08317L85.1561 2.06997L85.5149 2.21374C85.7022 2.28627 85.8894 2.36144 86.0767 2.43794L98.2931 7.24383L93.4213 11.4351C98.0399 12.8911 102.218 15.9455 105.348 20.3452Z" fill="#5F92D3"/>
<path d="M46.8412 83.3505L19.0874 72.2814C21.6526 64.3472 26.709 57.4154 33.6976 53.3784C34.6234 52.8429 35.5585 52.3761 36.5001 51.9686L74.7295 67.2368L46.8412 83.3505Z" fill="#5F92D3"/>
<path d="M89.7695 8.99617L77.859 15.8779L57.1888 7.64832C58.6619 6.40992 60.2301 5.29023 61.9024 4.32484C64.544 2.79761 67.2595 1.74649 69.9842 1.12004L89.7695 8.99617Z" fill="#D9EFFB"/>
<path d="M20.9219 67.6627L40.8984 75.6153L35.0045 83.895L17.8635 77.0805C18.4794 73.7979 19.5133 70.6261 20.9219 67.6627Z" fill="#D9EFFB"/>
<path d="M24.6298 97.2681C26.6885 96.0772 28.825 95.3821 30.9483 95.0959C28.796 80.7443 35.1554 65.5037 47.0554 58.6286C50.6334 56.5606 54.3671 55.4567 58.044 55.2193C53.3819 37.8238 60.5841 18.0556 75.2602 9.57545C91.0442 0.455641 109.49 7.84776 116.457 26.0861C116.693 26.7059 116.911 27.3297 117.114 27.9562C129.157 22.599 142.471 28.6354 147.699 42.3171C153.263 56.8811 147.555 74.5905 134.951 81.8732L39.7595 136.87C30.2942 142.338 19.2344 137.907 15.0576 126.97C10.8795 116.034 15.1644 102.736 24.6298 97.2681Z" fill="#D9EFFB"/>
<path d="M22.6678 96.1683C24.7265 94.9787 26.8617 94.2837 28.9864 93.9975C26.834 79.6458 33.1934 64.4052 45.0921 57.5301C48.6701 55.4622 52.4024 54.357 56.082 54.1196C51.4186 36.7253 58.6208 16.9558 73.2969 8.47567C82.7267 3.02884 93.102 3.47725 101.416 8.60492C93.466 4.54815 83.9611 4.54948 75.262 9.5756C60.5859 18.0558 53.3837 37.8239 58.0458 55.2195C54.3689 55.4569 50.6352 56.5608 47.0571 58.6287C35.1572 65.5038 28.7977 80.7444 30.9501 95.0961C28.8268 95.3823 26.6903 96.0773 24.6316 97.2682C15.1662 102.736 10.8813 116.034 15.0594 126.97C16.6736 131.194 19.3205 134.435 22.4989 136.522C18.4514 134.586 15.0304 130.938 13.0943 125.871C8.9162 114.935 13.2024 101.638 22.6678 96.1683Z" fill="white"/>
<path d="M117.115 27.9563C116.937 27.4089 116.743 26.8656 116.54 26.3236C123.067 23.9074 129.846 24.7356 135.441 28.2504C129.844 25.4808 123.315 25.1986 117.115 27.9563Z" fill="white"/>
<path d="M127.871 30.8057C129.64 30.8057 131.336 31.142 132.892 31.8199C136.672 33.4698 139.939 37.2958 141.858 42.3166C146.747 55.1134 141.52 71.3285 130.446 77.7263L35.2542 132.725C32.2618 134.452 29.1651 134.889 26.7609 133.926C24.354 132.961 22.2161 130.425 20.8959 126.969C17.368 117.735 21.1386 106.031 29.1321 101.413C30.5961 100.567 32.1206 100.033 33.6584 99.8248L37.5227 99.3025L37.0254 95.9896C35.0406 82.755 41.1521 68.7858 51.5578 62.7745C54.4236 61.118 57.3686 60.1817 60.3136 59.9918L65.1036 59.6831L64.0274 55.6633C59.7531 39.7119 66.6638 21.2889 79.7639 13.7214C85.8543 10.2014 92.2705 9.49187 97.8281 11.7181C103.386 13.9456 107.927 19.0469 110.614 26.0856C110.823 26.6316 111.014 27.1815 111.195 27.7354L113.762 35.6195L121.228 32.2987C123.464 31.3043 125.72 30.8057 127.871 30.8057Z" fill="#4067B1"/>
<path d="M81.2266 91.981L77.9479 90.6608L80.4972 88.6983L81.2266 91.981Z" fill="#5F92D3"/>
<path d="M82.8652 56.4487L79.6789 55.1575L79.9045 56.4949L82.8652 56.4487Z" fill="#5F92D3"/>
<path d="M70.925 83.6748L67.6028 82.3349L72.4482 77.4565L70.925 83.6748Z" fill="#5F92D3"/>
<path d="M78.8082 90.5751L91.5113 83.2424C92.1562 82.8692 92.5439 81.9314 92.3791 81.148L89.3352 66.7304L74.2964 75.4124L77.3403 89.83C77.5065 90.6147 78.1632 90.9484 78.8082 90.5751Z" fill="#5F92D3"/>
<path d="M79.7134 55.1748L96.8808 63.8291C97.6088 64.197 97.3661 65.5647 96.4825 66.0764L82.4698 74.1662L68.4557 82.256C67.5721 82.7664 66.8678 81.9447 67.2991 80.9068L77.478 56.4647C77.9185 55.4096 78.9722 54.8003 79.7134 55.1748Z" fill="#5F92D3"/>
<path d="M82.1392 91.9201L94.8423 84.586C95.4872 84.2141 95.875 83.2764 95.7101 82.493L92.6676 68.0754L77.6275 76.7573L80.6714 91.1736C80.8375 91.9583 81.4943 92.292 82.1392 91.9201Z" fill="#D9EFFB"/>
<path d="M83.0438 56.5186L100.21 65.1742C100.939 65.5408 100.696 66.9097 99.8129 67.4201L85.8001 75.5099L71.7874 83.6011C70.9025 84.1115 70.1982 83.2898 70.6294 82.2519L80.8083 57.8097C81.2488 56.7546 82.3012 56.144 83.0438 56.5186Z" fill="#D9EFFB"/>
</svg>
