<svg width="69" height="69" viewBox="0 0 69 69" fill="none" xmlns="http://www.w3.org/2000/svg">
<rect opacity="0.1" width="69" height="69" rx="5" fill="#E4007B"/>
<path d="M36 38C36 44.6274 30.6274 50 24 50C17.3726 50 12 44.6274 12 38C12 31.3726 17.3726 26 24 26C30.6274 26 36 31.3726 36 38Z" fill="url(#paint0_linear_539_1355)"/>
<path fill-rule="evenodd" clip-rule="evenodd" d="M24 46.5C28.6944 46.5 32.5 42.6944 32.5 38C32.5 33.3056 28.6944 29.5 24 29.5C19.3056 29.5 15.5 33.3056 15.5 38C15.5 42.6944 19.3056 46.5 24 46.5ZM24 50C30.6274 50 36 44.6274 36 38C36 31.3726 30.6274 26 24 26C17.3726 26 12 31.3726 12 38C12 44.6274 17.3726 50 24 50Z" fill="url(#paint1_linear_539_1355)"/>
<path d="M47 32.5C47 39.4036 41.4036 45 34.5 45C27.5964 45 22 39.4036 22 32.5C22 25.5964 27.5964 20 34.5 20C41.4036 20 47 25.5964 47 32.5Z" fill="url(#paint2_linear_539_1355)"/>
<path fill-rule="evenodd" clip-rule="evenodd" d="M34.5 41.5C39.4706 41.5 43.5 37.4706 43.5 32.5C43.5 27.5294 39.4706 23.5 34.5 23.5C29.5294 23.5 25.5 27.5294 25.5 32.5C25.5 37.4706 29.5294 41.5 34.5 41.5ZM34.5 45C41.4036 45 47 39.4036 47 32.5C47 25.5964 41.4036 20 34.5 20C27.5964 20 22 25.5964 22 32.5C22 39.4036 27.5964 45 34.5 45Z" fill="url(#paint3_linear_539_1355)"/>
<path d="M56 39.5C56 45.299 51.299 50 45.5 50C39.701 50 35 45.299 35 39.5C35 33.701 39.701 29 45.5 29C51.299 29 56 33.701 56 39.5Z" fill="url(#paint4_linear_539_1355)"/>
<path fill-rule="evenodd" clip-rule="evenodd" d="M45.5 46.5C49.366 46.5 52.5 43.366 52.5 39.5C52.5 35.634 49.366 32.5 45.5 32.5C41.634 32.5 38.5 35.634 38.5 39.5C38.5 43.366 41.634 46.5 45.5 46.5ZM45.5 50C51.299 50 56 45.299 56 39.5C56 33.701 51.299 29 45.5 29C39.701 29 35 33.701 35 39.5C35 45.299 39.701 50 45.5 50Z" fill="url(#paint5_linear_539_1355)"/>
<path d="M20 41C20 38.2386 22.2386 36 25 36H44C46.7614 36 49 38.2386 49 41V45C49 47.7614 46.7614 50 44 50H25C22.2386 50 20 47.7614 20 45V41Z" fill="url(#paint6_linear_539_1355)"/>
<path fill-rule="evenodd" clip-rule="evenodd" d="M44 39.5H25C24.1716 39.5 23.5 40.1716 23.5 41V45C23.5 45.8284 24.1716 46.5 25 46.5H44C44.8284 46.5 45.5 45.8284 45.5 45V41C45.5 40.1716 44.8284 39.5 44 39.5ZM25 36C22.2386 36 20 38.2386 20 41V45C20 47.7614 22.2386 50 25 50H44C46.7614 50 49 47.7614 49 45V41C49 38.2386 46.7614 36 44 36H25Z" fill="url(#paint7_linear_539_1355)"/>
<path d="M40 34L31.0625 42L27 38.3636" stroke="white" stroke-width="3.5" stroke-linecap="round" stroke-linejoin="round"/>
<defs>
<linearGradient id="paint0_linear_539_1355" x1="9.82319" y1="30.9177" x2="38.8657" y2="31.4264" gradientUnits="userSpaceOnUse">
<stop offset="0.677083" stop-color="#E4007B"/>
<stop offset="1" stop-color="#FF005C"/>
</linearGradient>
<linearGradient id="paint1_linear_539_1355" x1="9.82319" y1="30.9177" x2="38.8657" y2="31.4264" gradientUnits="userSpaceOnUse">
<stop offset="0.677083" stop-color="#E4007B"/>
<stop offset="1" stop-color="#FF005C"/>
</linearGradient>
<linearGradient id="paint2_linear_539_1355" x1="19.7325" y1="25.1226" x2="49.9851" y2="25.6525" gradientUnits="userSpaceOnUse">
<stop offset="0.677083" stop-color="#E4007B"/>
<stop offset="1" stop-color="#FF005C"/>
</linearGradient>
<linearGradient id="paint3_linear_539_1355" x1="19.7325" y1="25.1226" x2="49.9851" y2="25.6525" gradientUnits="userSpaceOnUse">
<stop offset="0.677083" stop-color="#E4007B"/>
<stop offset="1" stop-color="#FF005C"/>
</linearGradient>
<linearGradient id="paint4_linear_539_1355" x1="33.0953" y1="33.303" x2="58.5075" y2="33.7481" gradientUnits="userSpaceOnUse">
<stop offset="0.677083" stop-color="#E4007B"/>
<stop offset="1" stop-color="#FF005C"/>
</linearGradient>
<linearGradient id="paint5_linear_539_1355" x1="33.0953" y1="33.303" x2="58.5075" y2="33.7481" gradientUnits="userSpaceOnUse">
<stop offset="0.677083" stop-color="#E4007B"/>
<stop offset="1" stop-color="#FF005C"/>
</linearGradient>
<linearGradient id="paint6_linear_539_1355" x1="17.3697" y1="38.8686" x2="52.4274" y2="40.1407" gradientUnits="userSpaceOnUse">
<stop offset="0.677083" stop-color="#E4007B"/>
<stop offset="1" stop-color="#FF005C"/>
</linearGradient>
<linearGradient id="paint7_linear_539_1355" x1="17.3697" y1="38.8686" x2="52.4274" y2="40.1407" gradientUnits="userSpaceOnUse">
<stop offset="0.677083" stop-color="#E4007B"/>
<stop offset="1" stop-color="#FF005C"/>
</linearGradient>
</defs>
</svg>
