<svg width="51" height="51" viewBox="0 0 51 51" fill="none" xmlns="http://www.w3.org/2000/svg">
<rect x="0.0335693" y="0.162659" width="50" height="50" fill="white"/>
<path d="M30.6211 10.8376C30.6646 10.6961 30.6798 10.5474 30.6659 10.3999C30.6519 10.2525 30.6091 10.1093 30.5398 9.97842C30.4705 9.84756 30.3761 9.73163 30.262 9.63725C30.1478 9.54286 30.0163 9.47188 29.8747 9.42836C29.7332 9.38483 29.5845 9.3696 29.437 9.38356C29.2896 9.39751 29.1464 9.44036 29.0155 9.50966C28.8846 9.57897 28.7687 9.67337 28.6743 9.78748C28.58 9.90159 28.509 10.0332 28.4654 10.1747L19.4461 39.4877C19.3582 39.7735 19.3874 40.0826 19.5274 40.3469C19.6673 40.6112 19.9066 40.809 20.1924 40.8969C20.4783 40.9849 20.7874 40.9556 21.0516 40.8156C21.3159 40.6757 21.5138 40.4364 21.6017 40.1506L30.6211 10.8376ZM17.9398 16.4725C18.0448 16.5772 18.1281 16.7016 18.185 16.8386C18.2418 16.9756 18.2711 17.1224 18.2711 17.2707C18.2711 17.419 18.2418 17.5658 18.185 17.7028C18.1281 17.8398 18.0448 17.9642 17.9398 18.0689L10.8439 25.1626L17.9398 32.2564C18.1515 32.4681 18.2705 32.7552 18.2705 33.0546C18.2705 33.354 18.1515 33.6411 17.9398 33.8528C17.7281 34.0645 17.441 34.1834 17.1416 34.1834C16.8422 34.1834 16.5551 34.0645 16.3434 33.8528L8.45146 25.9609C8.34647 25.8561 8.26317 25.7317 8.20633 25.5948C8.1495 25.4578 8.12024 25.3109 8.12024 25.1626C8.12024 25.0144 8.1495 24.8675 8.20633 24.7305C8.26317 24.5936 8.34647 24.4692 8.45146 24.3644L16.3434 16.4725C16.4481 16.3675 16.5726 16.2842 16.7095 16.2274C16.8465 16.1705 16.9933 16.1413 17.1416 16.1413C17.2899 16.1413 17.4368 16.1705 17.5737 16.2274C17.7107 16.2842 17.8351 16.3675 17.9398 16.4725ZM32.1273 16.4725C32.0223 16.5772 31.939 16.7016 31.8822 16.8386C31.8253 16.9756 31.7961 17.1224 31.7961 17.2707C31.7961 17.419 31.8253 17.5658 31.8822 17.7028C31.939 17.8398 32.0223 17.9642 32.1273 18.0689L39.2233 25.1626L32.1273 32.2564C32.0225 32.3612 31.9393 32.4857 31.8826 32.6226C31.8259 32.7596 31.7967 32.9064 31.7967 33.0546C31.7967 33.2028 31.8259 33.3496 31.8826 33.4866C31.9393 33.6235 32.0225 33.748 32.1273 33.8528C32.2321 33.9576 32.3566 34.0408 32.4935 34.0975C32.6305 34.1542 32.7773 34.1834 32.9255 34.1834C33.0738 34.1834 33.2206 34.1542 33.3575 34.0975C33.4945 34.0408 33.6189 33.9576 33.7237 33.8528L41.6157 25.9609C41.7207 25.8561 41.804 25.7317 41.8608 25.5948C41.9177 25.4578 41.9469 25.3109 41.9469 25.1626C41.9469 25.0144 41.9177 24.8675 41.8608 24.7305C41.804 24.5936 41.7207 24.4692 41.6157 24.3644L33.7237 16.4725C33.619 16.3675 33.4946 16.2842 33.3576 16.2274C33.2207 16.1705 33.0738 16.1413 32.9255 16.1413C32.7772 16.1413 32.6304 16.1705 32.4934 16.2274C32.3565 16.2842 32.232 16.3675 32.1273 16.4725Z" fill="url(#paint0_linear_1094_23)"/>
<defs>
<linearGradient id="paint0_linear_1094_23" x1="8.12024" y1="9.37854" x2="41.9469" y2="9.37854" gradientUnits="userSpaceOnUse">
<stop offset="0.145833" stop-color="#0049D8"/>
<stop offset="1" stop-color="#00A3FF"/>
</linearGradient>
</defs>
</svg>
