<svg width="51" height="51" viewBox="0 0 51 51" fill="none" xmlns="http://www.w3.org/2000/svg">
<rect x="0.203247" y="0.162659" width="50" height="50" fill="white"/>
<path d="M30.7908 10.8376C30.8343 10.6961 30.8495 10.5474 30.8356 10.3999C30.8216 10.2525 30.7788 10.1093 30.7095 9.97842C30.6401 9.84756 30.5457 9.73163 30.4316 9.63725C30.3175 9.54286 30.1859 9.47188 30.0444 9.42836C29.9029 9.38483 29.7541 9.3696 29.6067 9.38356C29.4593 9.39751 29.3161 9.44036 29.1852 9.50966C29.0543 9.57897 28.9384 9.67337 28.844 9.78748C28.7496 9.90159 28.6787 10.0332 28.6351 10.1747L19.6158 39.4877C19.5278 39.7735 19.5571 40.0826 19.6971 40.3469C19.837 40.6112 20.0763 40.809 20.3621 40.8969C20.648 40.9849 20.957 40.9556 21.2213 40.8156C21.4856 40.6757 21.6835 40.4364 21.7714 40.1506L30.7908 10.8376ZM18.1095 16.4725C18.2145 16.5772 18.2978 16.7016 18.3546 16.8386C18.4115 16.9756 18.4407 17.1224 18.4407 17.2707C18.4407 17.419 18.4115 17.5658 18.3546 17.7028C18.2978 17.8398 18.2145 17.9642 18.1095 18.0689L11.0135 25.1626L18.1095 32.2564C18.3212 32.4681 18.4402 32.7552 18.4402 33.0546C18.4402 33.354 18.3212 33.6411 18.1095 33.8528C17.8978 34.0645 17.6107 34.1834 17.3113 34.1834C17.0119 34.1834 16.7248 34.0645 16.5131 33.8528L8.62114 25.9609C8.51615 25.8561 8.43285 25.7317 8.37601 25.5948C8.31917 25.4578 8.28992 25.3109 8.28992 25.1626C8.28992 25.0144 8.31917 24.8675 8.37601 24.7305C8.43285 24.5936 8.51615 24.4692 8.62114 24.3644L16.5131 16.4725C16.6178 16.3675 16.7422 16.2842 16.8792 16.2274C17.0162 16.1705 17.163 16.1413 17.3113 16.1413C17.4596 16.1413 17.6064 16.1705 17.7434 16.2274C17.8804 16.2842 18.0048 16.3675 18.1095 16.4725ZM32.297 16.4725C32.192 16.5772 32.1087 16.7016 32.0519 16.8386C31.995 16.9756 31.9658 17.1224 31.9658 17.2707C31.9658 17.419 31.995 17.5658 32.0519 17.7028C32.1087 17.8398 32.192 17.9642 32.297 18.0689L39.393 25.1626L32.297 32.2564C32.1922 32.3612 32.109 32.4857 32.0523 32.6226C31.9956 32.7596 31.9664 32.9064 31.9664 33.0546C31.9664 33.2028 31.9956 33.3496 32.0523 33.4866C32.109 33.6235 32.1922 33.748 32.297 33.8528C32.4018 33.9576 32.5263 34.0408 32.6632 34.0975C32.8002 34.1542 32.947 34.1834 33.0952 34.1834C33.2434 34.1834 33.3902 34.1542 33.5272 34.0975C33.6642 34.0408 33.7886 33.9576 33.8934 33.8528L41.7854 25.9609C41.8904 25.8561 41.9737 25.7317 42.0305 25.5948C42.0873 25.4578 42.1166 25.3109 42.1166 25.1626C42.1166 25.0144 42.0873 24.8675 42.0305 24.7305C41.9737 24.5936 41.8904 24.4692 41.7854 24.3644L33.8934 16.4725C33.7887 16.3675 33.6643 16.2842 33.5273 16.2274C33.3903 16.1705 33.2435 16.1413 33.0952 16.1413C32.9469 16.1413 32.8001 16.1705 32.6631 16.2274C32.5261 16.2842 32.4017 16.3675 32.297 16.4725Z" fill="url(#paint0_linear_1211_561)"/>
<defs>
<linearGradient id="paint0_linear_1211_561" x1="8.28992" y1="25.1627" x2="42.1166" y2="25.1627" gradientUnits="userSpaceOnUse">
<stop offset="0.154706" stop-color="#00A3FF"/>
<stop offset="1" stop-color="#00FF38"/>
</linearGradient>
</defs>
</svg>
