<svg width="51" height="51" viewBox="0 0 51 51" fill="none" xmlns="http://www.w3.org/2000/svg">
<rect x="0.118286" y="0.162659" width="50" height="50" fill="white"/>
<path d="M30.7058 10.8376C30.7493 10.6961 30.7645 10.5474 30.7506 10.3999C30.7366 10.2525 30.6938 10.1093 30.6245 9.97842C30.5552 9.84756 30.4608 9.73163 30.3467 9.63725C30.2326 9.54286 30.101 9.47188 29.9594 9.42836C29.8179 9.38483 29.6692 9.3696 29.5217 9.38356C29.3743 9.39751 29.2311 9.44036 29.1002 9.50966C28.9694 9.57897 28.8534 9.67337 28.7591 9.78748C28.6647 9.90159 28.5937 10.0332 28.5502 10.1747L19.5308 39.4877C19.4429 39.7735 19.4721 40.0826 19.6121 40.3469C19.7521 40.6112 19.9913 40.809 20.2771 40.8969C20.563 40.9849 20.8721 40.9556 21.1364 40.8156C21.4006 40.6757 21.5985 40.4364 21.6864 40.1506L30.7058 10.8376ZM18.0246 16.4725C18.1296 16.5772 18.2129 16.7016 18.2697 16.8386C18.3265 16.9756 18.3558 17.1224 18.3558 17.2707C18.3558 17.419 18.3265 17.5658 18.2697 17.7028C18.2129 17.8398 18.1296 17.9642 18.0246 18.0689L10.9286 25.1626L18.0246 32.2564C18.2363 32.4681 18.3552 32.7552 18.3552 33.0546C18.3552 33.354 18.2363 33.6411 18.0246 33.8528C17.8129 34.0645 17.5257 34.1834 17.2263 34.1834C16.927 34.1834 16.6398 34.0645 16.4281 33.8528L8.53618 25.9609C8.43119 25.8561 8.34789 25.7317 8.29105 25.5948C8.23421 25.4578 8.20496 25.3109 8.20496 25.1626C8.20496 25.0144 8.23421 24.8675 8.29105 24.7305C8.34789 24.5936 8.43119 24.4692 8.53618 24.3644L16.4281 16.4725C16.5329 16.3675 16.6573 16.2842 16.7942 16.2274C16.9312 16.1705 17.078 16.1413 17.2263 16.1413C17.3746 16.1413 17.5215 16.1705 17.6584 16.2274C17.7954 16.2842 17.9198 16.3675 18.0246 16.4725ZM32.212 16.4725C32.107 16.5772 32.0237 16.7016 31.9669 16.8386C31.9101 16.9756 31.8808 17.1224 31.8808 17.2707C31.8808 17.419 31.9101 17.5658 31.9669 17.7028C32.0237 17.8398 32.107 17.9642 32.212 18.0689L39.308 25.1626L32.212 32.2564C32.1072 32.3612 32.0241 32.4857 31.9673 32.6226C31.9106 32.7596 31.8814 32.9064 31.8814 33.0546C31.8814 33.2028 31.9106 33.3496 31.9673 33.4866C32.0241 33.6235 32.1072 33.748 32.212 33.8528C32.3169 33.9576 32.4413 34.0408 32.5783 34.0975C32.7152 34.1542 32.862 34.1834 33.0102 34.1834C33.1585 34.1834 33.3053 34.1542 33.4422 34.0975C33.5792 34.0408 33.7036 33.9576 33.8085 33.8528L41.7004 25.9609C41.8054 25.8561 41.8887 25.7317 41.9455 25.5948C42.0024 25.4578 42.0316 25.3109 42.0316 25.1626C42.0316 25.0144 42.0024 24.8675 41.9455 24.7305C41.8887 24.5936 41.8054 24.4692 41.7004 24.3644L33.8085 16.4725C33.7037 16.3675 33.5793 16.2842 33.4423 16.2274C33.3054 16.1705 33.1585 16.1413 33.0102 16.1413C32.8619 16.1413 32.7151 16.1705 32.5781 16.2274C32.4412 16.2842 32.3168 16.3675 32.212 16.4725Z" fill="url(#paint0_linear_1196_370)"/>
<defs>
<linearGradient id="paint0_linear_1196_370" x1="8.20496" y1="25.1627" x2="42.0316" y2="25.1627" gradientUnits="userSpaceOnUse">
<stop stop-color="#FF3087"/>
<stop offset="1" stop-color="#FFC42E"/>
</linearGradient>
</defs>
</svg>
