<svg width="210" height="210" viewBox="0 0 210 210" fill="none" xmlns="http://www.w3.org/2000/svg">
<g filter="url(#filter0_d_475_1262)">
<circle cx="105" cy="98" r="74.5" fill="white" stroke="#FF005C" stroke-width="3"/>
<path d="M92.3333 102.333C98.2267 102.333 103 97.56 103 91.6667C103 85.7733 98.2267 81 92.3333 81C86.44 81 81.6667 85.7733 81.6667 91.6667C81.6667 97.56 86.44 102.333 92.3333 102.333ZM92.3333 107.667C85.2133 107.667 71 111.24 71 118.333V121C71 122.467 72.2 123.667 73.6667 123.667H111C112.467 123.667 113.667 122.467 113.667 121V118.333C113.667 111.24 99.4533 107.667 92.3333 107.667Z" fill="url(#paint0_linear_475_1262)"/>
<g clip-path="url(#clip0_475_1262)">
<path d="M134 74.5H114C112.625 74.5 111.5 75.625 111.5 77V99.5L116.5 94.5H134C135.375 94.5 136.5 93.375 136.5 92V77C136.5 75.625 135.375 74.5 134 74.5Z" fill="url(#paint1_linear_475_1262)"/>
</g>
</g>
<defs>
<filter id="filter0_d_475_1262" x="0" y="0" width="210" height="210" filterUnits="userSpaceOnUse" color-interpolation-filters="sRGB">
<feFlood flood-opacity="0" result="BackgroundImageFix"/>
<feColorMatrix in="SourceAlpha" type="matrix" values="0 0 0 0 0 0 0 0 0 0 0 0 0 0 0 0 0 0 127 0" result="hardAlpha"/>
<feOffset dy="7"/>
<feGaussianBlur stdDeviation="14.5"/>
<feComposite in2="hardAlpha" operator="out"/>
<feColorMatrix type="matrix" values="0 0 0 0 0.392157 0 0 0 0 0.392157 0 0 0 0 0.435294 0 0 0 0.2 0"/>
<feBlend mode="normal" in2="BackgroundImageFix" result="effect1_dropShadow_475_1262"/>
<feBlend mode="normal" in="SourceGraphic" in2="effect1_dropShadow_475_1262" result="shape"/>
</filter>
<linearGradient id="paint0_linear_475_1262" x1="67.1301" y1="89.7425" x2="118.761" y2="90.6469" gradientUnits="userSpaceOnUse">
<stop offset="0.302083" stop-color="#E4007B"/>
<stop offset="1" stop-color="#FF002E"/>
</linearGradient>
<linearGradient id="paint1_linear_475_1262" x1="109.232" y1="79.6226" x2="139.485" y2="80.1525" gradientUnits="userSpaceOnUse">
<stop offset="0.302083" stop-color="#E4007B"/>
<stop offset="1" stop-color="#FF002E"/>
</linearGradient>
<clipPath id="clip0_475_1262">
<rect width="30" height="30" fill="white" transform="translate(109 72)"/>
</clipPath>
</defs>
</svg>
