<svg width="50" height="43" viewBox="0 0 50 43" fill="none" xmlns="http://www.w3.org/2000/svg">
<path d="M27 9C34.4757 9 40.6954 14.3889 42 21.5C40.6967 28.6111 34.4757 34 27 34C19.5243 34 13.3046 28.6111 12 21.5C13.3033 14.3889 19.5243 9 27 9ZM27 31.2222C29.8276 31.2216 32.5713 30.2595 34.7819 28.4933C36.9926 26.7271 38.5393 24.2615 39.1689 21.5C38.537 18.7407 36.9893 16.2778 34.7788 14.5139C32.5684 12.7501 29.826 11.7896 27 11.7896C24.174 11.7896 21.4316 12.7501 19.2212 14.5139C17.0107 16.2778 15.463 18.7407 14.8311 21.5C15.4607 24.2615 17.0074 26.7271 19.2181 28.4933C21.4287 30.2595 24.1724 31.2216 27 31.2222ZM27 27.75C25.3453 27.75 23.7584 27.0915 22.5883 25.9194C21.4183 24.7473 20.761 23.1576 20.761 21.5C20.761 19.8424 21.4183 18.2527 22.5883 17.0806C23.7584 15.9085 25.3453 15.25 27 15.25C28.6547 15.25 30.2416 15.9085 31.4117 17.0806C32.5817 18.2527 33.239 19.8424 33.239 21.5C33.239 23.1576 32.5817 24.7473 31.4117 25.9194C30.2416 27.0915 28.6547 27.75 27 27.75ZM27 24.9722C27.9193 24.9722 28.8009 24.6064 29.4509 23.9552C30.1009 23.3041 30.4661 22.4209 30.4661 21.5C30.4661 20.5791 30.1009 19.6959 29.4509 19.0448C28.8009 18.3936 27.9193 18.0278 27 18.0278C26.0807 18.0278 25.1991 18.3936 24.5491 19.0448C23.8991 19.6959 23.5339 20.5791 23.5339 21.5C23.5339 22.4209 23.8991 23.3041 24.5491 23.9552C25.1991 24.6064 26.0807 24.9722 27 24.9722Z" fill="url(#paint0_linear_6609_275)"/>
<defs>
<linearGradient id="paint0_linear_6609_275" x1="12" y1="9" x2="42" y2="9" gradientUnits="userSpaceOnUse">
<stop offset="0.145833" stop-color="#0049D8"/>
<stop offset="1" stop-color="#00A3FF"/>
</linearGradient>
</defs>
</svg>
