<svg width="70" height="70" viewBox="0 0 70 70" fill="none" xmlns="http://www.w3.org/2000/svg">
<g clip-path="url(#clip0_6579_1884)">
<path opacity="0.1" d="M64.4453 0.567505H5.44531C2.68389 0.567505 0.445312 2.80608 0.445312 5.5675V64.5675C0.445312 67.3289 2.68389 69.5675 5.44531 69.5675H64.4453C67.2067 69.5675 69.4453 67.3289 69.4453 64.5675V5.5675C69.4453 2.80608 67.2067 0.567505 64.4453 0.567505Z" fill="#512BD4"/>
<path d="M19.4941 29.4301H37.5694" stroke="url(#paint0_linear_6579_1884)" stroke-width="2" stroke-linecap="round"/>
<path d="M28.752 21.4946C29.3148 21.4946 29.8647 21.552 30.3965 21.6606V25.021C30.3965 25.5731 30.8444 26.0208 31.3965 26.021C31.9488 26.021 32.3965 25.5733 32.3965 25.021V22.3491C35.1967 23.7402 37.1279 26.6842 37.1279 30.0913C37.1279 34.8391 33.378 38.6878 28.752 38.688C24.1258 38.688 20.375 34.8392 20.375 30.0913C20.375 26.6844 22.3064 23.7403 25.1064 22.3491V25.021C25.1064 25.5732 25.5542 26.0209 26.1064 26.021C26.6587 26.021 27.1064 25.5733 27.1064 25.021V21.6606C27.6384 21.5519 28.1888 21.4946 28.752 21.4946Z" fill="url(#paint1_linear_6579_1884)"/>
<path d="M25 30H32.9355V30C32.9355 31.9478 31.3564 33.5269 29.4086 33.5269H28.5269C26.579 33.5269 25 31.9478 25 30V30Z" fill="#FAF5FF"/>
<path d="M25.667 43.3333H30.957C36.7183 43.3333 41.5006 47.5101 42.4492 53.0003H14.1748C15.1234 47.5101 19.9057 43.3333 25.667 43.3333Z" stroke="url(#paint2_linear_6579_1884)" stroke-width="4"/>
<path d="M50.158 14.1593C51.1593 13.9474 52.1933 13.9469 53.1949 14.1578C53.2616 14.6024 53.4268 15.0261 53.678 15.3973C53.9293 15.7686 54.2602 16.0779 54.6462 16.3023C55.0319 16.5275 55.4629 16.6621 55.9072 16.6959C56.3515 16.7298 56.7977 16.6621 57.2125 16.4979C57.8942 17.2682 58.4105 18.1726 58.7291 19.1542C58.3812 19.4349 58.1004 19.791 57.9076 20.1963C57.7149 20.6016 57.615 21.0454 57.6156 21.495C57.6156 22.4421 58.0506 23.2866 58.7306 23.8358C58.4101 24.8166 57.8931 25.7202 57.2117 26.4906C56.797 26.3265 56.351 26.2589 55.9068 26.2928C55.4627 26.3266 55.0318 26.4611 54.6462 26.6862C54.2605 26.9105 53.9298 27.2196 53.6787 27.5906C53.4276 27.9616 53.2625 28.3849 53.1956 28.8292C52.1944 29.0416 51.1604 29.0426 50.1587 28.8321C50.0923 28.3872 49.9273 27.9631 49.6761 27.5914C49.4248 27.2197 49.0937 26.91 48.7074 26.6854C48.3217 26.4603 47.8906 26.3259 47.4463 26.2922C47.002 26.2585 46.5559 26.3263 46.1411 26.4906C45.4594 25.72 44.943 24.8154 44.6245 23.8336C44.9722 23.5531 45.2529 23.1971 45.4457 22.7921C45.6384 22.3871 45.7384 21.9435 45.738 21.4942C45.7384 21.0446 45.6384 20.6006 45.4453 20.1953C45.2523 19.7901 44.9712 19.434 44.623 19.1534C44.9435 18.1727 45.4605 17.269 46.1419 16.4987C46.5566 16.6627 47.0026 16.7303 47.4468 16.6965C47.8909 16.6626 48.3218 16.5282 48.7074 16.3031C49.0931 16.0787 49.4238 15.7696 49.6749 15.3986C49.926 15.0276 50.0911 14.6036 50.158 14.1593ZM51.6768 23.7429C52.2675 23.7429 52.8339 23.5061 53.2516 23.0845C53.6692 22.6629 53.9038 22.0912 53.9038 21.495C53.9038 20.8988 53.6692 20.3271 53.2516 19.9055C52.8339 19.4839 52.2675 19.2471 51.6768 19.2471C51.0862 19.2471 50.5197 19.4839 50.1021 19.9055C49.6844 20.3271 49.4498 20.8988 49.4498 21.495C49.4498 22.0912 49.6844 22.6629 50.1021 23.0845C50.5197 23.5061 51.0862 23.7429 51.6768 23.7429Z" fill="url(#paint3_linear_6579_1884)"/>
<path d="M45.3118 29.5388C45.9948 29.3942 46.6999 29.3939 47.383 29.5378C47.4285 29.8409 47.5411 30.1299 47.7125 30.3831C47.8838 30.6363 48.1095 30.8472 48.3727 31.0003C48.6358 31.1539 48.9297 31.2456 49.2327 31.2687C49.5358 31.2918 49.84 31.2456 50.1229 31.1337C50.5878 31.659 50.94 32.2758 51.1572 32.9452C50.92 33.1366 50.7285 33.3795 50.597 33.6559C50.4655 33.9323 50.3975 34.235 50.3978 34.5416C50.3978 35.1875 50.6945 35.7634 51.1582 36.138C50.9397 36.8068 50.5871 37.4231 50.1224 37.9485C49.8396 37.8366 49.5354 37.7905 49.2325 37.8136C48.9296 37.8367 48.6357 37.9284 48.3727 38.0819C48.1097 38.2349 47.8842 38.4457 47.7129 38.6987C47.5417 38.9517 47.4291 39.2404 47.3835 39.5434C46.7006 39.6883 45.9955 39.689 45.3124 39.5454C45.2671 39.242 45.1546 38.9527 44.9832 38.6993C44.8118 38.4458 44.586 38.2346 44.3226 38.0814C44.0595 37.9279 43.7656 37.8362 43.4625 37.8132C43.1595 37.7902 42.8553 37.8365 42.5724 37.9485C42.1075 37.423 41.7553 36.806 41.5381 36.1365C41.7753 35.9452 41.9667 35.7024 42.0981 35.4262C42.2296 35.15 42.2977 34.8475 42.2975 34.5411C42.2978 34.2344 42.2295 33.9316 42.0979 33.6553C41.9662 33.3789 41.7746 33.136 41.5371 32.9447C41.7556 32.2758 42.1082 31.6595 42.5729 31.1342C42.8558 31.2461 43.1599 31.2922 43.4629 31.2691C43.7658 31.246 44.0596 31.1543 44.3226 31.0008C44.5856 30.8478 44.8111 30.637 44.9824 30.384C45.1537 30.1309 45.2663 29.8417 45.3118 29.5388ZM46.3477 36.0746C46.7505 36.0746 47.1368 35.9131 47.4216 35.6256C47.7065 35.3381 47.8665 34.9482 47.8665 34.5416C47.8665 34.135 47.7065 33.7451 47.4216 33.4576C47.1368 33.1701 46.7505 33.0086 46.3477 33.0086C45.9449 33.0086 45.5585 33.1701 45.2737 33.4576C44.9889 33.7451 44.8289 34.135 44.8289 34.5416C44.8289 34.9482 44.9889 35.3381 45.2737 35.6256C45.5585 35.9131 45.9449 36.0746 46.3477 36.0746Z" fill="url(#paint4_linear_6579_1884)"/>
</g>
<defs>
<linearGradient id="paint0_linear_6579_1884" x1="19.4941" y1="29.4301" x2="19.4941" y2="28.4301" gradientUnits="userSpaceOnUse">
<stop stop-color="#5300BD"/>
<stop offset="1" stop-color="#EB00FF"/>
</linearGradient>
<linearGradient id="paint1_linear_6579_1884" x1="20.375" y1="21.4946" x2="37.1277" y2="21.4946" gradientUnits="userSpaceOnUse">
<stop stop-color="#5300BD"/>
<stop offset="1" stop-color="#EB00FF"/>
</linearGradient>
<linearGradient id="paint2_linear_6579_1884" x1="12" y1="41.3333" x2="44.6236" y2="41.3333" gradientUnits="userSpaceOnUse">
<stop stop-color="#5300BD"/>
<stop offset="1" stop-color="#EB00FF"/>
</linearGradient>
<linearGradient id="paint3_linear_6579_1884" x1="44.623" y1="14" x2="58.7306" y2="14" gradientUnits="userSpaceOnUse">
<stop stop-color="#5300BD"/>
<stop offset="1" stop-color="#EB00FF"/>
</linearGradient>
<linearGradient id="paint4_linear_6579_1884" x1="41.5371" y1="29.4301" x2="51.1582" y2="29.4301" gradientUnits="userSpaceOnUse">
<stop stop-color="#5300BD"/>
<stop offset="1" stop-color="#EB00FF"/>
</linearGradient>
<clipPath id="clip0_6579_1884">
<rect width="70" height="70" fill="white"/>
</clipPath>
</defs>
</svg>
