<svg width="80" height="82" viewBox="0 0 80 82" fill="none" xmlns="http://www.w3.org/2000/svg">
<mask id="path-1-inside-1_1655_806" fill="white">
<path fill-rule="evenodd" clip-rule="evenodd" d="M43.2487 2.59485C43.925 2.64151 44.338 3.35038 44.1645 4.00572C43.4216 6.81216 43.7794 10.8809 48.4998 13.9661C48.8712 14.2089 49.0631 14.6493 48.972 15.0835C47.7306 21.0009 46.9092 37.1707 67.3933 33.4609C67.7291 33.4001 68.0898 33.5071 68.3257 33.7537C71.4501 37.0191 73.4912 38.8424 78.6499 37.9033C79.2413 37.7956 79.816 38.1978 79.8641 38.797C79.949 39.8543 79.9923 40.9235 79.9923 42.0027C79.9923 63.8194 62.3064 81.5054 40.4896 81.5054C18.6729 81.5054 0.986938 63.8194 0.986938 42.0027C0.986938 20.186 18.6729 2.5 40.4896 2.5C41.4171 2.5 42.3371 2.53196 43.2487 2.59485Z"/>
</mask>
<path d="M78.6499 37.9033L79.3663 41.8386L78.6499 37.9033ZM79.8641 38.797L83.8513 38.4768L79.8641 38.797ZM67.3933 33.4609L66.6805 29.5249L67.3933 33.4609ZM68.3257 33.7537L71.2159 30.9884L68.3257 33.7537ZM44.1645 4.00572L48.0313 5.02931L44.1645 4.00572ZM48.4998 13.9661L46.3113 17.3144L48.4998 13.9661ZM48.972 15.0835L45.0572 14.2622L48.972 15.0835ZM50.6882 10.6179C49.0032 9.51657 48.3493 8.42707 48.0768 7.61242C47.786 6.74311 47.817 5.83874 48.0313 5.02931L40.2977 2.98214C39.7691 4.97914 39.6076 7.51237 40.49 10.1504C41.3908 12.843 43.276 15.3305 46.3113 17.3144L50.6882 10.6179ZM66.6805 29.5249C62.019 30.3691 59.0319 29.9938 57.1531 29.2604C55.3672 28.5633 54.2975 27.4363 53.5997 26.0666C52.0381 23.0014 52.3177 18.6175 52.8868 15.9048L45.0572 14.2622C44.3849 17.4669 43.6331 24.1266 46.4714 29.6981C47.9737 32.6469 50.4618 35.2365 54.2443 36.7129C57.9337 38.1529 62.5255 38.4076 68.1061 37.3969L66.6805 29.5249ZM77.9335 33.9679C75.9401 34.3308 75.0486 34.0854 74.4647 33.8034C73.665 33.4171 72.8381 32.6839 71.2159 30.9884L65.4356 36.519C66.9377 38.0889 68.6935 39.9001 70.9851 41.007C73.4925 42.2182 76.201 42.4148 79.3663 41.8386L77.9335 33.9679ZM75.877 39.1172C75.9533 40.0681 75.9923 41.0304 75.9923 42.0027H83.9923C83.9923 40.8165 83.9447 39.6405 83.8513 38.4768L75.877 39.1172ZM75.9923 42.0027C75.9923 61.6103 60.0972 77.5054 40.4896 77.5054V85.5054C64.5155 85.5054 83.9923 66.0286 83.9923 42.0027H75.9923ZM40.4896 77.5054C20.882 77.5054 4.98694 61.6103 4.98694 42.0027H-3.01306C-3.01306 66.0286 16.4638 85.5054 40.4896 85.5054V77.5054ZM4.98694 42.0027C4.98694 22.3951 20.882 6.5 40.4896 6.5V-1.5C16.4638 -1.5 -3.01306 17.9768 -3.01306 42.0027H4.98694ZM40.4896 6.5C41.3252 6.5 42.1534 6.5288 42.9733 6.58537L43.524 -1.39566C42.5209 -1.46487 41.509 -1.5 40.4896 -1.5V6.5ZM79.3663 41.8386C77.8537 42.1139 76.0361 41.0992 75.877 39.1172L83.8513 38.4768C83.5959 35.2964 80.6288 33.4773 77.9335 33.9679L79.3663 41.8386ZM68.1061 37.3969C67.2068 37.5597 66.187 37.3044 65.4356 36.519L71.2159 30.9884C69.9925 29.7098 68.2513 29.2404 66.6805 29.5249L68.1061 37.3969ZM48.0313 5.02931C48.7123 2.45676 47.2075 -1.14152 43.524 -1.39566L42.9733 6.58537C41.8842 6.51022 41.0653 5.88128 40.6361 5.19664C40.2277 4.54518 40.0946 3.74919 40.2977 2.98214L48.0313 5.02931ZM46.3113 17.3144C45.3606 16.693 44.7962 15.5066 45.0572 14.2622L52.8868 15.9048C53.3301 13.7919 52.3818 11.7248 50.6882 10.6179L46.3113 17.3144Z" fill="white" mask="url(#path-1-inside-1_1655_806)"/>
<path d="M64.2393 4.72955C64.2393 6.91877 62.4645 8.69348 60.2753 8.69348C58.0861 8.69348 56.3114 6.91877 56.3114 4.72955C56.3114 2.54034 58.0861 0.765625 60.2753 0.765625C62.4645 0.765625 64.2393 2.54034 64.2393 4.72955Z" fill="white"/>
<path d="M26.8696 36.7088C26.8696 39.9242 24.263 42.5309 21.0475 42.5309C17.8321 42.5309 15.2255 39.9242 15.2255 36.7088C15.2255 33.4934 17.8321 30.8867 21.0475 30.8867C24.263 30.8867 26.8696 33.4934 26.8696 36.7088Z" fill="white"/>
<path d="M37.6718 26.0912C37.6718 27.6475 36.4102 28.9091 34.8539 28.9091C33.2977 28.9091 32.0361 27.6475 32.0361 26.0912C32.0361 24.535 33.2977 23.2734 34.8539 23.2734C36.4102 23.2734 37.6718 24.535 37.6718 26.0912Z" fill="white"/>
<path d="M43.3074 42.5327C43.3074 44.0889 42.0458 45.3505 40.4896 45.3505C38.9333 45.3505 37.6718 44.0889 37.6718 42.5327C37.6718 40.9764 38.9333 39.7148 40.4896 39.7148C42.0458 39.7148 43.3074 40.9764 43.3074 42.5327Z" fill="white"/>
<path d="M29.2578 57.4411C29.2578 59.7083 27.4199 61.5463 25.1526 61.5463C22.8854 61.5463 21.0475 59.7083 21.0475 57.4411C21.0475 55.1739 22.8854 53.3359 25.1526 53.3359C27.4199 53.3359 29.2578 55.1739 29.2578 57.4411Z" fill="white"/>
<path d="M58.3378 62.4256C58.3378 65.1783 56.1063 67.4098 53.3536 67.4098C50.6009 67.4098 48.3694 65.1783 48.3694 62.4256C48.3694 59.6729 50.6009 57.4414 53.3536 57.4414C56.1063 57.4414 58.3378 59.6729 58.3378 62.4256Z" fill="white"/>
<path d="M64.2393 18.7308C64.2393 20.2864 62.9782 21.5475 61.4225 21.5475C59.8669 21.5475 58.6058 20.2864 58.6058 18.7308C58.6058 17.1751 59.8669 15.9141 61.4225 15.9141C62.9782 15.9141 64.2393 17.1751 64.2393 18.7308Z" fill="white"/>
<path d="M77.4988 23.2737C77.4988 24.2275 76.7256 25.0006 75.7719 25.0006C74.8182 25.0006 74.045 24.2275 74.045 23.2737C74.045 22.32 74.8182 21.5469 75.7719 21.5469C76.7256 21.5469 77.4988 22.32 77.4988 23.2737Z" fill="white"/>
<circle cx="66.8345" cy="78.8665" r="2.63605" fill="white"/>
<circle cx="75.1736" cy="76.2289" r="1.40082" fill="white"/>
</svg>
