<svg width="820" height="330" viewBox="0 0 820 330" fill="none" xmlns="http://www.w3.org/2000/svg">
<path d="M10.9393 329.061C11.5251 329.646 12.4749 329.646 13.0607 329.061L22.6066 319.515C23.1924 318.929 23.1924 317.979 22.6066 317.393C22.0208 316.808 21.0711 316.808 20.4853 317.393L12 325.879L3.51472 317.393C2.92893 316.808 1.97919 316.808 1.3934 317.393C0.807611 317.979 0.807611 318.929 1.3934 319.515L10.9393 329.061ZM13.5 328C13.5 326.267 13.5301 324.555 13.5898 322.862L10.5916 322.756C10.5307 324.485 10.5 326.232 10.5 328H13.5ZM14.3007 312.946C14.6542 309.719 15.123 306.571 15.7042 303.498L12.7564 302.94C12.1605 306.091 11.6803 309.317 11.3185 312.619L14.3007 312.946ZM17.9842 293.776C18.8767 290.61 19.898 287.531 21.0443 284.535L18.2424 283.463C17.0634 286.544 16.0136 289.71 15.0968 292.962L17.9842 293.776ZM24.9587 275.585C26.4141 272.642 28.0011 269.787 29.7155 267.014L27.1639 265.436C25.4003 268.288 23.7674 271.227 22.2696 274.255L24.9587 275.585ZM35.2257 258.96C37.1801 256.365 39.2569 253.85 41.4523 251.411L39.2226 249.404C36.9703 251.906 34.8378 254.489 32.8294 257.155L35.2257 258.96ZM48.362 244.348C50.6938 242.149 53.1316 240.018 55.6719 237.953L53.7794 235.625C51.1843 237.735 48.6911 239.914 46.3039 242.165L48.362 244.348ZM63.5969 231.951C66.2189 230.099 68.9314 228.305 71.7314 226.567L70.149 224.018C67.3009 225.787 64.5387 227.613 61.8661 229.501L63.5969 231.951ZM80.2495 221.595C83.1253 220.016 86.0801 218.487 89.111 217.007L87.7947 214.311C84.7226 215.811 81.7252 217.362 78.8054 218.965L80.2495 221.595ZM97.9436 212.923C100.955 211.605 104.032 210.328 107.172 209.093L106.074 206.301C102.9 207.55 99.7876 208.84 96.7403 210.175L97.9436 212.923ZM116.423 205.634C119.47 204.552 122.57 203.503 125.721 202.488L124.801 199.632C121.623 200.656 118.494 201.714 115.418 202.807L116.423 205.634ZM135.326 199.538C138.441 198.627 141.6 197.745 144.803 196.891L144.03 193.992C140.805 194.852 137.622 195.741 134.484 196.659L135.326 199.538ZM154.347 194.457C157.568 193.672 160.829 192.912 164.129 192.177L163.476 189.249C160.158 189.988 156.878 190.752 153.636 191.542L154.347 194.457ZM173.79 190.115C176.979 189.464 180.2 188.833 183.452 188.222L182.899 185.274C179.631 185.887 176.394 186.521 173.189 187.176L173.79 190.115ZM193.301 186.449C196.55 185.888 199.828 185.346 203.133 184.821L202.663 181.858C199.345 182.385 196.054 182.93 192.79 183.493L193.301 186.449ZM212.848 183.339C216.111 182.861 219.398 182.398 222.708 181.95L222.306 178.977C218.986 179.426 215.688 179.891 212.413 180.37L212.848 183.339ZM232.695 180.652C235.921 180.249 239.167 179.859 242.432 179.482L242.087 176.501C238.814 176.88 235.559 177.271 232.324 177.675L232.695 180.652ZM252.282 178.384C255.583 178.03 258.902 177.688 262.238 177.356L261.941 174.37C258.598 174.703 255.271 175.046 251.962 175.401L252.282 178.384ZM272.137 176.406C275.401 176.104 278.681 175.811 281.973 175.527L281.715 172.538C278.417 172.823 275.131 173.116 271.86 173.419L272.137 176.406ZM291.891 174.701C295.209 174.433 298.541 174.174 301.883 173.922L301.658 170.931C298.31 171.183 294.974 171.443 291.65 171.71L291.891 174.701ZM311.743 173.202C315.03 172.969 318.328 172.743 321.635 172.522L321.435 169.529C318.124 169.75 314.823 169.976 311.531 170.21L311.743 173.202ZM331.58 171.877C334.896 171.667 338.219 171.463 341.55 171.263L341.37 168.269C338.037 168.469 334.71 168.673 331.391 168.883L331.58 171.877ZM351.434 170.684C354.736 170.495 358.043 170.309 361.355 170.127L361.19 167.132C357.876 167.314 354.566 167.5 351.263 167.689L351.434 170.684ZM371.306 169.589C374.617 169.412 377.933 169.239 381.251 169.067L381.096 166.071C377.776 166.243 374.459 166.417 371.146 166.593L371.306 169.589ZM391.17 168.559C394.479 168.391 397.79 168.224 401.103 168.058L400.953 165.062C397.64 165.228 394.328 165.395 391.018 165.563L391.17 168.559ZM411.044 167.562C414.358 167.397 417.673 167.232 420.987 167.066L420.837 164.07C417.523 164.236 414.209 164.401 410.894 164.566L411.044 167.562ZM430.928 166.567C434.24 166.4 437.551 166.232 440.86 166.062L440.707 163.066C437.399 163.236 434.088 163.404 430.776 163.571L430.928 166.567ZM450.78 165.547C454.103 165.372 457.423 165.194 460.74 165.014L460.577 162.019C457.263 162.199 453.944 162.376 450.622 162.551L450.78 165.547ZM470.691 164.463C474.003 164.276 477.31 164.086 480.611 163.891L480.435 160.896C477.136 161.091 473.831 161.281 470.521 161.468L470.691 164.463ZM490.5 163.294C493.839 163.087 497.171 162.876 500.495 162.658L500.299 159.665C496.979 159.882 493.65 160.093 490.315 160.3L490.5 163.294ZM510.441 161.99C513.747 161.761 517.045 161.526 520.333 161.284L520.113 158.292C516.83 158.534 513.536 158.768 510.234 158.997L510.441 161.99ZM530.236 160.532C533.579 160.27 536.91 160 540.229 159.721L539.978 156.732C536.665 157.01 533.339 157.279 530.002 157.541L530.236 160.532ZM550.147 158.86C553.44 158.563 556.72 158.258 559.985 157.943L559.697 154.957C556.439 155.271 553.166 155.576 549.879 155.872L550.147 158.86ZM569.942 156.945C573.278 156.599 576.597 156.241 579.899 155.871L579.565 152.89C576.272 153.259 572.96 153.616 569.632 153.961L569.942 156.945ZM589.75 154.725C593.036 154.328 596.303 153.918 599.55 153.494L599.162 150.519C595.925 150.942 592.667 151.351 589.39 151.746L589.75 154.725ZM609.548 152.136C612.858 151.669 616.146 151.185 619.41 150.686L618.956 147.72C615.704 148.218 612.428 148.7 609.128 149.166L609.548 152.136ZM629.128 149.138C632.462 148.585 635.769 148.014 639.047 147.423L638.515 144.471C635.251 145.059 631.958 145.628 628.637 146.178L629.128 149.138ZM648.897 145.572C652.151 144.935 655.373 144.276 658.564 143.596L657.939 140.662C654.765 141.339 651.558 141.994 648.321 142.628L648.897 145.572ZM668.326 141.423C671.625 140.656 674.887 139.864 678.11 139.045L677.371 136.137C674.169 136.951 670.927 137.739 667.646 138.501L668.326 141.423ZM687.659 136.507C690.899 135.606 694.096 134.676 697.248 133.715L696.373 130.846C693.246 131.799 690.073 132.722 686.856 133.616L687.659 136.507ZM706.857 130.641C710.01 129.582 713.114 128.49 716.165 127.361L715.124 124.547C712.103 125.665 709.028 126.748 705.902 127.797L706.857 130.641ZM725.53 123.715C728.672 122.428 731.752 121.098 734.767 119.724L733.523 116.994C730.545 118.352 727.5 119.666 724.393 120.939L725.53 123.715ZM743.617 115.467C746.682 113.91 749.673 112.3 752.583 110.637L751.095 108.032C748.229 109.67 745.282 111.256 742.258 112.792L743.617 115.467ZM761.119 105.453C763.949 103.626 766.692 101.739 769.344 99.7893L767.567 97.372C764.966 99.2841 762.273 101.137 759.491 102.933L761.119 105.453ZM777.284 93.534C779.834 91.3781 782.283 89.1528 784.627 86.8555L782.527 84.713C780.238 86.957 777.843 89.1329 775.347 91.2431L777.284 93.534ZM791.576 79.4722C793.776 76.9319 795.859 74.3115 797.819 71.6083L795.39 69.8472C793.482 72.4787 791.453 75.0315 789.308 77.5082L791.576 79.4722ZM803.339 63.2303C805.055 60.3508 806.642 57.386 808.098 54.3331L805.39 53.0419C803.974 56.0108 802.43 58.8941 800.762 61.6949L803.339 63.2303ZM811.998 45.0906C813.142 41.9942 814.16 38.8153 815.049 35.5514L812.154 34.763C811.288 37.9428 810.297 41.038 809.183 44.051L811.998 45.0906ZM817.312 25.5749C817.89 22.4178 818.355 19.1876 818.706 15.8825L815.723 15.5658C815.38 18.7977 814.925 21.9533 814.361 25.0346L817.312 25.5749ZM819.411 5.7412C819.47 4.01331 819.5 2.26632 819.5 0.5H816.5C816.5 2.23267 816.471 3.94546 816.413 5.63863L819.411 5.7412Z" fill="#9398AF"/>
</svg>
