<svg width="819" height="323" viewBox="0 0 819 323" fill="none" xmlns="http://www.w3.org/2000/svg">
<path d="M808.561 322.561C807.975 323.146 807.025 323.146 806.439 322.561L796.893 313.015C796.308 312.429 796.308 311.479 796.893 310.893C797.479 310.308 798.429 310.308 799.015 310.893L807.5 319.379L815.985 310.893C816.571 310.308 817.521 310.308 818.107 310.893C818.692 311.479 818.692 312.429 818.107 313.015L808.561 322.561ZM806 321.5C806 319.752 805.977 318.022 805.932 316.312L808.931 316.234C808.977 317.97 809 319.726 809 321.5H806ZM805.396 306.281C805.129 303.013 804.774 299.819 804.334 296.699L807.305 296.28C807.753 299.46 808.114 302.712 808.386 306.037L805.396 306.281ZM802.645 286.996C801.957 283.699 801.166 280.489 800.275 277.366L803.16 276.543C804.071 279.737 804.879 283.017 805.581 286.383L802.645 286.996ZM797.305 268.248C796.143 265.092 794.87 262.031 793.489 259.062L796.21 257.797C797.626 260.842 798.93 263.979 800.12 267.212L797.305 268.248ZM789.001 250.379C787.378 247.538 785.645 244.788 783.807 242.127L786.276 240.423C788.162 243.153 789.94 245.975 791.606 248.89L789.001 250.379ZM777.888 234.293C775.81 231.773 773.626 229.34 771.341 226.991L773.491 224.899C775.833 227.305 778.071 229.8 780.202 232.385L777.888 234.293ZM764.268 220.271C761.813 218.111 759.261 216.031 756.616 214.027L758.427 211.635C761.129 213.682 763.738 215.809 766.25 218.018L764.268 220.271ZM748.627 208.39C745.918 206.609 743.126 204.896 740.254 203.248L741.747 200.646C744.67 202.323 747.513 204.068 750.275 205.883L748.627 208.39ZM731.461 198.529C728.602 197.094 725.674 195.716 722.68 194.391L723.894 191.648C726.931 192.991 729.902 194.39 732.806 195.848L731.461 198.529ZM713.502 190.579C710.462 189.394 707.361 188.258 704.203 187.169L705.18 184.333C708.375 185.434 711.513 186.583 714.591 187.784L713.502 190.579ZM694.897 184.149C691.743 183.186 688.537 182.265 685.28 181.385L686.063 178.489C689.35 179.377 692.587 180.307 695.774 181.28L694.897 184.149ZM675.718 178.949C672.566 178.194 669.372 177.473 666.138 176.785L666.762 173.851C670.02 174.544 673.239 175.27 676.417 176.032L675.718 178.949ZM656.315 174.821C653.103 174.217 649.853 173.643 646.57 173.098L647.061 170.139C650.365 170.687 653.635 171.265 656.869 171.872L656.315 174.821ZM636.862 171.583C633.595 171.104 630.295 170.651 626.966 170.223L627.349 167.247C630.695 167.677 634.011 168.133 637.297 168.614L636.862 171.583ZM617.061 169.03C613.834 168.667 610.581 168.325 607.304 168.004L607.597 165.018C610.888 165.341 614.155 165.684 617.396 166.049L617.061 169.03ZM597.4 167.099C594.075 166.817 590.727 166.554 587.357 166.309L587.574 163.317C590.956 163.563 594.316 163.827 597.654 164.11L597.4 167.099ZM577.584 165.653C574.308 165.45 571.013 165.263 567.7 165.09L567.856 162.094C571.178 162.267 574.483 162.455 577.77 162.658L577.584 165.653ZM557.708 164.616C554.412 164.475 551.1 164.346 547.773 164.231L547.877 161.232C551.212 161.349 554.532 161.477 557.837 161.619L557.708 164.616ZM537.911 163.924C534.61 163.833 531.296 163.754 527.968 163.684L528.031 160.685C531.365 160.755 534.686 160.834 537.994 160.925L537.911 163.924ZM517.95 163.507C514.668 163.458 511.375 163.418 508.072 163.387L508.1 160.387C511.408 160.419 514.707 160.458 517.994 160.507L517.95 163.507ZM498.163 163.317C494.851 163.301 491.53 163.293 488.201 163.291L488.202 160.291C491.535 160.293 494.861 160.301 498.177 160.317L498.163 163.317ZM478.216 163.304C474.924 163.315 471.625 163.33 468.321 163.351L468.302 160.351C471.61 160.331 474.911 160.315 478.207 160.305L478.216 163.304ZM458.39 163.426C455.074 163.455 451.754 163.489 448.429 163.525L448.396 160.525C451.723 160.489 455.046 160.456 458.364 160.426L458.39 163.426ZM438.475 163.643C435.169 163.685 431.86 163.729 428.548 163.775L428.507 160.775C431.819 160.73 435.129 160.685 438.437 160.644L438.475 163.643ZM418.608 163.917C415.294 163.965 411.977 164.015 408.66 164.064L408.616 161.064C411.933 161.015 415.249 160.966 418.565 160.917L418.608 163.917ZM398.71 164.212C395.393 164.261 392.076 164.309 388.761 164.356L388.719 161.356C392.033 161.309 395.349 161.261 398.665 161.212L398.71 164.212ZM378.821 164.492C375.51 164.535 372.2 164.576 368.894 164.615L368.859 161.615C372.164 161.577 375.472 161.535 378.782 161.492L378.821 164.492ZM358.922 164.721C355.597 164.753 352.276 164.781 348.96 164.805L348.938 161.805C352.252 161.781 355.57 161.753 358.893 161.721L358.922 164.721ZM339.028 164.861C335.72 164.875 332.418 164.884 329.123 164.886L329.121 161.886C332.412 161.884 335.71 161.875 339.015 161.861L339.028 164.861ZM319.11 164.875C315.781 164.864 312.459 164.846 309.146 164.82L309.169 161.82C312.477 161.846 315.795 161.864 319.12 161.875L319.11 164.875ZM299.235 164.719C295.914 164.676 292.603 164.625 289.303 164.563L289.358 161.564C292.652 161.625 295.958 161.676 299.274 161.719L299.235 164.719ZM279.282 164.346C275.954 164.263 272.638 164.169 269.336 164.063L269.432 161.065C272.727 161.17 276.035 161.264 279.357 161.347L279.282 164.346ZM259.472 163.71C256.12 163.577 252.784 163.43 249.464 163.27L249.609 160.273C252.92 160.433 256.248 160.579 259.591 160.712L259.472 163.71ZM239.469 162.739C236.154 162.547 232.858 162.34 229.58 162.116L229.785 159.123C233.052 159.346 236.338 159.553 239.642 159.744L239.469 162.739ZM219.716 161.388C216.345 161.12 212.996 160.833 209.669 160.526L209.945 157.539C213.258 157.844 216.595 158.13 219.954 158.398L219.716 161.388ZM199.761 159.544C196.482 159.196 193.228 158.827 189.998 158.436L190.359 155.458C193.573 155.847 196.813 156.214 200.078 156.561L199.761 159.544ZM179.986 157.14C176.656 156.68 173.355 156.195 170.085 155.682L170.549 152.718C173.8 153.228 177.083 153.711 180.397 154.168L179.986 157.14ZM160.37 154.063C157.045 153.474 153.755 152.856 150.502 152.205L151.091 149.263C154.321 149.909 157.589 150.524 160.893 151.109L160.37 154.063ZM140.674 150.116C137.437 149.386 134.24 148.621 131.084 147.821L131.822 144.913C134.951 145.707 138.122 146.465 141.334 147.19L140.674 150.116ZM121.392 145.209C118.134 144.277 114.925 143.303 111.767 142.285L112.688 139.43C115.813 140.437 118.99 141.401 122.216 142.324L121.392 145.209ZM102.448 139.096C99.248 137.934 96.1058 136.722 93.0243 135.456L94.1638 132.681C97.2053 133.93 100.309 135.128 103.472 136.276L102.448 139.096ZM83.8349 131.44C80.8239 130.04 77.8785 128.582 75.0012 127.066L76.4002 124.412C79.2316 125.904 82.1323 127.34 85.1 128.72L83.8349 131.44ZM66.1422 122.074C63.2668 120.343 60.4702 118.543 57.7554 116.672L59.4579 114.202C62.1202 116.037 64.8651 117.803 67.6898 119.504L66.1422 122.074ZM49.699 110.715C47.0531 108.615 44.4993 106.435 42.0414 104.173L44.0731 101.966C46.4756 104.177 48.9736 106.309 51.5639 108.365L49.699 110.715ZM34.9532 97.129C32.6687 94.6745 30.4858 92.1331 28.4082 89.5016L30.7628 87.6426C32.7892 90.2092 34.9191 92.689 37.1492 95.085L34.9532 97.129ZM22.4953 81.3349C20.6689 78.5767 18.9476 75.7297 17.3347 72.7913L19.9645 71.3476C21.5375 74.2133 23.216 76.9894 24.9966 79.6787L22.4953 81.3349ZM12.8676 63.797C11.5028 60.7434 10.245 57.6004 9.09723 54.3656L11.9246 53.3624C13.0461 56.5234 14.2745 59.5926 15.6065 62.5729L12.8676 63.797ZM6.15143 44.986C5.26868 41.777 4.4859 38.485 3.8056 35.1079L6.74652 34.5155C7.41339 37.8258 8.18011 41.05 9.04395 44.1903L6.15143 44.986ZM2.14362 25.2333C1.70892 22.0475 1.35901 18.7915 1.09558 15.4636L4.08618 15.2269C4.34528 18.4998 4.68921 21.6995 5.11609 24.8277L2.14362 25.2333ZM0.566589 5.26316C0.522278 3.52715 0.5 1.77283 0.5 0L3.5 0C3.5 1.74771 3.52197 3.47651 3.56561 5.1866L0.566589 5.26316Z" fill="#9398AF"/>
</svg>
