<svg width="357" height="360" viewBox="0 0 357 360" fill="none" xmlns="http://www.w3.org/2000/svg">
<g opacity="0.5">
<path d="M181.239 7.10083L194.89 36.6903L227.251 40.5297L203.326 62.6514L209.676 94.6157L181.239 78.6995L152.802 94.6201L159.153 62.6558L135.228 40.5253L167.592 36.6859L181.239 7.10083Z" stroke="#512BD4" stroke-width="13" stroke-linejoin="round"/>
<path d="M315.337 36.6618L314.636 69.2409L342.038 86.8774L310.837 96.2723L302.532 127.786L283.95 101.014L251.412 102.858L271.132 76.9121L259.33 46.5334L290.102 57.2702L315.337 36.6618Z" stroke="#512BD4" stroke-width="13" stroke-linejoin="round"/>
<path d="M42.2283 36.6617L67.4691 57.2722L98.2373 46.5373L86.4313 76.9081L106.151 102.854L73.6151 101.014L55.035 127.79L46.7307 96.2763L15.5258 86.8735L42.9318 69.235L42.2283 36.6617Z" stroke="#512BD4" stroke-width="13" stroke-linejoin="round"/>
<circle cx="181.239" cy="240.362" r="109.447" stroke="#512BD4" stroke-width="20"/>
<path d="M131.926 216.559C135.989 213.309 145.739 208.758 152.24 216.559" stroke="#512BD4" stroke-width="13" stroke-linecap="round"/>
<path d="M209.932 216.559C213.995 213.309 223.746 208.758 230.246 216.559" stroke="#512BD4" stroke-width="13" stroke-linecap="round"/>
<mask id="path-7-inside-1_333_118" fill="white">
<path d="M209.805 257.187C214.223 257.187 217.893 260.811 216.934 265.124C216.474 267.189 215.835 269.216 215.022 271.18C213.184 275.617 210.491 279.648 207.095 283.043C203.7 286.439 199.669 289.132 195.233 290.97C190.796 292.807 186.041 293.753 181.24 293.753C176.438 293.753 171.683 292.807 167.246 290.97C162.81 289.132 158.779 286.439 155.384 283.043C151.988 279.648 149.295 275.617 147.457 271.18C146.644 269.216 146.005 267.189 145.545 265.124C144.587 260.811 148.256 257.187 152.674 257.187L181.24 257.187H209.805Z"/>
</mask>
<path d="M209.805 257.187C214.223 257.187 217.893 260.811 216.934 265.124C216.474 267.189 215.835 269.216 215.022 271.18C213.184 275.617 210.491 279.648 207.095 283.043C203.7 286.439 199.669 289.132 195.233 290.97C190.796 292.807 186.041 293.753 181.24 293.753C176.438 293.753 171.683 292.807 167.246 290.97C162.81 289.132 158.779 286.439 155.384 283.043C151.988 279.648 149.295 275.617 147.457 271.18C146.644 269.216 146.005 267.189 145.545 265.124C144.587 260.811 148.256 257.187 152.674 257.187L181.24 257.187H209.805Z" fill="#512BD4" stroke="#512BD4" stroke-width="2" mask="url(#path-7-inside-1_333_118)"/>
</g>
</svg>
