<svg width="51" height="51" viewBox="0 0 51 51" fill="none" xmlns="http://www.w3.org/2000/svg">
<rect x="0.203247" y="0.328369" width="50" height="50" fill="white"/>
<path d="M31.8659 39.6055C33.633 39.6055 35.3277 38.9035 36.5771 37.6541C37.8266 36.4046 38.5286 34.7099 38.5286 32.9428C38.5286 31.1758 37.8266 29.4811 36.5771 28.2316C35.3277 26.9821 33.633 26.2802 31.8659 26.2802C30.0989 26.2802 28.4042 26.9821 27.1547 28.2316C25.9052 29.4811 25.2032 31.1758 25.2032 32.9428C25.2032 34.7099 25.9052 36.4046 27.1547 37.6541C28.4042 38.9035 30.0989 39.6055 31.8659 39.6055ZM35.0621 31.0525L32.5208 35.29C32.4091 35.4762 32.2564 35.6344 32.0744 35.7527C31.8924 35.871 31.6857 35.9462 31.4703 35.9726C31.2548 35.9991 31.0361 35.976 30.8309 35.9052C30.6257 35.8344 30.4393 35.7178 30.2859 35.5641L28.8125 34.0926C28.6338 33.9139 28.5334 33.6715 28.5334 33.4187C28.5334 33.166 28.6338 32.9236 28.8125 32.7449C28.9912 32.5661 29.2336 32.4657 29.4864 32.4657C29.7392 32.4657 29.9816 32.5661 30.1603 32.7449L31.2016 33.788L33.4288 30.0741C33.493 29.9668 33.5778 29.8733 33.6782 29.7988C33.7786 29.7243 33.8927 29.6703 34.0139 29.6399C34.1352 29.6095 34.2613 29.6033 34.3849 29.6216C34.5086 29.6399 34.6274 29.6824 34.7347 29.7466C34.8419 29.8109 34.9355 29.8956 35.01 29.996C35.0845 30.0964 35.1384 30.2105 35.1688 30.3318C35.1993 30.453 35.2055 30.5791 35.1872 30.7028C35.1688 30.8264 35.1264 30.9453 35.0621 31.0525Z" fill="url(#paint0_linear_1211_556)"/>
<path d="M31.0968 20.9939C31.7043 20.7228 32.2811 20.3878 32.8176 19.9945V22.473C32.8176 23.0231 32.4122 23.718 31.3842 24.3899C32.5171 24.3256 33.6515 24.4874 34.7213 24.8659V16.7621C34.7213 14.8452 33.0556 13.4213 31.0968 12.5304C29.0523 11.6014 26.2939 11.0513 23.2995 11.0513C20.3051 11.0513 17.5468 11.6014 15.5023 12.5304C13.5435 13.4213 11.8778 14.8452 11.8778 16.7621V33.8947C11.8778 35.8117 13.5435 37.2356 15.5023 38.1265C17.5468 39.0535 20.3051 39.6056 23.2995 39.6056C24.3199 39.6056 25.3136 39.5409 26.2597 39.4209C25.6657 38.9061 25.145 38.3124 24.712 37.6563C24.2513 37.6867 23.7793 37.702 23.2995 37.702C20.5126 37.702 18.0341 37.188 16.2904 36.3942C14.4591 35.5604 13.7814 34.6048 13.7814 33.8947V31.4162C14.2973 31.8007 14.8855 32.1358 15.5023 32.4156C17.5468 33.3427 20.3051 33.8947 23.2995 33.8947H23.3509C23.281 33.2621 23.281 32.6237 23.3509 31.9911H23.2995C20.5126 31.9911 18.0341 31.4771 16.2904 30.6833C14.4591 29.8495 13.7814 28.8939 13.7814 28.1839V25.7054C14.2973 26.0899 14.8855 26.4249 15.5023 26.7048C17.5468 27.6318 20.3051 28.1839 23.2995 28.1839C23.7983 28.1839 24.2894 28.1686 24.7729 28.1382C25.3404 27.3024 26.0505 26.573 26.8707 25.9833C25.7704 26.1736 24.5674 26.2802 23.2995 26.2802C20.5126 26.2802 18.0341 25.7663 16.2904 24.9725C14.4591 24.1387 13.7814 23.1831 13.7814 22.473V19.9945C14.2973 20.379 14.8855 20.7141 15.5023 20.9939C17.5468 21.9229 20.3051 22.473 23.2995 22.473C26.2939 22.473 29.0523 21.9229 31.0968 20.9939ZM13.7814 16.7621C13.7814 16.0502 14.4591 15.0965 16.2904 14.2627C18.0341 13.4708 20.5126 12.9549 23.2995 12.9549C26.0864 12.9549 28.565 13.4689 30.3087 14.2627C32.14 15.0965 32.8176 16.0521 32.8176 16.7621C32.8176 17.4741 32.14 18.4278 30.3087 19.2616C28.565 20.0535 26.0864 20.5694 23.2995 20.5694C20.5126 20.5694 18.0341 20.0554 16.2904 19.2616C14.4591 18.4278 13.7814 17.4722 13.7814 16.7621Z" fill="url(#paint1_linear_1211_556)"/>
<defs>
<linearGradient id="paint0_linear_1211_556" x1="25.2032" y1="32.9428" x2="38.5286" y2="32.9428" gradientUnits="userSpaceOnUse">
<stop offset="0.154706" stop-color="#00A3FF"/>
<stop offset="1" stop-color="#00FF38"/>
</linearGradient>
<linearGradient id="paint1_linear_1211_556" x1="11.8778" y1="25.3284" x2="34.7213" y2="25.3284" gradientUnits="userSpaceOnUse">
<stop offset="0.154706" stop-color="#00A3FF"/>
<stop offset="1" stop-color="#00FF38"/>
</linearGradient>
</defs>
</svg>
