<svg width="51" height="51" viewBox="0 0 51 51" fill="none" xmlns="http://www.w3.org/2000/svg">
<rect x="0.0335693" y="0.328369" width="50" height="50" fill="white"/>
<path d="M31.6962 39.6055C33.4633 39.6055 35.158 38.9035 36.4075 37.6541C37.657 36.4046 38.3589 34.7099 38.3589 32.9428C38.3589 31.1758 37.657 29.4811 36.4075 28.2316C35.158 26.9821 33.4633 26.2802 31.6962 26.2802C29.9292 26.2802 28.2345 26.9821 26.985 28.2316C25.7355 29.4811 25.0336 31.1758 25.0336 32.9428C25.0336 34.7099 25.7355 36.4046 26.985 37.6541C28.2345 38.9035 29.9292 39.6055 31.6962 39.6055ZM34.8924 31.0525L32.3511 35.29C32.2394 35.4762 32.0868 35.6344 31.9047 35.7527C31.7227 35.871 31.5161 35.9462 31.3006 35.9726C31.0851 35.9991 30.8664 35.976 30.6612 35.9052C30.456 35.8344 30.2696 35.7178 30.1162 35.5641L28.6428 34.0926C28.4641 33.9139 28.3637 33.6715 28.3637 33.4187C28.3637 33.166 28.4641 32.9236 28.6428 32.7449C28.8216 32.5661 29.064 32.4657 29.3167 32.4657C29.5695 32.4657 29.8119 32.5661 29.9906 32.7449L31.0319 33.788L33.2591 30.0741C33.3234 29.9668 33.4081 29.8733 33.5085 29.7988C33.6089 29.7243 33.723 29.6703 33.8443 29.6399C33.9655 29.6095 34.0916 29.6033 34.2152 29.6216C34.3389 29.6399 34.4578 29.6824 34.565 29.7466C34.6722 29.8109 34.7658 29.8956 34.8403 29.996C34.9148 30.0964 34.9688 30.2105 34.9992 30.3318C35.0296 30.453 35.0358 30.5791 35.0175 30.7028C34.9992 30.8264 34.9567 30.9453 34.8924 31.0525Z" fill="url(#paint0_linear_1094_27)"/>
<path d="M30.9271 20.9939C31.5346 20.7228 32.1115 20.3878 32.648 19.9945V22.473C32.648 23.0231 32.2425 23.718 31.2145 24.3899C32.3474 24.3256 33.4818 24.4874 34.5516 24.8659V16.7621C34.5516 14.8452 32.8859 13.4213 30.9271 12.5304C28.8826 11.6014 26.1243 11.0513 23.1299 11.0513C20.1355 11.0513 17.3771 11.6014 15.3326 12.5304C13.3738 13.4213 11.7081 14.8452 11.7081 16.7621V33.8947C11.7081 35.8117 13.3738 37.2356 15.3326 38.1265C17.3771 39.0535 20.1355 39.6056 23.1299 39.6056C24.1502 39.6056 25.1439 39.5409 26.09 39.4209C25.496 38.9061 24.9753 38.3124 24.5423 37.6563C24.0817 37.6867 23.6096 37.702 23.1299 37.702C20.343 37.702 17.8644 37.188 16.1207 36.3942C14.2894 35.5604 13.6118 34.6048 13.6118 33.8947V31.4162C14.1276 31.8007 14.7159 32.1358 15.3326 32.4156C17.3771 33.3427 20.1355 33.8947 23.1299 33.8947H23.1813C23.1113 33.2621 23.1113 32.6237 23.1813 31.9911H23.1299C20.343 31.9911 17.8644 31.4771 16.1207 30.6833C14.2894 29.8495 13.6118 28.8939 13.6118 28.1839V25.7054C14.1276 26.0899 14.7159 26.4249 15.3326 26.7048C17.3771 27.6318 20.1355 28.1839 23.1299 28.1839C23.6286 28.1839 24.1197 28.1686 24.6033 28.1382C25.1708 27.3024 25.8808 26.573 26.7011 25.9833C25.6008 26.1736 24.3977 26.2802 23.1299 26.2802C20.343 26.2802 17.8644 25.7663 16.1207 24.9725C14.2894 24.1387 13.6118 23.1831 13.6118 22.473V19.9945C14.1276 20.379 14.7159 20.7141 15.3326 20.9939C17.3771 21.9229 20.1355 22.473 23.1299 22.473C26.1243 22.473 28.8826 21.9229 30.9271 20.9939ZM13.6118 16.7621C13.6118 16.0502 14.2894 15.0965 16.1207 14.2627C17.8644 13.4708 20.343 12.9549 23.1299 12.9549C25.9168 12.9549 28.3953 13.4689 30.139 14.2627C31.9703 15.0965 32.648 16.0521 32.648 16.7621C32.648 17.4741 31.9703 18.4278 30.139 19.2616C28.3953 20.0535 25.9168 20.5694 23.1299 20.5694C20.343 20.5694 17.8644 20.0554 16.1207 19.2616C14.2894 18.4278 13.6118 17.4722 13.6118 16.7621Z" fill="url(#paint1_linear_1094_27)"/>
<defs>
<linearGradient id="paint0_linear_1094_27" x1="25.0336" y1="26.2802" x2="38.3589" y2="26.2802" gradientUnits="userSpaceOnUse">
<stop offset="0.145833" stop-color="#0049D8"/>
<stop offset="1" stop-color="#00A3FF"/>
</linearGradient>
<linearGradient id="paint1_linear_1094_27" x1="11.7081" y1="11.0513" x2="34.5516" y2="11.0513" gradientUnits="userSpaceOnUse">
<stop offset="0.145833" stop-color="#0049D8"/>
<stop offset="1" stop-color="#00A3FF"/>
</linearGradient>
</defs>
</svg>
