<svg width="51" height="51" viewBox="0 0 51 51" fill="none" xmlns="http://www.w3.org/2000/svg">
<rect x="0.118286" y="0.328369" width="50" height="50" fill="white"/>
<path d="M31.781 39.6055C33.548 39.6055 35.2427 38.9035 36.4922 37.6541C37.7417 36.4046 38.4436 34.7099 38.4436 32.9428C38.4436 31.1758 37.7417 29.4811 36.4922 28.2316C35.2427 26.9821 33.548 26.2802 31.781 26.2802C30.0139 26.2802 28.3192 26.9821 27.0697 28.2316C25.8202 29.4811 25.1183 31.1758 25.1183 32.9428C25.1183 34.7099 25.8202 36.4046 27.0697 37.6541C28.3192 38.9035 30.0139 39.6055 31.781 39.6055ZM34.9771 31.0525L32.4358 35.29C32.3241 35.4762 32.1715 35.6344 31.9894 35.7527C31.8074 35.871 31.6008 35.9462 31.3853 35.9726C31.1698 35.9991 30.9512 35.976 30.7459 35.9052C30.5407 35.8344 30.3543 35.7178 30.201 35.5641L28.7276 34.0926C28.5488 33.9139 28.4484 33.6715 28.4484 33.4187C28.4484 33.166 28.5488 32.9236 28.7276 32.7449C28.9063 32.5661 29.1487 32.4657 29.4014 32.4657C29.6542 32.4657 29.8966 32.5661 30.0753 32.7449L31.1166 33.788L33.3438 30.0741C33.4081 29.9668 33.4928 29.8733 33.5932 29.7988C33.6936 29.7243 33.8077 29.6703 33.929 29.6399C34.0502 29.6095 34.1763 29.6033 34.3 29.6216C34.4236 29.6399 34.5425 29.6824 34.6497 29.7466C34.757 29.8109 34.8505 29.8956 34.925 29.996C34.9995 30.0964 35.0535 30.2105 35.0839 30.3318C35.1143 30.453 35.1205 30.5791 35.1022 30.7028C35.0839 30.8264 35.0414 30.9453 34.9771 31.0525Z" fill="url(#paint0_linear_1196_365)"/>
<path d="M31.0118 20.9939C31.6193 20.7228 32.1962 20.3878 32.7327 19.9945V22.473C32.7327 23.0231 32.3272 23.718 31.2993 24.3899C32.4322 24.3256 33.5665 24.4874 34.6363 24.8659V16.7621C34.6363 14.8452 32.9706 13.4213 31.0118 12.5304C28.9673 11.6014 26.209 11.0513 23.2146 11.0513C20.2202 11.0513 17.4618 11.6014 15.4173 12.5304C13.4585 13.4213 11.7928 14.8452 11.7928 16.7621V33.8947C11.7928 35.8117 13.4585 37.2356 15.4173 38.1265C17.4618 39.0535 20.2202 39.6056 23.2146 39.6056C24.2349 39.6056 25.2286 39.5409 26.1747 39.4209C25.5807 38.9061 25.06 38.3124 24.6271 37.6563C24.1664 37.6867 23.6943 37.702 23.2146 37.702C20.4277 37.702 17.9492 37.188 16.2054 36.3942C14.3742 35.5604 13.6965 34.6048 13.6965 33.8947V31.4162C14.2123 31.8007 14.8006 32.1358 15.4173 32.4156C17.4618 33.3427 20.2202 33.8947 23.2146 33.8947H23.266C23.1961 33.2621 23.1961 32.6237 23.266 31.9911H23.2146C20.4277 31.9911 17.9492 31.4771 16.2054 30.6833C14.3742 29.8495 13.6965 28.8939 13.6965 28.1839V25.7054C14.2123 26.0899 14.8006 26.4249 15.4173 26.7048C17.4618 27.6318 20.2202 28.1839 23.2146 28.1839C23.7133 28.1839 24.2045 28.1686 24.688 28.1382C25.2555 27.3024 25.9656 26.573 26.7858 25.9833C25.6855 26.1736 24.4824 26.2802 23.2146 26.2802C20.4277 26.2802 17.9492 25.7663 16.2054 24.9725C14.3742 24.1387 13.6965 23.1831 13.6965 22.473V19.9945C14.2123 20.379 14.8006 20.7141 15.4173 20.9939C17.4618 21.9229 20.2202 22.473 23.2146 22.473C26.209 22.473 28.9673 21.9229 31.0118 20.9939ZM13.6965 16.7621C13.6965 16.0502 14.3742 15.0965 16.2054 14.2627C17.9492 13.4708 20.4277 12.9549 23.2146 12.9549C26.0015 12.9549 28.48 13.4689 30.2237 14.2627C32.055 15.0965 32.7327 16.0521 32.7327 16.7621C32.7327 17.4741 32.055 18.4278 30.2237 19.2616C28.48 20.0535 26.0015 20.5694 23.2146 20.5694C20.4277 20.5694 17.9492 20.0554 16.2054 19.2616C14.3742 18.4278 13.6965 17.4722 13.6965 16.7621Z" fill="url(#paint1_linear_1196_365)"/>
<defs>
<linearGradient id="paint0_linear_1196_365" x1="25.1183" y1="32.9428" x2="38.4436" y2="32.9428" gradientUnits="userSpaceOnUse">
<stop stop-color="#FF3087"/>
<stop offset="1" stop-color="#FFC42E"/>
</linearGradient>
<linearGradient id="paint1_linear_1196_365" x1="11.7928" y1="25.3284" x2="34.6363" y2="25.3284" gradientUnits="userSpaceOnUse">
<stop stop-color="#FF3087"/>
<stop offset="1" stop-color="#FFC42E"/>
</linearGradient>
</defs>
</svg>
