<svg width="76" height="76" viewBox="0 0 76 76" fill="none" xmlns="http://www.w3.org/2000/svg">
<circle opacity="0.5" cx="38" cy="38" r="32.5" stroke="#0052F2"/>
<circle opacity="0.15" cx="38" cy="38" r="37.6" stroke="#0052F2" stroke-width="0.8"/>
<circle cx="38" cy="38" r="28" fill="#0052F2"/>
<path d="M49.6156 31.9565C50.1281 31.4439 50.1281 30.616 49.6156 30.1035L45.8965 26.3844C45.384 25.8719 44.5561 25.8719 44.0435 26.3844L38.1429 32.285L33.0308 27.1729C32.0058 26.1478 30.3368 26.1478 29.3117 27.1729L26.8148 29.6698C25.7897 30.6949 25.7897 32.3639 26.8148 33.3889L31.9269 38.501L26 44.4279V50H31.5721L37.5121 44.06L42.6242 49.1721C43.8727 50.4205 45.5548 49.9606 46.3433 49.1721L48.8402 46.6752C49.8653 45.6501 49.8653 43.9811 48.8402 42.9561L43.7281 37.8439L49.6156 31.9565ZM28.6809 31.5228L31.1647 29.0259L32.8337 30.6949L31.283 32.2587L33.1359 34.1117L34.6998 32.5478L36.2768 34.1248L33.7799 36.6218L28.6809 31.5228ZM43.439 41.3002L41.8752 42.8641L43.7281 44.717L45.292 43.1532L46.961 44.8222L44.4641 47.3191L39.352 42.207L41.8489 39.7101L43.439 41.3002ZM30.4813 47.3717H28.6283V45.5187L41.2575 32.8895L42.9659 34.5979L43.1105 34.7425L30.4813 47.3717ZM43.1105 31.0234L44.9635 29.1704L46.8164 31.0234L44.9635 32.8764L43.1105 31.0234Z" fill="white"/>
</svg>
