<svg width="69" height="69" viewBox="0 0 69 69" fill="none" xmlns="http://www.w3.org/2000/svg">
<rect opacity="0.1" width="69" height="69" rx="5" fill="#512BD4"/>
<path fill-rule="evenodd" clip-rule="evenodd" d="M13 21V41C13 41.2412 13.0171 41.4785 13.0501 41.7106C13.3951 44.1355 15.4798 46 18 46H51C53.5202 46 55.6049 44.1355 55.9499 41.7106C55.9829 41.4785 56 41.2412 56 41V21C56 18.2386 53.7614 16 51 16H18C15.2386 16 13 18.2386 13 21ZM51 19.5H18C17.1716 19.5 16.5 20.1716 16.5 21V39H52.5V21C52.5 20.1716 51.8284 19.5 51 19.5Z" fill="url(#paint0_linear_539_1354)"/>
<path fill-rule="evenodd" clip-rule="evenodd" d="M26 52C26 50.8954 26.8954 50 28 50H42C43.1046 50 44 50.8954 44 52C44 53.1046 43.1046 54 42 54H28C26.8954 54 26 53.1046 26 52Z" fill="url(#paint1_linear_539_1354)"/>
<path fill-rule="evenodd" clip-rule="evenodd" d="M35 43C36.1046 43 37 43.8954 37 45V52C37 53.1046 36.1046 54 35 54C33.8954 54 33 53.1046 33 52V45C33 43.8954 33.8954 43 35 43Z" fill="url(#paint2_linear_539_1354)"/>
<defs>
<linearGradient id="paint0_linear_539_1354" x1="9.09989" y1="22.1471" x2="61.1176" y2="23.4531" gradientUnits="userSpaceOnUse">
<stop offset="0.15625" stop-color="#5300BD"/>
<stop offset="1" stop-color="#8C00BD"/>
</linearGradient>
<linearGradient id="paint1_linear_539_1354" x1="24.3674" y1="50.8196" x2="46.0214" y2="52.5265" gradientUnits="userSpaceOnUse">
<stop offset="0.15625" stop-color="#5300BD"/>
<stop offset="1" stop-color="#8C00BD"/>
</linearGradient>
<linearGradient id="paint2_linear_539_1354" x1="36.1804" y1="42.0023" x2="35.5404" y2="55.2867" gradientUnits="userSpaceOnUse">
<stop offset="0.15625" stop-color="#5300BD"/>
<stop offset="1" stop-color="#8C00BD"/>
</linearGradient>
</defs>
</svg>
