<svg width="69" height="69" viewBox="0 0 69 69" fill="none" xmlns="http://www.w3.org/2000/svg">
<rect y="0.699219" width="68.042" height="68.042" fill="#512BD4"/>
<path d="M10.7843 43.7786C10.2987 43.7786 9.88593 43.6168 9.54601 43.2932C9.20609 42.9612 9.03613 42.5671 9.03613 42.1108C9.03613 41.646 9.20609 41.2478 9.54601 40.9159C9.88593 40.5839 10.2987 40.418 10.7843 40.418C11.2779 40.418 11.6947 40.5839 12.0347 40.9159C12.3827 41.2478 12.5567 41.646 12.5567 42.1108C12.5567 42.5671 12.3827 42.9612 12.0347 43.2932C11.6947 43.6168 11.2779 43.7786 10.7843 43.7786Z" fill="white"/>
<path d="M30.1966 43.5053H27.0402L18.7245 30.3862C18.5142 30.0542 18.3401 29.7098 18.2025 29.353H18.1297C18.1944 29.7348 18.2268 30.5521 18.2268 31.805V43.5053H15.4346V25.6562H18.7973L26.8339 38.4642C27.1738 38.9954 27.3924 39.3605 27.4895 39.5596H27.538C27.4571 39.0867 27.4166 38.2859 27.4166 37.1572V25.6562H30.1966V43.5053Z" fill="white"/>
<path d="M43.793 43.5053H34.0205V25.6562H43.4046V28.1706H36.9099V33.224H42.8948V35.7259H36.9099V41.0034H43.793V43.5053Z" fill="white"/>
<path d="M57.6812 28.1706H52.6796V43.5053H49.7902V28.1706H44.8008V25.6562H57.6812V28.1706Z" fill="white"/>
</svg>
