<svg width="25" height="21" viewBox="0 0 25 21" fill="none" xmlns="http://www.w3.org/2000/svg">
<path d="M22.3131 0.792969H2.8857C1.55007 0.792969 0.469417 1.91797 0.469417 3.29297L0.457275 18.293C0.457275 19.668 1.55007 20.793 2.8857 20.793H22.3131C23.6487 20.793 24.7415 19.668 24.7415 18.293V3.29297C24.7415 1.91797 23.6487 0.792969 22.3131 0.792969ZM21.8274 6.10547L13.2429 11.6305C12.8544 11.8805 12.3444 11.8805 11.9559 11.6305L3.37138 6.10547C3.06783 5.90547 2.8857 5.56797 2.8857 5.20547C2.8857 4.36797 3.77207 3.86797 4.46417 4.30547L12.5994 9.54297L20.7346 4.30547C21.4267 3.86797 22.3131 4.36797 22.3131 5.20547C22.3131 5.56797 22.1309 5.90547 21.8274 6.10547Z" fill="url(#paint0_linear_516_179)"/>
<defs>
<linearGradient id="paint0_linear_516_179" x1="0.457275" y1="0.792969" x2="24.7415" y2="0.792969" gradientUnits="userSpaceOnUse">
<stop offset="0.145833" stop-color="#0049D8"/>
<stop offset="1" stop-color="#00A3FF"/>
</linearGradient>
</defs>
</svg>
