<svg width="25" height="21" viewBox="0 0 25 21" fill="none" xmlns="http://www.w3.org/2000/svg">
<path d="M21.8988 0.233765H2.47139C1.13576 0.233765 0.0551109 1.35876 0.0551109 2.73376L0.0429688 17.7338C0.0429688 19.1088 1.13576 20.2338 2.47139 20.2338H21.8988C23.2344 20.2338 24.3272 19.1088 24.3272 17.7338V2.73376C24.3272 1.35876 23.2344 0.233765 21.8988 0.233765ZM21.4131 5.54626L12.8286 11.0713C12.4401 11.3213 11.9301 11.3213 11.5416 11.0713L2.95708 5.54626C2.65352 5.34626 2.47139 5.00876 2.47139 4.64626C2.47139 3.80876 3.35777 3.30876 4.04987 3.74626L12.1851 8.98376L20.3203 3.74626C21.0124 3.30876 21.8988 3.80876 21.8988 4.64626C21.8988 5.00876 21.7166 5.34626 21.4131 5.54626Z" fill="url(#paint0_linear_1211_576)"/>
<defs>
<linearGradient id="paint0_linear_1211_576" x1="0.0429688" y1="10.2338" x2="24.3272" y2="10.2338" gradientUnits="userSpaceOnUse">
<stop offset="0.154706" stop-color="#00A3FF"/>
<stop offset="1" stop-color="#00FF38"/>
</linearGradient>
</defs>
</svg>
