<svg width="25" height="21" viewBox="0 0 25 21" fill="none" xmlns="http://www.w3.org/2000/svg">
<path d="M21.9149 0.233765H2.4875C1.15187 0.233765 0.0712241 1.35876 0.0712241 2.73376L0.059082 17.7338C0.059082 19.1088 1.15187 20.2338 2.4875 20.2338H21.9149C23.2505 20.2338 24.3433 19.1088 24.3433 17.7338V2.73376C24.3433 1.35876 23.2505 0.233765 21.9149 0.233765ZM21.4292 5.54626L12.8447 11.0713C12.4562 11.3213 11.9462 11.3213 11.5577 11.0713L2.97319 5.54626C2.66964 5.34626 2.4875 5.00876 2.4875 4.64626C2.4875 3.80876 3.37388 3.30876 4.06598 3.74626L12.2012 8.98376L20.3364 3.74626C21.0285 3.30876 21.9149 3.80876 21.9149 4.64626C21.9149 5.00876 21.7328 5.34626 21.4292 5.54626Z" fill="url(#paint0_linear_1201_449)"/>
<defs>
<linearGradient id="paint0_linear_1201_449" x1="0.059082" y1="10.2338" x2="24.3433" y2="10.2338" gradientUnits="userSpaceOnUse">
<stop stop-color="#FF3087"/>
<stop offset="1" stop-color="#FFC42E"/>
</linearGradient>
</defs>
</svg>
