<svg width="32" height="25" viewBox="0 0 32 25" fill="none" xmlns="http://www.w3.org/2000/svg">
<path d="M28.7354 0.291992H4.06869C2.37285 0.291992 1.00077 1.67949 1.00077 3.37533L0.985352 21.8753C0.985352 23.5712 2.37285 24.9587 4.06869 24.9587H28.7354C30.4312 24.9587 31.8187 23.5712 31.8187 21.8753V3.37533C31.8187 1.67949 30.4312 0.291992 28.7354 0.291992ZM28.1187 6.84408L17.2191 13.6582C16.7258 13.9666 16.0783 13.9666 15.5849 13.6582L4.68535 6.84408C4.29994 6.59741 4.06869 6.18116 4.06869 5.73408C4.06869 4.70116 5.1941 4.08449 6.07285 4.62408L16.402 11.0837L26.7312 4.62408C27.6099 4.08449 28.7354 4.70116 28.7354 5.73408C28.7354 6.18116 28.5041 6.59741 28.1187 6.84408Z" fill="black"/>
</svg>
