<svg width="51" height="51" viewBox="0 0 51 51" fill="none" xmlns="http://www.w3.org/2000/svg">
<rect x="0.203247" y="0.371216" width="50" height="50" fill="white"/>
<path d="M19.7516 30.8227C19.7516 30.5335 19.8665 30.2562 20.0709 30.0518C20.2754 29.8473 20.5527 29.7324 20.8419 29.7324H25.203C25.4922 29.7324 25.7695 29.8473 25.974 30.0518C26.1785 30.2562 26.2933 30.5335 26.2933 30.8227C26.2933 31.1119 26.1785 31.3892 25.974 31.5937C25.7695 31.7981 25.4922 31.913 25.203 31.913H20.8419C20.5527 31.913 20.2754 31.7981 20.0709 31.5937C19.8665 31.3892 19.7516 31.1119 19.7516 30.8227ZM19.7516 26.4615C19.7516 26.1724 19.8665 25.8951 20.0709 25.6906C20.2754 25.4861 20.5527 25.3713 20.8419 25.3713H31.7448C32.034 25.3713 32.3113 25.4861 32.5157 25.6906C32.7202 25.8951 32.8351 26.1724 32.8351 26.4615C32.8351 26.7507 32.7202 27.028 32.5157 27.2325C32.3113 27.437 32.034 27.5518 31.7448 27.5518H20.8419C20.5527 27.5518 20.2754 27.437 20.0709 27.2325C19.8665 27.028 19.7516 26.7507 19.7516 26.4615ZM19.7516 22.1004C19.7516 21.8112 19.8665 21.5339 20.0709 21.3294C20.2754 21.125 20.5527 21.0101 20.8419 21.0101H31.7448C32.034 21.0101 32.3113 21.125 32.5157 21.3294C32.7202 21.5339 32.8351 21.8112 32.8351 22.1004C32.8351 22.3895 32.7202 22.6669 32.5157 22.8713C32.3113 23.0758 32.034 23.1907 31.7448 23.1907H20.8419C20.5527 23.1907 20.2754 23.0758 20.0709 22.8713C19.8665 22.6669 19.7516 22.3895 19.7516 22.1004ZM19.7516 17.7392C19.7516 17.4501 19.8665 17.1727 20.0709 16.9683C20.2754 16.7638 20.5527 16.6489 20.8419 16.6489H31.7448C32.034 16.6489 32.3113 16.7638 32.5157 16.9683C32.7202 17.1727 32.8351 17.4501 32.8351 17.7392C32.8351 18.0284 32.7202 18.3057 32.5157 18.5102C32.3113 18.7146 32.034 18.8295 31.7448 18.8295H20.8419C20.5527 18.8295 20.2754 18.7146 20.0709 18.5102C19.8665 18.3057 19.7516 18.0284 19.7516 17.7392Z" fill="url(#paint0_linear_1211_564)"/>
<path d="M15.3906 7.92657H37.1964C38.3531 7.92657 39.4623 8.38605 40.2802 9.20393C41.0981 10.0218 41.5576 11.1311 41.5576 12.2877V38.4547C41.5576 39.6114 41.0981 40.7207 40.2802 41.5385C39.4623 42.3564 38.3531 42.8159 37.1964 42.8159H15.3906C14.2339 42.8159 13.1247 42.3564 12.3068 41.5385C11.4889 40.7207 11.0294 39.6114 11.0294 38.4547V36.2741H13.21V38.4547C13.21 39.0331 13.4397 39.5877 13.8487 39.9966C14.2576 40.4056 14.8123 40.6353 15.3906 40.6353H37.1964C37.7747 40.6353 38.3294 40.4056 38.7383 39.9966C39.1473 39.5877 39.377 39.0331 39.377 38.4547V12.2877C39.377 11.7094 39.1473 11.1548 38.7383 10.7458C38.3294 10.3369 37.7747 10.1072 37.1964 10.1072H15.3906C14.8123 10.1072 14.2576 10.3369 13.8487 10.7458C13.4397 11.1548 13.21 11.7094 13.21 12.2877V14.4683H11.0294V12.2877C11.0294 11.1311 11.4889 10.0218 12.3068 9.20393C13.1247 8.38605 14.2339 7.92657 15.3906 7.92657Z" fill="url(#paint1_linear_1211_564)"/>
<path d="M11.0293 18.8295V17.7392C11.0293 17.4501 11.1442 17.1727 11.3487 16.9683C11.5531 16.7638 11.8305 16.6489 12.1196 16.6489C12.4088 16.6489 12.6861 16.7638 12.8906 16.9683C13.0951 17.1727 13.2099 17.4501 13.2099 17.7392V18.8295H14.3002C14.5894 18.8295 14.8667 18.9444 15.0712 19.1488C15.2756 19.3533 15.3905 19.6306 15.3905 19.9198C15.3905 20.209 15.2756 20.4863 15.0712 20.6908C14.8667 20.8952 14.5894 21.0101 14.3002 21.0101H9.93905C9.64988 21.0101 9.37256 20.8952 9.16809 20.6908C8.96362 20.4863 8.84875 20.209 8.84875 19.9198C8.84875 19.6306 8.96362 19.3533 9.16809 19.1488C9.37256 18.9444 9.64988 18.8295 9.93905 18.8295H11.0293ZM11.0293 25.3713V24.281C11.0293 23.9918 11.1442 23.7145 11.3487 23.51C11.5531 23.3055 11.8305 23.1907 12.1196 23.1907C12.4088 23.1907 12.6861 23.3055 12.8906 23.51C13.0951 23.7145 13.2099 23.9918 13.2099 24.281V25.3713H14.3002C14.5894 25.3713 14.8667 25.4861 15.0712 25.6906C15.2756 25.8951 15.3905 26.1724 15.3905 26.4615C15.3905 26.7507 15.2756 27.028 15.0712 27.2325C14.8667 27.437 14.5894 27.5518 14.3002 27.5518H9.93905C9.64988 27.5518 9.37256 27.437 9.16809 27.2325C8.96362 27.028 8.84875 26.7507 8.84875 26.4615C8.84875 26.1724 8.96362 25.8951 9.16809 25.6906C9.37256 25.4861 9.64988 25.3713 9.93905 25.3713H11.0293ZM11.0293 31.913V30.8227C11.0293 30.5335 11.1442 30.2562 11.3487 30.0518C11.5531 29.8473 11.8305 29.7324 12.1196 29.7324C12.4088 29.7324 12.6861 29.8473 12.8906 30.0518C13.0951 30.2562 13.2099 30.5335 13.2099 30.8227V31.913H14.3002C14.5894 31.913 14.8667 32.0279 15.0712 32.2323C15.2756 32.4368 15.3905 32.7141 15.3905 33.0033C15.3905 33.2925 15.2756 33.5698 15.0712 33.7742C14.8667 33.9787 14.5894 34.0936 14.3002 34.0936H9.93905C9.64988 34.0936 9.37256 33.9787 9.16809 33.7742C8.96362 33.5698 8.84875 33.2925 8.84875 33.0033C8.84875 32.7141 8.96362 32.4368 9.16809 32.2323C9.37256 32.0279 9.64988 31.913 9.93905 31.913H11.0293Z" fill="url(#paint2_linear_1211_564)"/>
<defs>
<linearGradient id="paint0_linear_1211_564" x1="19.7516" y1="24.281" x2="32.8351" y2="24.281" gradientUnits="userSpaceOnUse">
<stop offset="0.154706" stop-color="#00A3FF"/>
<stop offset="1" stop-color="#00FF38"/>
</linearGradient>
<linearGradient id="paint1_linear_1211_564" x1="11.0294" y1="25.3712" x2="41.5576" y2="25.3712" gradientUnits="userSpaceOnUse">
<stop offset="0.154706" stop-color="#00A3FF"/>
<stop offset="1" stop-color="#00FF38"/>
</linearGradient>
<linearGradient id="paint2_linear_1211_564" x1="8.84875" y1="25.3713" x2="15.3905" y2="25.3713" gradientUnits="userSpaceOnUse">
<stop offset="0.154706" stop-color="#00A3FF"/>
<stop offset="1" stop-color="#00FF38"/>
</linearGradient>
</defs>
</svg>
