<svg width="51" height="51" viewBox="0 0 51 51" fill="none" xmlns="http://www.w3.org/2000/svg">
<rect x="0.118286" y="0.371216" width="50" height="50" fill="white"/>
<path d="M19.6666 30.8227C19.6666 30.5335 19.7815 30.2562 19.986 30.0518C20.1904 29.8473 20.4678 29.7324 20.7569 29.7324H25.1181C25.4072 29.7324 25.6846 29.8473 25.889 30.0518C26.0935 30.2562 26.2084 30.5335 26.2084 30.8227C26.2084 31.1119 26.0935 31.3892 25.889 31.5937C25.6846 31.7981 25.4072 31.913 25.1181 31.913H20.7569C20.4678 31.913 20.1904 31.7981 19.986 31.5937C19.7815 31.3892 19.6666 31.1119 19.6666 30.8227ZM19.6666 26.4615C19.6666 26.1724 19.7815 25.8951 19.986 25.6906C20.1904 25.4861 20.4678 25.3713 20.7569 25.3713H31.6598C31.949 25.3713 32.2263 25.4861 32.4308 25.6906C32.6353 25.8951 32.7501 26.1724 32.7501 26.4615C32.7501 26.7507 32.6353 27.028 32.4308 27.2325C32.2263 27.437 31.949 27.5518 31.6598 27.5518H20.7569C20.4678 27.5518 20.1904 27.437 19.986 27.2325C19.7815 27.028 19.6666 26.7507 19.6666 26.4615ZM19.6666 22.1004C19.6666 21.8112 19.7815 21.5339 19.986 21.3294C20.1904 21.125 20.4678 21.0101 20.7569 21.0101H31.6598C31.949 21.0101 32.2263 21.125 32.4308 21.3294C32.6353 21.5339 32.7501 21.8112 32.7501 22.1004C32.7501 22.3895 32.6353 22.6669 32.4308 22.8713C32.2263 23.0758 31.949 23.1907 31.6598 23.1907H20.7569C20.4678 23.1907 20.1904 23.0758 19.986 22.8713C19.7815 22.6669 19.6666 22.3895 19.6666 22.1004ZM19.6666 17.7392C19.6666 17.4501 19.7815 17.1727 19.986 16.9683C20.1904 16.7638 20.4678 16.6489 20.7569 16.6489H31.6598C31.949 16.6489 32.2263 16.7638 32.4308 16.9683C32.6353 17.1727 32.7501 17.4501 32.7501 17.7392C32.7501 18.0284 32.6353 18.3057 32.4308 18.5102C32.2263 18.7146 31.949 18.8295 31.6598 18.8295H20.7569C20.4678 18.8295 20.1904 18.7146 19.986 18.5102C19.7815 18.3057 19.6666 18.0284 19.6666 17.7392Z" fill="url(#paint0_linear_1196_373)"/>
<path d="M15.3056 7.92657H37.1115C38.2681 7.92657 39.3774 8.38605 40.1953 9.20393C41.0131 10.0218 41.4726 11.1311 41.4726 12.2877V38.4547C41.4726 39.6114 41.0131 40.7207 40.1953 41.5385C39.3774 42.3564 38.2681 42.8159 37.1115 42.8159H15.3056C14.149 42.8159 13.0397 42.3564 12.2218 41.5385C11.4039 40.7207 10.9445 39.6114 10.9445 38.4547V36.2741H13.125V38.4547C13.125 39.0331 13.3548 39.5877 13.7637 39.9966C14.1727 40.4056 14.7273 40.6353 15.3056 40.6353H37.1115C37.6898 40.6353 38.2444 40.4056 38.6534 39.9966C39.0623 39.5877 39.292 39.0331 39.292 38.4547V12.2877C39.292 11.7094 39.0623 11.1548 38.6534 10.7458C38.2444 10.3369 37.6898 10.1072 37.1115 10.1072H15.3056C14.7273 10.1072 14.1727 10.3369 13.7637 10.7458C13.3548 11.1548 13.125 11.7094 13.125 12.2877V14.4683H10.9445V12.2877C10.9445 11.1311 11.4039 10.0218 12.2218 9.20393C13.0397 8.38605 14.149 7.92657 15.3056 7.92657Z" fill="url(#paint1_linear_1196_373)"/>
<path d="M10.9444 18.8295V17.7392C10.9444 17.4501 11.0592 17.1727 11.2637 16.9683C11.4682 16.7638 11.7455 16.6489 12.0347 16.6489C12.3238 16.6489 12.6012 16.7638 12.8056 16.9683C13.0101 17.1727 13.125 17.4501 13.125 17.7392V18.8295H14.2153C14.5044 18.8295 14.7817 18.9444 14.9862 19.1488C15.1907 19.3533 15.3055 19.6306 15.3055 19.9198C15.3055 20.209 15.1907 20.4863 14.9862 20.6908C14.7817 20.8952 14.5044 21.0101 14.2153 21.0101H9.85409C9.56492 21.0101 9.2876 20.8952 9.08313 20.6908C8.87866 20.4863 8.76379 20.209 8.76379 19.9198C8.76379 19.6306 8.87866 19.3533 9.08313 19.1488C9.2876 18.9444 9.56492 18.8295 9.85409 18.8295H10.9444ZM10.9444 25.3713V24.281C10.9444 23.9918 11.0592 23.7145 11.2637 23.51C11.4682 23.3055 11.7455 23.1907 12.0347 23.1907C12.3238 23.1907 12.6012 23.3055 12.8056 23.51C13.0101 23.7145 13.125 23.9918 13.125 24.281V25.3713H14.2153C14.5044 25.3713 14.7817 25.4861 14.9862 25.6906C15.1907 25.8951 15.3055 26.1724 15.3055 26.4615C15.3055 26.7507 15.1907 27.028 14.9862 27.2325C14.7817 27.437 14.5044 27.5518 14.2153 27.5518H9.85409C9.56492 27.5518 9.2876 27.437 9.08313 27.2325C8.87866 27.028 8.76379 26.7507 8.76379 26.4615C8.76379 26.1724 8.87866 25.8951 9.08313 25.6906C9.2876 25.4861 9.56492 25.3713 9.85409 25.3713H10.9444ZM10.9444 31.913V30.8227C10.9444 30.5335 11.0592 30.2562 11.2637 30.0518C11.4682 29.8473 11.7455 29.7324 12.0347 29.7324C12.3238 29.7324 12.6012 29.8473 12.8056 30.0518C13.0101 30.2562 13.125 30.5335 13.125 30.8227V31.913H14.2153C14.5044 31.913 14.7817 32.0279 14.9862 32.2323C15.1907 32.4368 15.3055 32.7141 15.3055 33.0033C15.3055 33.2925 15.1907 33.5698 14.9862 33.7742C14.7817 33.9787 14.5044 34.0936 14.2153 34.0936H9.85409C9.56492 34.0936 9.2876 33.9787 9.08313 33.7742C8.87866 33.5698 8.76379 33.2925 8.76379 33.0033C8.76379 32.7141 8.87866 32.4368 9.08313 32.2323C9.2876 32.0279 9.56492 31.913 9.85409 31.913H10.9444Z" fill="url(#paint2_linear_1196_373)"/>
<defs>
<linearGradient id="paint0_linear_1196_373" x1="19.6666" y1="24.281" x2="32.7501" y2="24.281" gradientUnits="userSpaceOnUse">
<stop stop-color="#FF3087"/>
<stop offset="1" stop-color="#FFC42E"/>
</linearGradient>
<linearGradient id="paint1_linear_1196_373" x1="10.9445" y1="25.3712" x2="41.4726" y2="25.3712" gradientUnits="userSpaceOnUse">
<stop stop-color="#FF3087"/>
<stop offset="1" stop-color="#FFC42E"/>
</linearGradient>
<linearGradient id="paint2_linear_1196_373" x1="8.76379" y1="25.3713" x2="15.3055" y2="25.3713" gradientUnits="userSpaceOnUse">
<stop stop-color="#FF3087"/>
<stop offset="1" stop-color="#FFC42E"/>
</linearGradient>
</defs>
</svg>
