<svg width="51" height="51" viewBox="0 0 51 51" fill="none" xmlns="http://www.w3.org/2000/svg">
<rect x="0.0335693" y="0.371216" width="50" height="50" fill="white"/>
<path d="M19.5819 30.8227C19.5819 30.5335 19.6968 30.2562 19.9012 30.0518C20.1057 29.8473 20.383 29.7324 20.6722 29.7324H25.0334C25.3225 29.7324 25.5998 29.8473 25.8043 30.0518C26.0088 30.2562 26.1237 30.5335 26.1237 30.8227C26.1237 31.1119 26.0088 31.3892 25.8043 31.5937C25.5998 31.7981 25.3225 31.913 25.0334 31.913H20.6722C20.383 31.913 20.1057 31.7981 19.9012 31.5937C19.6968 31.3892 19.5819 31.1119 19.5819 30.8227ZM19.5819 26.4615C19.5819 26.1724 19.6968 25.8951 19.9012 25.6906C20.1057 25.4861 20.383 25.3713 20.6722 25.3713H31.5751C31.8643 25.3713 32.1416 25.4861 32.3461 25.6906C32.5505 25.8951 32.6654 26.1724 32.6654 26.4615C32.6654 26.7507 32.5505 27.028 32.3461 27.2325C32.1416 27.437 31.8643 27.5518 31.5751 27.5518H20.6722C20.383 27.5518 20.1057 27.437 19.9012 27.2325C19.6968 27.028 19.5819 26.7507 19.5819 26.4615ZM19.5819 22.1004C19.5819 21.8112 19.6968 21.5339 19.9012 21.3294C20.1057 21.125 20.383 21.0101 20.6722 21.0101H31.5751C31.8643 21.0101 32.1416 21.125 32.3461 21.3294C32.5505 21.5339 32.6654 21.8112 32.6654 22.1004C32.6654 22.3895 32.5505 22.6669 32.3461 22.8713C32.1416 23.0758 31.8643 23.1907 31.5751 23.1907H20.6722C20.383 23.1907 20.1057 23.0758 19.9012 22.8713C19.6968 22.6669 19.5819 22.3895 19.5819 22.1004ZM19.5819 17.7392C19.5819 17.4501 19.6968 17.1727 19.9012 16.9683C20.1057 16.7638 20.383 16.6489 20.6722 16.6489H31.5751C31.8643 16.6489 32.1416 16.7638 32.3461 16.9683C32.5505 17.1727 32.6654 17.4501 32.6654 17.7392C32.6654 18.0284 32.5505 18.3057 32.3461 18.5102C32.1416 18.7146 31.8643 18.8295 31.5751 18.8295H20.6722C20.383 18.8295 20.1057 18.7146 19.9012 18.5102C19.6968 18.3057 19.5819 18.0284 19.5819 17.7392Z" fill="url(#paint0_linear_1094_22)"/>
<path d="M15.2209 7.92657H37.0267C38.1834 7.92657 39.2927 8.38605 40.1105 9.20393C40.9284 10.0218 41.3879 11.1311 41.3879 12.2877V38.4547C41.3879 39.6114 40.9284 40.7207 40.1105 41.5385C39.2927 42.3564 38.1834 42.8159 37.0267 42.8159H15.2209C14.0643 42.8159 12.955 42.3564 12.1371 41.5385C11.3192 40.7207 10.8597 39.6114 10.8597 38.4547V36.2741H13.0403V38.4547C13.0403 39.0331 13.2701 39.5877 13.679 39.9966C14.0879 40.4056 14.6426 40.6353 15.2209 40.6353H37.0267C37.6051 40.6353 38.1597 40.4056 38.5686 39.9966C38.9776 39.5877 39.2073 39.0331 39.2073 38.4547V12.2877C39.2073 11.7094 38.9776 11.1548 38.5686 10.7458C38.1597 10.3369 37.6051 10.1072 37.0267 10.1072H15.2209C14.6426 10.1072 14.0879 10.3369 13.679 10.7458C13.2701 11.1548 13.0403 11.7094 13.0403 12.2877V14.4683H10.8597V12.2877C10.8597 11.1311 11.3192 10.0218 12.1371 9.20393C12.955 8.38605 14.0643 7.92657 15.2209 7.92657Z" fill="url(#paint1_linear_1094_22)"/>
<path d="M10.8597 18.8295V17.7392C10.8597 17.4501 10.9745 17.1727 11.179 16.9683C11.3835 16.7638 11.6608 16.6489 11.95 16.6489C12.2391 16.6489 12.5164 16.7638 12.7209 16.9683C12.9254 17.1727 13.0402 17.4501 13.0402 17.7392V18.8295H14.1305C14.4197 18.8295 14.697 18.9444 14.9015 19.1488C15.106 19.3533 15.2208 19.6306 15.2208 19.9198C15.2208 20.209 15.106 20.4863 14.9015 20.6908C14.697 20.8952 14.4197 21.0101 14.1305 21.0101H9.76937C9.48021 21.0101 9.20289 20.8952 8.99842 20.6908C8.79395 20.4863 8.67908 20.209 8.67908 19.9198C8.67908 19.6306 8.79395 19.3533 8.99842 19.1488C9.20289 18.9444 9.48021 18.8295 9.76937 18.8295H10.8597ZM10.8597 25.3713V24.281C10.8597 23.9918 10.9745 23.7145 11.179 23.51C11.3835 23.3055 11.6608 23.1907 11.95 23.1907C12.2391 23.1907 12.5164 23.3055 12.7209 23.51C12.9254 23.7145 13.0402 23.9918 13.0402 24.281V25.3713H14.1305C14.4197 25.3713 14.697 25.4861 14.9015 25.6906C15.106 25.8951 15.2208 26.1724 15.2208 26.4615C15.2208 26.7507 15.106 27.028 14.9015 27.2325C14.697 27.437 14.4197 27.5518 14.1305 27.5518H9.76937C9.48021 27.5518 9.20289 27.437 8.99842 27.2325C8.79395 27.028 8.67908 26.7507 8.67908 26.4615C8.67908 26.1724 8.79395 25.8951 8.99842 25.6906C9.20289 25.4861 9.48021 25.3713 9.76937 25.3713H10.8597ZM10.8597 31.913V30.8227C10.8597 30.5335 10.9745 30.2562 11.179 30.0518C11.3835 29.8473 11.6608 29.7324 11.95 29.7324C12.2391 29.7324 12.5164 29.8473 12.7209 30.0518C12.9254 30.2562 13.0402 30.5335 13.0402 30.8227V31.913H14.1305C14.4197 31.913 14.697 32.0279 14.9015 32.2323C15.106 32.4368 15.2208 32.7141 15.2208 33.0033C15.2208 33.2925 15.106 33.5698 14.9015 33.7742C14.697 33.9787 14.4197 34.0936 14.1305 34.0936H9.76937C9.48021 34.0936 9.20289 33.9787 8.99842 33.7742C8.79395 33.5698 8.67908 33.2925 8.67908 33.0033C8.67908 32.7141 8.79395 32.4368 8.99842 32.2323C9.20289 32.0279 9.48021 31.913 9.76937 31.913H10.8597Z" fill="url(#paint2_linear_1094_22)"/>
<defs>
<linearGradient id="paint0_linear_1094_22" x1="19.5819" y1="16.6489" x2="32.6654" y2="16.6489" gradientUnits="userSpaceOnUse">
<stop offset="0.145833" stop-color="#0049D8"/>
<stop offset="1" stop-color="#00A3FF"/>
</linearGradient>
<linearGradient id="paint1_linear_1094_22" x1="10.8597" y1="7.92657" x2="41.3879" y2="7.92657" gradientUnits="userSpaceOnUse">
<stop offset="0.145833" stop-color="#0049D8"/>
<stop offset="1" stop-color="#00A3FF"/>
</linearGradient>
<linearGradient id="paint2_linear_1094_22" x1="8.67908" y1="16.6489" x2="15.2208" y2="16.6489" gradientUnits="userSpaceOnUse">
<stop offset="0.145833" stop-color="#0049D8"/>
<stop offset="1" stop-color="#00A3FF"/>
</linearGradient>
</defs>
</svg>
