<svg width="210" height="210" viewBox="0 0 210 210" fill="none" xmlns="http://www.w3.org/2000/svg">
<g filter="url(#filter0_d_475_1302)">
<path d="M105 174C146.974 174 181 139.974 181 98C181 56.0264 146.974 22 105 22C63.0264 22 29 56.0264 29 98C29 139.974 63.0264 174 105 174Z" fill="white"/>
<path d="M105 172.5C146.145 172.5 179.5 139.145 179.5 98C179.5 56.8548 146.145 23.5 105 23.5C63.8548 23.5 30.5 56.8548 30.5 98C30.5 139.145 63.8548 172.5 105 172.5Z" stroke="#2B50D4" stroke-width="3"/>
<path d="M119.85 98C124.404 98 128.067 94.32 128.067 89.7857C128.067 85.2514 124.404 81.5714 119.85 81.5714C115.296 81.5714 111.6 85.2514 111.6 89.7857C111.6 94.32 115.296 98 119.85 98ZM95.1 94.7143C100.578 94.7143 104.967 90.3114 104.967 84.8571C104.967 79.4029 100.578 75 95.1 75C89.622 75 85.2 79.4029 85.2 84.8571C85.2 90.3114 89.622 94.7143 95.1 94.7143ZM119.85 104.571C113.811 104.571 101.7 107.594 101.7 113.607V117.714C101.7 119.521 103.185 121 105 121H134.7C136.515 121 138 119.521 138 117.714V113.607C138 107.594 125.889 104.571 119.85 104.571ZM95.1 101.286C87.411 101.286 72 105.13 72 112.786V117.714C72 119.521 73.485 121 75.3 121H95.1V113.607C95.1 110.814 96.189 105.919 102.921 102.206C100.05 101.614 97.278 101.286 95.1 101.286Z" fill="url(#paint0_linear_475_1302)"/>
</g>
<defs>
<filter id="filter0_d_475_1302" x="0" y="0" width="210" height="210" filterUnits="userSpaceOnUse" color-interpolation-filters="sRGB">
<feFlood flood-opacity="0" result="BackgroundImageFix"/>
<feColorMatrix in="SourceAlpha" type="matrix" values="0 0 0 0 0 0 0 0 0 0 0 0 0 0 0 0 0 0 127 0" result="hardAlpha"/>
<feOffset dy="7"/>
<feGaussianBlur stdDeviation="14.5"/>
<feComposite in2="hardAlpha" operator="out"/>
<feColorMatrix type="matrix" values="0 0 0 0 0.392157 0 0 0 0 0.392157 0 0 0 0 0.435294 0 0 0 0.2 0"/>
<feBlend mode="normal" in2="BackgroundImageFix" result="effect1_dropShadow_475_1302"/>
<feBlend mode="normal" in="SourceGraphic" in2="effect1_dropShadow_475_1302" result="shape"/>
</filter>
<linearGradient id="paint0_linear_475_1302" x1="66.0138" y1="84.4255" x2="145.855" y2="86.4322" gradientUnits="userSpaceOnUse">
<stop offset="0.15625" stop-color="#0037C0"/>
<stop offset="1" stop-color="#2373F4"/>
</linearGradient>
</defs>
</svg>
