<svg width="44" height="44" viewBox="0 0 44 44" fill="none" xmlns="http://www.w3.org/2000/svg">
<path d="M42.8044 22.1225C42.8044 32.6456 35.1613 41.3532 25.1573 42.9973V28.368H30.2391H30.6681L30.7333 27.944L31.6097 22.2458L31.6983 21.6698H31.1155H25.1573V19.0552C25.1573 17.9122 25.3454 16.8953 25.7519 16.182C26.1397 15.5017 26.7256 15.0888 27.6305 15.0888H31.1713H31.6713V14.5888V9.61476V9.17817L31.2387 9.11932L31.2073 9.11503C30.5586 9.02669 29.2231 8.84482 26.7483 8.84482C24.0681 8.84482 21.8582 9.55764 20.3237 11.1619C18.7931 12.7622 18.0148 15.1662 18.0148 18.3783V21.6698H13.1791H12.6791V22.1698V27.868V28.368H13.1791H18.0148V42.9424C8.16031 41.1728 0.671631 32.539 0.671631 22.1225C0.671631 10.4245 10.106 0.945312 21.738 0.945312C33.37 0.945312 42.8044 10.4245 42.8044 22.1225Z" fill="black" stroke="black"/>
</svg>
