<svg width="120" height="18" viewBox="0 0 120 18" fill="none" xmlns="http://www.w3.org/2000/svg">
<path d="M83.8997 0.62615L81.5806 5.28026L76.392 6.029C75.4616 6.16257 75.0887 7.29798 75.7634 7.94829L79.5173 11.5689L78.6294 16.6835C78.4696 17.608 79.4533 18.3005 80.2773 17.8682L84.9189 15.4532L89.5606 17.8682C90.3845 18.297 91.3683 17.608 91.2085 16.6835L90.3206 11.5689L94.0744 7.94829C94.7492 7.29798 94.3763 6.16257 93.4458 6.029L88.2573 5.28026L85.9382 0.62615C85.5227 -0.203435 84.3188 -0.213981 83.8997 0.62615Z" fill="white"/>
<path d="M108.9 0.62615L106.581 5.28026L101.392 6.029C100.462 6.16257 100.089 7.29798 100.763 7.94829L104.517 11.5689L103.629 16.6835C103.47 17.608 104.453 18.3005 105.277 17.8682L109.919 15.4532L114.561 17.8682C115.385 18.297 116.368 17.608 116.208 16.6835L115.321 11.5689L119.074 7.94829C119.749 7.29798 119.376 6.16257 118.446 6.029L113.257 5.28026L110.938 0.62615C110.523 -0.203435 109.319 -0.213981 108.9 0.62615Z" fill="white"/>
<path d="M58.8997 0.62615L56.5806 5.28026L51.392 6.029C50.4616 6.16257 50.0887 7.29798 50.7634 7.94829L54.5173 11.5689L53.6294 16.6835C53.4696 17.608 54.4533 18.3005 55.2773 17.8682L59.9189 15.4532L64.5606 17.8682C65.3845 18.297 66.3683 17.608 66.2085 16.6835L65.3206 11.5689L69.0744 7.94829C69.7492 7.29798 69.3763 6.16257 68.4458 6.029L63.2573 5.28026L60.9382 0.62615C60.5227 -0.203435 59.3188 -0.213981 58.8997 0.62615Z" fill="white"/>
<path d="M33.8997 0.62615L31.5806 5.28026L26.392 6.029C25.4616 6.16257 25.0887 7.29798 25.7634 7.94829L29.5173 11.5689L28.6294 16.6835C28.4696 17.608 29.4533 18.3005 30.2773 17.8682L34.9189 15.4532L39.5606 17.8682C40.3845 18.297 41.3683 17.608 41.2085 16.6835L40.3206 11.5689L44.0744 7.94829C44.7492 7.29798 44.3763 6.16257 43.4458 6.029L38.2573 5.28026L35.9382 0.62615C35.5227 -0.203435 34.3188 -0.213981 33.8997 0.62615Z" fill="white"/>
<path d="M8.48075 0.62615L6.16169 5.28026L0.973099 6.029C0.0426336 6.16257 -0.330263 7.29798 0.344502 7.94829L4.09833 11.5689L3.21048 16.6835C3.05067 17.608 4.0344 18.3005 4.85833 17.8682L9.5 15.4532L14.1417 17.8682C14.9656 18.297 15.9493 17.608 15.7895 16.6835L14.9017 11.5689L18.6555 7.94829C19.3303 7.29798 18.9574 6.16257 18.0269 6.029L12.8383 5.28026L10.5193 0.62615C10.1037 -0.203435 8.89981 -0.213981 8.48075 0.62615Z" fill="white"/>
</svg>
