<svg width="118" height="18" viewBox="0 0 118 18" fill="none" xmlns="http://www.w3.org/2000/svg">
<path d="M83.4807 0.62615L81.1617 5.28026L75.9731 6.029C75.0426 6.16257 74.6697 7.29798 75.3445 7.94829L79.0983 11.5689L78.2105 16.6835C78.0507 17.608 79.0344 18.3005 79.8583 17.8682L84.5 15.4532L89.1417 17.8682C89.9656 18.297 90.9493 17.608 90.7895 16.6835L89.9017 11.5689L93.6555 7.94829C94.3303 7.29798 93.9574 6.16257 93.0269 6.029L87.8383 5.28026L85.5193 0.62615C85.1037 -0.203435 83.8998 -0.213981 83.4807 0.62615Z" fill="white"/>
<path d="M58.4807 0.62615L56.1617 5.28026L50.9731 6.029C50.0426 6.16257 49.6697 7.29798 50.3445 7.94829L54.0983 11.5689L53.2105 16.6835C53.0507 17.608 54.0344 18.3005 54.8583 17.8682L59.5 15.4532L64.1417 17.8682C64.9656 18.297 65.9493 17.608 65.7895 16.6835L64.9017 11.5689L68.6555 7.94829C69.3303 7.29798 68.9574 6.16257 68.0269 6.029L62.8383 5.28026L60.5193 0.62615C60.1037 -0.203435 58.8998 -0.213981 58.4807 0.62615Z" fill="white"/>
<path d="M33.4807 0.62615L31.1617 5.28026L25.9731 6.029C25.0426 6.16257 24.6697 7.29798 25.3445 7.94829L29.0983 11.5689L28.2105 16.6835C28.0507 17.608 29.0344 18.3005 29.8583 17.8682L34.5 15.4532L39.1417 17.8682C39.9656 18.297 40.9493 17.608 40.7895 16.6835L39.9017 11.5689L43.6555 7.94829C44.3303 7.29798 43.9574 6.16257 43.0269 6.029L37.8383 5.28026L35.5193 0.62615C35.1037 -0.203435 33.8998 -0.213981 33.4807 0.62615Z" fill="white"/>
<path d="M8.48075 0.62615L6.16169 5.28026L0.973099 6.029C0.0426336 6.16257 -0.330263 7.29798 0.344502 7.94829L4.09833 11.5689L3.21048 16.6835C3.05067 17.608 4.0344 18.3005 4.85833 17.8682L9.5 15.4532L14.1417 17.8682C14.9656 18.297 15.9493 17.608 15.7895 16.6835L14.9017 11.5689L18.6555 7.94829C19.3303 7.29798 18.9574 6.16257 18.0269 6.029L12.8383 5.28026L10.5193 0.62615C10.1037 -0.203435 8.89981 -0.213981 8.48075 0.62615Z" fill="white"/>
<path d="M117.043 6.02445L111.953 5.56251L109.966 0.668161C109.608 -0.22272 108.389 -0.22272 108.031 0.668161L106.043 5.57351L100.964 6.02445C100.039 6.10144 99.6603 7.31128 100.365 7.94919L104.224 11.4467L103.067 16.638C102.857 17.5839 103.835 18.3318 104.634 17.8259L108.998 15.0762L113.363 17.8369C114.162 18.3428 115.14 17.5949 114.929 16.649L113.773 11.4467L117.632 7.94919C118.337 7.31128 117.969 6.10144 117.043 6.02445ZM108.998 13.0195L105.044 15.5162L106.096 10.8088L102.605 7.64123L107.211 7.22329L108.998 2.79088L110.797 7.23429L115.403 7.65223L111.911 10.8198L112.963 15.5272L108.998 13.0195Z" fill="white"/>
</svg>
