<svg width="119" height="18" viewBox="0 0 119 18" fill="none" xmlns="http://www.w3.org/2000/svg">
<path d="M83.4807 0.62615L81.1617 5.28026L75.9731 6.029C75.0426 6.16257 74.6697 7.29798 75.3445 7.94829L79.0983 11.5689L78.2105 16.6835C78.0507 17.608 79.0344 18.3005 79.8583 17.8682L84.5 15.4532L89.1417 17.8682C89.9656 18.297 90.9493 17.608 90.7895 16.6835L89.9017 11.5689L93.6555 7.94829C94.3303 7.29798 93.9574 6.16257 93.0269 6.029L87.8383 5.28026L85.5193 0.62615C85.1037 -0.203435 83.8998 -0.213981 83.4807 0.62615Z" fill="white"/>
<path d="M58.4807 0.62615L56.1617 5.28026L50.9731 6.029C50.0426 6.16257 49.6697 7.29798 50.3445 7.94829L54.0983 11.5689L53.2105 16.6835C53.0507 17.608 54.0344 18.3005 54.8583 17.8682L59.5 15.4532L64.1417 17.8682C64.9656 18.297 65.9493 17.608 65.7895 16.6835L64.9017 11.5689L68.6555 7.94829C69.3303 7.29798 68.9574 6.16257 68.0269 6.029L62.8383 5.28026L60.5193 0.62615C60.1037 -0.203435 58.8998 -0.213981 58.4807 0.62615Z" fill="white"/>
<path d="M33.4807 0.62615L31.1617 5.28026L25.9731 6.029C25.0426 6.16257 24.6697 7.29798 25.3445 7.94829L29.0983 11.5689L28.2105 16.6835C28.0507 17.608 29.0344 18.3005 29.8583 17.8682L34.5 15.4532L39.1417 17.8682C39.9656 18.297 40.9493 17.608 40.7895 16.6835L39.9017 11.5689L43.6555 7.94829C44.3303 7.29798 43.9574 6.16257 43.0269 6.029L37.8383 5.28026L35.5193 0.62615C35.1037 -0.203435 33.8998 -0.213981 33.4807 0.62615Z" fill="white"/>
<path d="M8.48075 0.62615L6.16169 5.28026L0.973099 6.029C0.0426336 6.16257 -0.330263 7.29798 0.344502 7.94829L4.09833 11.5689L3.21048 16.6835C3.05067 17.608 4.0344 18.3005 4.85833 17.8682L9.5 15.4532L14.1417 17.8682C14.9656 18.297 15.9493 17.608 15.7895 16.6835L14.9017 11.5689L18.6555 7.94829C19.3303 7.29798 18.9574 6.16257 18.0269 6.029L12.8383 5.28026L10.5193 0.62615C10.1037 -0.203435 8.89981 -0.213981 8.48075 0.62615Z" fill="white"/>
<path d="M118.027 6.02965L112.838 5.28047L110.52 0.626133C110.311 0.210234 109.905 0 109.498 0C109.094 0 108.69 0.207422 108.481 0.626133L106.162 5.28012L100.973 6.02859C100.043 6.16219 99.6698 7.29738 100.344 7.94777L104.098 11.5689L103.21 16.6834C103.083 17.4139 103.671 18 104.33 18C104.505 18 104.685 17.9589 104.857 17.8682L109.499 15.4536L114.14 17.8689C114.313 17.9585 114.492 17.9993 114.666 17.9993C115.325 17.9993 115.915 17.4154 115.788 16.6845L114.901 11.5696L118.655 7.94918C119.33 7.29879 118.957 6.16324 118.027 6.02965ZM113.712 10.3609L113.069 10.9804L113.221 11.855L113.913 15.8435L110.293 13.9595L109.499 13.5468L109.5 2.39555L111.309 6.02684L111.706 6.82242L112.592 6.95039L116.641 7.53504L113.712 10.3609Z" fill="white"/>
</svg>
