<svg width="1920" height="1080" viewBox="0 0 1920 1080" fill="none" xmlns="http://www.w3.org/2000/svg">
<g clip-path="url(#clip0_901_103631)">
<rect width="1920" height="1080" fill="white"/>
<path d="M442.802 1230.76C470.31 1158.47 523.128 1070.39 589.888 1089.2C914.586 1246.76 405.772 1416.63 442.802 1230.76Z" fill="#E7F3FE"/>
<g opacity="0.45">
<path d="M1756.61 771.798L1401.19 1115.54L956.009 973.058L866.24 486.825L1221.65 143.078L1666.84 285.565L1756.61 771.798Z" fill="url(#paint0_linear_901_103631)"/>
<path d="M2557.22 570.536L2201.8 914.283L1756.62 771.796L1666.85 285.563L2022.27 -58.1832L2467.45 84.3034L2557.22 570.536Z" fill="url(#paint1_linear_901_103631)"/>
<path d="M2022.27 -58.194L1666.86 285.552L1221.67 143.066L1131.9 -343.167L1487.32 -686.914L1932.5 -544.427L2022.27 -58.194Z" fill="url(#paint2_linear_901_103631)"/>
</g>
<g opacity="0.45">
<path d="M1756.61 1281.05L1401.19 1624.79L956.009 1482.31L866.24 996.075L1221.65 652.328L1666.84 794.815L1756.61 1281.05Z" fill="url(#paint3_linear_901_103631)"/>
<path d="M2557.22 1079.79L2201.8 1423.53L1756.62 1281.05L1666.85 794.813L2022.27 451.067L2467.45 593.553L2557.22 1079.79Z" fill="url(#paint4_linear_901_103631)"/>
<path d="M2022.27 451.056L1666.86 794.802L1221.67 652.316L1131.9 166.083L1487.32 -177.664L1932.5 -35.177L2022.27 451.056Z" fill="url(#paint5_linear_901_103631)"/>
</g>
<g opacity="0.45">
<path d="M1027.94 1411.08L672.527 1754.82L227.343 1612.34L137.574 1126.1L492.988 782.356L938.172 924.843L1027.94 1411.08Z" fill="url(#paint6_linear_901_103631)"/>
<path d="M1828.55 1209.81L1473.14 1553.56L1027.95 1411.07L938.185 924.84L1293.6 581.094L1738.78 723.581L1828.55 1209.81Z" fill="url(#paint7_linear_901_103631)"/>
<path d="M1293.61 581.083L938.191 924.83L493.007 782.343L403.238 296.11L758.653 -47.6364L1203.84 94.8503L1293.61 581.083Z" fill="url(#paint8_linear_901_103631)"/>
</g>
<g opacity="0.45">
<path d="M376.286 1364.76L20.8712 1708.51L-424.312 1566.02L-514.081 1079.79L-158.667 736.043L286.517 878.53L376.286 1364.76Z" fill="url(#paint9_linear_901_103631)"/>
<path d="M1176.9 1163.5L821.482 1507.25L376.299 1364.76L286.529 878.528L641.944 534.782L1087.13 677.268L1176.9 1163.5Z" fill="url(#paint10_linear_901_103631)"/>
<path d="M641.95 534.771L286.536 878.517L-158.648 736.03L-248.417 249.797L106.998 -93.9489L552.181 48.5378L641.95 534.771Z" fill="url(#paint11_linear_901_103631)"/>
</g>
<g opacity="0.45">
<path d="M15.832 -46.3434L340.348 -419.399L796.142 -315.749L927.419 160.956L602.902 534.011L147.109 430.361L15.832 -46.3434Z" fill="url(#paint12_linear_901_103631)"/>
<path d="M-764.491 223.063L-439.975 -149.992L15.8185 -46.3427L147.096 430.362L-177.421 803.417L-633.214 699.768L-764.491 223.063Z" fill="url(#paint13_linear_901_103631)"/>
<path d="M-177.426 803.426L147.091 430.371L602.884 534.021L734.161 1010.73L409.645 1383.78L-46.1488 1280.13L-177.426 803.426Z" fill="url(#paint14_linear_901_103631)"/>
</g>
<g opacity="0.45">
<path d="M321.06 -353.175L645.577 -726.231L1101.37 -622.581L1232.65 -145.876L908.131 227.179L452.337 123.529L321.06 -353.175Z" fill="url(#paint15_linear_901_103631)"/>
<path d="M-459.263 -83.7692L-134.746 -456.824L321.047 -353.175L452.324 123.53L127.808 496.585L-327.986 392.935L-459.263 -83.7692Z" fill="url(#paint16_linear_901_103631)"/>
<path d="M127.803 496.594L452.319 123.539L908.112 227.189L1039.39 703.893L714.873 1076.95L259.08 973.299L127.803 496.594Z" fill="url(#paint17_linear_901_103631)"/>
</g>
<g opacity="0.45">
<path d="M1169.33 903.866L849.277 1280.76L392.283 1182.54L255.344 707.427L575.4 330.537L1032.39 428.757L1169.33 903.866Z" fill="url(#paint18_linear_901_103631)"/>
<path d="M1946.4 625.198L1626.34 1002.09L1169.35 903.868L1032.41 428.759L1352.46 51.8694L1809.46 150.089L1946.4 625.198Z" fill="url(#paint19_linear_901_103631)"/>
<path d="M1352.47 51.8586L1032.41 428.748L575.418 330.528L438.479 -144.581L758.534 -521.47L1215.53 -423.251L1352.47 51.8586Z" fill="url(#paint20_linear_901_103631)"/>
</g>
<g opacity="0.45">
<path d="M1326.6 -452.597L1799.39 -307.869L1890.09 150.678L1507.99 464.496L1035.19 319.768L944.498 -138.778L1326.6 -452.597Z" fill="url(#paint21_linear_901_103631)"/>
<path d="M471.685 -283.519L944.48 -138.79L1035.18 319.756L653.078 633.575L180.283 488.846L89.5867 30.2996L471.685 -283.519Z" fill="url(#paint22_linear_901_103631)"/>
</g>
<rect y="766.848" width="1920" height="319.781" fill="url(#paint23_linear_901_103631)"/>
</g>
<defs>
<linearGradient id="paint0_linear_901_103631" x1="1672.91" y1="278.769" x2="1463.5" y2="449.839" gradientUnits="userSpaceOnUse">
<stop stop-color="#DBDBDB"/>
<stop offset="1" stop-color="white" stop-opacity="0"/>
</linearGradient>
<linearGradient id="paint1_linear_901_103631" x1="1656.41" y1="285.6" x2="2118.93" y2="407.301" gradientUnits="userSpaceOnUse">
<stop stop-color="#EFEFEF"/>
<stop offset="0.911213" stop-color="white" stop-opacity="0"/>
</linearGradient>
<linearGradient id="paint2_linear_901_103631" x1="1669.42" y1="286.378" x2="1607.06" y2="17.757" gradientUnits="userSpaceOnUse">
<stop stop-color="white"/>
<stop offset="0.0001" stop-color="white"/>
<stop offset="1" stop-color="white" stop-opacity="0"/>
</linearGradient>
<linearGradient id="paint3_linear_901_103631" x1="1672.91" y1="788.019" x2="1463.5" y2="959.089" gradientUnits="userSpaceOnUse">
<stop stop-color="#DBDBDB"/>
<stop offset="1" stop-color="white" stop-opacity="0"/>
</linearGradient>
<linearGradient id="paint4_linear_901_103631" x1="1656.41" y1="794.85" x2="2118.93" y2="916.551" gradientUnits="userSpaceOnUse">
<stop stop-color="#EFEFEF"/>
<stop offset="0.911213" stop-color="white" stop-opacity="0"/>
</linearGradient>
<linearGradient id="paint5_linear_901_103631" x1="1669.42" y1="795.628" x2="1607.06" y2="527.007" gradientUnits="userSpaceOnUse">
<stop stop-color="white"/>
<stop offset="0.0001" stop-color="white"/>
<stop offset="1" stop-color="white" stop-opacity="0"/>
</linearGradient>
<linearGradient id="paint6_linear_901_103631" x1="944.249" y1="918.047" x2="734.831" y2="1089.12" gradientUnits="userSpaceOnUse">
<stop stop-color="#DBDBDB"/>
<stop offset="1" stop-color="white" stop-opacity="0"/>
</linearGradient>
<linearGradient id="paint7_linear_901_103631" x1="927.739" y1="924.878" x2="1390.26" y2="1046.58" gradientUnits="userSpaceOnUse">
<stop stop-color="#EFEFEF"/>
<stop offset="0.911213" stop-color="white" stop-opacity="0"/>
</linearGradient>
<linearGradient id="paint8_linear_901_103631" x1="940.75" y1="925.655" x2="878.394" y2="657.034" gradientUnits="userSpaceOnUse">
<stop stop-color="white"/>
<stop offset="0.0001" stop-color="white"/>
<stop offset="1" stop-color="white" stop-opacity="0"/>
</linearGradient>
<linearGradient id="paint9_linear_901_103631" x1="292.593" y1="871.734" x2="83.1758" y2="1042.8" gradientUnits="userSpaceOnUse">
<stop stop-color="#DBDBDB"/>
<stop offset="1" stop-color="white" stop-opacity="0"/>
</linearGradient>
<linearGradient id="paint10_linear_901_103631" x1="276.084" y1="878.565" x2="738.607" y2="1000.27" gradientUnits="userSpaceOnUse">
<stop stop-color="#EFEFEF"/>
<stop offset="0.911213" stop-color="white" stop-opacity="0"/>
</linearGradient>
<linearGradient id="paint11_linear_901_103631" x1="289.095" y1="879.343" x2="226.739" y2="610.722" gradientUnits="userSpaceOnUse">
<stop stop-color="white"/>
<stop offset="0.0001" stop-color="white"/>
<stop offset="1" stop-color="white" stop-opacity="0"/>
</linearGradient>
<linearGradient id="paint12_linear_901_103631" x1="141.64" y1="437.655" x2="335.56" y2="249.199" gradientUnits="userSpaceOnUse">
<stop stop-color="#DBDBDB"/>
<stop offset="1" stop-color="white" stop-opacity="0"/>
</linearGradient>
<linearGradient id="paint13_linear_901_103631" x1="157.499" y1="429.426" x2="-313.781" y2="347.978" gradientUnits="userSpaceOnUse">
<stop stop-color="#EFEFEF"/>
<stop offset="0.911213" stop-color="white" stop-opacity="0"/>
</linearGradient>
<linearGradient id="paint14_linear_901_103631" x1="144.47" y1="429.769" x2="229.709" y2="692.027" gradientUnits="userSpaceOnUse">
<stop stop-color="white"/>
<stop offset="0.0001" stop-color="white"/>
<stop offset="1" stop-color="white" stop-opacity="0"/>
</linearGradient>
<linearGradient id="paint15_linear_901_103631" x1="446.868" y1="130.823" x2="640.788" y2="-57.6329" gradientUnits="userSpaceOnUse">
<stop stop-color="#DBDBDB"/>
<stop offset="1" stop-color="white" stop-opacity="0"/>
</linearGradient>
<linearGradient id="paint16_linear_901_103631" x1="462.728" y1="122.594" x2="-8.5526" y2="41.1456" gradientUnits="userSpaceOnUse">
<stop stop-color="#EFEFEF"/>
<stop offset="0.911213" stop-color="white" stop-opacity="0"/>
</linearGradient>
<linearGradient id="paint17_linear_901_103631" x1="449.699" y1="122.937" x2="534.938" y2="385.195" gradientUnits="userSpaceOnUse">
<stop stop-color="white"/>
<stop offset="0.0001" stop-color="white"/>
<stop offset="1" stop-color="white" stop-opacity="0"/>
</linearGradient>
<linearGradient id="paint18_linear_901_103631" x1="1037.78" y1="421.399" x2="846.112" y2="612.148" gradientUnits="userSpaceOnUse">
<stop stop-color="#DBDBDB"/>
<stop offset="1" stop-color="white" stop-opacity="0"/>
</linearGradient>
<linearGradient id="paint19_linear_901_103631" x1="1022.02" y1="429.818" x2="1494.23" y2="505.654" gradientUnits="userSpaceOnUse">
<stop stop-color="#EFEFEF"/>
<stop offset="0.911213" stop-color="white" stop-opacity="0"/>
</linearGradient>
<linearGradient id="paint20_linear_901_103631" x1="1035.04" y1="429.319" x2="946.686" y2="168.093" gradientUnits="userSpaceOnUse">
<stop stop-color="white"/>
<stop offset="0.0001" stop-color="white"/>
<stop offset="1" stop-color="white" stop-opacity="0"/>
</linearGradient>
<linearGradient id="paint21_linear_901_103631" x1="935.61" y1="-140.808" x2="1186.65" y2="-40.304" gradientUnits="userSpaceOnUse">
<stop stop-color="#DBDBDB"/>
<stop offset="1" stop-color="white" stop-opacity="0"/>
</linearGradient>
<linearGradient id="paint22_linear_901_103631" x1="943.964" y1="-141.429" x2="739.047" y2="43.1096" gradientUnits="userSpaceOnUse">
<stop stop-color="white"/>
<stop offset="0.0001" stop-color="white"/>
<stop offset="1" stop-color="white" stop-opacity="0"/>
</linearGradient>
<linearGradient id="paint23_linear_901_103631" x1="960" y1="1086.63" x2="960" y2="766.848" gradientUnits="userSpaceOnUse">
<stop stop-color="white"/>
<stop offset="1" stop-color="white" stop-opacity="0"/>
</linearGradient>
<clipPath id="clip0_901_103631">
<rect width="1920" height="1080" fill="white"/>
</clipPath>
</defs>
</svg>
