<svg width="93" height="93" viewBox="0 0 93 93" fill="none" xmlns="http://www.w3.org/2000/svg">
<rect x="0.300781" y="0.0195312" width="92.383" height="92.383" fill="white"/>
<path d="M63.0612 30.4391C58.4387 27.803 56.6245 30.3826 56.295 32.0155C56.22 32.3016 56.6436 32.611 57.6418 33.1387C58.4312 33.5561 59.2721 33.9469 60.1648 33.9263C62.2186 33.8787 63.0964 32.1436 63.3221 30.9862C63.3485 30.8504 63.3318 30.7328 63.253 30.6192C63.2078 30.5539 63.1301 30.4784 63.0612 30.4391Z" fill="url(#paint0_linear_1740_632)"/>
<path d="M69.9249 45.5683C67.9801 40.6151 64.9488 41.4851 63.6675 42.5496C63.4296 42.7253 63.5653 43.2321 64.0113 44.2694C64.364 45.0896 64.7734 45.9217 65.4814 46.4657C67.1104 47.7176 68.8827 46.9176 69.7847 46.158C69.8905 46.0689 69.9512 45.9668 69.9612 45.8289C69.967 45.7497 69.9539 45.6421 69.9249 45.5683Z" fill="url(#paint1_linear_1740_632)"/>
<path d="M67.4544 57.2845C68.1621 52.0104 65.0901 51.2975 63.4529 51.6051C63.1596 51.643 63.0319 52.1519 62.9175 53.2752C62.8271 54.1635 62.7806 55.0896 63.1349 55.9092C63.9501 57.795 65.8878 57.9571 67.0453 57.7317C67.181 57.7053 67.2837 57.6456 67.3595 57.5299C67.403 57.4635 67.4439 57.3631 67.4544 57.2845Z" fill="url(#paint2_linear_1740_632)"/>
<path d="M54.2888 68.7946C58.9753 66.2742 57.7508 63.368 56.5413 62.2224C56.3386 62.0072 55.8516 62.2021 54.8747 62.7684C54.1022 63.2163 53.3249 63.7218 52.8689 64.4895C51.8198 66.2559 52.8251 67.9204 53.6866 68.7256C53.7876 68.82 53.8962 68.8682 54.0344 68.8617C54.1136 68.858 54.2189 68.8322 54.2888 68.7946Z" fill="url(#paint3_linear_1740_632)"/>
<path d="M57.5554 67.5089C62.1896 64.8935 63.9922 67.4812 64.3144 69.1156C64.3881 69.402 63.9631 69.7096 62.9626 70.2328C62.1713 70.6466 61.3287 71.0337 60.4361 71.009C58.3825 70.9522 57.5125 69.2132 57.292 68.0548C57.2662 67.9189 57.2835 67.8014 57.3627 67.6881C57.4082 67.6231 57.4863 67.5479 57.5554 67.5089Z" fill="url(#paint4_linear_1740_632)"/>
<path d="M64.5152 60.9021C68.4312 57.2993 70.7762 59.4079 71.4626 60.9258C71.5996 61.1879 71.2559 61.5842 70.4009 62.3218C69.7249 62.905 68.9926 63.474 68.118 63.6534C66.1055 64.0663 64.8619 62.5714 64.3832 61.4937C64.3271 61.3674 64.3171 61.249 64.3684 61.1206C64.3979 61.0469 64.4568 60.9559 64.5152 60.9021Z" fill="url(#paint5_linear_1740_632)"/>
<path d="M68.6492 53.6495C70.5399 48.6755 73.5804 49.5124 74.8733 50.5629C75.1131 50.736 74.983 51.2442 74.5483 52.2863C74.2045 53.1104 73.8041 53.9468 73.1021 54.4986C71.4869 55.7681 69.706 54.9874 68.7958 54.2377C68.689 54.1498 68.6272 54.0483 68.6157 53.9105C68.609 53.8315 68.621 53.7237 68.6492 53.6495Z" fill="url(#paint6_linear_1740_632)"/>
<path d="M69.7068 43.679C69.506 38.3615 72.632 37.9452 74.2324 38.4077C74.5207 38.4735 74.5993 38.9921 74.6058 40.1213C74.611 41.0141 74.5689 41.9405 74.138 42.7225C73.1464 44.5218 71.2021 44.4982 70.0714 44.1632C69.9388 44.1239 69.8422 44.0547 69.7779 43.9323C69.7409 43.8621 69.7098 43.7583 69.7068 43.679Z" fill="url(#paint7_linear_1740_632)"/>
<path d="M66.0717 33.5177C65.8709 28.2002 68.9969 27.7839 70.5973 28.2465C70.8856 28.3122 70.9642 28.8309 70.9708 29.96C70.9759 30.8529 70.9338 31.7792 70.5029 32.5613C69.5113 34.3605 67.567 34.3369 66.4363 34.002C66.3037 33.9627 66.2072 33.8935 66.1428 33.7711C66.1058 33.7009 66.0747 33.597 66.0717 33.5177Z" fill="url(#paint8_linear_1740_632)"/>
<path d="M59.9192 26.8224C59.7183 21.5049 62.8444 21.0886 64.4447 21.5512C64.733 21.6169 64.8116 22.1356 64.8182 23.2647C64.8233 24.1576 64.7812 25.0839 64.3503 25.866C63.3587 27.6652 61.4144 27.6416 60.2837 27.3067C60.1511 27.2674 60.0546 27.1982 59.9902 27.0758C59.9532 27.0056 59.9222 26.9017 59.9192 26.8224Z" fill="url(#paint9_linear_1740_632)"/>
<path d="M29.9232 30.4391C34.5457 27.803 36.3598 30.3826 36.6894 32.0155C36.7644 32.3016 36.3408 32.611 35.3426 33.1387C34.5532 33.5561 33.7123 33.9469 32.8196 33.9263C30.7658 33.8787 29.8879 32.1436 29.6623 30.9862C29.6358 30.8504 29.6526 30.7328 29.7314 30.6192C29.7765 30.5539 29.8543 30.4784 29.9232 30.4391Z" fill="url(#paint10_linear_1740_632)"/>
<path d="M23.0595 45.5683C25.0043 40.6151 28.0355 41.4851 29.3169 42.5496C29.5548 42.7253 29.4191 43.2321 28.9731 44.2694C28.6204 45.0896 28.2109 45.9217 27.503 46.4657C25.874 47.7176 24.1017 46.9176 23.1997 46.158C23.0939 46.0689 23.0332 45.9668 23.0232 45.8289C23.0174 45.7497 23.0305 45.6421 23.0595 45.5683Z" fill="url(#paint11_linear_1740_632)"/>
<path d="M25.53 57.2845C24.8222 52.0104 27.8943 51.2975 29.5315 51.6051C29.8247 51.643 29.9525 52.1519 30.0668 53.2752C30.1573 54.1635 30.2038 55.0896 29.8495 55.9092C29.0343 57.795 27.0966 57.9571 25.9391 57.7317C25.8033 57.7053 25.7006 57.6456 25.6248 57.5299C25.5814 57.4635 25.5405 57.3631 25.53 57.2845Z" fill="url(#paint12_linear_1740_632)"/>
<path d="M38.6956 68.7946C34.009 66.2742 35.2336 63.368 36.4431 62.2224C36.6458 62.0072 37.1328 62.2021 38.1097 62.7684C38.8821 63.2163 39.6595 63.7218 40.1155 64.4895C41.1646 66.2559 40.1593 67.9204 39.2978 68.7256C39.1967 68.82 39.0881 68.8682 38.95 68.8617C38.8707 68.858 38.7655 68.8322 38.6956 68.7946Z" fill="url(#paint13_linear_1740_632)"/>
<path d="M35.429 67.5089C30.7948 64.8935 28.9922 67.4812 28.6699 69.1156C28.5962 69.402 29.0212 69.7096 30.0218 70.2328C30.8131 70.6466 31.6557 71.0337 32.5483 71.009C34.6019 70.9522 35.4719 69.2132 35.6924 68.0548C35.7182 67.9189 35.7009 67.8014 35.6217 67.6881C35.5762 67.6231 35.4981 67.5479 35.429 67.5089Z" fill="url(#paint14_linear_1740_632)"/>
<path d="M28.4692 60.9021C24.5532 57.2993 22.2082 59.4079 21.5218 60.9258C21.3848 61.1879 21.7285 61.5842 22.5834 62.3218C23.2595 62.905 23.9917 63.474 24.8664 63.6534C26.8789 64.0663 28.1225 62.5714 28.6012 61.4937C28.6573 61.3674 28.6673 61.249 28.6159 61.1206C28.5865 61.0469 28.5276 60.9559 28.4692 60.9021Z" fill="url(#paint15_linear_1740_632)"/>
<path d="M24.3352 53.6495C22.4445 48.6755 19.4039 49.5124 18.1111 50.5629C17.8713 50.736 18.0014 51.2442 18.4361 52.2863C18.7799 53.1104 19.1802 53.9468 19.8823 54.4986C21.4975 55.7681 23.2784 54.9874 24.1886 54.2377C24.2954 54.1498 24.3572 54.0483 24.3687 53.9105C24.3753 53.8315 24.3634 53.7237 24.3352 53.6495Z" fill="url(#paint16_linear_1740_632)"/>
<path d="M23.2775 43.679C23.4784 38.3615 20.3523 37.9452 18.752 38.4077C18.4637 38.4735 18.3851 38.9921 18.3785 40.1213C18.3734 41.0141 18.4155 41.9405 18.8464 42.7225C19.838 44.5218 21.7823 44.4982 22.913 44.1632C23.0456 44.1239 23.1421 44.0547 23.2065 43.9323C23.2435 43.8621 23.2745 43.7583 23.2775 43.679Z" fill="url(#paint17_linear_1740_632)"/>
<path d="M26.9126 33.5177C27.1135 28.2002 23.9874 27.7839 22.3871 28.2465C22.0988 28.3122 22.0202 28.8309 22.0136 29.96C22.0085 30.8529 22.0506 31.7792 22.4815 32.5613C23.4731 34.3605 25.4174 34.3369 26.5481 34.002C26.6807 33.9627 26.7772 33.8935 26.8416 33.7711C26.8786 33.7009 26.9096 33.597 26.9126 33.5177Z" fill="url(#paint18_linear_1740_632)"/>
<path d="M33.0652 26.8224C33.2661 21.5049 30.14 21.0886 28.5396 21.5512C28.2513 21.6169 28.1727 22.1356 28.1662 23.2647C28.161 24.1576 28.2031 25.0839 28.6341 25.866C29.6256 27.6652 31.57 27.6416 32.7007 27.3067C32.8333 27.2674 32.9298 27.1982 32.9942 27.0758C33.0311 27.0056 33.0622 26.9017 33.0652 26.8224Z" fill="url(#paint19_linear_1740_632)"/>
<path d="M45.5396 34.7282C45.8577 33.7492 47.2428 33.7492 47.5608 34.7282L49.6568 41.1789C49.7991 41.6167 50.2071 41.9132 50.6674 41.9132H57.4501C58.4794 41.9132 58.9074 43.2304 58.0746 43.8354L52.5874 47.8222C52.2149 48.0928 52.0591 48.5724 52.2013 49.0102L54.2973 55.4609C54.6154 56.4399 53.4949 57.254 52.6621 56.6489L47.1748 52.6622C46.8024 52.3916 46.2981 52.3916 45.9257 52.6622L40.4384 56.6489C39.6056 57.254 38.4851 56.4399 38.8032 55.4609L40.8991 49.0102C41.0414 48.5724 40.8856 48.0928 40.5131 47.8222L35.0258 43.8354C34.1931 43.2304 34.6211 41.9132 35.6504 41.9132H42.4331C42.8934 41.9132 43.3014 41.6167 43.4437 41.1789L45.5396 34.7282Z" fill="url(#paint20_linear_1740_632)"/>
<path d="M45.1394 34.7264C45.4575 33.7474 46.8425 33.7474 47.1606 34.7264L48.3211 38.298L46.8259 42.8997C46.6836 43.3375 46.2756 43.634 45.8153 43.634H39.0326C38.0033 43.634 37.5753 44.9512 38.4081 45.5562L43.8953 49.543C44.2678 49.8136 44.4236 50.2932 44.2814 50.731L43.0763 54.4398L40.0381 56.6471C39.2054 57.2522 38.0849 56.4381 38.4029 55.4591L40.4989 49.0084C40.6412 48.5706 40.4853 48.091 40.1129 47.8204L34.6256 43.8337C33.7928 43.2286 34.2208 41.9114 35.2502 41.9114H42.0328C42.4932 41.9114 42.9012 41.6149 43.0434 41.1771L45.1394 34.7264Z" fill="url(#paint21_linear_1740_632)"/>
<path d="M38.2735 25.0078C19.2429 31.7243 16.3882 61.222 39.6197 68.853C44.1903 70.3543 49.2175 70.5216 53.779 68.9929C73.6159 62.3448 76.7564 34.6804 54.8405 25.0078" stroke="url(#paint22_linear_1740_632)" stroke-width="2" stroke-linecap="round"/>
<defs>
<linearGradient id="paint0_linear_1740_632" x1="17.9922" y1="46.2101" x2="74.9922" y2="46.2101" gradientUnits="userSpaceOnUse">
<stop offset="0.154706" stop-color="#00A3FF"/>
<stop offset="1" stop-color="#00FF38"/>
</linearGradient>
<linearGradient id="paint1_linear_1740_632" x1="17.9922" y1="46.2101" x2="74.9922" y2="46.2101" gradientUnits="userSpaceOnUse">
<stop offset="0.154706" stop-color="#00A3FF"/>
<stop offset="1" stop-color="#00FF38"/>
</linearGradient>
<linearGradient id="paint2_linear_1740_632" x1="17.9922" y1="46.2101" x2="74.9922" y2="46.2101" gradientUnits="userSpaceOnUse">
<stop offset="0.154706" stop-color="#00A3FF"/>
<stop offset="1" stop-color="#00FF38"/>
</linearGradient>
<linearGradient id="paint3_linear_1740_632" x1="17.9922" y1="46.2101" x2="74.9922" y2="46.2101" gradientUnits="userSpaceOnUse">
<stop offset="0.154706" stop-color="#00A3FF"/>
<stop offset="1" stop-color="#00FF38"/>
</linearGradient>
<linearGradient id="paint4_linear_1740_632" x1="17.9922" y1="46.2101" x2="74.9922" y2="46.2101" gradientUnits="userSpaceOnUse">
<stop offset="0.154706" stop-color="#00A3FF"/>
<stop offset="1" stop-color="#00FF38"/>
</linearGradient>
<linearGradient id="paint5_linear_1740_632" x1="17.9922" y1="46.2101" x2="74.9922" y2="46.2101" gradientUnits="userSpaceOnUse">
<stop offset="0.154706" stop-color="#00A3FF"/>
<stop offset="1" stop-color="#00FF38"/>
</linearGradient>
<linearGradient id="paint6_linear_1740_632" x1="17.9922" y1="46.2101" x2="74.9922" y2="46.2101" gradientUnits="userSpaceOnUse">
<stop offset="0.154706" stop-color="#00A3FF"/>
<stop offset="1" stop-color="#00FF38"/>
</linearGradient>
<linearGradient id="paint7_linear_1740_632" x1="17.9922" y1="46.2101" x2="74.9922" y2="46.2101" gradientUnits="userSpaceOnUse">
<stop offset="0.154706" stop-color="#00A3FF"/>
<stop offset="1" stop-color="#00FF38"/>
</linearGradient>
<linearGradient id="paint8_linear_1740_632" x1="17.9922" y1="46.2101" x2="74.9922" y2="46.2101" gradientUnits="userSpaceOnUse">
<stop offset="0.154706" stop-color="#00A3FF"/>
<stop offset="1" stop-color="#00FF38"/>
</linearGradient>
<linearGradient id="paint9_linear_1740_632" x1="17.9922" y1="46.2101" x2="74.9922" y2="46.2101" gradientUnits="userSpaceOnUse">
<stop offset="0.154706" stop-color="#00A3FF"/>
<stop offset="1" stop-color="#00FF38"/>
</linearGradient>
<linearGradient id="paint10_linear_1740_632" x1="17.9922" y1="46.2101" x2="74.9922" y2="46.2101" gradientUnits="userSpaceOnUse">
<stop offset="0.154706" stop-color="#00A3FF"/>
<stop offset="1" stop-color="#00FF38"/>
</linearGradient>
<linearGradient id="paint11_linear_1740_632" x1="17.9922" y1="46.2101" x2="74.9922" y2="46.2101" gradientUnits="userSpaceOnUse">
<stop offset="0.154706" stop-color="#00A3FF"/>
<stop offset="1" stop-color="#00FF38"/>
</linearGradient>
<linearGradient id="paint12_linear_1740_632" x1="17.9922" y1="46.2101" x2="74.9922" y2="46.2101" gradientUnits="userSpaceOnUse">
<stop offset="0.154706" stop-color="#00A3FF"/>
<stop offset="1" stop-color="#00FF38"/>
</linearGradient>
<linearGradient id="paint13_linear_1740_632" x1="17.9922" y1="46.2101" x2="74.9922" y2="46.2101" gradientUnits="userSpaceOnUse">
<stop offset="0.154706" stop-color="#00A3FF"/>
<stop offset="1" stop-color="#00FF38"/>
</linearGradient>
<linearGradient id="paint14_linear_1740_632" x1="17.9922" y1="46.2101" x2="74.9922" y2="46.2101" gradientUnits="userSpaceOnUse">
<stop offset="0.154706" stop-color="#00A3FF"/>
<stop offset="1" stop-color="#00FF38"/>
</linearGradient>
<linearGradient id="paint15_linear_1740_632" x1="17.9922" y1="46.2101" x2="74.9922" y2="46.2101" gradientUnits="userSpaceOnUse">
<stop offset="0.154706" stop-color="#00A3FF"/>
<stop offset="1" stop-color="#00FF38"/>
</linearGradient>
<linearGradient id="paint16_linear_1740_632" x1="17.9922" y1="46.2101" x2="74.9922" y2="46.2101" gradientUnits="userSpaceOnUse">
<stop offset="0.154706" stop-color="#00A3FF"/>
<stop offset="1" stop-color="#00FF38"/>
</linearGradient>
<linearGradient id="paint17_linear_1740_632" x1="17.9922" y1="46.2101" x2="74.9922" y2="46.2101" gradientUnits="userSpaceOnUse">
<stop offset="0.154706" stop-color="#00A3FF"/>
<stop offset="1" stop-color="#00FF38"/>
</linearGradient>
<linearGradient id="paint18_linear_1740_632" x1="17.9922" y1="46.2101" x2="74.9922" y2="46.2101" gradientUnits="userSpaceOnUse">
<stop offset="0.154706" stop-color="#00A3FF"/>
<stop offset="1" stop-color="#00FF38"/>
</linearGradient>
<linearGradient id="paint19_linear_1740_632" x1="17.9922" y1="46.2101" x2="74.9922" y2="46.2101" gradientUnits="userSpaceOnUse">
<stop offset="0.154706" stop-color="#00A3FF"/>
<stop offset="1" stop-color="#00FF38"/>
</linearGradient>
<linearGradient id="paint20_linear_1740_632" x1="34.1855" y1="45.4244" x2="58.5147" y2="45.4244" gradientUnits="userSpaceOnUse">
<stop offset="0.154706" stop-color="#00A3FF"/>
<stop offset="1" stop-color="#00FF38"/>
</linearGradient>
<linearGradient id="paint21_linear_1740_632" x1="34.1855" y1="45.4244" x2="58.5147" y2="45.4244" gradientUnits="userSpaceOnUse">
<stop offset="0.154706" stop-color="#00A3FF"/>
<stop offset="1" stop-color="#00FF38"/>
</linearGradient>
<linearGradient id="paint22_linear_1740_632" x1="23.0933" y1="47.688" x2="70.0066" y2="47.688" gradientUnits="userSpaceOnUse">
<stop offset="0.154706" stop-color="#00A3FF"/>
<stop offset="1" stop-color="#00FF38"/>
</linearGradient>
</defs>
</svg>
