<svg width="210" height="210" viewBox="0 0 210 210" fill="none" xmlns="http://www.w3.org/2000/svg">
<g filter="url(#filter0_d_272_1201)">
<path d="M105 174C146.974 174 181 139.974 181 98C181 56.0264 146.974 22 105 22C63.0264 22 29 56.0264 29 98C29 139.974 63.0264 174 105 174Z" fill="white"/>
<path d="M105 172.5C146.145 172.5 179.5 139.145 179.5 98C179.5 56.8548 146.145 23.5 105 23.5C63.8548 23.5 30.5 56.8548 30.5 98C30.5 139.145 63.8548 172.5 105 172.5Z" stroke="#D500FF" stroke-width="3"/>
<mask id="mask0_272_1201" style="mask-type:luminance" maskUnits="userSpaceOnUse" x="116" y="75" width="19" height="20">
<path d="M134.603 75.8585H116.207V94.2547H134.603V75.8585Z" fill="white"/>
</mask>
<g mask="url(#mask0_272_1201)">
<path d="M134.603 75.8585H116.207V94.2547H134.603V75.8585Z" fill="white"/>
<path d="M125.406 89.0961L130.143 91.9552L128.886 86.5666L133.071 82.941L127.56 82.4734L125.406 77.3915L123.252 82.4734L117.74 82.941L121.926 86.5666L120.669 91.9552L125.406 89.0961Z" fill="url(#paint0_linear_272_1201)"/>
</g>
<mask id="mask1_272_1201" style="mask-type:luminance" maskUnits="userSpaceOnUse" x="78" y="75" width="20" height="20">
<path d="M97.1032 75.8585H78.707V94.2547H97.1032V75.8585Z" fill="white"/>
</mask>
<g mask="url(#mask1_272_1201)">
<path d="M97.1032 75.8585H78.707V94.2547H97.1032V75.8585Z" fill="white"/>
<path d="M87.9053 89.0961L92.6423 91.9552L91.3853 86.5666L95.5704 82.941L90.0592 82.4734L87.9053 77.3915L85.7514 82.4734L80.2402 82.941L84.4254 86.5666L83.1683 91.9552L87.9053 89.0961Z" fill="url(#paint1_linear_272_1201)"/>
</g>
<mask id="mask2_272_1201" style="mask-type:luminance" maskUnits="userSpaceOnUse" x="91" y="61" width="31" height="30">
<path d="M121.16 61H91.4434V90.717H121.16V61Z" fill="white"/>
</mask>
<g mask="url(#mask2_272_1201)">
<path d="M121.16 61H91.4434V90.717H121.16V61Z" fill="white"/>
<path d="M118.684 72.4411L109.781 71.6734L106.302 63.4764L102.823 71.6858L93.9199 72.4411L100.681 78.2978L98.6499 87.0024L106.302 82.3839L113.954 87.0024L111.936 78.2978L118.684 72.4411ZM106.302 80.0684L101.646 82.8792L102.885 77.5796L98.7737 74.0136L104.197 73.5431L106.302 68.5531L108.419 73.5554L113.843 74.026L109.732 77.592L110.97 82.8915L106.302 80.0684Z" fill="url(#paint2_linear_272_1201)"/>
</g>
<mask id="mask3_272_1201" style="mask-type:luminance" maskUnits="userSpaceOnUse" x="83" y="90" width="46" height="46">
<path d="M128.943 90.717H83.6602V136H128.943V90.717Z" fill="white"/>
</mask>
<g mask="url(#mask3_272_1201)">
<path d="M128.943 90.717H83.6602V136H128.943V90.717Z" fill="white"/>
<path d="M106.302 102.038C108.378 102.038 110.076 103.736 110.076 105.811C110.076 107.887 108.378 109.585 106.302 109.585C104.227 109.585 102.529 107.887 102.529 105.811C102.529 103.736 104.227 102.038 106.302 102.038ZM106.302 120.906C111.397 120.906 117.246 123.34 117.623 124.679H94.9816C95.4156 123.321 101.227 120.906 106.302 120.906ZM106.302 98.2643C102.133 98.2643 98.7552 101.642 98.7552 105.811C98.7552 109.981 102.133 113.359 106.302 113.359C110.472 113.359 113.85 109.981 113.85 105.811C113.85 101.642 110.472 98.2643 106.302 98.2643ZM106.302 117.132C101.265 117.132 91.208 119.66 91.208 124.679V128.453H121.397V124.679C121.397 119.66 111.34 117.132 106.302 117.132Z" fill="url(#paint3_linear_272_1201)"/>
</g>
</g>
<defs>
<filter id="filter0_d_272_1201" x="0" y="0" width="210" height="210" filterUnits="userSpaceOnUse" color-interpolation-filters="sRGB">
<feFlood flood-opacity="0" result="BackgroundImageFix"/>
<feColorMatrix in="SourceAlpha" type="matrix" values="0 0 0 0 0 0 0 0 0 0 0 0 0 0 0 0 0 0 127 0" result="hardAlpha"/>
<feOffset dy="7"/>
<feGaussianBlur stdDeviation="14.5"/>
<feComposite in2="hardAlpha" operator="out"/>
<feColorMatrix type="matrix" values="0 0 0 0 0.392157 0 0 0 0 0.392157 0 0 0 0 0.435294 0 0 0 0.2 0"/>
<feBlend mode="normal" in2="BackgroundImageFix" result="effect1_dropShadow_272_1201"/>
<feBlend mode="normal" in="SourceGraphic" in2="effect1_dropShadow_272_1201" result="shape"/>
</filter>
<linearGradient id="paint0_linear_272_1201" x1="116.35" y1="80.3756" x2="134.901" y2="80.7177" gradientUnits="userSpaceOnUse">
<stop offset="0.15625" stop-color="#5300BD"/>
<stop offset="1" stop-color="#EB00FF"/>
</linearGradient>
<linearGradient id="paint1_linear_272_1201" x1="78.8498" y1="80.3756" x2="97.4003" y2="80.7177" gradientUnits="userSpaceOnUse">
<stop offset="0.15625" stop-color="#5300BD"/>
<stop offset="1" stop-color="#EB00FF"/>
</linearGradient>
<linearGradient id="paint2_linear_272_1201" x1="91.6738" y1="68.297" x2="121.64" y2="68.8495" gradientUnits="userSpaceOnUse">
<stop offset="0.15625" stop-color="#5300BD"/>
<stop offset="1" stop-color="#EB00FF"/>
</linearGradient>
<linearGradient id="paint3_linear_272_1201" x1="88.4699" y1="104.45" x2="125.001" y2="105.09" gradientUnits="userSpaceOnUse">
<stop offset="0.15625" stop-color="#5300BD"/>
<stop offset="1" stop-color="#EB00FF"/>
</linearGradient>
</defs>
</svg>
