<svg width="70" height="70" viewBox="0 0 70 70" fill="none" xmlns="http://www.w3.org/2000/svg">
<rect opacity="0.1" x="0.462402" y="0.354126" width="69" height="69" rx="5" fill="#0052F2"/>
<path d="M7.76221 48.1369L18.5371 58.9118L21.9919 55.348H43.8344C45.9339 55.5466 47.8118 53.8588 48.4884 52.99C51.984 49.0394 59.6128 40.3557 62.1629 37.2265C61.7925 35.6296 59.0937 36.1954 57.7906 36.6779C54.3036 39.4678 46.8153 45.5039 44.7586 47.3289H33.5337C30.7456 46.7495 31.1439 43.708 33.5337 43.3459H41.029C45.1931 42.0785 44.4736 37.3844 41.2101 37.2265C36.7201 37.0092 33.5699 37.2265 31.5353 36.6779C26.7465 34.6255 24.6941 34.9676 22.2997 35.4807C20.3842 35.8912 11.8099 44.0892 7.76221 48.1369Z" stroke="url(#paint0_linear_443_3652)" stroke-width="2"/>
<path d="M36.1435 15.1166L37.191 16.1882L38.2636 15.1417C41.6675 11.8208 44.9091 12.2015 46.726 13.5813C48.6174 15.0177 49.2912 17.6659 47.426 19.9973C46.1388 21.6063 43.9787 23.8387 41.7746 26.0529C41.1312 26.6991 40.4834 27.3444 39.8573 27.9682C38.8888 28.9331 37.9718 29.8466 37.2021 30.6331L26.7184 19.9803C25.3865 17.9454 25.9821 15.0434 27.8548 13.4119C28.7585 12.6244 29.918 12.185 31.2461 12.3211C32.5875 12.4585 34.2731 13.2032 36.1435 15.1166Z" stroke="url(#paint1_linear_443_3652)" stroke-width="3"/>
<defs>
<linearGradient id="paint0_linear_443_3652" x1="7.76221" y1="35.0891" x2="62.1629" y2="35.0891" gradientUnits="userSpaceOnUse">
<stop offset="0.161458" stop-color="#0049D8"/>
<stop offset="0.598958" stop-color="#0058EC"/>
<stop offset="1" stop-color="#0066FF"/>
</linearGradient>
<linearGradient id="paint1_linear_443_3652" x1="24.4956" y1="10.7964" x2="50.0328" y2="10.7964" gradientUnits="userSpaceOnUse">
<stop offset="0.145833" stop-color="#0049D8"/>
<stop offset="1" stop-color="#00A3FF"/>
</linearGradient>
</defs>
</svg>
