<svg width="210" height="210" viewBox="0 0 210 210" fill="none" xmlns="http://www.w3.org/2000/svg">
<g filter="url(#filter0_d_272_1200)">
<path d="M105 174C146.974 174 181 139.974 181 98C181 56.0264 146.974 22 105 22C63.0264 22 29 56.0264 29 98C29 139.974 63.0264 174 105 174Z" fill="white"/>
<path d="M105 172.5C146.145 172.5 179.5 139.145 179.5 98C179.5 56.8548 146.145 23.5 105 23.5C63.8548 23.5 30.5 56.8548 30.5 98C30.5 139.145 63.8548 172.5 105 172.5Z" stroke="#FF005C" stroke-width="3"/>
<mask id="mask0_272_1200" style="mask-type:luminance" maskUnits="userSpaceOnUse" x="76" y="69" width="58" height="58">
<path d="M134 69H76V127H134V69Z" fill="white"/>
</mask>
<g mask="url(#mask0_272_1200)">
<path d="M134 69H76V127H134V69Z" fill="white"/>
<path d="M105 71.4166L83.25 81.0833V95.5833C83.25 108.996 92.53 121.538 105 124.583C117.47 121.538 126.75 108.996 126.75 95.5833V81.0833L105 71.4166ZM121.917 95.5833C121.917 106.507 114.715 116.584 105 119.581C95.285 116.584 88.0833 106.507 88.0833 95.5833V84.225L105 76.7091L121.917 84.225V95.5833ZM93.9075 97.0091L90.5 100.417L100.167 110.083L119.5 90.75L116.092 87.3183L100.167 103.244L93.9075 97.0091Z" fill="url(#paint0_linear_272_1200)"/>
</g>
</g>
<defs>
<filter id="filter0_d_272_1200" x="0" y="0" width="210" height="210" filterUnits="userSpaceOnUse" color-interpolation-filters="sRGB">
<feFlood flood-opacity="0" result="BackgroundImageFix"/>
<feColorMatrix in="SourceAlpha" type="matrix" values="0 0 0 0 0 0 0 0 0 0 0 0 0 0 0 0 0 0 127 0" result="hardAlpha"/>
<feOffset dy="7"/>
<feGaussianBlur stdDeviation="14.5"/>
<feComposite in2="hardAlpha" operator="out"/>
<feColorMatrix type="matrix" values="0 0 0 0 0.392157 0 0 0 0 0.392157 0 0 0 0 0.435294 0 0 0 0.2 0"/>
<feBlend mode="normal" in2="BackgroundImageFix" result="effect1_dropShadow_272_1200"/>
<feBlend mode="normal" in="SourceGraphic" in2="effect1_dropShadow_272_1200" result="shape"/>
</filter>
<linearGradient id="paint0_linear_272_1200" x1="79.3045" y1="82.3106" x2="131.949" y2="83.0651" gradientUnits="userSpaceOnUse">
<stop offset="0.677083" stop-color="#E4007B"/>
<stop offset="1" stop-color="#FF005C"/>
</linearGradient>
</defs>
</svg>
