<svg width="1921" height="776" viewBox="0 0 1921 776" fill="none" xmlns="http://www.w3.org/2000/svg">
<g opacity="0.6">
<path fill-rule="evenodd" clip-rule="evenodd" d="M99.986 102.309L77.7373 115.155V140.845L99.986 153.691L122.235 140.845V115.155L99.986 102.309ZM124.235 114L99.986 100L75.7373 114V142L99.986 156L124.235 142V114Z" fill="#9398AF"/>
<path fill-rule="evenodd" clip-rule="evenodd" d="M995.986 102.309L973.737 115.155V140.845L995.986 153.691L1018.23 140.845V115.155L995.986 102.309ZM1020.23 114L995.986 100L971.737 114V142L995.986 156L1020.23 142V114Z" fill="#9398AF"/>
<path fill-rule="evenodd" clip-rule="evenodd" d="M99.986 487.309L77.7373 500.155V525.845L99.986 538.691L122.235 525.845V500.155L99.986 487.309ZM124.235 499L99.986 485L75.7373 499V527L99.986 541L124.235 527V499Z" fill="#9398AF"/>
<path fill-rule="evenodd" clip-rule="evenodd" d="M995.986 487.309L973.737 500.155V525.845L995.986 538.691L1018.23 525.845V500.155L995.986 487.309ZM1020.23 499L995.986 485L971.737 499V527L995.986 541L1020.23 527V499Z" fill="#9398AF"/>
<path fill-rule="evenodd" clip-rule="evenodd" d="M547.986 102.309L525.737 115.155V140.845L547.986 153.691L570.235 140.845V115.155L547.986 102.309ZM572.235 114L547.986 100L523.737 114V142L547.986 156L572.235 142V114Z" fill="#9398AF"/>
<path fill-rule="evenodd" clip-rule="evenodd" d="M1443.99 102.309L1421.74 115.155V140.845L1443.99 153.691L1466.23 140.845V115.155L1443.99 102.309ZM1468.23 114L1443.99 100L1419.74 114V142L1443.99 156L1468.23 142V114Z" fill="#9398AF"/>
<path fill-rule="evenodd" clip-rule="evenodd" d="M547.986 487.309L525.737 500.155V525.845L547.986 538.691L570.235 525.845V500.155L547.986 487.309ZM572.235 499L547.986 485L523.737 499V527L547.986 541L572.235 527V499Z" fill="#9398AF"/>
<path fill-rule="evenodd" clip-rule="evenodd" d="M1443.99 487.309L1421.74 500.155V525.845L1443.99 538.691L1466.23 525.845V500.155L1443.99 487.309ZM1468.23 499L1443.99 485L1419.74 499V527L1443.99 541L1468.23 527V499Z" fill="#9398AF"/>
<path fill-rule="evenodd" clip-rule="evenodd" d="M99.986 294.309L77.7373 307.155V332.845L99.986 345.691L122.235 332.845V307.155L99.986 294.309ZM124.235 306L99.986 292L75.7373 306V334L99.986 348L124.235 334V306Z" fill="#9398AF"/>
<path fill-rule="evenodd" clip-rule="evenodd" d="M995.986 294.309L973.737 307.155V332.845L995.986 345.691L1018.23 332.845V307.155L995.986 294.309ZM1020.23 306L995.986 292L971.737 306V334L995.986 348L1020.23 334V306Z" fill="#9398AF"/>
<path fill-rule="evenodd" clip-rule="evenodd" d="M547.986 294.309L525.737 307.155V332.845L547.986 345.691L570.235 332.845V307.155L547.986 294.309ZM572.235 306L547.986 292L523.737 306V334L547.986 348L572.235 334V306Z" fill="#9398AF"/>
<path fill-rule="evenodd" clip-rule="evenodd" d="M1443.99 294.309L1421.74 307.155V332.845L1443.99 345.691L1466.23 332.845V307.155L1443.99 294.309ZM1468.23 306L1443.99 292L1419.74 306V334L1443.99 348L1468.23 334V306Z" fill="#9398AF"/>
<path fill-rule="evenodd" clip-rule="evenodd" d="M323.986 102.309L301.737 115.155V140.845L323.986 153.691L346.235 140.845V115.155L323.986 102.309ZM348.235 114L323.986 100L299.737 114V142L323.986 156L348.235 142V114Z" fill="#9398AF"/>
<path fill-rule="evenodd" clip-rule="evenodd" d="M1219.99 102.309L1197.74 115.155V140.845L1219.99 153.691L1242.23 140.845V115.155L1219.99 102.309ZM1244.23 114L1219.99 100L1195.74 114V142L1219.99 156L1244.23 142V114Z" fill="#9398AF"/>
<path fill-rule="evenodd" clip-rule="evenodd" d="M323.986 487.309L301.737 500.155V525.845L323.986 538.691L346.235 525.845V500.155L323.986 487.309ZM348.235 499L323.986 485L299.737 499V527L323.986 541L348.235 527V499Z" fill="#9398AF"/>
<path fill-rule="evenodd" clip-rule="evenodd" d="M1219.99 487.309L1197.74 500.155V525.845L1219.99 538.691L1242.23 525.845V500.155L1219.99 487.309ZM1244.23 499L1219.99 485L1195.74 499V527L1219.99 541L1244.23 527V499Z" fill="#9398AF"/>
<path fill-rule="evenodd" clip-rule="evenodd" d="M771.986 102.309L749.737 115.155V140.845L771.986 153.691L794.235 140.845V115.155L771.986 102.309ZM796.235 114L771.986 100L747.737 114V142L771.986 156L796.235 142V114Z" fill="#9398AF"/>
<path fill-rule="evenodd" clip-rule="evenodd" d="M1667.99 102.309L1645.74 115.155V140.845L1667.99 153.691L1690.23 140.845V115.155L1667.99 102.309ZM1692.23 114L1667.99 100L1643.74 114V142L1667.99 156L1692.23 142V114Z" fill="#9398AF"/>
<path fill-rule="evenodd" clip-rule="evenodd" d="M771.986 487.309L749.737 500.155V525.845L771.986 538.691L794.235 525.845V500.155L771.986 487.309ZM796.235 499L771.986 485L747.737 499V527L771.986 541L796.235 527V499Z" fill="#9398AF"/>
<path fill-rule="evenodd" clip-rule="evenodd" d="M1667.99 487.309L1645.74 500.155V525.845L1667.99 538.691L1690.23 525.845V500.155L1667.99 487.309ZM1692.23 499L1667.99 485L1643.74 499V527L1667.99 541L1692.23 527V499Z" fill="#9398AF"/>
<path fill-rule="evenodd" clip-rule="evenodd" d="M323.986 294.309L301.737 307.155V332.845L323.986 345.691L346.235 332.845V307.155L323.986 294.309ZM348.235 306L323.986 292L299.737 306V334L323.986 348L348.235 334V306Z" fill="#9398AF"/>
<path fill-rule="evenodd" clip-rule="evenodd" d="M1219.99 294.309L1197.74 307.155V332.845L1219.99 345.691L1242.23 332.845V307.155L1219.99 294.309ZM1244.23 306L1219.99 292L1195.74 306V334L1219.99 348L1244.23 334V306Z" fill="#9398AF"/>
<path fill-rule="evenodd" clip-rule="evenodd" d="M771.986 294.309L749.737 307.155V332.845L771.986 345.691L794.235 332.845V307.155L771.986 294.309ZM796.235 306L771.986 292L747.737 306V334L771.986 348L796.235 334V306Z" fill="#9398AF"/>
<path fill-rule="evenodd" clip-rule="evenodd" d="M1667.99 294.309L1645.74 307.155V332.845L1667.99 345.691L1690.23 332.845V307.155L1667.99 294.309ZM1692.23 306L1667.99 292L1643.74 306V334L1667.99 348L1692.23 334V306Z" fill="#9398AF"/>
<path fill-rule="evenodd" clip-rule="evenodd" d="M211.986 102.309L189.737 115.155V140.845L211.986 153.691L234.235 140.845V115.155L211.986 102.309ZM236.235 114L211.986 100L187.737 114V142L211.986 156L236.235 142V114Z" fill="#9398AF"/>
<path fill-rule="evenodd" clip-rule="evenodd" d="M1107.99 102.309L1085.74 115.155V140.845L1107.99 153.691L1130.23 140.845V115.155L1107.99 102.309ZM1132.23 114L1107.99 100L1083.74 114V142L1107.99 156L1132.23 142V114Z" fill="#9398AF"/>
<path fill-rule="evenodd" clip-rule="evenodd" d="M211.986 487.309L189.737 500.155V525.845L211.986 538.691L234.235 525.845V500.155L211.986 487.309ZM236.235 499L211.986 485L187.737 499V527L211.986 541L236.235 527V499Z" fill="#9398AF"/>
<path fill-rule="evenodd" clip-rule="evenodd" d="M1107.99 487.309L1085.74 500.155V525.845L1107.99 538.691L1130.23 525.845V500.155L1107.99 487.309ZM1132.23 499L1107.99 485L1083.74 499V527L1107.99 541L1132.23 527V499Z" fill="#9398AF"/>
<path fill-rule="evenodd" clip-rule="evenodd" d="M659.986 102.309L637.737 115.155V140.845L659.986 153.691L682.235 140.845V115.155L659.986 102.309ZM684.235 114L659.986 100L635.737 114V142L659.986 156L684.235 142V114Z" fill="#9398AF"/>
<path fill-rule="evenodd" clip-rule="evenodd" d="M1555.99 102.309L1533.74 115.155V140.845L1555.99 153.691L1578.23 140.845V115.155L1555.99 102.309ZM1580.23 114L1555.99 100L1531.74 114V142L1555.99 156L1580.23 142V114Z" fill="#9398AF"/>
<path fill-rule="evenodd" clip-rule="evenodd" d="M659.986 487.309L637.737 500.155V525.845L659.986 538.691L682.235 525.845V500.155L659.986 487.309ZM684.235 499L659.986 485L635.737 499V527L659.986 541L684.235 527V499Z" fill="#9398AF"/>
<path fill-rule="evenodd" clip-rule="evenodd" d="M1555.99 487.309L1533.74 500.155V525.845L1555.99 538.691L1578.23 525.845V500.155L1555.99 487.309ZM1580.23 499L1555.99 485L1531.74 499V527L1555.99 541L1580.23 527V499Z" fill="#9398AF"/>
<path fill-rule="evenodd" clip-rule="evenodd" d="M211.986 294.309L189.737 307.155V332.845L211.986 345.691L234.235 332.845V307.155L211.986 294.309ZM236.235 306L211.986 292L187.737 306V334L211.986 348L236.235 334V306Z" fill="#9398AF"/>
<path fill-rule="evenodd" clip-rule="evenodd" d="M1107.99 294.309L1085.74 307.155V332.845L1107.99 345.691L1130.23 332.845V307.155L1107.99 294.309ZM1132.23 306L1107.99 292L1083.74 306V334L1107.99 348L1132.23 334V306Z" fill="#9398AF"/>
<path fill-rule="evenodd" clip-rule="evenodd" d="M659.986 294.309L637.737 307.155V332.845L659.986 345.691L682.235 332.845V307.155L659.986 294.309ZM684.235 306L659.986 292L635.737 306V334L659.986 348L684.235 334V306Z" fill="#9398AF"/>
<path fill-rule="evenodd" clip-rule="evenodd" d="M1555.99 294.309L1533.74 307.155V332.845L1555.99 345.691L1578.23 332.845V307.155L1555.99 294.309ZM1580.23 306L1555.99 292L1531.74 306V334L1555.99 348L1580.23 334V306Z" fill="#9398AF"/>
<path fill-rule="evenodd" clip-rule="evenodd" d="M435.986 102.309L413.737 115.155V140.845L435.986 153.691L458.235 140.845V115.155L435.986 102.309ZM460.235 114L435.986 100L411.737 114V142L435.986 156L460.235 142V114Z" fill="#9398AF"/>
<path fill-rule="evenodd" clip-rule="evenodd" d="M1331.99 102.309L1309.74 115.155V140.845L1331.99 153.691L1354.23 140.845V115.155L1331.99 102.309ZM1356.23 114L1331.99 100L1307.74 114V142L1331.99 156L1356.23 142V114Z" fill="#9398AF"/>
<path fill-rule="evenodd" clip-rule="evenodd" d="M435.986 487.309L413.737 500.155V525.845L435.986 538.691L458.235 525.845V500.155L435.986 487.309ZM460.235 499L435.986 485L411.737 499V527L435.986 541L460.235 527V499Z" fill="#9398AF"/>
<path fill-rule="evenodd" clip-rule="evenodd" d="M1331.99 487.309L1309.74 500.155V525.845L1331.99 538.691L1354.23 525.845V500.155L1331.99 487.309ZM1356.23 499L1331.99 485L1307.74 499V527L1331.99 541L1356.23 527V499Z" fill="#9398AF"/>
<path fill-rule="evenodd" clip-rule="evenodd" d="M883.986 102.309L861.737 115.155V140.845L883.986 153.691L906.235 140.845V115.155L883.986 102.309ZM908.235 114L883.986 100L859.737 114V142L883.986 156L908.235 142V114Z" fill="#9398AF"/>
<path fill-rule="evenodd" clip-rule="evenodd" d="M1779.99 102.309L1757.74 115.155V140.845L1779.99 153.691L1802.23 140.845V115.155L1779.99 102.309ZM1804.23 114L1779.99 100L1755.74 114V142L1779.99 156L1804.23 142V114Z" fill="#9398AF"/>
<path fill-rule="evenodd" clip-rule="evenodd" d="M883.986 487.309L861.737 500.155V525.845L883.986 538.691L906.235 525.845V500.155L883.986 487.309ZM908.235 499L883.986 485L859.737 499V527L883.986 541L908.235 527V499Z" fill="#9398AF"/>
<path fill-rule="evenodd" clip-rule="evenodd" d="M1779.99 487.309L1757.74 500.155V525.845L1779.99 538.691L1802.23 525.845V500.155L1779.99 487.309ZM1804.23 499L1779.99 485L1755.74 499V527L1779.99 541L1804.23 527V499Z" fill="#9398AF"/>
<path fill-rule="evenodd" clip-rule="evenodd" d="M435.986 294.309L413.737 307.155V332.845L435.986 345.691L458.235 332.845V307.155L435.986 294.309ZM460.235 306L435.986 292L411.737 306V334L435.986 348L460.235 334V306Z" fill="#9398AF"/>
<path fill-rule="evenodd" clip-rule="evenodd" d="M1331.99 294.309L1309.74 307.155V332.845L1331.99 345.691L1354.23 332.845V307.155L1331.99 294.309ZM1356.23 306L1331.99 292L1307.74 306V334L1331.99 348L1356.23 334V306Z" fill="#9398AF"/>
<path fill-rule="evenodd" clip-rule="evenodd" d="M883.986 294.309L861.737 307.155V332.845L883.986 345.691L906.235 332.845V307.155L883.986 294.309ZM908.235 306L883.986 292L859.737 306V334L883.986 348L908.235 334V306Z" fill="#9398AF"/>
<path fill-rule="evenodd" clip-rule="evenodd" d="M1779.99 294.309L1757.74 307.155V332.845L1779.99 345.691L1802.23 332.845V307.155L1779.99 294.309ZM1804.23 306L1779.99 292L1755.74 306V334L1779.99 348L1804.23 334V306Z" fill="#9398AF"/>
<path fill-rule="evenodd" clip-rule="evenodd" d="M127.986 439.309L105.737 452.155V477.845L127.986 490.691L150.235 477.845V452.155L127.986 439.309ZM152.235 451L127.986 437L103.737 451V479L127.986 493L152.235 479V451Z" fill="#9398AF"/>
<path fill-rule="evenodd" clip-rule="evenodd" d="M1023.99 439.309L1001.74 452.155V477.845L1023.99 490.691L1046.23 477.845V452.155L1023.99 439.309ZM1048.23 451L1023.99 437L999.737 451V479L1023.99 493L1048.23 479V451Z" fill="#9398AF"/>
<path fill-rule="evenodd" clip-rule="evenodd" d="M967.986 439.309L945.737 452.155V477.845L967.986 490.691L990.235 477.845V452.155L967.986 439.309ZM992.235 451L967.986 437L943.737 451V479L967.986 493L992.235 479V451Z" fill="#9398AF"/>
<path fill-rule="evenodd" clip-rule="evenodd" d="M575.986 439.309L553.737 452.155V477.845L575.986 490.691L598.235 477.845V452.155L575.986 439.309ZM600.235 451L575.986 437L551.737 451V479L575.986 493L600.235 479V451Z" fill="#9398AF"/>
<path fill-rule="evenodd" clip-rule="evenodd" d="M1471.99 439.309L1449.74 452.155V477.845L1471.99 490.691L1494.23 477.845V452.155L1471.99 439.309ZM1496.23 451L1471.99 437L1447.74 451V479L1471.99 493L1496.23 479V451Z" fill="#9398AF"/>
<path fill-rule="evenodd" clip-rule="evenodd" d="M519.986 439.309L497.737 452.155V477.845L519.986 490.691L542.235 477.845V452.155L519.986 439.309ZM544.235 451L519.986 437L495.737 451V479L519.986 493L544.235 479V451Z" fill="#9398AF"/>
<path fill-rule="evenodd" clip-rule="evenodd" d="M1415.99 439.309L1393.74 452.155V477.845L1415.99 490.691L1438.23 477.845V452.155L1415.99 439.309ZM1440.23 451L1415.99 437L1391.74 451V479L1415.99 493L1440.23 479V451Z" fill="#9398AF"/>
<path fill-rule="evenodd" clip-rule="evenodd" d="M127.986 246.309L105.737 259.155V284.845L127.986 297.691L150.235 284.845V259.155L127.986 246.309ZM152.235 258L127.986 244L103.737 258V286L127.986 300L152.235 286V258Z" fill="#9398AF"/>
<path fill-rule="evenodd" clip-rule="evenodd" d="M1023.99 246.309L1001.74 259.155V284.845L1023.99 297.691L1046.23 284.845V259.155L1023.99 246.309ZM1048.23 258L1023.99 244L999.737 258V286L1023.99 300L1048.23 286V258Z" fill="#9398AF"/>
<path fill-rule="evenodd" clip-rule="evenodd" d="M967.986 246.309L945.737 259.155V284.845L967.986 297.691L990.235 284.845V259.155L967.986 246.309ZM992.235 258L967.986 244L943.737 258V286L967.986 300L992.235 286V258Z" fill="#9398AF"/>
<path fill-rule="evenodd" clip-rule="evenodd" d="M127.986 631.309L105.737 644.155V669.845L127.986 682.691L150.235 669.845V644.155L127.986 631.309ZM152.235 643L127.986 629L103.737 643V671L127.986 685L152.235 671V643Z" fill="#9398AF"/>
<path fill-rule="evenodd" clip-rule="evenodd" d="M1023.99 631.309L1001.74 644.155V669.845L1023.99 682.691L1046.23 669.845V644.155L1023.99 631.309ZM1048.23 643L1023.99 629L999.737 643V671L1023.99 685L1048.23 671V643Z" fill="#9398AF"/>
<path fill-rule="evenodd" clip-rule="evenodd" d="M967.986 631.309L945.737 644.155V669.845L967.986 682.691L990.235 669.845V644.155L967.986 631.309ZM992.235 643L967.986 629L943.737 643V671L967.986 685L992.235 671V643Z" fill="#9398AF"/>
<path fill-rule="evenodd" clip-rule="evenodd" d="M575.986 246.309L553.737 259.155V284.845L575.986 297.691L598.235 284.845V259.155L575.986 246.309ZM600.235 258L575.986 244L551.737 258V286L575.986 300L600.235 286V258Z" fill="#9398AF"/>
<path fill-rule="evenodd" clip-rule="evenodd" d="M1471.99 246.309L1449.74 259.155V284.845L1471.99 297.691L1494.23 284.845V259.155L1471.99 246.309ZM1496.23 258L1471.99 244L1447.74 258V286L1471.99 300L1496.23 286V258Z" fill="#9398AF"/>
<path fill-rule="evenodd" clip-rule="evenodd" d="M575.986 631.309L553.737 644.155V669.845L575.986 682.691L598.235 669.845V644.155L575.986 631.309ZM600.235 643L575.986 629L551.737 643V671L575.986 685L600.235 671V643Z" fill="#9398AF"/>
<path fill-rule="evenodd" clip-rule="evenodd" d="M1471.99 631.309L1449.74 644.155V669.845L1471.99 682.691L1494.23 669.845V644.155L1471.99 631.309ZM1496.23 643L1471.99 629L1447.74 643V671L1471.99 685L1496.23 671V643Z" fill="#9398AF"/>
<path fill-rule="evenodd" clip-rule="evenodd" d="M519.986 246.309L497.737 259.155V284.845L519.986 297.691L542.235 284.845V259.155L519.986 246.309ZM544.235 258L519.986 244L495.737 258V286L519.986 300L544.235 286V258Z" fill="#9398AF"/>
<path fill-rule="evenodd" clip-rule="evenodd" d="M1415.99 246.309L1393.74 259.155V284.845L1415.99 297.691L1438.23 284.845V259.155L1415.99 246.309ZM1440.23 258L1415.99 244L1391.74 258V286L1415.99 300L1440.23 286V258Z" fill="#9398AF"/>
<path fill-rule="evenodd" clip-rule="evenodd" d="M519.986 631.309L497.737 644.155V669.845L519.986 682.691L542.235 669.845V644.155L519.986 631.309ZM544.235 643L519.986 629L495.737 643V671L519.986 685L544.235 671V643Z" fill="#9398AF"/>
<path fill-rule="evenodd" clip-rule="evenodd" d="M1415.99 631.309L1393.74 644.155V669.845L1415.99 682.691L1438.23 669.845V644.155L1415.99 631.309ZM1440.23 643L1415.99 629L1391.74 643V671L1415.99 685L1440.23 671V643Z" fill="#9398AF"/>
<path fill-rule="evenodd" clip-rule="evenodd" d="M435.986 198.309L413.737 211.155V236.845L435.986 249.691L458.235 236.845V211.155L435.986 198.309ZM460.235 210L435.986 196L411.737 210V238L435.986 252L460.235 238V210Z" fill="#9398AF"/>
<path fill-rule="evenodd" clip-rule="evenodd" d="M1331.99 198.309L1309.74 211.155V236.845L1331.99 249.691L1354.23 236.845V211.155L1331.99 198.309ZM1356.23 210L1331.99 196L1307.74 210V238L1331.99 252L1356.23 238V210Z" fill="#9398AF"/>
<path fill-rule="evenodd" clip-rule="evenodd" d="M435.986 583.309L413.737 596.155V621.845L435.986 634.691L458.235 621.845V596.155L435.986 583.309ZM460.235 595L435.986 581L411.737 595V623L435.986 637L460.235 623V595Z" fill="#9398AF"/>
<path fill-rule="evenodd" clip-rule="evenodd" d="M1331.99 583.309L1309.74 596.155V621.845L1331.99 634.691L1354.23 621.845V596.155L1331.99 583.309ZM1356.23 595L1331.99 581L1307.74 595V623L1331.99 637L1356.23 623V595Z" fill="#9398AF"/>
<path fill-rule="evenodd" clip-rule="evenodd" d="M883.986 198.309L861.737 211.155V236.845L883.986 249.691L906.235 236.845V211.155L883.986 198.309ZM908.235 210L883.986 196L859.737 210V238L883.986 252L908.235 238V210Z" fill="#9398AF"/>
<path fill-rule="evenodd" clip-rule="evenodd" d="M1779.99 198.309L1757.74 211.155V236.845L1779.99 249.691L1802.23 236.845V211.155L1779.99 198.309ZM1804.23 210L1779.99 196L1755.74 210V238L1779.99 252L1804.23 238V210Z" fill="#9398AF"/>
<path fill-rule="evenodd" clip-rule="evenodd" d="M883.986 583.309L861.737 596.155V621.845L883.986 634.691L906.235 621.845V596.155L883.986 583.309ZM908.235 595L883.986 581L859.737 595V623L883.986 637L908.235 623V595Z" fill="#9398AF"/>
<path fill-rule="evenodd" clip-rule="evenodd" d="M1779.99 583.309L1757.74 596.155V621.845L1779.99 634.691L1802.23 621.845V596.155L1779.99 583.309ZM1804.23 595L1779.99 581L1755.74 595V623L1779.99 637L1804.23 623V595Z" fill="#9398AF"/>
<path fill-rule="evenodd" clip-rule="evenodd" d="M351.986 439.309L329.737 452.155V477.845L351.986 490.691L374.235 477.845V452.155L351.986 439.309ZM376.235 451L351.986 437L327.737 451V479L351.986 493L376.235 479V451Z" fill="#9398AF"/>
<path fill-rule="evenodd" clip-rule="evenodd" d="M1247.99 439.309L1225.74 452.155V477.845L1247.99 490.691L1270.23 477.845V452.155L1247.99 439.309ZM1272.23 451L1247.99 437L1223.74 451V479L1247.99 493L1272.23 479V451Z" fill="#9398AF"/>
<path fill-rule="evenodd" clip-rule="evenodd" d="M799.986 439.309L777.737 452.155V477.845L799.986 490.691L822.235 477.845V452.155L799.986 439.309ZM824.235 451L799.986 437L775.737 451V479L799.986 493L824.235 479V451Z" fill="#9398AF"/>
<path fill-rule="evenodd" clip-rule="evenodd" d="M1695.99 439.309L1673.74 452.155V477.845L1695.99 490.691L1718.23 477.845V452.155L1695.99 439.309ZM1720.23 451L1695.99 437L1671.74 451V479L1695.99 493L1720.23 479V451Z" fill="#9398AF"/>
<path fill-rule="evenodd" clip-rule="evenodd" d="M351.986 246.309L329.737 259.155V284.845L351.986 297.691L374.235 284.845V259.155L351.986 246.309ZM376.235 258L351.986 244L327.737 258V286L351.986 300L376.235 286V258Z" fill="#9398AF"/>
<path fill-rule="evenodd" clip-rule="evenodd" d="M1247.99 246.309L1225.74 259.155V284.845L1247.99 297.691L1270.23 284.845V259.155L1247.99 246.309ZM1272.23 258L1247.99 244L1223.74 258V286L1247.99 300L1272.23 286V258Z" fill="#9398AF"/>
<path fill-rule="evenodd" clip-rule="evenodd" d="M351.986 631.309L329.737 644.155V669.845L351.986 682.691L374.235 669.845V644.155L351.986 631.309ZM376.235 643L351.986 629L327.737 643V671L351.986 685L376.235 671V643Z" fill="#9398AF"/>
<path fill-rule="evenodd" clip-rule="evenodd" d="M1247.99 631.309L1225.74 644.155V669.845L1247.99 682.691L1270.23 669.845V644.155L1247.99 631.309ZM1272.23 643L1247.99 629L1223.74 643V671L1247.99 685L1272.23 671V643Z" fill="#9398AF"/>
<path fill-rule="evenodd" clip-rule="evenodd" d="M799.986 246.309L777.737 259.155V284.845L799.986 297.691L822.235 284.845V259.155L799.986 246.309ZM824.235 258L799.986 244L775.737 258V286L799.986 300L824.235 286V258Z" fill="#9398AF"/>
<path fill-rule="evenodd" clip-rule="evenodd" d="M1695.99 246.309L1673.74 259.155V284.845L1695.99 297.691L1718.23 284.845V259.155L1695.99 246.309ZM1720.23 258L1695.99 244L1671.74 258V286L1695.99 300L1720.23 286V258Z" fill="#9398AF"/>
<path fill-rule="evenodd" clip-rule="evenodd" d="M799.986 631.309L777.737 644.155V669.845L799.986 682.691L822.235 669.845V644.155L799.986 631.309ZM824.235 643L799.986 629L775.737 643V671L799.986 685L824.235 671V643Z" fill="#9398AF"/>
<path fill-rule="evenodd" clip-rule="evenodd" d="M1695.99 631.309L1673.74 644.155V669.845L1695.99 682.691L1718.23 669.845V644.155L1695.99 631.309ZM1720.23 643L1695.99 629L1671.74 643V671L1695.99 685L1720.23 671V643Z" fill="#9398AF"/>
<path fill-rule="evenodd" clip-rule="evenodd" d="M267.986 198.309L245.737 211.155V236.845L267.986 249.691L290.235 236.845V211.155L267.986 198.309ZM292.235 210L267.986 196L243.737 210V238L267.986 252L292.235 238V210Z" fill="#9398AF"/>
<path fill-rule="evenodd" clip-rule="evenodd" d="M1163.99 198.309L1141.74 211.155V236.845L1163.99 249.691L1186.23 236.845V211.155L1163.99 198.309ZM1188.23 210L1163.99 196L1139.74 210V238L1163.99 252L1188.23 238V210Z" fill="#9398AF"/>
<path fill-rule="evenodd" clip-rule="evenodd" d="M267.986 583.309L245.737 596.155V621.845L267.986 634.691L290.235 621.845V596.155L267.986 583.309ZM292.235 595L267.986 581L243.737 595V623L267.986 637L292.235 623V595Z" fill="#9398AF"/>
<path fill-rule="evenodd" clip-rule="evenodd" d="M1163.99 583.309L1141.74 596.155V621.845L1163.99 634.691L1186.23 621.845V596.155L1163.99 583.309ZM1188.23 595L1163.99 581L1139.74 595V623L1163.99 637L1188.23 623V595Z" fill="#9398AF"/>
<path fill-rule="evenodd" clip-rule="evenodd" d="M715.986 198.309L693.737 211.155V236.845L715.986 249.691L738.235 236.845V211.155L715.986 198.309ZM740.235 210L715.986 196L691.737 210V238L715.986 252L740.235 238V210Z" fill="#9398AF"/>
<path fill-rule="evenodd" clip-rule="evenodd" d="M1611.99 198.309L1589.74 211.155V236.845L1611.99 249.691L1634.23 236.845V211.155L1611.99 198.309ZM1636.23 210L1611.99 196L1587.74 210V238L1611.99 252L1636.23 238V210Z" fill="#9398AF"/>
<path fill-rule="evenodd" clip-rule="evenodd" d="M715.986 583.309L693.737 596.155V621.845L715.986 634.691L738.235 621.845V596.155L715.986 583.309ZM740.235 595L715.986 581L691.737 595V623L715.986 637L740.235 623V595Z" fill="#9398AF"/>
<path fill-rule="evenodd" clip-rule="evenodd" d="M1611.99 583.309L1589.74 596.155V621.845L1611.99 634.691L1634.23 621.845V596.155L1611.99 583.309ZM1636.23 595L1611.99 581L1587.74 595V623L1611.99 637L1636.23 623V595Z" fill="#9398AF"/>
<path fill-rule="evenodd" clip-rule="evenodd" d="M295.986 439.309L273.737 452.155V477.845L295.986 490.691L318.235 477.845V452.155L295.986 439.309ZM320.235 451L295.986 437L271.737 451V479L295.986 493L320.235 479V451Z" fill="#9398AF"/>
<path fill-rule="evenodd" clip-rule="evenodd" d="M1191.99 439.309L1169.74 452.155V477.845L1191.99 490.691L1214.23 477.845V452.155L1191.99 439.309ZM1216.23 451L1191.99 437L1167.74 451V479L1191.99 493L1216.23 479V451Z" fill="#9398AF"/>
<path fill-rule="evenodd" clip-rule="evenodd" d="M743.986 439.309L721.737 452.155V477.845L743.986 490.691L766.235 477.845V452.155L743.986 439.309ZM768.235 451L743.986 437L719.737 451V479L743.986 493L768.235 479V451Z" fill="#9398AF"/>
<path fill-rule="evenodd" clip-rule="evenodd" d="M1639.99 439.309L1617.74 452.155V477.845L1639.99 490.691L1662.23 477.845V452.155L1639.99 439.309ZM1664.23 451L1639.99 437L1615.74 451V479L1639.99 493L1664.23 479V451Z" fill="#9398AF"/>
<path fill-rule="evenodd" clip-rule="evenodd" d="M295.986 246.309L273.737 259.155V284.845L295.986 297.691L318.235 284.845V259.155L295.986 246.309ZM320.235 258L295.986 244L271.737 258V286L295.986 300L320.235 286V258Z" fill="#9398AF"/>
<path fill-rule="evenodd" clip-rule="evenodd" d="M1191.99 246.309L1169.74 259.155V284.845L1191.99 297.691L1214.23 284.845V259.155L1191.99 246.309ZM1216.23 258L1191.99 244L1167.74 258V286L1191.99 300L1216.23 286V258Z" fill="#9398AF"/>
<path fill-rule="evenodd" clip-rule="evenodd" d="M295.986 631.309L273.737 644.155V669.845L295.986 682.691L318.235 669.845V644.155L295.986 631.309ZM320.235 643L295.986 629L271.737 643V671L295.986 685L320.235 671V643Z" fill="#9398AF"/>
<path fill-rule="evenodd" clip-rule="evenodd" d="M1191.99 631.309L1169.74 644.155V669.845L1191.99 682.691L1214.23 669.845V644.155L1191.99 631.309ZM1216.23 643L1191.99 629L1167.74 643V671L1191.99 685L1216.23 671V643Z" fill="#9398AF"/>
<path fill-rule="evenodd" clip-rule="evenodd" d="M743.986 246.309L721.737 259.155V284.845L743.986 297.691L766.235 284.845V259.155L743.986 246.309ZM768.235 258L743.986 244L719.737 258V286L743.986 300L768.235 286V258Z" fill="#9398AF"/>
<path fill-rule="evenodd" clip-rule="evenodd" d="M1639.99 246.309L1617.74 259.155V284.845L1639.99 297.691L1662.23 284.845V259.155L1639.99 246.309ZM1664.23 258L1639.99 244L1615.74 258V286L1639.99 300L1664.23 286V258Z" fill="#9398AF"/>
<path fill-rule="evenodd" clip-rule="evenodd" d="M743.986 631.309L721.737 644.155V669.845L743.986 682.691L766.235 669.845V644.155L743.986 631.309ZM768.235 643L743.986 629L719.737 643V671L743.986 685L768.235 671V643Z" fill="#9398AF"/>
<path fill-rule="evenodd" clip-rule="evenodd" d="M1639.99 631.309L1617.74 644.155V669.845L1639.99 682.691L1662.23 669.845V644.155L1639.99 631.309ZM1664.23 643L1639.99 629L1615.74 643V671L1639.99 685L1664.23 671V643Z" fill="#9398AF"/>
<path fill-rule="evenodd" clip-rule="evenodd" d="M211.986 198.309L189.737 211.155V236.845L211.986 249.691L234.235 236.845V211.155L211.986 198.309ZM236.235 210L211.986 196L187.737 210V238L211.986 252L236.235 238V210Z" fill="#9398AF"/>
<path fill-rule="evenodd" clip-rule="evenodd" d="M1107.99 198.309L1085.74 211.155V236.845L1107.99 249.691L1130.23 236.845V211.155L1107.99 198.309ZM1132.23 210L1107.99 196L1083.74 210V238L1107.99 252L1132.23 238V210Z" fill="#9398AF"/>
<path fill-rule="evenodd" clip-rule="evenodd" d="M211.986 583.309L189.737 596.155V621.845L211.986 634.691L234.235 621.845V596.155L211.986 583.309ZM236.235 595L211.986 581L187.737 595V623L211.986 637L236.235 623V595Z" fill="#9398AF"/>
<path fill-rule="evenodd" clip-rule="evenodd" d="M1107.99 583.309L1085.74 596.155V621.845L1107.99 634.691L1130.23 621.845V596.155L1107.99 583.309ZM1132.23 595L1107.99 581L1083.74 595V623L1107.99 637L1132.23 623V595Z" fill="#9398AF"/>
<path fill-rule="evenodd" clip-rule="evenodd" d="M659.986 198.309L637.737 211.155V236.845L659.986 249.691L682.235 236.845V211.155L659.986 198.309ZM684.235 210L659.986 196L635.737 210V238L659.986 252L684.235 238V210Z" fill="#9398AF"/>
<path fill-rule="evenodd" clip-rule="evenodd" d="M1555.99 198.309L1533.74 211.155V236.845L1555.99 249.691L1578.23 236.845V211.155L1555.99 198.309ZM1580.23 210L1555.99 196L1531.74 210V238L1555.99 252L1580.23 238V210Z" fill="#9398AF"/>
<path fill-rule="evenodd" clip-rule="evenodd" d="M659.986 583.309L637.737 596.155V621.845L659.986 634.691L682.235 621.845V596.155L659.986 583.309ZM684.235 595L659.986 581L635.737 595V623L659.986 637L684.235 623V595Z" fill="#9398AF"/>
<path fill-rule="evenodd" clip-rule="evenodd" d="M1555.99 583.309L1533.74 596.155V621.845L1555.99 634.691L1578.23 621.845V596.155L1555.99 583.309ZM1580.23 595L1555.99 581L1531.74 595V623L1555.99 637L1580.23 623V595Z" fill="#9398AF"/>
<path fill-rule="evenodd" clip-rule="evenodd" d="M239.986 439.309L217.737 452.155V477.845L239.986 490.691L262.235 477.845V452.155L239.986 439.309ZM264.235 451L239.986 437L215.737 451V479L239.986 493L264.235 479V451Z" fill="#9398AF"/>
<path fill-rule="evenodd" clip-rule="evenodd" d="M1135.99 439.309L1113.74 452.155V477.845L1135.99 490.691L1158.23 477.845V452.155L1135.99 439.309ZM1160.23 451L1135.99 437L1111.74 451V479L1135.99 493L1160.23 479V451Z" fill="#9398AF"/>
<path fill-rule="evenodd" clip-rule="evenodd" d="M687.986 439.309L665.737 452.155V477.845L687.986 490.691L710.235 477.845V452.155L687.986 439.309ZM712.235 451L687.986 437L663.737 451V479L687.986 493L712.235 479V451Z" fill="#9398AF"/>
<path fill-rule="evenodd" clip-rule="evenodd" d="M1583.99 439.309L1561.74 452.155V477.845L1583.99 490.691L1606.23 477.845V452.155L1583.99 439.309ZM1608.23 451L1583.99 437L1559.74 451V479L1583.99 493L1608.23 479V451Z" fill="#9398AF"/>
<path fill-rule="evenodd" clip-rule="evenodd" d="M239.986 246.309L217.737 259.155V284.845L239.986 297.691L262.235 284.845V259.155L239.986 246.309ZM264.235 258L239.986 244L215.737 258V286L239.986 300L264.235 286V258Z" fill="#9398AF"/>
<path fill-rule="evenodd" clip-rule="evenodd" d="M1135.99 246.309L1113.74 259.155V284.845L1135.99 297.691L1158.23 284.845V259.155L1135.99 246.309ZM1160.23 258L1135.99 244L1111.74 258V286L1135.99 300L1160.23 286V258Z" fill="#9398AF"/>
<path fill-rule="evenodd" clip-rule="evenodd" d="M239.986 631.309L217.737 644.155V669.845L239.986 682.691L262.235 669.845V644.155L239.986 631.309ZM264.235 643L239.986 629L215.737 643V671L239.986 685L264.235 671V643Z" fill="#9398AF"/>
<path fill-rule="evenodd" clip-rule="evenodd" d="M1135.99 631.309L1113.74 644.155V669.845L1135.99 682.691L1158.23 669.845V644.155L1135.99 631.309ZM1160.23 643L1135.99 629L1111.74 643V671L1135.99 685L1160.23 671V643Z" fill="#9398AF"/>
<path fill-rule="evenodd" clip-rule="evenodd" d="M687.986 246.309L665.737 259.155V284.845L687.986 297.691L710.235 284.845V259.155L687.986 246.309ZM712.235 258L687.986 244L663.737 258V286L687.986 300L712.235 286V258Z" fill="#9398AF"/>
<path fill-rule="evenodd" clip-rule="evenodd" d="M1583.99 246.309L1561.74 259.155V284.845L1583.99 297.691L1606.23 284.845V259.155L1583.99 246.309ZM1608.23 258L1583.99 244L1559.74 258V286L1583.99 300L1608.23 286V258Z" fill="#9398AF"/>
<path fill-rule="evenodd" clip-rule="evenodd" d="M687.986 631.309L665.737 644.155V669.845L687.986 682.691L710.235 669.845V644.155L687.986 631.309ZM712.235 643L687.986 629L663.737 643V671L687.986 685L712.235 671V643Z" fill="#9398AF"/>
<path fill-rule="evenodd" clip-rule="evenodd" d="M1583.99 631.309L1561.74 644.155V669.845L1583.99 682.691L1606.23 669.845V644.155L1583.99 631.309ZM1608.23 643L1583.99 629L1559.74 643V671L1583.99 685L1608.23 671V643Z" fill="#9398AF"/>
<path fill-rule="evenodd" clip-rule="evenodd" d="M155.986 198.309L133.737 211.155V236.845L155.986 249.691L178.235 236.845V211.155L155.986 198.309ZM180.235 210L155.986 196L131.737 210V238L155.986 252L180.235 238V210Z" fill="#9398AF"/>
<path fill-rule="evenodd" clip-rule="evenodd" d="M1051.99 198.309L1029.74 211.155V236.845L1051.99 249.691L1074.23 236.845V211.155L1051.99 198.309ZM1076.23 210L1051.99 196L1027.74 210V238L1051.99 252L1076.23 238V210Z" fill="#9398AF"/>
<path fill-rule="evenodd" clip-rule="evenodd" d="M155.986 583.309L133.737 596.155V621.845L155.986 634.691L178.235 621.845V596.155L155.986 583.309ZM180.235 595L155.986 581L131.737 595V623L155.986 637L180.235 623V595Z" fill="#9398AF"/>
<path fill-rule="evenodd" clip-rule="evenodd" d="M1051.99 583.309L1029.74 596.155V621.845L1051.99 634.691L1074.23 621.845V596.155L1051.99 583.309ZM1076.23 595L1051.99 581L1027.74 595V623L1051.99 637L1076.23 623V595Z" fill="#9398AF"/>
<path fill-rule="evenodd" clip-rule="evenodd" d="M603.986 198.309L581.737 211.155V236.845L603.986 249.691L626.235 236.845V211.155L603.986 198.309ZM628.235 210L603.986 196L579.737 210V238L603.986 252L628.235 238V210Z" fill="#9398AF"/>
<path fill-rule="evenodd" clip-rule="evenodd" d="M1499.99 198.309L1477.74 211.155V236.845L1499.99 249.691L1522.23 236.845V211.155L1499.99 198.309ZM1524.23 210L1499.99 196L1475.74 210V238L1499.99 252L1524.23 238V210Z" fill="#9398AF"/>
<path fill-rule="evenodd" clip-rule="evenodd" d="M603.986 583.309L581.737 596.155V621.845L603.986 634.691L626.235 621.845V596.155L603.986 583.309ZM628.235 595L603.986 581L579.737 595V623L603.986 637L628.235 623V595Z" fill="#9398AF"/>
<path fill-rule="evenodd" clip-rule="evenodd" d="M1499.99 583.309L1477.74 596.155V621.845L1499.99 634.691L1522.23 621.845V596.155L1499.99 583.309ZM1524.23 595L1499.99 581L1475.74 595V623L1499.99 637L1524.23 623V595Z" fill="#9398AF"/>
<path fill-rule="evenodd" clip-rule="evenodd" d="M463.986 439.309L441.737 452.155V477.845L463.986 490.691L486.235 477.845V452.155L463.986 439.309ZM488.235 451L463.986 437L439.737 451V479L463.986 493L488.235 479V451Z" fill="#9398AF"/>
<path fill-rule="evenodd" clip-rule="evenodd" d="M1359.99 439.309L1337.74 452.155V477.845L1359.99 490.691L1382.23 477.845V452.155L1359.99 439.309ZM1384.23 451L1359.99 437L1335.74 451V479L1359.99 493L1384.23 479V451Z" fill="#9398AF"/>
<path fill-rule="evenodd" clip-rule="evenodd" d="M911.986 439.309L889.737 452.155V477.845L911.986 490.691L934.235 477.845V452.155L911.986 439.309ZM936.235 451L911.986 437L887.737 451V479L911.986 493L936.235 479V451Z" fill="#9398AF"/>
<path fill-rule="evenodd" clip-rule="evenodd" d="M1807.99 439.309L1785.74 452.155V477.845L1807.99 490.691L1830.23 477.845V452.155L1807.99 439.309ZM1832.23 451L1807.99 437L1783.74 451V479L1807.99 493L1832.23 479V451Z" fill="#9398AF"/>
<path fill-rule="evenodd" clip-rule="evenodd" d="M463.986 246.309L441.737 259.155V284.845L463.986 297.691L486.235 284.845V259.155L463.986 246.309ZM488.235 258L463.986 244L439.737 258V286L463.986 300L488.235 286V258Z" fill="#9398AF"/>
<path fill-rule="evenodd" clip-rule="evenodd" d="M1359.99 246.309L1337.74 259.155V284.845L1359.99 297.691L1382.23 284.845V259.155L1359.99 246.309ZM1384.23 258L1359.99 244L1335.74 258V286L1359.99 300L1384.23 286V258Z" fill="#9398AF"/>
<path fill-rule="evenodd" clip-rule="evenodd" d="M463.986 631.309L441.737 644.155V669.845L463.986 682.691L486.235 669.845V644.155L463.986 631.309ZM488.235 643L463.986 629L439.737 643V671L463.986 685L488.235 671V643Z" fill="#9398AF"/>
<path fill-rule="evenodd" clip-rule="evenodd" d="M1359.99 631.309L1337.74 644.155V669.845L1359.99 682.691L1382.23 669.845V644.155L1359.99 631.309ZM1384.23 643L1359.99 629L1335.74 643V671L1359.99 685L1384.23 671V643Z" fill="#9398AF"/>
<path fill-rule="evenodd" clip-rule="evenodd" d="M911.986 246.309L889.737 259.155V284.845L911.986 297.691L934.235 284.845V259.155L911.986 246.309ZM936.235 258L911.986 244L887.737 258V286L911.986 300L936.235 286V258Z" fill="#9398AF"/>
<path fill-rule="evenodd" clip-rule="evenodd" d="M1807.99 246.309L1785.74 259.155V284.845L1807.99 297.691L1830.23 284.845V259.155L1807.99 246.309ZM1832.23 258L1807.99 244L1783.74 258V286L1807.99 300L1832.23 286V258Z" fill="#9398AF"/>
<path fill-rule="evenodd" clip-rule="evenodd" d="M911.986 631.309L889.737 644.155V669.845L911.986 682.691L934.235 669.845V644.155L911.986 631.309ZM936.235 643L911.986 629L887.737 643V671L911.986 685L936.235 671V643Z" fill="#9398AF"/>
<path fill-rule="evenodd" clip-rule="evenodd" d="M1807.99 631.309L1785.74 644.155V669.845L1807.99 682.691L1830.23 669.845V644.155L1807.99 631.309ZM1832.23 643L1807.99 629L1783.74 643V671L1807.99 685L1832.23 671V643Z" fill="#9398AF"/>
<path fill-rule="evenodd" clip-rule="evenodd" d="M379.986 198.309L357.737 211.155V236.845L379.986 249.691L402.235 236.845V211.155L379.986 198.309ZM404.235 210L379.986 196L355.737 210V238L379.986 252L404.235 238V210Z" fill="#9398AF"/>
<path fill-rule="evenodd" clip-rule="evenodd" d="M1275.99 198.309L1253.74 211.155V236.845L1275.99 249.691L1298.23 236.845V211.155L1275.99 198.309ZM1300.23 210L1275.99 196L1251.74 210V238L1275.99 252L1300.23 238V210Z" fill="#9398AF"/>
<path fill-rule="evenodd" clip-rule="evenodd" d="M379.986 583.309L357.737 596.155V621.845L379.986 634.691L402.235 621.845V596.155L379.986 583.309ZM404.235 595L379.986 581L355.737 595V623L379.986 637L404.235 623V595Z" fill="#9398AF"/>
<path fill-rule="evenodd" clip-rule="evenodd" d="M1275.99 583.309L1253.74 596.155V621.845L1275.99 634.691L1298.23 621.845V596.155L1275.99 583.309ZM1300.23 595L1275.99 581L1251.74 595V623L1275.99 637L1300.23 623V595Z" fill="#9398AF"/>
<path fill-rule="evenodd" clip-rule="evenodd" d="M827.986 198.309L805.737 211.155V236.845L827.986 249.691L850.235 236.845V211.155L827.986 198.309ZM852.235 210L827.986 196L803.737 210V238L827.986 252L852.235 238V210Z" fill="#9398AF"/>
<path fill-rule="evenodd" clip-rule="evenodd" d="M1723.99 198.309L1701.74 211.155V236.845L1723.99 249.691L1746.23 236.845V211.155L1723.99 198.309ZM1748.23 210L1723.99 196L1699.74 210V238L1723.99 252L1748.23 238V210Z" fill="#9398AF"/>
<path fill-rule="evenodd" clip-rule="evenodd" d="M827.986 583.309L805.737 596.155V621.845L827.986 634.691L850.235 621.845V596.155L827.986 583.309ZM852.235 595L827.986 581L803.737 595V623L827.986 637L852.235 623V595Z" fill="#9398AF"/>
<path fill-rule="evenodd" clip-rule="evenodd" d="M1723.99 583.309L1701.74 596.155V621.845L1723.99 634.691L1746.23 621.845V596.155L1723.99 583.309ZM1748.23 595L1723.99 581L1699.74 595V623L1723.99 637L1748.23 623V595Z" fill="#9398AF"/>
<path fill-rule="evenodd" clip-rule="evenodd" d="M183.986 439.309L161.737 452.155V477.845L183.986 490.691L206.235 477.845V452.155L183.986 439.309ZM208.235 451L183.986 437L159.737 451V479L183.986 493L208.235 479V451Z" fill="#9398AF"/>
<path fill-rule="evenodd" clip-rule="evenodd" d="M1079.99 439.309L1057.74 452.155V477.845L1079.99 490.691L1102.23 477.845V452.155L1079.99 439.309ZM1104.23 451L1079.99 437L1055.74 451V479L1079.99 493L1104.23 479V451Z" fill="#9398AF"/>
<path fill-rule="evenodd" clip-rule="evenodd" d="M631.986 439.309L609.737 452.155V477.845L631.986 490.691L654.235 477.845V452.155L631.986 439.309ZM656.235 451L631.986 437L607.737 451V479L631.986 493L656.235 479V451Z" fill="#9398AF"/>
<path fill-rule="evenodd" clip-rule="evenodd" d="M1527.99 439.309L1505.74 452.155V477.845L1527.99 490.691L1550.23 477.845V452.155L1527.99 439.309ZM1552.23 451L1527.99 437L1503.74 451V479L1527.99 493L1552.23 479V451Z" fill="#9398AF"/>
<path fill-rule="evenodd" clip-rule="evenodd" d="M183.986 246.309L161.737 259.155V284.845L183.986 297.691L206.235 284.845V259.155L183.986 246.309ZM208.235 258L183.986 244L159.737 258V286L183.986 300L208.235 286V258Z" fill="#9398AF"/>
<path fill-rule="evenodd" clip-rule="evenodd" d="M1079.99 246.309L1057.74 259.155V284.845L1079.99 297.691L1102.23 284.845V259.155L1079.99 246.309ZM1104.23 258L1079.99 244L1055.74 258V286L1079.99 300L1104.23 286V258Z" fill="#9398AF"/>
<path fill-rule="evenodd" clip-rule="evenodd" d="M183.986 631.309L161.737 644.155V669.845L183.986 682.691L206.235 669.845V644.155L183.986 631.309ZM208.235 643L183.986 629L159.737 643V671L183.986 685L208.235 671V643Z" fill="#9398AF"/>
<path fill-rule="evenodd" clip-rule="evenodd" d="M1079.99 631.309L1057.74 644.155V669.845L1079.99 682.691L1102.23 669.845V644.155L1079.99 631.309ZM1104.23 643L1079.99 629L1055.74 643V671L1079.99 685L1104.23 671V643Z" fill="#9398AF"/>
<path fill-rule="evenodd" clip-rule="evenodd" d="M631.986 246.309L609.737 259.155V284.845L631.986 297.691L654.235 284.845V259.155L631.986 246.309ZM656.235 258L631.986 244L607.737 258V286L631.986 300L656.235 286V258Z" fill="#9398AF"/>
<path fill-rule="evenodd" clip-rule="evenodd" d="M1527.99 246.309L1505.74 259.155V284.845L1527.99 297.691L1550.23 284.845V259.155L1527.99 246.309ZM1552.23 258L1527.99 244L1503.74 258V286L1527.99 300L1552.23 286V258Z" fill="#9398AF"/>
<path fill-rule="evenodd" clip-rule="evenodd" d="M631.986 631.309L609.737 644.155V669.845L631.986 682.691L654.235 669.845V644.155L631.986 631.309ZM656.235 643L631.986 629L607.737 643V671L631.986 685L656.235 671V643Z" fill="#9398AF"/>
<path fill-rule="evenodd" clip-rule="evenodd" d="M1527.99 631.309L1505.74 644.155V669.845L1527.99 682.691L1550.23 669.845V644.155L1527.99 631.309ZM1552.23 643L1527.99 629L1503.74 643V671L1527.99 685L1552.23 671V643Z" fill="#9398AF"/>
<path fill-rule="evenodd" clip-rule="evenodd" d="M99.986 198.309L77.7373 211.155V236.845L99.986 249.691L122.235 236.845V211.155L99.986 198.309ZM124.235 210L99.986 196L75.7373 210V238L99.986 252L124.235 238V210Z" fill="#9398AF"/>
<path fill-rule="evenodd" clip-rule="evenodd" d="M995.986 198.309L973.737 211.155V236.845L995.986 249.691L1018.23 236.845V211.155L995.986 198.309ZM1020.23 210L995.986 196L971.737 210V238L995.986 252L1020.23 238V210Z" fill="#9398AF"/>
<path fill-rule="evenodd" clip-rule="evenodd" d="M99.986 583.309L77.7373 596.155V621.845L99.986 634.691L122.235 621.845V596.155L99.986 583.309ZM124.235 595L99.986 581L75.7373 595V623L99.986 637L124.235 623V595Z" fill="#9398AF"/>
<path fill-rule="evenodd" clip-rule="evenodd" d="M995.986 583.309L973.737 596.155V621.845L995.986 634.691L1018.23 621.845V596.155L995.986 583.309ZM1020.23 595L995.986 581L971.737 595V623L995.986 637L1020.23 623V595Z" fill="#9398AF"/>
<path fill-rule="evenodd" clip-rule="evenodd" d="M547.986 198.309L525.737 211.155V236.845L547.986 249.691L570.235 236.845V211.155L547.986 198.309ZM572.235 210L547.986 196L523.737 210V238L547.986 252L572.235 238V210Z" fill="#9398AF"/>
<path fill-rule="evenodd" clip-rule="evenodd" d="M1443.99 198.309L1421.74 211.155V236.845L1443.99 249.691L1466.23 236.845V211.155L1443.99 198.309ZM1468.23 210L1443.99 196L1419.74 210V238L1443.99 252L1468.23 238V210Z" fill="#9398AF"/>
<path fill-rule="evenodd" clip-rule="evenodd" d="M547.986 583.309L525.737 596.155V621.845L547.986 634.691L570.235 621.845V596.155L547.986 583.309ZM572.235 595L547.986 581L523.737 595V623L547.986 637L572.235 623V595Z" fill="#9398AF"/>
<path fill-rule="evenodd" clip-rule="evenodd" d="M1443.99 583.309L1421.74 596.155V621.845L1443.99 634.691L1466.23 621.845V596.155L1443.99 583.309ZM1468.23 595L1443.99 581L1419.74 595V623L1443.99 637L1468.23 623V595Z" fill="#9398AF"/>
<path fill-rule="evenodd" clip-rule="evenodd" d="M491.986 198.309L469.737 211.155V236.845L491.986 249.691L514.235 236.845V211.155L491.986 198.309ZM516.235 210L491.986 196L467.737 210V238L491.986 252L516.235 238V210Z" fill="#9398AF"/>
<path fill-rule="evenodd" clip-rule="evenodd" d="M1387.99 198.309L1365.74 211.155V236.845L1387.99 249.691L1410.23 236.845V211.155L1387.99 198.309ZM1412.23 210L1387.99 196L1363.74 210V238L1387.99 252L1412.23 238V210Z" fill="#9398AF"/>
<path fill-rule="evenodd" clip-rule="evenodd" d="M491.986 583.309L469.737 596.155V621.845L491.986 634.691L514.235 621.845V596.155L491.986 583.309ZM516.235 595L491.986 581L467.737 595V623L491.986 637L516.235 623V595Z" fill="#9398AF"/>
<path fill-rule="evenodd" clip-rule="evenodd" d="M1387.99 583.309L1365.74 596.155V621.845L1387.99 634.691L1410.23 621.845V596.155L1387.99 583.309ZM1412.23 595L1387.99 581L1363.74 595V623L1387.99 637L1412.23 623V595Z" fill="#9398AF"/>
<path fill-rule="evenodd" clip-rule="evenodd" d="M939.986 198.309L917.737 211.155V236.845L939.986 249.691L962.235 236.845V211.155L939.986 198.309ZM964.235 210L939.986 196L915.737 210V238L939.986 252L964.235 238V210Z" fill="#9398AF"/>
<path fill-rule="evenodd" clip-rule="evenodd" d="M1835.99 198.309L1813.74 211.155V236.845L1835.99 249.691L1858.23 236.845V211.155L1835.99 198.309ZM1860.23 210L1835.99 196L1811.74 210V238L1835.99 252L1860.23 238V210Z" fill="#9398AF"/>
<path fill-rule="evenodd" clip-rule="evenodd" d="M939.986 583.309L917.737 596.155V621.845L939.986 634.691L962.235 621.845V596.155L939.986 583.309ZM964.235 595L939.986 581L915.737 595V623L939.986 637L964.235 623V595Z" fill="#9398AF"/>
<path fill-rule="evenodd" clip-rule="evenodd" d="M1835.99 583.309L1813.74 596.155V621.845L1835.99 634.691L1858.23 621.845V596.155L1835.99 583.309ZM1860.23 595L1835.99 581L1811.74 595V623L1835.99 637L1860.23 623V595Z" fill="#9398AF"/>
<path fill-rule="evenodd" clip-rule="evenodd" d="M407.986 439.309L385.737 452.155V477.845L407.986 490.691L430.235 477.845V452.155L407.986 439.309ZM432.235 451L407.986 437L383.737 451V479L407.986 493L432.235 479V451Z" fill="#9398AF"/>
<path fill-rule="evenodd" clip-rule="evenodd" d="M1303.99 439.309L1281.74 452.155V477.845L1303.99 490.691L1326.23 477.845V452.155L1303.99 439.309ZM1328.23 451L1303.99 437L1279.74 451V479L1303.99 493L1328.23 479V451Z" fill="#9398AF"/>
<path fill-rule="evenodd" clip-rule="evenodd" d="M855.986 439.309L833.737 452.155V477.845L855.986 490.691L878.235 477.845V452.155L855.986 439.309ZM880.235 451L855.986 437L831.737 451V479L855.986 493L880.235 479V451Z" fill="#9398AF"/>
<path fill-rule="evenodd" clip-rule="evenodd" d="M1751.99 439.309L1729.74 452.155V477.845L1751.99 490.691L1774.23 477.845V452.155L1751.99 439.309ZM1776.23 451L1751.99 437L1727.74 451V479L1751.99 493L1776.23 479V451Z" fill="#9398AF"/>
<path fill-rule="evenodd" clip-rule="evenodd" d="M407.986 246.309L385.737 259.155V284.845L407.986 297.691L430.235 284.845V259.155L407.986 246.309ZM432.235 258L407.986 244L383.737 258V286L407.986 300L432.235 286V258Z" fill="#9398AF"/>
<path fill-rule="evenodd" clip-rule="evenodd" d="M1303.99 246.309L1281.74 259.155V284.845L1303.99 297.691L1326.23 284.845V259.155L1303.99 246.309ZM1328.23 258L1303.99 244L1279.74 258V286L1303.99 300L1328.23 286V258Z" fill="#9398AF"/>
<path fill-rule="evenodd" clip-rule="evenodd" d="M407.986 631.309L385.737 644.155V669.845L407.986 682.691L430.235 669.845V644.155L407.986 631.309ZM432.235 643L407.986 629L383.737 643V671L407.986 685L432.235 671V643Z" fill="#9398AF"/>
<path fill-rule="evenodd" clip-rule="evenodd" d="M1303.99 631.309L1281.74 644.155V669.845L1303.99 682.691L1326.23 669.845V644.155L1303.99 631.309ZM1328.23 643L1303.99 629L1279.74 643V671L1303.99 685L1328.23 671V643Z" fill="#9398AF"/>
<path fill-rule="evenodd" clip-rule="evenodd" d="M855.986 246.309L833.737 259.155V284.845L855.986 297.691L878.235 284.845V259.155L855.986 246.309ZM880.235 258L855.986 244L831.737 258V286L855.986 300L880.235 286V258Z" fill="#9398AF"/>
<path fill-rule="evenodd" clip-rule="evenodd" d="M1751.99 246.309L1729.74 259.155V284.845L1751.99 297.691L1774.23 284.845V259.155L1751.99 246.309ZM1776.23 258L1751.99 244L1727.74 258V286L1751.99 300L1776.23 286V258Z" fill="#9398AF"/>
<path fill-rule="evenodd" clip-rule="evenodd" d="M855.986 631.309L833.737 644.155V669.845L855.986 682.691L878.235 669.845V644.155L855.986 631.309ZM880.235 643L855.986 629L831.737 643V671L855.986 685L880.235 671V643Z" fill="#9398AF"/>
<path fill-rule="evenodd" clip-rule="evenodd" d="M1751.99 631.309L1729.74 644.155V669.845L1751.99 682.691L1774.23 669.845V644.155L1751.99 631.309ZM1776.23 643L1751.99 629L1727.74 643V671L1751.99 685L1776.23 671V643Z" fill="#9398AF"/>
<path fill-rule="evenodd" clip-rule="evenodd" d="M323.986 198.309L301.737 211.155V236.845L323.986 249.691L346.235 236.845V211.155L323.986 198.309ZM348.235 210L323.986 196L299.737 210V238L323.986 252L348.235 238V210Z" fill="#9398AF"/>
<path fill-rule="evenodd" clip-rule="evenodd" d="M1219.99 198.309L1197.74 211.155V236.845L1219.99 249.691L1242.23 236.845V211.155L1219.99 198.309ZM1244.23 210L1219.99 196L1195.74 210V238L1219.99 252L1244.23 238V210Z" fill="#9398AF"/>
<path fill-rule="evenodd" clip-rule="evenodd" d="M323.986 583.309L301.737 596.155V621.845L323.986 634.691L346.235 621.845V596.155L323.986 583.309ZM348.235 595L323.986 581L299.737 595V623L323.986 637L348.235 623V595Z" fill="#9398AF"/>
<path fill-rule="evenodd" clip-rule="evenodd" d="M1219.99 583.309L1197.74 596.155V621.845L1219.99 634.691L1242.23 621.845V596.155L1219.99 583.309ZM1244.23 595L1219.99 581L1195.74 595V623L1219.99 637L1244.23 623V595Z" fill="#9398AF"/>
<path fill-rule="evenodd" clip-rule="evenodd" d="M771.986 198.309L749.737 211.155V236.845L771.986 249.691L794.235 236.845V211.155L771.986 198.309ZM796.235 210L771.986 196L747.737 210V238L771.986 252L796.235 238V210Z" fill="#9398AF"/>
<path fill-rule="evenodd" clip-rule="evenodd" d="M1667.99 198.309L1645.74 211.155V236.845L1667.99 249.691L1690.23 236.845V211.155L1667.99 198.309ZM1692.23 210L1667.99 196L1643.74 210V238L1667.99 252L1692.23 238V210Z" fill="#9398AF"/>
<path fill-rule="evenodd" clip-rule="evenodd" d="M771.986 583.309L749.737 596.155V621.845L771.986 634.691L794.235 621.845V596.155L771.986 583.309ZM796.235 595L771.986 581L747.737 595V623L771.986 637L796.235 623V595Z" fill="#9398AF"/>
<path fill-rule="evenodd" clip-rule="evenodd" d="M1667.99 583.309L1645.74 596.155V621.845L1667.99 634.691L1690.23 621.845V596.155L1667.99 583.309ZM1692.23 595L1667.99 581L1643.74 595V623L1667.99 637L1692.23 623V595Z" fill="#9398AF"/>
<path fill-rule="evenodd" clip-rule="evenodd" d="M155.986 102.309L133.737 115.155V140.845L155.986 153.691L178.235 140.845V115.155L155.986 102.309ZM180.235 114L155.986 100L131.737 114V142L155.986 156L180.235 142V114Z" fill="#9398AF"/>
<path fill-rule="evenodd" clip-rule="evenodd" d="M1051.99 102.309L1029.74 115.155V140.845L1051.99 153.691L1074.23 140.845V115.155L1051.99 102.309ZM1076.23 114L1051.99 100L1027.74 114V142L1051.99 156L1076.23 142V114Z" fill="#9398AF"/>
<path fill-rule="evenodd" clip-rule="evenodd" d="M155.986 487.309L133.737 500.155V525.845L155.986 538.691L178.235 525.845V500.155L155.986 487.309ZM180.235 499L155.986 485L131.737 499V527L155.986 541L180.235 527V499Z" fill="#9398AF"/>
<path fill-rule="evenodd" clip-rule="evenodd" d="M1051.99 487.309L1029.74 500.155V525.845L1051.99 538.691L1074.23 525.845V500.155L1051.99 487.309ZM1076.23 499L1051.99 485L1027.74 499V527L1051.99 541L1076.23 527V499Z" fill="#9398AF"/>
<path fill-rule="evenodd" clip-rule="evenodd" d="M603.986 102.309L581.737 115.155V140.845L603.986 153.691L626.235 140.845V115.155L603.986 102.309ZM628.235 114L603.986 100L579.737 114V142L603.986 156L628.235 142V114Z" fill="#9398AF"/>
<path fill-rule="evenodd" clip-rule="evenodd" d="M1499.99 102.309L1477.74 115.155V140.845L1499.99 153.691L1522.23 140.845V115.155L1499.99 102.309ZM1524.23 114L1499.99 100L1475.74 114V142L1499.99 156L1524.23 142V114Z" fill="#9398AF"/>
<path fill-rule="evenodd" clip-rule="evenodd" d="M603.986 487.309L581.737 500.155V525.845L603.986 538.691L626.235 525.845V500.155L603.986 487.309ZM628.235 499L603.986 485L579.737 499V527L603.986 541L628.235 527V499Z" fill="#9398AF"/>
<path fill-rule="evenodd" clip-rule="evenodd" d="M1499.99 487.309L1477.74 500.155V525.845L1499.99 538.691L1522.23 525.845V500.155L1499.99 487.309ZM1524.23 499L1499.99 485L1475.74 499V527L1499.99 541L1524.23 527V499Z" fill="#9398AF"/>
<path fill-rule="evenodd" clip-rule="evenodd" d="M155.986 294.309L133.737 307.155V332.845L155.986 345.691L178.235 332.845V307.155L155.986 294.309ZM180.235 306L155.986 292L131.737 306V334L155.986 348L180.235 334V306Z" fill="#9398AF"/>
<path fill-rule="evenodd" clip-rule="evenodd" d="M1051.99 294.309L1029.74 307.155V332.845L1051.99 345.691L1074.23 332.845V307.155L1051.99 294.309ZM1076.23 306L1051.99 292L1027.74 306V334L1051.99 348L1076.23 334V306Z" fill="#9398AF"/>
<path fill-rule="evenodd" clip-rule="evenodd" d="M603.986 294.309L581.737 307.155V332.845L603.986 345.691L626.235 332.845V307.155L603.986 294.309ZM628.235 306L603.986 292L579.737 306V334L603.986 348L628.235 334V306Z" fill="#9398AF"/>
<path fill-rule="evenodd" clip-rule="evenodd" d="M1499.99 294.309L1477.74 307.155V332.845L1499.99 345.691L1522.23 332.845V307.155L1499.99 294.309ZM1524.23 306L1499.99 292L1475.74 306V334L1499.99 348L1524.23 334V306Z" fill="#9398AF"/>
<path fill-rule="evenodd" clip-rule="evenodd" d="M379.986 102.309L357.737 115.155V140.845L379.986 153.691L402.235 140.845V115.155L379.986 102.309ZM404.235 114L379.986 100L355.737 114V142L379.986 156L404.235 142V114Z" fill="#9398AF"/>
<path fill-rule="evenodd" clip-rule="evenodd" d="M1275.99 102.309L1253.74 115.155V140.845L1275.99 153.691L1298.23 140.845V115.155L1275.99 102.309ZM1300.23 114L1275.99 100L1251.74 114V142L1275.99 156L1300.23 142V114Z" fill="#9398AF"/>
<path fill-rule="evenodd" clip-rule="evenodd" d="M379.986 487.309L357.737 500.155V525.845L379.986 538.691L402.235 525.845V500.155L379.986 487.309ZM404.235 499L379.986 485L355.737 499V527L379.986 541L404.235 527V499Z" fill="#9398AF"/>
<path fill-rule="evenodd" clip-rule="evenodd" d="M1275.99 487.309L1253.74 500.155V525.845L1275.99 538.691L1298.23 525.845V500.155L1275.99 487.309ZM1300.23 499L1275.99 485L1251.74 499V527L1275.99 541L1300.23 527V499Z" fill="#9398AF"/>
<path fill-rule="evenodd" clip-rule="evenodd" d="M827.986 102.309L805.737 115.155V140.845L827.986 153.691L850.235 140.845V115.155L827.986 102.309ZM852.235 114L827.986 100L803.737 114V142L827.986 156L852.235 142V114Z" fill="#9398AF"/>
<path fill-rule="evenodd" clip-rule="evenodd" d="M1723.99 102.309L1701.74 115.155V140.845L1723.99 153.691L1746.23 140.845V115.155L1723.99 102.309ZM1748.23 114L1723.99 100L1699.74 114V142L1723.99 156L1748.23 142V114Z" fill="#9398AF"/>
<path fill-rule="evenodd" clip-rule="evenodd" d="M827.986 487.309L805.737 500.155V525.845L827.986 538.691L850.235 525.845V500.155L827.986 487.309ZM852.235 499L827.986 485L803.737 499V527L827.986 541L852.235 527V499Z" fill="#9398AF"/>
<path fill-rule="evenodd" clip-rule="evenodd" d="M1723.99 487.309L1701.74 500.155V525.845L1723.99 538.691L1746.23 525.845V500.155L1723.99 487.309ZM1748.23 499L1723.99 485L1699.74 499V527L1723.99 541L1748.23 527V499Z" fill="#9398AF"/>
<path fill-rule="evenodd" clip-rule="evenodd" d="M379.986 294.309L357.737 307.155V332.845L379.986 345.691L402.235 332.845V307.155L379.986 294.309ZM404.235 306L379.986 292L355.737 306V334L379.986 348L404.235 334V306Z" fill="#9398AF"/>
<path fill-rule="evenodd" clip-rule="evenodd" d="M1275.99 294.309L1253.74 307.155V332.845L1275.99 345.691L1298.23 332.845V307.155L1275.99 294.309ZM1300.23 306L1275.99 292L1251.74 306V334L1275.99 348L1300.23 334V306Z" fill="#9398AF"/>
<path fill-rule="evenodd" clip-rule="evenodd" d="M827.986 294.309L805.737 307.155V332.845L827.986 345.691L850.235 332.845V307.155L827.986 294.309ZM852.235 306L827.986 292L803.737 306V334L827.986 348L852.235 334V306Z" fill="#9398AF"/>
<path fill-rule="evenodd" clip-rule="evenodd" d="M1723.99 294.309L1701.74 307.155V332.845L1723.99 345.691L1746.23 332.845V307.155L1723.99 294.309ZM1748.23 306L1723.99 292L1699.74 306V334L1723.99 348L1748.23 334V306Z" fill="#9398AF"/>
<path fill-rule="evenodd" clip-rule="evenodd" d="M267.986 102.309L245.737 115.155V140.845L267.986 153.691L290.235 140.845V115.155L267.986 102.309ZM292.235 114L267.986 100L243.737 114V142L267.986 156L292.235 142V114Z" fill="#9398AF"/>
<path fill-rule="evenodd" clip-rule="evenodd" d="M1163.99 102.309L1141.74 115.155V140.845L1163.99 153.691L1186.23 140.845V115.155L1163.99 102.309ZM1188.23 114L1163.99 100L1139.74 114V142L1163.99 156L1188.23 142V114Z" fill="#9398AF"/>
<path fill-rule="evenodd" clip-rule="evenodd" d="M267.986 487.309L245.737 500.155V525.845L267.986 538.691L290.235 525.845V500.155L267.986 487.309ZM292.235 499L267.986 485L243.737 499V527L267.986 541L292.235 527V499Z" fill="#9398AF"/>
<path fill-rule="evenodd" clip-rule="evenodd" d="M1163.99 487.309L1141.74 500.155V525.845L1163.99 538.691L1186.23 525.845V500.155L1163.99 487.309ZM1188.23 499L1163.99 485L1139.74 499V527L1163.99 541L1188.23 527V499Z" fill="#9398AF"/>
<path fill-rule="evenodd" clip-rule="evenodd" d="M715.986 102.309L693.737 115.155V140.845L715.986 153.691L738.235 140.845V115.155L715.986 102.309ZM740.235 114L715.986 100L691.737 114V142L715.986 156L740.235 142V114Z" fill="#9398AF"/>
<path fill-rule="evenodd" clip-rule="evenodd" d="M1611.99 102.309L1589.74 115.155V140.845L1611.99 153.691L1634.23 140.845V115.155L1611.99 102.309ZM1636.23 114L1611.99 100L1587.74 114V142L1611.99 156L1636.23 142V114Z" fill="#9398AF"/>
<path fill-rule="evenodd" clip-rule="evenodd" d="M715.986 487.309L693.737 500.155V525.845L715.986 538.691L738.235 525.845V500.155L715.986 487.309ZM740.235 499L715.986 485L691.737 499V527L715.986 541L740.235 527V499Z" fill="#9398AF"/>
<path fill-rule="evenodd" clip-rule="evenodd" d="M1611.99 487.309L1589.74 500.155V525.845L1611.99 538.691L1634.23 525.845V500.155L1611.99 487.309ZM1636.23 499L1611.99 485L1587.74 499V527L1611.99 541L1636.23 527V499Z" fill="#9398AF"/>
<path fill-rule="evenodd" clip-rule="evenodd" d="M267.986 294.309L245.737 307.155V332.845L267.986 345.691L290.235 332.845V307.155L267.986 294.309ZM292.235 306L267.986 292L243.737 306V334L267.986 348L292.235 334V306Z" fill="#9398AF"/>
<path fill-rule="evenodd" clip-rule="evenodd" d="M1163.99 294.309L1141.74 307.155V332.845L1163.99 345.691L1186.23 332.845V307.155L1163.99 294.309ZM1188.23 306L1163.99 292L1139.74 306V334L1163.99 348L1188.23 334V306Z" fill="#9398AF"/>
<path fill-rule="evenodd" clip-rule="evenodd" d="M715.986 294.309L693.737 307.155V332.845L715.986 345.691L738.235 332.845V307.155L715.986 294.309ZM740.235 306L715.986 292L691.737 306V334L715.986 348L740.235 334V306Z" fill="#9398AF"/>
<path fill-rule="evenodd" clip-rule="evenodd" d="M1611.99 294.309L1589.74 307.155V332.845L1611.99 345.691L1634.23 332.845V307.155L1611.99 294.309ZM1636.23 306L1611.99 292L1587.74 306V334L1611.99 348L1636.23 334V306Z" fill="#9398AF"/>
<path fill-rule="evenodd" clip-rule="evenodd" d="M491.986 102.309L469.737 115.155V140.845L491.986 153.691L514.235 140.845V115.155L491.986 102.309ZM516.235 114L491.986 100L467.737 114V142L491.986 156L516.235 142V114Z" fill="#9398AF"/>
<path fill-rule="evenodd" clip-rule="evenodd" d="M1387.99 102.309L1365.74 115.155V140.845L1387.99 153.691L1410.23 140.845V115.155L1387.99 102.309ZM1412.23 114L1387.99 100L1363.74 114V142L1387.99 156L1412.23 142V114Z" fill="#9398AF"/>
<path fill-rule="evenodd" clip-rule="evenodd" d="M491.986 487.309L469.737 500.155V525.845L491.986 538.691L514.235 525.845V500.155L491.986 487.309ZM516.235 499L491.986 485L467.737 499V527L491.986 541L516.235 527V499Z" fill="#9398AF"/>
<path fill-rule="evenodd" clip-rule="evenodd" d="M1387.99 487.309L1365.74 500.155V525.845L1387.99 538.691L1410.23 525.845V500.155L1387.99 487.309ZM1412.23 499L1387.99 485L1363.74 499V527L1387.99 541L1412.23 527V499Z" fill="#9398AF"/>
<path fill-rule="evenodd" clip-rule="evenodd" d="M939.986 102.309L917.737 115.155V140.845L939.986 153.691L962.235 140.845V115.155L939.986 102.309ZM964.235 114L939.986 100L915.737 114V142L939.986 156L964.235 142V114Z" fill="#9398AF"/>
<path fill-rule="evenodd" clip-rule="evenodd" d="M1835.99 102.309L1813.74 115.155V140.845L1835.99 153.691L1858.23 140.845V115.155L1835.99 102.309ZM1860.23 114L1835.99 100L1811.74 114V142L1835.99 156L1860.23 142V114Z" fill="#9398AF"/>
<path fill-rule="evenodd" clip-rule="evenodd" d="M939.986 487.309L917.737 500.155V525.845L939.986 538.691L962.235 525.845V500.155L939.986 487.309ZM964.235 499L939.986 485L915.737 499V527L939.986 541L964.235 527V499Z" fill="#9398AF"/>
<path fill-rule="evenodd" clip-rule="evenodd" d="M1835.99 487.309L1813.74 500.155V525.845L1835.99 538.691L1858.23 525.845V500.155L1835.99 487.309ZM1860.23 499L1835.99 485L1811.74 499V527L1835.99 541L1860.23 527V499Z" fill="#9398AF"/>
<path fill-rule="evenodd" clip-rule="evenodd" d="M491.986 294.309L469.737 307.155V332.845L491.986 345.691L514.235 332.845V307.155L491.986 294.309ZM516.235 306L491.986 292L467.737 306V334L491.986 348L516.235 334V306Z" fill="#9398AF"/>
<path fill-rule="evenodd" clip-rule="evenodd" d="M1387.99 294.309L1365.74 307.155V332.845L1387.99 345.691L1410.23 332.845V307.155L1387.99 294.309ZM1412.23 306L1387.99 292L1363.74 306V334L1387.99 348L1412.23 334V306Z" fill="#9398AF"/>
<path fill-rule="evenodd" clip-rule="evenodd" d="M939.986 294.309L917.737 307.155V332.845L939.986 345.691L962.235 332.845V307.155L939.986 294.309ZM964.235 306L939.986 292L915.737 306V334L939.986 348L964.235 334V306Z" fill="#9398AF"/>
<path fill-rule="evenodd" clip-rule="evenodd" d="M1835.99 294.309L1813.74 307.155V332.845L1835.99 345.691L1858.23 332.845V307.155L1835.99 294.309ZM1860.23 306L1835.99 292L1811.74 306V334L1835.99 348L1860.23 334V306Z" fill="#9398AF"/>
<path fill-rule="evenodd" clip-rule="evenodd" d="M127.986 150.309L105.737 163.155V188.845L127.986 201.691L150.235 188.845V163.155L127.986 150.309ZM152.235 162L127.986 148L103.737 162V190L127.986 204L152.235 190V162Z" fill="#9398AF"/>
<path fill-rule="evenodd" clip-rule="evenodd" d="M1023.99 150.309L1001.74 163.155V188.845L1023.99 201.691L1046.23 188.845V163.155L1023.99 150.309ZM1048.23 162L1023.99 148L999.737 162V190L1023.99 204L1048.23 190V162Z" fill="#9398AF"/>
<path fill-rule="evenodd" clip-rule="evenodd" d="M967.986 150.309L945.737 163.155V188.845L967.986 201.691L990.235 188.845V163.155L967.986 150.309ZM992.235 162L967.986 148L943.737 162V190L967.986 204L992.235 190V162Z" fill="#9398AF"/>
<path fill-rule="evenodd" clip-rule="evenodd" d="M127.986 535.309L105.737 548.155V573.845L127.986 586.691L150.235 573.845V548.155L127.986 535.309ZM152.235 547L127.986 533L103.737 547V575L127.986 589L152.235 575V547Z" fill="#9398AF"/>
<path fill-rule="evenodd" clip-rule="evenodd" d="M1023.99 535.309L1001.74 548.155V573.845L1023.99 586.691L1046.23 573.845V548.155L1023.99 535.309ZM1048.23 547L1023.99 533L999.737 547V575L1023.99 589L1048.23 575V547Z" fill="#9398AF"/>
<path fill-rule="evenodd" clip-rule="evenodd" d="M967.986 535.309L945.737 548.155V573.845L967.986 586.691L990.235 573.845V548.155L967.986 535.309ZM992.235 547L967.986 533L943.737 547V575L967.986 589L992.235 575V547Z" fill="#9398AF"/>
<path fill-rule="evenodd" clip-rule="evenodd" d="M575.986 150.309L553.737 163.155V188.845L575.986 201.691L598.235 188.845V163.155L575.986 150.309ZM600.235 162L575.986 148L551.737 162V190L575.986 204L600.235 190V162Z" fill="#9398AF"/>
<path fill-rule="evenodd" clip-rule="evenodd" d="M1471.99 150.309L1449.74 163.155V188.845L1471.99 201.691L1494.23 188.845V163.155L1471.99 150.309ZM1496.23 162L1471.99 148L1447.74 162V190L1471.99 204L1496.23 190V162Z" fill="#9398AF"/>
<path fill-rule="evenodd" clip-rule="evenodd" d="M575.986 535.309L553.737 548.155V573.845L575.986 586.691L598.235 573.845V548.155L575.986 535.309ZM600.235 547L575.986 533L551.737 547V575L575.986 589L600.235 575V547Z" fill="#9398AF"/>
<path fill-rule="evenodd" clip-rule="evenodd" d="M1471.99 535.309L1449.74 548.155V573.845L1471.99 586.691L1494.23 573.845V548.155L1471.99 535.309ZM1496.23 547L1471.99 533L1447.74 547V575L1471.99 589L1496.23 575V547Z" fill="#9398AF"/>
<path fill-rule="evenodd" clip-rule="evenodd" d="M519.986 150.309L497.737 163.155V188.845L519.986 201.691L542.235 188.845V163.155L519.986 150.309ZM544.235 162L519.986 148L495.737 162V190L519.986 204L544.235 190V162Z" fill="#9398AF"/>
<path fill-rule="evenodd" clip-rule="evenodd" d="M1415.99 150.309L1393.74 163.155V188.845L1415.99 201.691L1438.23 188.845V163.155L1415.99 150.309ZM1440.23 162L1415.99 148L1391.74 162V190L1415.99 204L1440.23 190V162Z" fill="#9398AF"/>
<path fill-rule="evenodd" clip-rule="evenodd" d="M519.986 535.309L497.737 548.155V573.845L519.986 586.691L542.235 573.845V548.155L519.986 535.309ZM544.235 547L519.986 533L495.737 547V575L519.986 589L544.235 575V547Z" fill="#9398AF"/>
<path fill-rule="evenodd" clip-rule="evenodd" d="M1415.99 535.309L1393.74 548.155V573.845L1415.99 586.691L1438.23 573.845V548.155L1415.99 535.309ZM1440.23 547L1415.99 533L1391.74 547V575L1415.99 589L1440.23 575V547Z" fill="#9398AF"/>
<path fill-rule="evenodd" clip-rule="evenodd" d="M127.986 342.309L105.737 355.155V380.845L127.986 393.691L150.235 380.845V355.155L127.986 342.309ZM152.235 354L127.986 340L103.737 354V382L127.986 396L152.235 382V354Z" fill="#9398AF"/>
<path fill-rule="evenodd" clip-rule="evenodd" d="M1023.99 342.309L1001.74 355.155V380.845L1023.99 393.691L1046.23 380.845V355.155L1023.99 342.309ZM1048.23 354L1023.99 340L999.737 354V382L1023.99 396L1048.23 382V354Z" fill="#9398AF"/>
<path fill-rule="evenodd" clip-rule="evenodd" d="M967.986 342.309L945.737 355.155V380.845L967.986 393.691L990.235 380.845V355.155L967.986 342.309ZM992.235 354L967.986 340L943.737 354V382L967.986 396L992.235 382V354Z" fill="#9398AF"/>
<path fill-rule="evenodd" clip-rule="evenodd" d="M99.986 390.309L77.7373 403.155V428.845L99.986 441.691L122.235 428.845V403.155L99.986 390.309ZM124.235 402L99.986 388L75.7373 402V430L99.986 444L124.235 430V402Z" fill="#9398AF"/>
<path fill-rule="evenodd" clip-rule="evenodd" d="M995.986 390.309L973.737 403.155V428.845L995.986 441.691L1018.23 428.845V403.155L995.986 390.309ZM1020.23 402L995.986 388L971.737 402V430L995.986 444L1020.23 430V402Z" fill="#9398AF"/>
<path fill-rule="evenodd" clip-rule="evenodd" d="M939.986 390.309L917.737 403.155V428.845L939.986 441.691L962.235 428.845V403.155L939.986 390.309ZM964.235 402L939.986 388L915.737 402V430L939.986 444L964.235 430V402Z" fill="#9398AF"/>
<path fill-rule="evenodd" clip-rule="evenodd" d="M575.986 342.309L553.737 355.155V380.845L575.986 393.691L598.235 380.845V355.155L575.986 342.309ZM600.235 354L575.986 340L551.737 354V382L575.986 396L600.235 382V354Z" fill="#9398AF"/>
<path fill-rule="evenodd" clip-rule="evenodd" d="M1471.99 342.309L1449.74 355.155V380.845L1471.99 393.691L1494.23 380.845V355.155L1471.99 342.309ZM1496.23 354L1471.99 340L1447.74 354V382L1471.99 396L1496.23 382V354Z" fill="#9398AF"/>
<path fill-rule="evenodd" clip-rule="evenodd" d="M547.986 390.309L525.737 403.155V428.845L547.986 441.691L570.235 428.845V403.155L547.986 390.309ZM572.235 402L547.986 388L523.737 402V430L547.986 444L572.235 430V402Z" fill="#9398AF"/>
<path fill-rule="evenodd" clip-rule="evenodd" d="M1443.99 390.309L1421.74 403.155V428.845L1443.99 441.691L1466.23 428.845V403.155L1443.99 390.309ZM1468.23 402L1443.99 388L1419.74 402V430L1443.99 444L1468.23 430V402Z" fill="#9398AF"/>
<path fill-rule="evenodd" clip-rule="evenodd" d="M519.986 342.309L497.737 355.155V380.845L519.986 393.691L542.235 380.845V355.155L519.986 342.309ZM544.235 354L519.986 340L495.737 354V382L519.986 396L544.235 382V354Z" fill="#9398AF"/>
<path fill-rule="evenodd" clip-rule="evenodd" d="M1415.99 342.309L1393.74 355.155V380.845L1415.99 393.691L1438.23 380.845V355.155L1415.99 342.309ZM1440.23 354L1415.99 340L1391.74 354V382L1415.99 396L1440.23 382V354Z" fill="#9398AF"/>
<path fill-rule="evenodd" clip-rule="evenodd" d="M491.986 390.309L469.737 403.155V428.845L491.986 441.691L514.235 428.845V403.155L491.986 390.309ZM516.235 402L491.986 388L467.737 402V430L491.986 444L516.235 430V402Z" fill="#9398AF"/>
<path fill-rule="evenodd" clip-rule="evenodd" d="M1387.99 390.309L1365.74 403.155V428.845L1387.99 441.691L1410.23 428.845V403.155L1387.99 390.309ZM1412.23 402L1387.99 388L1363.74 402V430L1387.99 444L1412.23 430V402Z" fill="#9398AF"/>
<path fill-rule="evenodd" clip-rule="evenodd" d="M351.986 150.309L329.737 163.155V188.845L351.986 201.691L374.235 188.845V163.155L351.986 150.309ZM376.235 162L351.986 148L327.737 162V190L351.986 204L376.235 190V162Z" fill="#9398AF"/>
<path fill-rule="evenodd" clip-rule="evenodd" d="M1247.99 150.309L1225.74 163.155V188.845L1247.99 201.691L1270.23 188.845V163.155L1247.99 150.309ZM1272.23 162L1247.99 148L1223.74 162V190L1247.99 204L1272.23 190V162Z" fill="#9398AF"/>
<path fill-rule="evenodd" clip-rule="evenodd" d="M351.986 535.309L329.737 548.155V573.845L351.986 586.691L374.235 573.845V548.155L351.986 535.309ZM376.235 547L351.986 533L327.737 547V575L351.986 589L376.235 575V547Z" fill="#9398AF"/>
<path fill-rule="evenodd" clip-rule="evenodd" d="M1247.99 535.309L1225.74 548.155V573.845L1247.99 586.691L1270.23 573.845V548.155L1247.99 535.309ZM1272.23 547L1247.99 533L1223.74 547V575L1247.99 589L1272.23 575V547Z" fill="#9398AF"/>
<path fill-rule="evenodd" clip-rule="evenodd" d="M799.986 150.309L777.737 163.155V188.845L799.986 201.691L822.235 188.845V163.155L799.986 150.309ZM824.235 162L799.986 148L775.737 162V190L799.986 204L824.235 190V162Z" fill="#9398AF"/>
<path fill-rule="evenodd" clip-rule="evenodd" d="M1695.99 150.309L1673.74 163.155V188.845L1695.99 201.691L1718.23 188.845V163.155L1695.99 150.309ZM1720.23 162L1695.99 148L1671.74 162V190L1695.99 204L1720.23 190V162Z" fill="#9398AF"/>
<path fill-rule="evenodd" clip-rule="evenodd" d="M799.986 535.309L777.737 548.155V573.845L799.986 586.691L822.235 573.845V548.155L799.986 535.309ZM824.235 547L799.986 533L775.737 547V575L799.986 589L824.235 575V547Z" fill="#9398AF"/>
<path fill-rule="evenodd" clip-rule="evenodd" d="M1695.99 535.309L1673.74 548.155V573.845L1695.99 586.691L1718.23 573.845V548.155L1695.99 535.309ZM1720.23 547L1695.99 533L1671.74 547V575L1695.99 589L1720.23 575V547Z" fill="#9398AF"/>
<path fill-rule="evenodd" clip-rule="evenodd" d="M351.986 342.309L329.737 355.155V380.845L351.986 393.691L374.235 380.845V355.155L351.986 342.309ZM376.235 354L351.986 340L327.737 354V382L351.986 396L376.235 382V354Z" fill="#9398AF"/>
<path fill-rule="evenodd" clip-rule="evenodd" d="M1247.99 342.309L1225.74 355.155V380.845L1247.99 393.691L1270.23 380.845V355.155L1247.99 342.309ZM1272.23 354L1247.99 340L1223.74 354V382L1247.99 396L1272.23 382V354Z" fill="#9398AF"/>
<path fill-rule="evenodd" clip-rule="evenodd" d="M323.986 390.309L301.737 403.155V428.845L323.986 441.691L346.235 428.845V403.155L323.986 390.309ZM348.235 402L323.986 388L299.737 402V430L323.986 444L348.235 430V402Z" fill="#9398AF"/>
<path fill-rule="evenodd" clip-rule="evenodd" d="M1219.99 390.309L1197.74 403.155V428.845L1219.99 441.691L1242.23 428.845V403.155L1219.99 390.309ZM1244.23 402L1219.99 388L1195.74 402V430L1219.99 444L1244.23 430V402Z" fill="#9398AF"/>
<path fill-rule="evenodd" clip-rule="evenodd" d="M799.986 342.309L777.737 355.155V380.845L799.986 393.691L822.235 380.845V355.155L799.986 342.309ZM824.235 354L799.986 340L775.737 354V382L799.986 396L824.235 382V354Z" fill="#9398AF"/>
<path fill-rule="evenodd" clip-rule="evenodd" d="M1695.99 342.309L1673.74 355.155V380.845L1695.99 393.691L1718.23 380.845V355.155L1695.99 342.309ZM1720.23 354L1695.99 340L1671.74 354V382L1695.99 396L1720.23 382V354Z" fill="#9398AF"/>
<path fill-rule="evenodd" clip-rule="evenodd" d="M771.986 390.309L749.737 403.155V428.845L771.986 441.691L794.235 428.845V403.155L771.986 390.309ZM796.235 402L771.986 388L747.737 402V430L771.986 444L796.235 430V402Z" fill="#9398AF"/>
<path fill-rule="evenodd" clip-rule="evenodd" d="M1667.99 390.309L1645.74 403.155V428.845L1667.99 441.691L1690.23 428.845V403.155L1667.99 390.309ZM1692.23 402L1667.99 388L1643.74 402V430L1667.99 444L1692.23 430V402Z" fill="#9398AF"/>
<path fill-rule="evenodd" clip-rule="evenodd" d="M295.986 150.309L273.737 163.155V188.845L295.986 201.691L318.235 188.845V163.155L295.986 150.309ZM320.235 162L295.986 148L271.737 162V190L295.986 204L320.235 190V162Z" fill="#9398AF"/>
<path fill-rule="evenodd" clip-rule="evenodd" d="M1191.99 150.309L1169.74 163.155V188.845L1191.99 201.691L1214.23 188.845V163.155L1191.99 150.309ZM1216.23 162L1191.99 148L1167.74 162V190L1191.99 204L1216.23 190V162Z" fill="#9398AF"/>
<path fill-rule="evenodd" clip-rule="evenodd" d="M295.986 535.309L273.737 548.155V573.845L295.986 586.691L318.235 573.845V548.155L295.986 535.309ZM320.235 547L295.986 533L271.737 547V575L295.986 589L320.235 575V547Z" fill="#9398AF"/>
<path fill-rule="evenodd" clip-rule="evenodd" d="M1191.99 535.309L1169.74 548.155V573.845L1191.99 586.691L1214.23 573.845V548.155L1191.99 535.309ZM1216.23 547L1191.99 533L1167.74 547V575L1191.99 589L1216.23 575V547Z" fill="#9398AF"/>
<path fill-rule="evenodd" clip-rule="evenodd" d="M743.986 150.309L721.737 163.155V188.845L743.986 201.691L766.235 188.845V163.155L743.986 150.309ZM768.235 162L743.986 148L719.737 162V190L743.986 204L768.235 190V162Z" fill="#9398AF"/>
<path fill-rule="evenodd" clip-rule="evenodd" d="M1639.99 150.309L1617.74 163.155V188.845L1639.99 201.691L1662.23 188.845V163.155L1639.99 150.309ZM1664.23 162L1639.99 148L1615.74 162V190L1639.99 204L1664.23 190V162Z" fill="#9398AF"/>
<path fill-rule="evenodd" clip-rule="evenodd" d="M743.986 535.309L721.737 548.155V573.845L743.986 586.691L766.235 573.845V548.155L743.986 535.309ZM768.235 547L743.986 533L719.737 547V575L743.986 589L768.235 575V547Z" fill="#9398AF"/>
<path fill-rule="evenodd" clip-rule="evenodd" d="M1639.99 535.309L1617.74 548.155V573.845L1639.99 586.691L1662.23 573.845V548.155L1639.99 535.309ZM1664.23 547L1639.99 533L1615.74 547V575L1639.99 589L1664.23 575V547Z" fill="#9398AF"/>
<path fill-rule="evenodd" clip-rule="evenodd" d="M295.986 342.309L273.737 355.155V380.845L295.986 393.691L318.235 380.845V355.155L295.986 342.309ZM320.235 354L295.986 340L271.737 354V382L295.986 396L320.235 382V354Z" fill="#9398AF"/>
<path fill-rule="evenodd" clip-rule="evenodd" d="M1191.99 342.309L1169.74 355.155V380.845L1191.99 393.691L1214.23 380.845V355.155L1191.99 342.309ZM1216.23 354L1191.99 340L1167.74 354V382L1191.99 396L1216.23 382V354Z" fill="#9398AF"/>
<path fill-rule="evenodd" clip-rule="evenodd" d="M267.986 390.309L245.737 403.155V428.845L267.986 441.691L290.235 428.845V403.155L267.986 390.309ZM292.235 402L267.986 388L243.737 402V430L267.986 444L292.235 430V402Z" fill="#9398AF"/>
<path fill-rule="evenodd" clip-rule="evenodd" d="M1163.99 390.309L1141.74 403.155V428.845L1163.99 441.691L1186.23 428.845V403.155L1163.99 390.309ZM1188.23 402L1163.99 388L1139.74 402V430L1163.99 444L1188.23 430V402Z" fill="#9398AF"/>
<path fill-rule="evenodd" clip-rule="evenodd" d="M743.986 342.309L721.737 355.155V380.845L743.986 393.691L766.235 380.845V355.155L743.986 342.309ZM768.235 354L743.986 340L719.737 354V382L743.986 396L768.235 382V354Z" fill="#9398AF"/>
<path fill-rule="evenodd" clip-rule="evenodd" d="M1639.99 342.309L1617.74 355.155V380.845L1639.99 393.691L1662.23 380.845V355.155L1639.99 342.309ZM1664.23 354L1639.99 340L1615.74 354V382L1639.99 396L1664.23 382V354Z" fill="#9398AF"/>
<path fill-rule="evenodd" clip-rule="evenodd" d="M715.986 390.309L693.737 403.155V428.845L715.986 441.691L738.235 428.845V403.155L715.986 390.309ZM740.235 402L715.986 388L691.737 402V430L715.986 444L740.235 430V402Z" fill="#9398AF"/>
<path fill-rule="evenodd" clip-rule="evenodd" d="M1611.99 390.309L1589.74 403.155V428.845L1611.99 441.691L1634.23 428.845V403.155L1611.99 390.309ZM1636.23 402L1611.99 388L1587.74 402V430L1611.99 444L1636.23 430V402Z" fill="#9398AF"/>
<path fill-rule="evenodd" clip-rule="evenodd" d="M239.986 150.309L217.737 163.155V188.845L239.986 201.691L262.235 188.845V163.155L239.986 150.309ZM264.235 162L239.986 148L215.737 162V190L239.986 204L264.235 190V162Z" fill="#9398AF"/>
<path fill-rule="evenodd" clip-rule="evenodd" d="M1135.99 150.309L1113.74 163.155V188.845L1135.99 201.691L1158.23 188.845V163.155L1135.99 150.309ZM1160.23 162L1135.99 148L1111.74 162V190L1135.99 204L1160.23 190V162Z" fill="#9398AF"/>
<path fill-rule="evenodd" clip-rule="evenodd" d="M239.986 535.309L217.737 548.155V573.845L239.986 586.691L262.235 573.845V548.155L239.986 535.309ZM264.235 547L239.986 533L215.737 547V575L239.986 589L264.235 575V547Z" fill="#9398AF"/>
<path fill-rule="evenodd" clip-rule="evenodd" d="M1135.99 535.309L1113.74 548.155V573.845L1135.99 586.691L1158.23 573.845V548.155L1135.99 535.309ZM1160.23 547L1135.99 533L1111.74 547V575L1135.99 589L1160.23 575V547Z" fill="#9398AF"/>
<path fill-rule="evenodd" clip-rule="evenodd" d="M687.986 150.309L665.737 163.155V188.845L687.986 201.691L710.235 188.845V163.155L687.986 150.309ZM712.235 162L687.986 148L663.737 162V190L687.986 204L712.235 190V162Z" fill="#9398AF"/>
<path fill-rule="evenodd" clip-rule="evenodd" d="M1583.99 150.309L1561.74 163.155V188.845L1583.99 201.691L1606.23 188.845V163.155L1583.99 150.309ZM1608.23 162L1583.99 148L1559.74 162V190L1583.99 204L1608.23 190V162Z" fill="#9398AF"/>
<path fill-rule="evenodd" clip-rule="evenodd" d="M687.986 535.309L665.737 548.155V573.845L687.986 586.691L710.235 573.845V548.155L687.986 535.309ZM712.235 547L687.986 533L663.737 547V575L687.986 589L712.235 575V547Z" fill="#9398AF"/>
<path fill-rule="evenodd" clip-rule="evenodd" d="M1583.99 535.309L1561.74 548.155V573.845L1583.99 586.691L1606.23 573.845V548.155L1583.99 535.309ZM1608.23 547L1583.99 533L1559.74 547V575L1583.99 589L1608.23 575V547Z" fill="#9398AF"/>
<path fill-rule="evenodd" clip-rule="evenodd" d="M239.986 342.309L217.737 355.155V380.845L239.986 393.691L262.235 380.845V355.155L239.986 342.309ZM264.235 354L239.986 340L215.737 354V382L239.986 396L264.235 382V354Z" fill="#9398AF"/>
<path fill-rule="evenodd" clip-rule="evenodd" d="M1135.99 342.309L1113.74 355.155V380.845L1135.99 393.691L1158.23 380.845V355.155L1135.99 342.309ZM1160.23 354L1135.99 340L1111.74 354V382L1135.99 396L1160.23 382V354Z" fill="#9398AF"/>
<path fill-rule="evenodd" clip-rule="evenodd" d="M211.986 390.309L189.737 403.155V428.845L211.986 441.691L234.235 428.845V403.155L211.986 390.309ZM236.235 402L211.986 388L187.737 402V430L211.986 444L236.235 430V402Z" fill="#9398AF"/>
<path fill-rule="evenodd" clip-rule="evenodd" d="M1107.99 390.309L1085.74 403.155V428.845L1107.99 441.691L1130.23 428.845V403.155L1107.99 390.309ZM1132.23 402L1107.99 388L1083.74 402V430L1107.99 444L1132.23 430V402Z" fill="#9398AF"/>
<path fill-rule="evenodd" clip-rule="evenodd" d="M687.986 342.309L665.737 355.155V380.845L687.986 393.691L710.235 380.845V355.155L687.986 342.309ZM712.235 354L687.986 340L663.737 354V382L687.986 396L712.235 382V354Z" fill="#9398AF"/>
<path fill-rule="evenodd" clip-rule="evenodd" d="M1583.99 342.309L1561.74 355.155V380.845L1583.99 393.691L1606.23 380.845V355.155L1583.99 342.309ZM1608.23 354L1583.99 340L1559.74 354V382L1583.99 396L1608.23 382V354Z" fill="#9398AF"/>
<path fill-rule="evenodd" clip-rule="evenodd" d="M659.986 390.309L637.737 403.155V428.845L659.986 441.691L682.235 428.845V403.155L659.986 390.309ZM684.235 402L659.986 388L635.737 402V430L659.986 444L684.235 430V402Z" fill="#9398AF"/>
<path fill-rule="evenodd" clip-rule="evenodd" d="M1555.99 390.309L1533.74 403.155V428.845L1555.99 441.691L1578.23 428.845V403.155L1555.99 390.309ZM1580.23 402L1555.99 388L1531.74 402V430L1555.99 444L1580.23 430V402Z" fill="#9398AF"/>
<path fill-rule="evenodd" clip-rule="evenodd" d="M463.986 150.309L441.737 163.155V188.845L463.986 201.691L486.235 188.845V163.155L463.986 150.309ZM488.235 162L463.986 148L439.737 162V190L463.986 204L488.235 190V162Z" fill="#9398AF"/>
<path fill-rule="evenodd" clip-rule="evenodd" d="M1359.99 150.309L1337.74 163.155V188.845L1359.99 201.691L1382.23 188.845V163.155L1359.99 150.309ZM1384.23 162L1359.99 148L1335.74 162V190L1359.99 204L1384.23 190V162Z" fill="#9398AF"/>
<path fill-rule="evenodd" clip-rule="evenodd" d="M463.986 535.309L441.737 548.155V573.845L463.986 586.691L486.235 573.845V548.155L463.986 535.309ZM488.235 547L463.986 533L439.737 547V575L463.986 589L488.235 575V547Z" fill="#9398AF"/>
<path fill-rule="evenodd" clip-rule="evenodd" d="M1359.99 535.309L1337.74 548.155V573.845L1359.99 586.691L1382.23 573.845V548.155L1359.99 535.309ZM1384.23 547L1359.99 533L1335.74 547V575L1359.99 589L1384.23 575V547Z" fill="#9398AF"/>
<path fill-rule="evenodd" clip-rule="evenodd" d="M911.986 150.309L889.737 163.155V188.845L911.986 201.691L934.235 188.845V163.155L911.986 150.309ZM936.235 162L911.986 148L887.737 162V190L911.986 204L936.235 190V162Z" fill="#9398AF"/>
<path fill-rule="evenodd" clip-rule="evenodd" d="M1807.99 150.309L1785.74 163.155V188.845L1807.99 201.691L1830.23 188.845V163.155L1807.99 150.309ZM1832.23 162L1807.99 148L1783.74 162V190L1807.99 204L1832.23 190V162Z" fill="#9398AF"/>
<path fill-rule="evenodd" clip-rule="evenodd" d="M911.986 535.309L889.737 548.155V573.845L911.986 586.691L934.235 573.845V548.155L911.986 535.309ZM936.235 547L911.986 533L887.737 547V575L911.986 589L936.235 575V547Z" fill="#9398AF"/>
<path fill-rule="evenodd" clip-rule="evenodd" d="M1807.99 535.309L1785.74 548.155V573.845L1807.99 586.691L1830.23 573.845V548.155L1807.99 535.309ZM1832.23 547L1807.99 533L1783.74 547V575L1807.99 589L1832.23 575V547Z" fill="#9398AF"/>
<path fill-rule="evenodd" clip-rule="evenodd" d="M463.986 342.309L441.737 355.155V380.845L463.986 393.691L486.235 380.845V355.155L463.986 342.309ZM488.235 354L463.986 340L439.737 354V382L463.986 396L488.235 382V354Z" fill="#9398AF"/>
<path fill-rule="evenodd" clip-rule="evenodd" d="M1359.99 342.309L1337.74 355.155V380.845L1359.99 393.691L1382.23 380.845V355.155L1359.99 342.309ZM1384.23 354L1359.99 340L1335.74 354V382L1359.99 396L1384.23 382V354Z" fill="#9398AF"/>
<path fill-rule="evenodd" clip-rule="evenodd" d="M435.986 390.309L413.737 403.155V428.845L435.986 441.691L458.235 428.845V403.155L435.986 390.309ZM460.235 402L435.986 388L411.737 402V430L435.986 444L460.235 430V402Z" fill="#9398AF"/>
<path fill-rule="evenodd" clip-rule="evenodd" d="M1331.99 390.309L1309.74 403.155V428.845L1331.99 441.691L1354.23 428.845V403.155L1331.99 390.309ZM1356.23 402L1331.99 388L1307.74 402V430L1331.99 444L1356.23 430V402Z" fill="#9398AF"/>
<path fill-rule="evenodd" clip-rule="evenodd" d="M911.986 342.309L889.737 355.155V380.845L911.986 393.691L934.235 380.845V355.155L911.986 342.309ZM936.235 354L911.986 340L887.737 354V382L911.986 396L936.235 382V354Z" fill="#9398AF"/>
<path fill-rule="evenodd" clip-rule="evenodd" d="M1807.99 342.309L1785.74 355.155V380.845L1807.99 393.691L1830.23 380.845V355.155L1807.99 342.309ZM1832.23 354L1807.99 340L1783.74 354V382L1807.99 396L1832.23 382V354Z" fill="#9398AF"/>
<path fill-rule="evenodd" clip-rule="evenodd" d="M883.986 390.309L861.737 403.155V428.845L883.986 441.691L906.235 428.845V403.155L883.986 390.309ZM908.235 402L883.986 388L859.737 402V430L883.986 444L908.235 430V402Z" fill="#9398AF"/>
<path fill-rule="evenodd" clip-rule="evenodd" d="M1779.99 390.309L1757.74 403.155V428.845L1779.99 441.691L1802.23 428.845V403.155L1779.99 390.309ZM1804.23 402L1779.99 388L1755.74 402V430L1779.99 444L1804.23 430V402Z" fill="#9398AF"/>
<path fill-rule="evenodd" clip-rule="evenodd" d="M183.986 150.309L161.737 163.155V188.845L183.986 201.691L206.235 188.845V163.155L183.986 150.309ZM208.235 162L183.986 148L159.737 162V190L183.986 204L208.235 190V162Z" fill="#9398AF"/>
<path fill-rule="evenodd" clip-rule="evenodd" d="M1079.99 150.309L1057.74 163.155V188.845L1079.99 201.691L1102.23 188.845V163.155L1079.99 150.309ZM1104.23 162L1079.99 148L1055.74 162V190L1079.99 204L1104.23 190V162Z" fill="#9398AF"/>
<path fill-rule="evenodd" clip-rule="evenodd" d="M183.986 535.309L161.737 548.155V573.845L183.986 586.691L206.235 573.845V548.155L183.986 535.309ZM208.235 547L183.986 533L159.737 547V575L183.986 589L208.235 575V547Z" fill="#9398AF"/>
<path fill-rule="evenodd" clip-rule="evenodd" d="M1079.99 535.309L1057.74 548.155V573.845L1079.99 586.691L1102.23 573.845V548.155L1079.99 535.309ZM1104.23 547L1079.99 533L1055.74 547V575L1079.99 589L1104.23 575V547Z" fill="#9398AF"/>
<path fill-rule="evenodd" clip-rule="evenodd" d="M631.986 150.309L609.737 163.155V188.845L631.986 201.691L654.235 188.845V163.155L631.986 150.309ZM656.235 162L631.986 148L607.737 162V190L631.986 204L656.235 190V162Z" fill="#9398AF"/>
<path fill-rule="evenodd" clip-rule="evenodd" d="M1527.99 150.309L1505.74 163.155V188.845L1527.99 201.691L1550.23 188.845V163.155L1527.99 150.309ZM1552.23 162L1527.99 148L1503.74 162V190L1527.99 204L1552.23 190V162Z" fill="#9398AF"/>
<path fill-rule="evenodd" clip-rule="evenodd" d="M631.986 535.309L609.737 548.155V573.845L631.986 586.691L654.235 573.845V548.155L631.986 535.309ZM656.235 547L631.986 533L607.737 547V575L631.986 589L656.235 575V547Z" fill="#9398AF"/>
<path fill-rule="evenodd" clip-rule="evenodd" d="M1527.99 535.309L1505.74 548.155V573.845L1527.99 586.691L1550.23 573.845V548.155L1527.99 535.309ZM1552.23 547L1527.99 533L1503.74 547V575L1527.99 589L1552.23 575V547Z" fill="#9398AF"/>
<path fill-rule="evenodd" clip-rule="evenodd" d="M183.986 342.309L161.737 355.155V380.845L183.986 393.691L206.235 380.845V355.155L183.986 342.309ZM208.235 354L183.986 340L159.737 354V382L183.986 396L208.235 382V354Z" fill="#9398AF"/>
<path fill-rule="evenodd" clip-rule="evenodd" d="M1079.99 342.309L1057.74 355.155V380.845L1079.99 393.691L1102.23 380.845V355.155L1079.99 342.309ZM1104.23 354L1079.99 340L1055.74 354V382L1079.99 396L1104.23 382V354Z" fill="#9398AF"/>
<path fill-rule="evenodd" clip-rule="evenodd" d="M155.986 390.309L133.737 403.155V428.845L155.986 441.691L178.235 428.845V403.155L155.986 390.309ZM180.235 402L155.986 388L131.737 402V430L155.986 444L180.235 430V402Z" fill="#9398AF"/>
<path fill-rule="evenodd" clip-rule="evenodd" d="M1051.99 390.309L1029.74 403.155V428.845L1051.99 441.691L1074.23 428.845V403.155L1051.99 390.309ZM1076.23 402L1051.99 388L1027.74 402V430L1051.99 444L1076.23 430V402Z" fill="#9398AF"/>
<path fill-rule="evenodd" clip-rule="evenodd" d="M631.986 342.309L609.737 355.155V380.845L631.986 393.691L654.235 380.845V355.155L631.986 342.309ZM656.235 354L631.986 340L607.737 354V382L631.986 396L656.235 382V354Z" fill="#9398AF"/>
<path fill-rule="evenodd" clip-rule="evenodd" d="M1527.99 342.309L1505.74 355.155V380.845L1527.99 393.691L1550.23 380.845V355.155L1527.99 342.309ZM1552.23 354L1527.99 340L1503.74 354V382L1527.99 396L1552.23 382V354Z" fill="#9398AF"/>
<path fill-rule="evenodd" clip-rule="evenodd" d="M603.986 390.309L581.737 403.155V428.845L603.986 441.691L626.235 428.845V403.155L603.986 390.309ZM628.235 402L603.986 388L579.737 402V430L603.986 444L628.235 430V402Z" fill="#9398AF"/>
<path fill-rule="evenodd" clip-rule="evenodd" d="M1499.99 390.309L1477.74 403.155V428.845L1499.99 441.691L1522.23 428.845V403.155L1499.99 390.309ZM1524.23 402L1499.99 388L1475.74 402V430L1499.99 444L1524.23 430V402Z" fill="#9398AF"/>
<path fill-rule="evenodd" clip-rule="evenodd" d="M407.986 150.309L385.737 163.155V188.845L407.986 201.691L430.235 188.845V163.155L407.986 150.309ZM432.235 162L407.986 148L383.737 162V190L407.986 204L432.235 190V162Z" fill="#9398AF"/>
<path fill-rule="evenodd" clip-rule="evenodd" d="M1303.99 150.309L1281.74 163.155V188.845L1303.99 201.691L1326.23 188.845V163.155L1303.99 150.309ZM1328.23 162L1303.99 148L1279.74 162V190L1303.99 204L1328.23 190V162Z" fill="#9398AF"/>
<path fill-rule="evenodd" clip-rule="evenodd" d="M407.986 535.309L385.737 548.155V573.845L407.986 586.691L430.235 573.845V548.155L407.986 535.309ZM432.235 547L407.986 533L383.737 547V575L407.986 589L432.235 575V547Z" fill="#9398AF"/>
<path fill-rule="evenodd" clip-rule="evenodd" d="M1303.99 535.309L1281.74 548.155V573.845L1303.99 586.691L1326.23 573.845V548.155L1303.99 535.309ZM1328.23 547L1303.99 533L1279.74 547V575L1303.99 589L1328.23 575V547Z" fill="#9398AF"/>
<path fill-rule="evenodd" clip-rule="evenodd" d="M855.986 150.309L833.737 163.155V188.845L855.986 201.691L878.235 188.845V163.155L855.986 150.309ZM880.235 162L855.986 148L831.737 162V190L855.986 204L880.235 190V162Z" fill="#9398AF"/>
<path fill-rule="evenodd" clip-rule="evenodd" d="M1751.99 150.309L1729.74 163.155V188.845L1751.99 201.691L1774.23 188.845V163.155L1751.99 150.309ZM1776.23 162L1751.99 148L1727.74 162V190L1751.99 204L1776.23 190V162Z" fill="#9398AF"/>
<path fill-rule="evenodd" clip-rule="evenodd" d="M855.986 535.309L833.737 548.155V573.845L855.986 586.691L878.235 573.845V548.155L855.986 535.309ZM880.235 547L855.986 533L831.737 547V575L855.986 589L880.235 575V547Z" fill="#9398AF"/>
<path fill-rule="evenodd" clip-rule="evenodd" d="M1751.99 535.309L1729.74 548.155V573.845L1751.99 586.691L1774.23 573.845V548.155L1751.99 535.309ZM1776.23 547L1751.99 533L1727.74 547V575L1751.99 589L1776.23 575V547Z" fill="#9398AF"/>
<path fill-rule="evenodd" clip-rule="evenodd" d="M407.986 342.309L385.737 355.155V380.845L407.986 393.691L430.235 380.845V355.155L407.986 342.309ZM432.235 354L407.986 340L383.737 354V382L407.986 396L432.235 382V354Z" fill="#9398AF"/>
<path fill-rule="evenodd" clip-rule="evenodd" d="M1303.99 342.309L1281.74 355.155V380.845L1303.99 393.691L1326.23 380.845V355.155L1303.99 342.309ZM1328.23 354L1303.99 340L1279.74 354V382L1303.99 396L1328.23 382V354Z" fill="#9398AF"/>
<path fill-rule="evenodd" clip-rule="evenodd" d="M379.986 390.309L357.737 403.155V428.845L379.986 441.691L402.235 428.845V403.155L379.986 390.309ZM404.235 402L379.986 388L355.737 402V430L379.986 444L404.235 430V402Z" fill="#9398AF"/>
<path fill-rule="evenodd" clip-rule="evenodd" d="M1275.99 390.309L1253.74 403.155V428.845L1275.99 441.691L1298.23 428.845V403.155L1275.99 390.309ZM1300.23 402L1275.99 388L1251.74 402V430L1275.99 444L1300.23 430V402Z" fill="#9398AF"/>
<path fill-rule="evenodd" clip-rule="evenodd" d="M855.986 342.309L833.737 355.155V380.845L855.986 393.691L878.235 380.845V355.155L855.986 342.309ZM880.235 354L855.986 340L831.737 354V382L855.986 396L880.235 382V354Z" fill="#9398AF"/>
<path fill-rule="evenodd" clip-rule="evenodd" d="M1751.99 342.309L1729.74 355.155V380.845L1751.99 393.691L1774.23 380.845V355.155L1751.99 342.309ZM1776.23 354L1751.99 340L1727.74 354V382L1751.99 396L1776.23 382V354Z" fill="#9398AF"/>
<path fill-rule="evenodd" clip-rule="evenodd" d="M827.986 390.309L805.737 403.155V428.845L827.986 441.691L850.235 428.845V403.155L827.986 390.309ZM852.235 402L827.986 388L803.737 402V430L827.986 444L852.235 430V402Z" fill="#9398AF"/>
<path fill-rule="evenodd" clip-rule="evenodd" d="M1723.99 390.309L1701.74 403.155V428.845L1723.99 441.691L1746.23 428.845V403.155L1723.99 390.309ZM1748.23 402L1723.99 388L1699.74 402V430L1723.99 444L1748.23 430V402Z" fill="#9398AF"/>
</g>
<path d="M0.986084 73L1920.99 73V710H0.986084L0.986084 73Z" fill="url(#paint0_linear_309_308)"/>
<path d="M0.986084 776L0.986084 0L1920.99 0V776L0.986084 776Z" fill="url(#paint1_linear_309_308)"/>
<defs>
<linearGradient id="paint0_linear_309_308" x1="0.986084" y1="710" x2="1920.99" y2="710" gradientUnits="userSpaceOnUse">
<stop stop-color="white"/>
<stop offset="0.364583" stop-color="white" stop-opacity="0.5"/>
<stop offset="0.661458" stop-color="white" stop-opacity="0.5"/>
<stop offset="1" stop-color="white"/>
</linearGradient>
<linearGradient id="paint1_linear_309_308" x1="1920.99" y1="776" x2="1920.99" y2="0" gradientUnits="userSpaceOnUse">
<stop stop-color="white"/>
<stop offset="0.364583" stop-color="white" stop-opacity="0.5"/>
<stop offset="0.661458" stop-color="white" stop-opacity="0.5"/>
<stop offset="1" stop-color="white"/>
</linearGradient>
</defs>
</svg>
