<svg width="331" height="353" viewBox="0 0 331 353" fill="none" xmlns="http://www.w3.org/2000/svg">
<g opacity="0.5">
<path d="M330.133 146.89V126.275H308.477C307.148 119.823 304.586 113.688 300.932 108.207L316.29 92.8492L301.716 78.2749L286.358 93.6325C280.877 89.9788 274.742 87.417 268.29 86.0877V64.4324H247.675V86.0877C241.223 87.417 235.088 89.9788 229.607 93.6325L214.249 78.2749L199.675 92.8492L215.033 108.207C211.379 113.688 208.817 119.823 207.488 126.275H185.833V146.89H207.488C208.817 153.342 211.379 159.477 215.033 164.958L199.675 180.316L214.249 194.89L229.607 179.532C235.088 183.186 241.223 185.748 247.675 187.077V208.732H268.29L268.29 187.077C274.742 185.748 280.877 183.186 286.358 179.532L301.716 194.89L316.29 180.316L300.932 164.958C304.586 159.477 307.148 153.342 308.477 146.89L330.133 146.89ZM257.983 167.504C251.867 167.504 245.889 165.69 240.804 162.293C235.719 158.895 231.755 154.066 229.415 148.416C227.074 142.765 226.462 136.548 227.655 130.55C228.848 124.552 231.793 119.042 236.118 114.718C240.442 110.393 245.952 107.448 251.95 106.255C257.948 105.062 264.166 105.674 269.816 108.015C275.466 110.355 280.295 114.318 283.693 119.403C287.09 124.488 288.904 130.467 288.904 136.582C288.896 144.781 285.635 152.641 279.838 158.438C274.041 164.235 266.181 167.496 257.983 167.504Z" fill="#512BD4"/>
<path fill-rule="evenodd" clip-rule="evenodd" d="M195.665 -0.000489141L195.665 52.0513L176 52.0513L176 -0.000488281L195.665 -0.000489141Z" fill="#512BD4"/>
<path fill-rule="evenodd" clip-rule="evenodd" d="M59.3162 41.3686L96.1224 78.1748L82.2178 92.0794L45.4116 55.2732L59.3162 41.3686Z" fill="#512BD4"/>
<path fill-rule="evenodd" clip-rule="evenodd" d="M52.3994 192.868H0.347608V173.204H52.3994V192.868Z" fill="#512BD4"/>
<path fill-rule="evenodd" clip-rule="evenodd" d="M45.5281 302.012L82.3342 265.206L96.2388 279.111L59.4326 315.917L45.5281 302.012Z" fill="#512BD4"/>
<path fill-rule="evenodd" clip-rule="evenodd" d="M176.884 78.175H190.078C180.048 84.9518 174.401 95.8927 171.465 106.273C148.18 109.126 122.556 129.806 113.366 158.45C108.595 173.32 108.469 189.931 115.538 206.745C122.64 223.639 137.449 241.757 164.269 258.598L170.768 262.679V324.792H206.328V262.146L213.519 258.191C222.68 253.152 241.713 240.266 253.987 225.533C266.196 230.564 278.225 228.908 288.499 224.601L281.748 234.728C269.125 253.662 247.721 269.666 234.089 278.249V352.553H143.007V277.868C116.243 259.715 99.0222 239.091 89.9467 217.505C80.1235 194.14 80.2889 170.675 86.9323 149.969C99.8511 109.704 138.152 78.175 176.884 78.175Z" fill="#512BD4"/>
</g>
</svg>
