<svg width="35" height="30" viewBox="0 0 35 30" fill="none" xmlns="http://www.w3.org/2000/svg">
<rect x="6" y="6" width="23" height="23" rx="1" stroke="url(#paint0_linear_6608_67)" stroke-width="2"/>
<mask id="path-2-inside-1_6608_67" fill="white">
<path d="M23.334 5C23.334 3.67392 22.8072 2.40215 21.8695 1.46447C20.9318 0.526784 19.6601 1.00116e-07 18.334 0C17.0079 -1.00116e-07 15.7361 0.526784 14.7985 1.46447C13.8608 2.40215 13.334 3.67392 13.334 5L18.334 5H23.334Z"/>
</mask>
<path d="M23.334 5C23.334 3.67392 22.8072 2.40215 21.8695 1.46447C20.9318 0.526784 19.6601 1.00116e-07 18.334 0C17.0079 -1.00116e-07 15.7361 0.526784 14.7985 1.46447C13.8608 2.40215 13.334 3.67392 13.334 5L18.334 5H23.334Z" fill="url(#paint1_linear_6608_67)" stroke="url(#paint2_linear_6608_67)" stroke-width="2" mask="url(#path-2-inside-1_6608_67)"/>
<mask id="path-3-inside-2_6608_67" fill="white">
<path d="M30 13.3333C31.3261 13.3333 32.5979 13.86 33.5355 14.7977C34.4732 15.7354 35 17.0072 35 18.3333C35 19.6593 34.4732 20.9311 33.5355 21.8688C32.5979 22.8065 31.3261 23.3333 30 23.3333L30 18.3333V13.3333Z"/>
</mask>
<path d="M30 13.3333C31.3261 13.3333 32.5979 13.86 33.5355 14.7977C34.4732 15.7354 35 17.0072 35 18.3333C35 19.6593 34.4732 20.9311 33.5355 21.8688C32.5979 22.8065 31.3261 23.3333 30 23.3333L30 18.3333V13.3333Z" fill="url(#paint3_linear_6608_67)" stroke="url(#paint4_linear_6608_67)" stroke-width="2" mask="url(#path-3-inside-2_6608_67)"/>
<mask id="path-4-inside-3_6608_67" fill="white">
<path d="M5 23.3333C3.67392 23.3333 2.40215 22.8065 1.46447 21.8688C0.526784 20.9311 1.00116e-07 19.6593 0 18.3333C-1.00116e-07 17.0072 0.526784 15.7354 1.46447 14.7977C2.40215 13.86 3.67392 13.3333 5 13.3333L5 18.3333L5 23.3333Z"/>
</mask>
<path d="M5 23.3333C3.67392 23.3333 2.40215 22.8065 1.46447 21.8688C0.526784 20.9311 1.00116e-07 19.6593 0 18.3333C-1.00116e-07 17.0072 0.526784 15.7354 1.46447 14.7977C2.40215 13.86 3.67392 13.3333 5 13.3333L5 18.3333L5 23.3333Z" fill="url(#paint5_linear_6608_67)" stroke="url(#paint6_linear_6608_67)" stroke-width="2" mask="url(#path-4-inside-3_6608_67)"/>
<rect x="11" y="13" width="3.33333" height="3.33333" fill="url(#paint7_linear_6608_67)"/>
<rect x="21" y="13" width="3.33333" height="3.33333" fill="url(#paint8_linear_6608_67)"/>
<path d="M11 21.3333H24.3333" stroke="url(#paint9_linear_6608_67)" stroke-width="2"/>
<defs>
<linearGradient id="paint0_linear_6608_67" x1="5" y1="5" x2="30" y2="5" gradientUnits="userSpaceOnUse">
<stop offset="0.145833" stop-color="#0049D8"/>
<stop offset="1" stop-color="#00A3FF"/>
</linearGradient>
<linearGradient id="paint1_linear_6608_67" x1="13.334" y1="0" x2="23.334" y2="0" gradientUnits="userSpaceOnUse">
<stop offset="0.145833" stop-color="#0049D8"/>
<stop offset="1" stop-color="#00A3FF"/>
</linearGradient>
<linearGradient id="paint2_linear_6608_67" x1="13.334" y1="0" x2="23.334" y2="0" gradientUnits="userSpaceOnUse">
<stop offset="0.145833" stop-color="#0049D8"/>
<stop offset="1" stop-color="#00A3FF"/>
</linearGradient>
<linearGradient id="paint3_linear_6608_67" x1="35" y1="23.3333" x2="35" y2="13.3333" gradientUnits="userSpaceOnUse">
<stop offset="0.145833" stop-color="#0049D8"/>
<stop offset="1" stop-color="#00A3FF"/>
</linearGradient>
<linearGradient id="paint4_linear_6608_67" x1="35" y1="23.3333" x2="35" y2="13.3333" gradientUnits="userSpaceOnUse">
<stop offset="0.145833" stop-color="#0049D8"/>
<stop offset="1" stop-color="#00A3FF"/>
</linearGradient>
<linearGradient id="paint5_linear_6608_67" x1="0" y1="13.3333" x2="0" y2="23.3333" gradientUnits="userSpaceOnUse">
<stop offset="0.145833" stop-color="#0049D8"/>
<stop offset="1" stop-color="#00A3FF"/>
</linearGradient>
<linearGradient id="paint6_linear_6608_67" x1="0" y1="13.3333" x2="0" y2="23.3333" gradientUnits="userSpaceOnUse">
<stop offset="0.145833" stop-color="#0049D8"/>
<stop offset="1" stop-color="#00A3FF"/>
</linearGradient>
<linearGradient id="paint7_linear_6608_67" x1="11" y1="13" x2="14.3333" y2="13" gradientUnits="userSpaceOnUse">
<stop offset="0.145833" stop-color="#0049D8"/>
<stop offset="1" stop-color="#00A3FF"/>
</linearGradient>
<linearGradient id="paint8_linear_6608_67" x1="21" y1="13" x2="24.3333" y2="13" gradientUnits="userSpaceOnUse">
<stop offset="0.145833" stop-color="#0049D8"/>
<stop offset="1" stop-color="#00A3FF"/>
</linearGradient>
<linearGradient id="paint9_linear_6608_67" x1="11" y1="21.3333" x2="24.3333" y2="21.3333" gradientUnits="userSpaceOnUse">
<stop offset="0.145833" stop-color="#0049D8"/>
<stop offset="1" stop-color="#00A3FF"/>
</linearGradient>
</defs>
</svg>
