<svg width="76" height="76" viewBox="0 0 76 76" fill="none" xmlns="http://www.w3.org/2000/svg">
<circle opacity="0.5" cx="38" cy="38" r="32.5" stroke="#0052F2"/>
<circle opacity="0.15" cx="38" cy="38" r="37.6" stroke="#0052F2" stroke-width="0.8"/>
<circle cx="38" cy="38" r="28" fill="#0052F2"/>
<path d="M38 27.6C43.733 27.6 48.4 32.267 48.4 38C48.4 43.733 43.733 48.4 38 48.4C32.267 48.4 27.6 43.733 27.6 38C27.6 32.267 32.267 27.6 38 27.6ZM38 25C30.824 25 25 30.824 25 38C25 45.176 30.824 51 38 51C45.176 51 51 45.176 51 38C51 30.824 45.176 25 38 25ZM40.444 37.402L33.996 43.85L32.163 42.017L38.611 35.569L35.842 32.8L43.187 32.813L43.2 40.158L40.444 37.402Z" fill="white"/>
</svg>
