<svg width="70" height="70" viewBox="0 0 70 70" fill="none" xmlns="http://www.w3.org/2000/svg">
<rect opacity="0.1" x="0.169434" y="0.589081" width="69" height="69" rx="5" fill="url(#paint0_linear_443_3653)"/>
<path fill-rule="evenodd" clip-rule="evenodd" d="M57.8072 30.2712C58.8554 28.0908 59.7578 25.9775 60.2179 24.8526L63.4962 24.7744L62.9793 27.5074C61.8224 27.5167 60.8104 28.364 60.6301 29.5444C60.43 30.8542 61.3296 32.0781 62.6394 32.2781C63.9491 32.4781 65.173 31.5785 65.373 30.2688C65.551 29.1036 64.8587 28.0064 63.7816 27.6375L64.3325 24.7242L64.3305 24.7239C64.8675 24.5588 65.0994 23.8672 64.6946 23.4094L55.0162 12.4654C54.862 12.2911 54.6405 12.1912 54.4078 12.1911L39.3488 12.1869C38.6451 12.1867 38.2739 13.0204 38.7449 13.5432L41.5728 16.6823L39.2754 21.5507H15.9013C14.1064 21.5507 12.6513 23.0058 12.6513 24.8007V48.4399H11.5342C10.6367 48.4399 9.90918 49.1674 9.90918 50.0649V52.6981C9.90918 54.493 11.3642 55.948 13.1591 55.948H53.7102C55.5051 55.948 56.9601 54.493 56.9601 52.6981V50.0649C56.9601 49.1674 56.2326 48.4399 55.3352 48.4399H54.218V30.9009C55.3028 30.939 56.3741 30.8491 57.4019 30.5993L57.6822 30.5312L57.8072 30.2712ZM40.3198 24.3944C40.6304 24.7475 40.9841 25.1001 41.3683 25.4459C42.5463 26.5058 44.0962 27.5756 45.8372 28.4831C47.5288 29.3647 49.4316 30.1086 51.3743 30.5318V48.0337H15.495V24.8007C15.495 24.5763 15.6769 24.3944 15.9013 24.3944H40.3198ZM55.3352 50.0649H11.5342V52.6981C11.5342 53.5955 12.2617 54.3231 13.1591 54.3231H53.7102C54.6076 54.3231 55.3352 53.5955 55.3352 52.6981V50.0649ZM39.1058 51.2528V50.0708H37.4808V51.2528H29.3885V50.0708H27.7635V51.2528C27.7635 52.1502 28.491 52.8778 29.3885 52.8778H37.4808C38.3783 52.8778 39.1058 52.1502 39.1058 51.2528ZM25.1293 29.3417C25.3713 29.5756 25.3778 29.9614 25.1439 30.2034L20.9991 34.4908L18.7669 32.7527C18.5014 32.5459 18.4538 32.1631 18.6605 31.8975C18.8673 31.632 19.2502 31.5843 19.5157 31.7911L20.8839 32.8565L24.2676 29.3563C24.5016 29.1143 24.8873 29.1078 25.1293 29.3417ZM25.1439 38.223C25.3778 37.981 25.3713 37.5952 25.1293 37.3613C24.8873 37.1274 24.5016 37.1339 24.2676 37.3759L20.8839 40.8761L19.5157 39.8107C19.2502 39.6039 18.8673 39.6516 18.6605 39.9171C18.4538 40.1826 18.5014 40.5655 18.7669 40.7723L20.9991 42.5104L25.1439 38.223ZM27.4019 32.1044C27.4019 31.7679 27.6747 31.4951 28.0113 31.4951H47.4533C47.7898 31.4951 48.0626 31.7679 48.0626 32.1044C48.0626 32.441 47.7898 32.7138 47.4533 32.7138H28.0113C27.6747 32.7138 27.4019 32.441 27.4019 32.1044ZM28.0113 39.6521C27.6747 39.6521 27.4019 39.925 27.4019 40.2615C27.4019 40.5981 27.6747 40.8709 28.0113 40.8709H47.4533C47.7898 40.8709 48.0626 40.5981 48.0626 40.2615C48.0626 39.925 47.7898 39.6521 47.4533 39.6521H28.0113ZM64.5699 30.1461C64.4376 31.0123 63.6282 31.6072 62.762 31.4749C61.8959 31.3426 61.301 30.5332 61.4333 29.6671C61.5655 28.8009 62.3749 28.206 63.2411 28.3383C64.1072 28.4706 64.7022 29.28 64.5699 30.1461ZM41.2223 13.5474H54.0176L62.4403 23.1145H50.7895L41.2223 13.5474Z" fill="url(#paint1_linear_443_3653)"/>
<defs>
<linearGradient id="paint0_linear_443_3653" x1="0.169434" y1="0.589081" x2="69.1694" y2="0.589081" gradientUnits="userSpaceOnUse">
<stop offset="0.145833" stop-color="#5300BD"/>
<stop offset="0.878125" stop-color="#AF0DE8"/>
</linearGradient>
<linearGradient id="paint1_linear_443_3653" x1="9.90918" y1="12.1869" x2="65.4009" y2="12.1869" gradientUnits="userSpaceOnUse">
<stop offset="0.145833" stop-color="#5300BD"/>
<stop offset="0.878125" stop-color="#AF0DE8"/>
</linearGradient>
</defs>
</svg>
