<svg width="44" height="44" viewBox="0 0 44 44" fill="none" xmlns="http://www.w3.org/2000/svg">
<path d="M21.6052 0.445312C9.71371 0.445312 0.0388184 10.1193 0.0388184 22.0117C0.0388184 33.9042 9.71371 43.578 21.6052 43.578C33.4967 43.578 43.1715 33.9042 43.1715 22.0117C43.1715 10.1193 33.4967 0.445312 21.6052 0.445312ZM15.0415 31.3884H11.2909V17.3234H15.0415V31.3884ZM13.1662 14.5103C12.1301 14.5103 11.2909 13.6711 11.2909 12.635C11.2909 11.5989 12.1301 10.7596 13.1662 10.7596C14.2023 10.7596 15.0415 11.5989 15.0415 12.635C15.0415 13.6711 14.2023 14.5103 13.1662 14.5103ZM32.8572 31.3884H29.1065V26.7V24.3559C29.1065 22.5508 27.6297 21.074 25.8247 21.074C24.0197 21.074 22.5429 22.5508 22.5429 24.3559V31.3884H18.7922V17.3234H22.5429V19.0262C23.638 17.9741 25.1233 17.3234 26.7623 17.3234C30.1286 17.3234 32.8572 20.0519 32.8572 23.4182V31.3884Z" fill="black"/>
</svg>
