<svg width="17" height="24" viewBox="0 0 17 24" fill="none" xmlns="http://www.w3.org/2000/svg">
<path d="M1.37402 8.86758C1.37402 4.68609 4.75543 1.30469 8.93691 1.30469C13.1184 1.30469 16.4998 4.68609 16.4998 8.86758C16.4998 11.1244 15.2912 13.8804 13.7642 16.4411C12.2498 18.9808 10.4742 21.2445 9.43913 22.497C9.17822 22.8092 8.70642 22.8091 8.44575 22.4964C7.40551 21.2447 5.62694 18.9808 4.11098 16.441C2.58264 13.8804 1.37402 11.1243 1.37402 8.86758ZM5.55731 8.86758C5.55731 10.7333 7.07123 12.2472 8.93691 12.2472C10.8026 12.2472 12.3165 10.7333 12.3165 8.86758C12.3165 7.00189 10.8026 5.48797 8.93691 5.48797C7.07123 5.48797 5.55731 7.00189 5.55731 8.86758Z" stroke="#512BD4"/>
</svg>
