<svg width="22" height="31" viewBox="0 0 22 31" fill="none" xmlns="http://www.w3.org/2000/svg">
<path d="M10.9019 0.902222C5.13474 0.902222 0.470337 5.70411 0.470337 11.6413C0.470337 18.0387 7.05714 26.86 9.76935 30.2198C10.3654 30.9562 11.4533 30.9562 12.0494 30.2198C14.7467 26.86 21.3335 18.0387 21.3335 11.6413C21.3335 5.70411 16.6691 0.902222 10.9019 0.902222ZM10.9019 15.4767C8.84541 15.4767 7.17635 13.7584 7.17635 11.6413C7.17635 9.52415 8.84541 7.8059 10.9019 7.8059C12.9584 7.8059 14.6275 9.52415 14.6275 11.6413C14.6275 13.7584 12.9584 15.4767 10.9019 15.4767Z" fill="url(#paint0_linear_1201_450)"/>
<defs>
<linearGradient id="paint0_linear_1201_450" x1="0.470337" y1="15.8372" x2="21.3335" y2="15.8372" gradientUnits="userSpaceOnUse">
<stop stop-color="#FF3087"/>
<stop offset="1" stop-color="#FFC42E"/>
</linearGradient>
</defs>
</svg>
