<svg width="22" height="31" viewBox="0 0 22 31" fill="none" xmlns="http://www.w3.org/2000/svg">
<path d="M10.8858 0.902222C5.11863 0.902222 0.454224 5.70411 0.454224 11.6413C0.454224 18.0387 7.04102 26.86 9.75323 30.2198C10.3493 30.9562 11.4372 30.9562 12.0333 30.2198C14.7306 26.86 21.3174 18.0387 21.3174 11.6413C21.3174 5.70411 16.653 0.902222 10.8858 0.902222ZM10.8858 15.4767C8.82929 15.4767 7.16024 13.7584 7.16024 11.6413C7.16024 9.52415 8.82929 7.8059 10.8858 7.8059C12.9423 7.8059 14.6114 9.52415 14.6114 11.6413C14.6114 13.7584 12.9423 15.4767 10.8858 15.4767Z" fill="url(#paint0_linear_1211_577)"/>
<defs>
<linearGradient id="paint0_linear_1211_577" x1="0.454224" y1="15.8372" x2="21.3174" y2="15.8372" gradientUnits="userSpaceOnUse">
<stop offset="0.154706" stop-color="#00A3FF"/>
<stop offset="1" stop-color="#00FF38"/>
</linearGradient>
</defs>
</svg>
