<svg width="22" height="31" viewBox="0 0 22 31" fill="none" xmlns="http://www.w3.org/2000/svg">
<path d="M11.3001 0.461426C5.53294 0.461426 0.86853 5.26332 0.86853 11.2005C0.86853 17.5979 7.45533 26.4193 10.1675 29.779C10.7636 30.5154 11.8515 30.5154 12.4476 29.779C15.1449 26.4193 21.7317 17.5979 21.7317 11.2005C21.7317 5.26332 17.0673 0.461426 11.3001 0.461426ZM11.3001 15.0359C9.2436 15.0359 7.57455 13.3176 7.57455 11.2005C7.57455 9.08335 9.2436 7.3651 11.3001 7.3651C13.3566 7.3651 15.0257 9.08335 15.0257 11.2005C15.0257 13.3176 13.3566 15.0359 11.3001 15.0359Z" fill="url(#paint0_linear_516_182)"/>
<defs>
<linearGradient id="paint0_linear_516_182" x1="0.86853" y1="0.461426" x2="21.7317" y2="0.461426" gradientUnits="userSpaceOnUse">
<stop offset="0.145833" stop-color="#0049D8"/>
<stop offset="1" stop-color="#00A3FF"/>
</linearGradient>
</defs>
</svg>
