<svg width="55" height="75" viewBox="0 0 55 75" fill="none" xmlns="http://www.w3.org/2000/svg">
<path d="M27.3793 0.0507812C12.4916 0.0507812 0.450684 12.0917 0.450684 26.9794C0.450684 43.0211 17.4542 65.141 24.4556 73.5658C25.9944 75.4124 28.8026 75.4124 30.3414 73.5658C37.3044 65.141 54.3079 43.0211 54.3079 26.9794C54.3079 12.0917 42.2669 0.0507812 27.3793 0.0507812ZM27.3793 36.5967C22.0705 36.5967 17.7619 32.2882 17.7619 26.9794C17.7619 21.6706 22.0705 17.362 27.3793 17.362C32.6881 17.362 36.9966 21.6706 36.9966 26.9794C36.9966 32.2882 32.6881 36.5967 27.3793 36.5967Z" fill="url(#paint0_linear_1520_78)"/>
<defs>
<linearGradient id="paint0_linear_1520_78" x1="0.450684" y1="0.0507812" x2="54.3079" y2="0.0507813" gradientUnits="userSpaceOnUse">
<stop offset="0.166667" stop-color="#EB00FF"/>
<stop offset="0.84375" stop-color="#5300BD"/>
</linearGradient>
</defs>
</svg>
