<svg width="25" height="33" viewBox="0 0 25 33" fill="none" xmlns="http://www.w3.org/2000/svg">
<path d="M12.4019 0.164062C5.87667 0.164062 0.599121 5.44161 0.599121 11.9669C0.599121 18.998 8.05176 28.6932 11.1205 32.3858C11.7949 33.1951 13.0258 33.1951 13.7003 32.3858C16.7521 28.6932 24.2048 18.998 24.2048 11.9669C24.2048 5.44161 18.9272 0.164062 12.4019 0.164062ZM12.4019 16.1822C10.0751 16.1822 8.18665 14.2937 8.18665 11.9669C8.18665 9.64004 10.0751 7.75159 12.4019 7.75159C14.7288 7.75159 16.6172 9.64004 16.6172 11.9669C16.6172 14.2937 14.7288 16.1822 12.4019 16.1822Z" fill="black"/>
</svg>
