<svg width="51" height="51" viewBox="0 0 51 51" fill="none" xmlns="http://www.w3.org/2000/svg">
<rect x="0.118286" y="0.579773" width="50" height="50" fill="white"/>
<path d="M17.8268 24.3998C17.8268 25.0719 17.5708 25.7165 17.115 26.1917C16.6592 26.667 16.041 26.934 15.3964 26.934C14.7518 26.934 14.1336 26.667 13.6778 26.1917C13.222 25.7165 12.9659 25.0719 12.9659 24.3998C12.9659 23.7276 13.222 23.0831 13.6778 22.6078C14.1336 22.1325 14.7518 21.8655 15.3964 21.8655C16.041 21.8655 16.6592 22.1325 17.115 22.6078C17.5708 23.0831 17.8268 23.7276 17.8268 24.3998ZM27.5487 24.3998C27.5487 25.0719 27.2926 25.7165 26.8368 26.1917C26.381 26.667 25.7628 26.934 25.1182 26.934C24.4736 26.934 23.8554 26.667 23.3996 26.1917C22.9438 25.7165 22.6878 25.0719 22.6878 24.3998C22.6878 23.7276 22.9438 23.0831 23.3996 22.6078C23.8554 22.1325 24.4736 21.8655 25.1182 21.8655C25.7628 21.8655 26.381 22.1325 26.8368 22.6078C27.2926 23.0831 27.5487 23.7276 27.5487 24.3998ZM34.84 26.934C35.4846 26.934 36.1028 26.667 36.5586 26.1917C37.0144 25.7165 37.2705 25.0719 37.2705 24.3998C37.2705 23.7276 37.0144 23.0831 36.5586 22.6078C36.1028 22.1325 35.4846 21.8655 34.84 21.8655C34.1954 21.8655 33.5772 22.1325 33.1214 22.6078C32.6656 23.0831 32.4096 23.7276 32.4096 24.3998C32.4096 25.0719 32.6656 25.7165 33.1214 26.1917C33.5772 26.667 34.1954 26.934 34.84 26.934Z" fill="url(#paint0_linear_1196_379)"/>
<path d="M12.1792 42.5451L12.2235 42.5358C16.2816 41.6965 18.7607 40.589 19.9138 39.9809C21.6115 40.453 23.3613 40.6909 25.1183 40.6884C34.9152 40.6884 42.8583 33.442 42.8583 24.5031C42.8583 15.5642 34.9152 8.31787 25.1183 8.31787C15.3214 8.31787 7.3783 15.5642 7.3783 24.5031C7.3783 28.5726 9.0259 32.2952 11.7468 35.1392C11.5564 36.966 11.1666 38.7642 10.5848 40.4988L10.5781 40.5242C10.4128 41.021 10.2324 41.5122 10.0371 41.9971C9.86189 42.4271 10.2012 42.9081 10.6425 42.8341C11.1562 42.7464 11.6685 42.6501 12.1792 42.5451ZM13.9532 35.3588C13.9842 35.0203 13.9433 34.6788 13.8333 34.3587C13.7233 34.0386 13.5469 33.7477 13.3168 33.5068C10.9662 31.0466 9.59579 27.8974 9.59579 24.5031C9.59579 17.1227 16.2572 10.6301 25.1183 10.6301C33.9794 10.6301 40.6408 17.1227 40.6408 24.5031C40.6408 31.8859 33.9794 38.3762 25.1183 38.3762C23.5552 38.3786 21.9985 38.1671 20.4881 37.7473C19.9603 37.5998 19.3989 37.6608 18.9115 37.9184C18.0533 38.3716 16.1618 39.2363 13.0706 39.9832C13.5019 38.4736 13.7973 36.9255 13.9532 35.3588Z" fill="url(#paint1_linear_1196_379)"/>
<defs>
<linearGradient id="paint0_linear_1196_379" x1="12.9659" y1="24.3998" x2="37.2705" y2="24.3998" gradientUnits="userSpaceOnUse">
<stop stop-color="#FF3087"/>
<stop offset="1" stop-color="#FFC42E"/>
</linearGradient>
<linearGradient id="paint1_linear_1196_379" x1="7.3783" y1="25.5798" x2="42.8583" y2="25.5798" gradientUnits="userSpaceOnUse">
<stop stop-color="#FF3087"/>
<stop offset="1" stop-color="#FFC42E"/>
</linearGradient>
</defs>
</svg>
