<svg width="51" height="51" viewBox="0 0 51 51" fill="none" xmlns="http://www.w3.org/2000/svg">
<rect x="0.0335693" y="0.579773" width="50" height="50" fill="white"/>
<path d="M17.7421 24.3998C17.7421 25.0719 17.4861 25.7165 17.0303 26.1917C16.5745 26.667 15.9563 26.934 15.3117 26.934C14.6671 26.934 14.0489 26.667 13.5931 26.1917C13.1373 25.7165 12.8812 25.0719 12.8812 24.3998C12.8812 23.7276 13.1373 23.0831 13.5931 22.6078C14.0489 22.1325 14.6671 21.8655 15.3117 21.8655C15.9563 21.8655 16.5745 22.1325 17.0303 22.6078C17.4861 23.0831 17.7421 23.7276 17.7421 24.3998ZM27.4639 24.3998C27.4639 25.0719 27.2079 25.7165 26.7521 26.1917C26.2963 26.667 25.6781 26.934 25.0335 26.934C24.3889 26.934 23.7707 26.667 23.3149 26.1917C22.8591 25.7165 22.603 25.0719 22.603 24.3998C22.603 23.7276 22.8591 23.0831 23.3149 22.6078C23.7707 22.1325 24.3889 21.8655 25.0335 21.8655C25.6781 21.8655 26.2963 22.1325 26.7521 22.6078C27.2079 23.0831 27.4639 23.7276 27.4639 24.3998ZM34.7553 26.934C35.3999 26.934 36.0181 26.667 36.4739 26.1917C36.9297 25.7165 37.1858 25.0719 37.1858 24.3998C37.1858 23.7276 36.9297 23.0831 36.4739 22.6078C36.0181 22.1325 35.3999 21.8655 34.7553 21.8655C34.1107 21.8655 33.4925 22.1325 33.0367 22.6078C32.5809 23.0831 32.3249 23.7276 32.3249 24.3998C32.3249 25.0719 32.5809 25.7165 33.0367 26.1917C33.4925 26.667 34.1107 26.934 34.7553 26.934Z" fill="url(#paint0_linear_1094_21)"/>
<path d="M12.0945 42.5451L12.1388 42.5358C16.1968 41.6965 18.676 40.589 19.8291 39.9809C21.5268 40.453 23.2765 40.6909 25.0336 40.6884C34.8305 40.6884 42.7736 33.442 42.7736 24.5031C42.7736 15.5642 34.8305 8.31787 25.0336 8.31787C15.2367 8.31787 7.29358 15.5642 7.29358 24.5031C7.29358 28.5726 8.94118 32.2952 11.6621 35.1392C11.4717 36.966 11.0818 38.7642 10.5001 40.4988L10.4934 40.5242C10.3281 41.021 10.1477 41.5122 9.95236 41.9971C9.77718 42.4271 10.1165 42.9081 10.5577 42.8341C11.0714 42.7464 11.5838 42.6501 12.0945 42.5451ZM13.8685 35.3588C13.8995 35.0203 13.8586 34.6788 13.7486 34.3587C13.6386 34.0386 13.4622 33.7477 13.232 33.5068C10.8815 31.0466 9.51108 27.8974 9.51108 24.5031C9.51108 17.1227 16.1724 10.6301 25.0336 10.6301C33.8947 10.6301 40.5561 17.1227 40.5561 24.5031C40.5561 31.8859 33.8947 38.3762 25.0336 38.3762C23.4705 38.3786 21.9138 38.1671 20.4034 37.7473C19.8756 37.5998 19.3142 37.6608 18.8268 37.9184C17.9686 38.3716 16.0771 39.2363 12.9859 39.9832C13.4171 38.4736 13.7126 36.9255 13.8685 35.3588Z" fill="url(#paint1_linear_1094_21)"/>
<defs>
<linearGradient id="paint0_linear_1094_21" x1="12.8812" y1="21.8655" x2="37.1858" y2="21.8655" gradientUnits="userSpaceOnUse">
<stop offset="0.145833" stop-color="#0049D8"/>
<stop offset="1" stop-color="#00A3FF"/>
</linearGradient>
<linearGradient id="paint1_linear_1094_21" x1="7.29358" y1="8.31787" x2="42.7736" y2="8.31787" gradientUnits="userSpaceOnUse">
<stop offset="0.145833" stop-color="#0049D8"/>
<stop offset="1" stop-color="#00A3FF"/>
</linearGradient>
</defs>
</svg>
