<svg width="51" height="51" viewBox="0 0 51 51" fill="none" xmlns="http://www.w3.org/2000/svg">
<rect x="0.203247" y="0.579773" width="50" height="50" fill="white"/>
<path d="M17.9118 24.3998C17.9118 25.0719 17.6557 25.7165 17.1999 26.1917C16.7441 26.667 16.126 26.934 15.4814 26.934C14.8368 26.934 14.2186 26.667 13.7628 26.1917C13.307 25.7165 13.0509 25.0719 13.0509 24.3998C13.0509 23.7276 13.307 23.0831 13.7628 22.6078C14.2186 22.1325 14.8368 21.8655 15.4814 21.8655C16.126 21.8655 16.7441 22.1325 17.1999 22.6078C17.6557 23.0831 17.9118 23.7276 17.9118 24.3998ZM27.6336 24.3998C27.6336 25.0719 27.3776 25.7165 26.9218 26.1917C26.466 26.667 25.8478 26.934 25.2032 26.934C24.5586 26.934 23.9404 26.667 23.4846 26.1917C23.0288 25.7165 22.7727 25.0719 22.7727 24.3998C22.7727 23.7276 23.0288 23.0831 23.4846 22.6078C23.9404 22.1325 24.5586 21.8655 25.2032 21.8655C25.8478 21.8655 26.466 22.1325 26.9218 22.6078C27.3776 23.0831 27.6336 23.7276 27.6336 24.3998ZM34.925 26.934C35.5696 26.934 36.1878 26.667 36.6436 26.1917C37.0994 25.7165 37.3554 25.0719 37.3554 24.3998C37.3554 23.7276 37.0994 23.0831 36.6436 22.6078C36.1878 22.1325 35.5696 21.8655 34.925 21.8655C34.2804 21.8655 33.6622 22.1325 33.2064 22.6078C32.7506 23.0831 32.4945 23.7276 32.4945 24.3998C32.4945 25.0719 32.7506 25.7165 33.2064 26.1917C33.6622 26.667 34.2804 26.934 34.925 26.934Z" fill="url(#paint0_linear_1211_570)"/>
<path d="M12.2641 42.5451L12.3085 42.5358C16.3665 41.6965 18.8457 40.589 19.9988 39.9809C21.6965 40.453 23.4462 40.6909 25.2032 40.6884C35.0002 40.6884 42.9432 33.442 42.9432 24.5031C42.9432 15.5642 35.0002 8.31787 25.2032 8.31787C15.4063 8.31787 7.46326 15.5642 7.46326 24.5031C7.46326 28.5726 9.11086 32.2952 11.8317 35.1392C11.6414 36.966 11.2515 38.7642 10.6698 40.4988L10.6631 40.5242C10.4978 41.021 10.3173 41.5122 10.122 41.9971C9.94685 42.4271 10.2861 42.9081 10.7274 42.8341C11.2411 42.7464 11.7534 42.6501 12.2641 42.5451ZM14.0381 35.3588C14.0692 35.0203 14.0283 34.6788 13.9183 34.3587C13.8083 34.0386 13.6319 33.7477 13.4017 33.5068C11.0512 31.0466 9.68076 27.8974 9.68076 24.5031C9.68076 17.1227 16.3421 10.6301 25.2032 10.6301C34.0644 10.6301 40.7257 17.1227 40.7257 24.5031C40.7257 31.8859 34.0644 38.3762 25.2032 38.3762C23.6401 38.3786 22.0835 38.1671 20.5731 37.7473C20.0453 37.5998 19.4838 37.6608 18.9965 37.9184C18.1383 38.3716 16.2468 39.2363 13.1556 39.9832C13.5868 38.4736 13.8823 36.9255 14.0381 35.3588Z" fill="url(#paint1_linear_1211_570)"/>
<defs>
<linearGradient id="paint0_linear_1211_570" x1="13.0509" y1="24.3998" x2="37.3554" y2="24.3998" gradientUnits="userSpaceOnUse">
<stop offset="0.154706" stop-color="#00A3FF"/>
<stop offset="1" stop-color="#00FF38"/>
</linearGradient>
<linearGradient id="paint1_linear_1211_570" x1="7.46326" y1="25.5798" x2="42.9432" y2="25.5798" gradientUnits="userSpaceOnUse">
<stop offset="0.154706" stop-color="#00A3FF"/>
<stop offset="1" stop-color="#00FF38"/>
</linearGradient>
</defs>
</svg>
