<svg width="75" height="76" viewBox="0 0 75 76" fill="none" xmlns="http://www.w3.org/2000/svg">
<path d="M37.777 0.566406C27.9376 0.566406 18.5013 3.97021 11.5438 10.029C4.58639 16.0879 0.677734 24.3054 0.677734 32.8738C0.677734 41.4423 4.58639 49.6598 11.5438 55.7186C18.5013 61.7775 27.9376 65.1813 37.777 65.1813V74.1555C37.777 75.5232 39.4761 76.3977 40.8364 75.712C48.8307 71.6817 69.967 58.3872 74.1113 39.3732C74.1334 39.2658 74.1549 39.1583 74.1757 39.0507C74.3556 38.1823 74.529 37.3132 74.6347 36.4215C74.7898 35.2437 74.8705 34.0593 74.8762 32.8738C74.8762 24.3054 70.9675 16.0879 64.0101 10.029C57.0526 3.97021 47.6163 0.566406 37.777 0.566406Z" fill="url(#paint0_linear_1520_84)"/>
<circle cx="18.4223" cy="33.5268" r="4.73382" fill="white"/>
<circle cx="37.7768" cy="33.5268" r="4.73382" fill="white"/>
<circle cx="57.1328" cy="33.5268" r="4.73382" fill="white"/>
<defs>
<linearGradient id="paint0_linear_1520_84" x1="0.677734" y1="0.566406" x2="74.8762" y2="0.566406" gradientUnits="userSpaceOnUse">
<stop offset="0.166667" stop-color="#EB00FF"/>
<stop offset="0.84375" stop-color="#5300BD"/>
</linearGradient>
</defs>
</svg>
