<svg width="76" height="76" viewBox="0 0 76 76" fill="none" xmlns="http://www.w3.org/2000/svg">
<circle opacity="0.5" cx="38" cy="38" r="32.5" stroke="#E4007B"/>
<circle opacity="0.15" cx="38" cy="38" r="37.6" stroke="#E4007B" stroke-width="0.8"/>
<circle cx="38" cy="38" r="28" fill="#E4007B"/>
<path d="M31.5556 43.6H41.2778V46.4H31.5556V43.6ZM31.5556 38H45.4444V40.8H31.5556V38ZM31.5556 32.4H45.4444V35.2H31.5556V32.4ZM48.2222 26.8H42.4167C41.8333 25.176 40.3056 24 38.5 24C36.6944 24 35.1667 25.176 34.5833 26.8H28.7778C28.5833 26.8 28.4028 26.814 28.2222 26.856C27.6806 26.968 27.1944 27.248 26.8194 27.626C26.5694 27.878 26.3611 28.186 26.2222 28.522C26.0833 28.844 26 29.208 26 29.6V49.2C26 49.578 26.0833 49.956 26.2222 50.292C26.3611 50.628 26.5694 50.922 26.8194 51.188C27.1944 51.566 27.6806 51.846 28.2222 51.958C28.4028 51.986 28.5833 52 28.7778 52H48.2222C49.75 52 51 50.74 51 49.2V29.6C51 28.06 49.75 26.8 48.2222 26.8ZM38.5 26.45C39.0694 26.45 39.5417 26.926 39.5417 27.5C39.5417 28.074 39.0694 28.55 38.5 28.55C37.9306 28.55 37.4583 28.074 37.4583 27.5C37.4583 26.926 37.9306 26.45 38.5 26.45ZM48.2222 49.2H28.7778V29.6H48.2222V49.2Z" fill="white"/>
</svg>
