<svg width="38" height="30" viewBox="0 0 38 30" fill="none" xmlns="http://www.w3.org/2000/svg">
<path d="M0 25.1401C0 27.3492 1.79086 29.1401 4 29.1401C6.20914 29.1401 8 27.3492 8 25.1401C8 22.9309 6.20914 21.1401 4 21.1401C1.79086 21.1401 0 22.9309 0 25.1401ZM4 25.1401L4.53033 25.6704L16.5305 13.6702L16.0002 13.1399L15.4699 12.6096L3.46967 24.6097L4 25.1401Z" fill="url(#paint0_linear_6608_250)"/>
<path d="M15.2573 9.91604C13.0663 10.1988 11.5194 12.2042 11.8022 14.3951C12.0849 16.5861 14.0903 18.133 16.2812 17.8502C18.4722 17.5675 20.0191 15.5621 19.7364 13.3712C19.4536 11.1802 17.4482 9.63328 15.2573 9.91604ZM15.7693 13.8831L15.2393 14.4138L21.9615 21.1268L22.4915 20.5961L23.0215 20.0654L16.2992 13.3524L15.7693 13.8831Z" fill="url(#paint1_linear_6608_250)"/>
<path d="M19.6086 21.386C19.7487 23.5907 21.6495 25.2644 23.8542 25.1243C26.0589 24.9842 27.7326 23.0833 27.5925 20.8787C27.4524 18.674 25.5516 17.0003 23.3469 17.1404C21.1422 17.2805 19.4685 19.1813 19.6086 21.386ZM29.7368 11.2537C29.8769 13.4584 31.7778 15.132 33.9824 14.9919C36.1871 14.8518 37.8608 12.951 37.7207 10.7463C37.5806 8.54161 35.6798 6.86793 33.4751 7.00803C31.2704 7.14814 29.5967 9.04897 29.7368 11.2537ZM23.6006 21.1323L24.131 21.6625L34.2592 11.5302L33.7288 11L33.1983 10.4698L23.0701 20.6021L23.6006 21.1323Z" fill="url(#paint2_linear_6608_250)"/>
<path d="M23 0L24.3505 4.0145L28 5.5L24.3505 6.9855L23 11L21.6495 6.9855L18 5.5L21.6495 4.0145L23 0Z" fill="url(#paint3_linear_6608_250)"/>
<path d="M6 8L6.81027 10.5547L9 11.5L6.81027 12.4453L6 15L5.18973 12.4453L3 11.5L5.18973 10.5547L6 8Z" fill="url(#paint4_linear_6608_250)"/>
<defs>
<linearGradient id="paint0_linear_6608_250" x1="4" y1="13.1399" x2="16.0002" y2="13.1399" gradientUnits="userSpaceOnUse">
<stop offset="0.145833" stop-color="#0049D8"/>
<stop offset="1" stop-color="#00A3FF"/>
</linearGradient>
<linearGradient id="paint1_linear_6608_250" x1="21.5293" y1="13.1398" x2="22.4916" y2="20.596" gradientUnits="userSpaceOnUse">
<stop offset="0.145833" stop-color="#0049D8"/>
<stop offset="1" stop-color="#00A3FF"/>
</linearGradient>
<linearGradient id="paint2_linear_6608_250" x1="23" y1="11.6818" x2="33.7288" y2="11" gradientUnits="userSpaceOnUse">
<stop offset="0.145833" stop-color="#0049D8"/>
<stop offset="1" stop-color="#00A3FF"/>
</linearGradient>
<linearGradient id="paint3_linear_6608_250" x1="18" y1="0" x2="28" y2="0" gradientUnits="userSpaceOnUse">
<stop offset="0.145833" stop-color="#0049D8"/>
<stop offset="1" stop-color="#00A3FF"/>
</linearGradient>
<linearGradient id="paint4_linear_6608_250" x1="3" y1="8" x2="9" y2="8" gradientUnits="userSpaceOnUse">
<stop offset="0.145833" stop-color="#0049D8"/>
<stop offset="1" stop-color="#00A3FF"/>
</linearGradient>
</defs>
</svg>
