<svg width="317" height="287" viewBox="0 0 317 287" fill="none" xmlns="http://www.w3.org/2000/svg">
<g opacity="0.5">
<path d="M124.233 174.773H69.1422C61.8367 174.773 54.8304 177.675 49.6646 182.841C44.4988 188.007 41.5967 195.013 41.5967 202.318V220.682H59.9604V202.318C59.9604 199.883 60.9277 197.548 62.6497 195.826C64.3716 194.104 66.707 193.137 69.1422 193.137H124.233C126.668 193.137 129.004 194.104 130.726 195.826C132.448 197.548 133.415 199.883 133.415 202.318V220.682H151.779V202.318C151.779 195.013 148.877 188.007 143.711 182.841C138.545 177.675 131.539 174.773 124.233 174.773ZM96.6878 165.591C103.952 165.591 111.053 163.437 117.092 159.401C123.132 155.366 127.84 149.63 130.619 142.919C133.399 136.208 134.127 128.823 132.709 121.698C131.292 114.574 127.794 108.03 122.658 102.893C117.522 97.757 110.977 94.2591 103.853 92.842C96.7285 91.4248 89.3439 92.1521 82.6328 94.932C75.9217 97.7118 70.1857 102.419 66.1501 108.459C62.1144 114.499 59.9604 121.6 59.9604 128.864C59.9604 138.604 63.8299 147.946 70.7176 154.834C77.6053 161.722 86.9471 165.591 96.6878 165.591ZM96.6878 110.5C100.32 110.5 103.87 111.577 106.89 113.595C109.91 115.613 112.264 118.481 113.654 121.836C115.044 125.192 115.407 128.884 114.699 132.446C113.99 136.008 112.241 139.281 109.673 141.849C107.105 144.417 103.833 146.166 100.27 146.874C96.7081 147.583 93.0158 147.219 89.6603 145.829C86.3048 144.44 83.4367 142.086 81.4189 139.066C79.4011 136.046 78.3241 132.496 78.3241 128.864C78.3241 123.993 80.2588 119.322 83.7027 115.879C87.1465 112.435 91.8174 110.5 96.6878 110.5Z" fill="#512BD4"/>
<path d="M281.822 167.246V264.778H21.7363V48.0405H151.779V26.3667H21.7363C15.988 26.3667 10.4752 28.6502 6.4106 32.7148C2.34598 36.7794 0.0625 42.2922 0.0625 48.0405V264.778C0.0625 270.526 2.34598 276.039 6.4106 280.104C10.4752 284.168 15.988 286.452 21.7363 286.452H281.822C287.57 286.452 293.083 284.168 297.147 280.104C301.212 276.039 303.495 270.526 303.495 264.778V167.246H281.822Z" fill="#512BD4"/>
<path d="M186.375 184.708L267.591 184.708V206.382L186.375 206.382V184.708ZM208.049 228.056L267.591 228.056V249.729L208.049 249.729V228.056ZM316.418 87.1761V65.5023H293.65C292.252 58.7186 289.558 52.2684 285.717 46.5052L301.864 30.3583L286.541 15.0349L270.394 31.1819C264.63 27.3403 258.18 24.6469 251.397 23.2493V0.480957L229.723 0.480957V23.2493C222.939 24.6469 216.489 27.3403 210.726 31.1819L194.579 15.0349L179.255 30.3583L195.402 46.5052C191.561 52.2684 188.867 58.7186 187.47 65.5023H164.701V87.1761H187.47C188.867 93.9597 191.561 100.41 195.402 106.173L179.255 122.32L194.579 137.643L210.726 121.496C216.489 125.338 222.939 128.031 229.723 129.429V152.197H251.397V129.429C258.18 128.031 264.63 125.338 270.394 121.496L286.541 137.643L301.864 122.32L285.717 106.173C289.558 100.41 292.252 93.9597 293.65 87.1761H316.418ZM240.56 108.85C234.13 108.85 227.844 106.943 222.498 103.371C217.151 99.7985 212.984 94.721 210.524 88.7805C208.063 82.8399 207.419 76.3031 208.674 69.9967C209.928 63.6902 213.024 57.8974 217.571 53.3507C222.118 48.804 227.911 45.7076 234.217 44.4532C240.524 43.1988 247.06 43.8426 253.001 46.3032C258.941 48.7639 264.019 52.9309 267.591 58.2772C271.164 63.6236 273.07 69.9092 273.07 76.3392C273.062 84.9589 269.634 93.2231 263.539 99.3182C257.444 105.413 249.179 108.841 240.56 108.85Z" fill="#512BD4"/>
</g>
</svg>
