<svg width="69" height="69" viewBox="0 0 69 69" fill="none" xmlns="http://www.w3.org/2000/svg">
<rect x="0.261719" y="0.496094" width="68.042" height="68.042" rx="5" fill="#FFAB2E"/>
<path d="M59.3533 34.521L53.7921 28.1621L54.5671 19.752L46.3393 17.8831L42.0317 10.5898L34.2826 13.9174L26.5335 10.5898L22.2259 17.8603L13.9981 19.7065L14.773 28.1393L9.21191 34.521L14.773 40.8798L13.9981 49.3127L22.2259 51.1816L26.5335 58.4521L34.2826 55.1017L42.0317 58.4293L46.3393 51.1588L54.5671 49.2899L53.7921 40.8798L59.3533 34.521ZM28.3112 43.6604L22.8868 38.1904C21.998 37.3015 21.998 35.8657 22.8868 34.9768L23.0464 34.8172C23.9352 33.9284 25.3939 33.9284 26.2828 34.8172L29.9522 38.5095L41.6898 26.749C42.5787 25.8602 44.0374 25.8602 44.9262 26.749L45.0858 26.9086C45.9747 27.7974 45.9747 29.2333 45.0858 30.1222L31.5932 43.6604C30.6587 44.5492 29.2229 44.5492 28.3112 43.6604Z" fill="white"/>
</svg>
