<svg width="31" height="22" viewBox="0 0 31 22" fill="none" xmlns="http://www.w3.org/2000/svg">
<path d="M18.2005 1.91504L19.2845 0.831055C19.7435 0.37207 20.4856 0.37207 20.9397 0.831055L30.4319 10.3184C30.8909 10.7773 30.8909 11.5195 30.4319 11.9736L20.9397 21.4658C20.4808 21.9248 19.7386 21.9248 19.2845 21.4658L18.2005 20.3818C17.7366 19.918 17.7464 19.1611 18.22 18.707L24.1038 13.1016L1.39026 13.1016C0.740845 13.1016 0.218384 12.5791 0.218384 11.9297V10.3672C0.218384 9.71777 0.740845 9.19531 1.39026 9.19531L24.1038 9.19531L18.22 3.58984C17.7415 3.13574 17.7317 2.37891 18.2005 1.91504Z" fill="white"/>
</svg>
