<svg width="210" height="210" viewBox="0 0 210 210" fill="none" xmlns="http://www.w3.org/2000/svg">
<g filter="url(#filter0_d_475_1287)">
<circle cx="105" cy="98" r="74.5" fill="white" stroke="#FF005C" stroke-width="3"/>
<mask id="mask0_475_1287" style="mask-type:alpha" maskUnits="userSpaceOnUse" x="76" y="70" width="57" height="58">
<path fill-rule="evenodd" clip-rule="evenodd" d="M107.518 93.4707H81.3647C79.5129 93.4707 78.0118 94.9719 78.0118 96.8237V121.635C78.0118 123.487 79.5129 124.988 81.3647 124.988H107.518C109.369 124.988 110.871 123.487 110.871 121.635V96.8237C110.871 94.9719 109.369 93.4707 107.518 93.4707ZM81.3647 91.459C78.4019 91.459 76 93.8608 76 96.8237V121.635C76 124.598 78.4019 127 81.3647 127H107.518C110.48 127 112.882 124.598 112.882 121.635V96.8237C112.882 93.8608 110.48 91.459 107.518 91.459H81.3647Z" fill="black"/>
<path fill-rule="evenodd" clip-rule="evenodd" d="M119.589 78.0472L125.624 78.0472C125.994 78.0472 126.294 78.3474 126.294 78.7177L126.294 84.753C126.294 85.1234 125.994 85.4236 125.624 85.4236C125.253 85.4236 124.953 85.1234 124.953 84.753L124.953 80.3367L114.698 90.5919C114.436 90.8538 114.012 90.8538 113.75 90.5919C113.488 90.33 113.488 89.9054 113.75 89.6436L124.005 79.3883L119.589 79.3883C119.218 79.3883 118.918 79.0881 118.918 78.7177C118.918 78.3474 119.218 78.0472 119.589 78.0472Z" fill="black"/>
<path fill-rule="evenodd" clip-rule="evenodd" d="M125.624 72.0118H83.3765C80.4136 72.0118 78.0118 74.4136 78.0118 77.3765V119.624C78.0118 122.586 80.4136 124.988 83.3765 124.988H125.624C128.586 124.988 130.988 122.586 130.988 119.624V77.3765C130.988 74.4136 128.586 72.0118 125.624 72.0118ZM83.3765 70C79.3026 70 76 73.3026 76 77.3765V119.624C76 123.697 79.3026 127 83.3765 127H125.624C129.697 127 133 123.697 133 119.624V77.3765C133 73.3026 129.697 70 125.624 70H83.3765Z" fill="black"/>
<path fill-rule="evenodd" clip-rule="evenodd" d="M81.3647 91.459C78.4019 91.459 76 93.8608 76 96.8237V121.635C76 124.598 78.4019 127 81.3647 127H107.518C110.48 127 112.882 124.598 112.882 121.635V96.8237C112.882 93.8608 110.48 91.459 107.518 91.459H81.3647ZM103.012 105.996C103.012 107.781 101.598 109.229 99.8394 109.229C98.0812 109.229 96.6541 107.781 96.6541 105.996C96.6541 104.211 98.0812 102.763 99.8394 102.763C101.598 102.763 103.012 104.211 103.012 105.996ZM94.0932 104.056C94.0932 106.203 92.3986 107.936 90.2836 107.936C88.1685 107.936 86.4612 106.203 86.4612 104.056C86.4612 101.909 88.1685 100.176 90.2836 100.176C92.3986 100.176 94.0932 101.909 94.0932 104.056ZM92.8318 115.372C92.8318 113.006 97.5078 111.816 99.8394 111.816C102.171 111.816 106.847 113.006 106.847 115.372V116.989C106.847 117.7 106.274 118.282 105.573 118.282H94.1059C93.4051 118.282 92.8318 117.7 92.8318 116.989V115.372ZM81.3647 115.049C81.3647 112.036 87.3149 110.523 90.2836 110.523C91.1245 110.523 92.1947 110.652 93.3032 110.885C90.704 112.346 90.2836 114.273 90.2836 115.372V118.282H82.6388C81.9381 118.282 81.3647 117.7 81.3647 116.989V115.049Z" fill="black"/>
</mask>
<g mask="url(#mask0_475_1287)">
<rect x="71.9766" y="63.9648" width="65.7177" height="68.4" fill="url(#paint0_linear_475_1287)"/>
</g>
</g>
<defs>
<filter id="filter0_d_475_1287" x="0" y="0" width="210" height="210" filterUnits="userSpaceOnUse" color-interpolation-filters="sRGB">
<feFlood flood-opacity="0" result="BackgroundImageFix"/>
<feColorMatrix in="SourceAlpha" type="matrix" values="0 0 0 0 0 0 0 0 0 0 0 0 0 0 0 0 0 0 127 0" result="hardAlpha"/>
<feOffset dy="7"/>
<feGaussianBlur stdDeviation="14.5"/>
<feComposite in2="hardAlpha" operator="out"/>
<feColorMatrix type="matrix" values="0 0 0 0 0.392157 0 0 0 0 0.392157 0 0 0 0 0.435294 0 0 0 0.2 0"/>
<feBlend mode="normal" in2="BackgroundImageFix" result="effect1_dropShadow_475_1287"/>
<feBlend mode="normal" in="SourceGraphic" in2="effect1_dropShadow_475_1287" result="shape"/>
</filter>
<linearGradient id="paint0_linear_475_1287" x1="66.016" y1="77.9802" x2="145.543" y2="79.3186" gradientUnits="userSpaceOnUse">
<stop stop-color="#FF005C"/>
<stop offset="1" stop-color="#FF00B8"/>
</linearGradient>
</defs>
</svg>
