<svg width="51" height="51" viewBox="0 0 51 51" fill="none" xmlns="http://www.w3.org/2000/svg">
<rect x="0.203247" y="0.953674" width="50" height="50" fill="white"/>
<path d="M32.2833 30.386C34.1151 27.8864 34.9356 24.7873 34.5805 21.7088C34.2255 18.6303 32.7211 15.7993 30.3684 13.7823C28.0158 11.7653 24.9882 10.711 21.8916 10.8303C18.795 10.9496 15.8575 12.2338 13.667 14.4258C11.4765 16.6179 10.1945 19.5562 10.0774 22.653C9.96029 25.7497 11.0168 28.7764 13.0355 31.1277C15.0542 33.4789 17.8862 34.9812 20.965 35.3341C24.0438 35.6869 27.1423 34.8643 29.6406 33.0307H29.6387C29.6954 33.1064 29.7559 33.1783 29.8241 33.2483L37.1073 40.5315C37.462 40.8865 37.9433 41.086 38.4451 41.0862C38.9469 41.0864 39.4282 40.8872 39.7832 40.5325C40.1382 40.1778 40.3377 39.6966 40.3379 39.1947C40.3381 38.6929 40.1389 38.2116 39.7842 37.8566L32.5009 30.5733C32.4333 30.5048 32.3605 30.4435 32.2833 30.386ZM32.7714 23.1141C32.7714 24.4805 32.5023 25.8334 31.9794 27.0958C31.4565 28.3582 30.6901 29.5052 29.724 30.4713C28.7578 31.4375 27.6108 32.2039 26.3484 32.7268C25.0861 33.2497 23.7331 33.5188 22.3667 33.5188C21.0004 33.5188 19.6474 33.2497 18.385 32.7268C17.1227 32.2039 15.9757 31.4375 15.0095 30.4713C14.0434 29.5052 13.277 28.3582 12.7541 27.0958C12.2312 25.8334 11.9621 24.4805 11.9621 23.1141C11.9621 20.3546 13.0583 17.7081 15.0095 15.7569C16.9608 13.8056 19.6072 12.7094 22.3667 12.7094C25.1262 12.7094 27.7727 13.8056 29.724 15.7569C31.6752 17.7081 32.7714 20.3546 32.7714 23.1141Z" fill="url(#paint0_linear_1211_545)"/>
<defs>
<linearGradient id="paint0_linear_1211_545" x1="10.0686" y1="25.9537" x2="40.3379" y2="25.9537" gradientUnits="userSpaceOnUse">
<stop offset="0.154706" stop-color="#00A3FF"/>
<stop offset="1" stop-color="#00FF38"/>
</linearGradient>
</defs>
</svg>
