<svg width="51" height="51" viewBox="0 0 51 51" fill="none" xmlns="http://www.w3.org/2000/svg">
<rect x="0.118286" y="0.953674" width="50" height="50" fill="white"/>
<path d="M32.1984 30.386C34.0302 27.8864 34.8506 24.7873 34.4956 21.7088C34.1405 18.6303 32.6362 15.7993 30.2835 13.7823C27.9308 11.7653 24.9033 10.711 21.8066 10.8303C18.71 10.9496 15.7726 12.2338 13.5821 14.4258C11.3916 16.6179 10.1095 19.5562 9.99243 22.653C9.87533 25.7497 10.9318 28.7764 12.9505 31.1277C14.9692 33.4789 17.8012 34.9812 20.88 35.3341C23.9588 35.6869 27.0573 34.8643 29.5556 33.0307H29.5537C29.6105 33.1064 29.671 33.1783 29.7391 33.2483L37.0224 40.5315C37.3771 40.8865 37.8583 41.086 38.3601 41.0862C38.8619 41.0864 39.3433 40.8872 39.6983 40.5325C40.0532 40.1778 40.2528 39.6966 40.2529 39.1947C40.2531 38.6929 40.0539 38.2116 39.6992 37.8566L32.4159 30.5733C32.3483 30.5048 32.2756 30.4435 32.1984 30.386ZM32.6865 23.1141C32.6865 24.4805 32.4173 25.8334 31.8944 27.0958C31.3716 28.3582 30.6052 29.5052 29.639 30.4713C28.6728 31.4375 27.5258 32.2039 26.2635 32.7268C25.0011 33.2497 23.6481 33.5188 22.2818 33.5188C20.9154 33.5188 19.5624 33.2497 18.3001 32.7268C17.0377 32.2039 15.8907 31.4375 14.9246 30.4713C13.9584 29.5052 13.192 28.3582 12.6691 27.0958C12.1462 25.8334 11.8771 24.4805 11.8771 23.1141C11.8771 20.3546 12.9733 17.7081 14.9246 15.7569C16.8758 13.8056 19.5223 12.7094 22.2818 12.7094C25.0413 12.7094 27.6877 13.8056 29.639 15.7569C31.5902 17.7081 32.6865 20.3546 32.6865 23.1141Z" fill="url(#paint0_linear_1196_354)"/>
<defs>
<linearGradient id="paint0_linear_1196_354" x1="9.98364" y1="25.9537" x2="40.2529" y2="25.9537" gradientUnits="userSpaceOnUse">
<stop stop-color="#FF3087"/>
<stop offset="1" stop-color="#FFC42E"/>
</linearGradient>
</defs>
</svg>
