<svg width="51" height="51" viewBox="0 0 51 51" fill="none" xmlns="http://www.w3.org/2000/svg">
<rect x="0.0335693" y="0.745544" width="50" height="50" fill="white"/>
<path d="M32.1137 30.1779C33.9454 27.6783 34.7659 24.5792 34.4108 21.5007C34.0558 18.4221 32.5514 15.5912 30.1988 13.5742C27.8461 11.5572 24.8186 10.5028 21.7219 10.6222C18.6253 10.7415 15.6879 12.0256 13.4974 14.2177C11.3069 16.4098 10.0248 19.3481 9.90772 22.4448C9.79061 25.5416 10.8471 28.5683 12.8658 30.9195C14.8845 33.2708 17.7165 34.7731 20.7953 35.126C23.8741 35.4788 26.9726 34.6561 29.4709 32.8226H29.469C29.5257 32.8982 29.5863 32.9701 29.6544 33.0401L36.9376 40.3234C37.2924 40.6784 37.7736 40.8779 38.2754 40.8781C38.7772 40.8782 39.2586 40.6791 39.6135 40.3243C39.9685 39.9696 40.168 39.4884 40.1682 38.9866C40.1684 38.4848 39.9692 38.0034 39.6145 37.6485L32.3312 30.3652C32.2636 30.2967 32.1909 30.2354 32.1137 30.1779ZM32.6017 22.906C32.6017 24.2723 32.3326 25.6253 31.8097 26.8877C31.2868 28.15 30.5204 29.297 29.5543 30.2632C28.5881 31.2294 27.4411 31.9958 26.1788 32.5186C24.9164 33.0415 23.5634 33.3106 22.1971 33.3106C20.8307 33.3106 19.4777 33.0415 18.2154 32.5186C16.953 31.9958 15.806 31.2294 14.8398 30.2632C13.8737 29.297 13.1073 28.15 12.5844 26.8877C12.0615 25.6253 11.7924 24.2723 11.7924 22.906C11.7924 20.1465 12.8886 17.5 14.8398 15.5488C16.7911 13.5975 19.4376 12.5013 22.1971 12.5013C24.9566 12.5013 27.603 13.5975 29.5543 15.5488C31.5055 17.5 32.6017 20.1465 32.6017 22.906Z" fill="url(#paint0_linear_1094_25)"/>
<defs>
<linearGradient id="paint0_linear_1094_25" x1="9.89893" y1="10.613" x2="40.1682" y2="10.613" gradientUnits="userSpaceOnUse">
<stop offset="0.145833" stop-color="#0049D8"/>
<stop offset="1" stop-color="#00A3FF"/>
</linearGradient>
</defs>
</svg>
