<svg width="51" height="51" viewBox="0 0 51 51" fill="none" xmlns="http://www.w3.org/2000/svg">
<rect x="0.203247" y="0.536987" width="50" height="50" fill="white"/>
<path d="M36.8588 14.4479C37.0466 14.2562 37.2707 14.104 37.5181 14.0001C37.7654 13.8962 38.031 13.8427 38.2993 13.8427C38.5676 13.8427 38.8333 13.8962 39.0806 14.0001C39.328 14.104 39.5521 14.2562 39.7399 14.4479C40.5269 15.2431 40.5379 16.5282 39.7674 17.3373L23.4959 36.5725C23.3112 36.7753 23.087 36.9384 22.8371 37.0516C22.5872 37.1649 22.3168 37.2259 22.0425 37.2311C21.7681 37.2362 21.4956 37.1854 21.2416 37.0816C20.9876 36.9778 20.7575 36.8233 20.5653 36.6275L10.6642 26.5944C10.2824 26.205 10.0685 25.6813 10.0685 25.1359C10.0685 24.5905 10.2824 24.0669 10.6642 23.6775C10.852 23.4858 11.0762 23.3336 11.3235 23.2297C11.5709 23.1258 11.8365 23.0722 12.1048 23.0722C12.3731 23.0722 12.6387 23.1258 12.8861 23.2297C13.1334 23.3336 13.3576 23.4858 13.5454 23.6775L21.9439 32.1888L36.8037 14.5084C36.8208 14.4871 36.8392 14.4669 36.8588 14.4479Z" fill="url(#paint0_linear_1211_548)"/>
<defs>
<linearGradient id="paint0_linear_1211_548" x1="10.0685" y1="25.537" x2="40.3378" y2="25.537" gradientUnits="userSpaceOnUse">
<stop offset="0.154706" stop-color="#00A3FF"/>
<stop offset="1" stop-color="#00FF38"/>
</linearGradient>
</defs>
</svg>
