<svg width="51" height="51" viewBox="0 0 51 51" fill="none" xmlns="http://www.w3.org/2000/svg">
<rect x="0.0335693" y="0.536987" width="50" height="50" fill="white"/>
<path d="M36.6891 14.4479C36.8769 14.2562 37.101 14.104 37.3484 14.0001C37.5958 13.8962 37.8614 13.8427 38.1297 13.8427C38.398 13.8427 38.6636 13.8962 38.9109 14.0001C39.1583 14.104 39.3824 14.2562 39.5702 14.4479C40.3573 15.2431 40.3683 16.5282 39.5978 17.3373L23.3263 36.5725C23.1415 36.7753 22.9173 36.9384 22.6674 37.0516C22.4175 37.1649 22.1471 37.2259 21.8728 37.2311C21.5984 37.2362 21.3259 37.1854 21.072 37.0816C20.818 36.9778 20.5878 36.8233 20.3956 36.6275L10.4945 26.5944C10.1127 26.205 9.8988 25.6813 9.8988 25.1359C9.8988 24.5905 10.1127 24.0669 10.4945 23.6775C10.6824 23.4858 10.9065 23.3336 11.1539 23.2297C11.4012 23.1258 11.6668 23.0722 11.9351 23.0722C12.2034 23.0722 12.469 23.1258 12.7164 23.2297C12.9638 23.3336 13.1879 23.4858 13.3757 23.6775L21.7742 32.1888L36.634 14.5084C36.6512 14.4871 36.6695 14.4669 36.6891 14.4479Z" fill="url(#paint0_linear_1094_26)"/>
<defs>
<linearGradient id="paint0_linear_1094_26" x1="9.8988" y1="13.8427" x2="40.1682" y2="13.8427" gradientUnits="userSpaceOnUse">
<stop offset="0.145833" stop-color="#0049D8"/>
<stop offset="1" stop-color="#00A3FF"/>
</linearGradient>
</defs>
</svg>
