<svg width="51" height="51" viewBox="0 0 51 51" fill="none" xmlns="http://www.w3.org/2000/svg">
<rect x="0.118286" y="0.536987" width="50" height="50" fill="white"/>
<path d="M36.7738 14.4479C36.9616 14.2562 37.1857 14.104 37.4331 14.0001C37.6805 13.8962 37.9461 13.8427 38.2144 13.8427C38.4827 13.8427 38.7483 13.8962 38.9956 14.0001C39.243 14.104 39.4672 14.2562 39.655 14.4479C40.442 15.2431 40.453 16.5282 39.6825 17.3373L23.411 36.5725C23.2262 36.7753 23.0021 36.9384 22.7521 37.0516C22.5022 37.1649 22.2318 37.2259 21.9575 37.2311C21.6832 37.2362 21.4107 37.1854 21.1567 37.0816C20.9027 36.9778 20.6725 36.8233 20.4803 36.6275L10.5793 26.5944C10.1974 26.205 9.98352 25.6813 9.98352 25.1359C9.98352 24.5905 10.1974 24.0669 10.5793 23.6775C10.7671 23.4858 10.9912 23.3336 11.2386 23.2297C11.4859 23.1258 11.7515 23.0722 12.0198 23.0722C12.2881 23.0722 12.5538 23.1258 12.8011 23.2297C13.0485 23.3336 13.2726 23.4858 13.4604 23.6775L21.859 32.1888L36.7188 14.5084C36.7359 14.4871 36.7543 14.4669 36.7738 14.4479Z" fill="url(#paint0_linear_1196_357)"/>
<defs>
<linearGradient id="paint0_linear_1196_357" x1="9.98352" y1="25.537" x2="40.2529" y2="25.537" gradientUnits="userSpaceOnUse">
<stop stop-color="#FF3087"/>
<stop offset="1" stop-color="#FFC42E"/>
</linearGradient>
</defs>
</svg>
