<svg width="82" height="82" viewBox="0 0 82 82" fill="none" xmlns="http://www.w3.org/2000/svg">
<g clip-path="url(#clip0_1948_143)">
<path d="M80.6846 1.44141H0.68457V81.4414H80.6846V1.44141Z" fill="white"/>
<path d="M33.8614 27.3012L53.5957 55.422H48.3493L28.6501 27.3012H33.8614ZM72.2261 41.3616C72.2261 58.7813 58.1046 72.9028 40.6848 72.9028V72.9028C23.2651 72.9028 9.14355 58.7813 9.14355 41.3616V41.3616C9.14355 23.9418 23.2651 9.82031 40.6848 9.82031V9.82031C58.1046 9.82031 72.2261 23.9418 72.2261 41.3616V41.3616ZM60.0932 58.8845L45.423 37.892L57.4157 23.8387H52.8212L43.3448 34.9131L35.6102 23.8387H22.1175L35.9291 43.58L22.8325 58.8845H27.5041L38.0213 46.5624L46.6356 58.8845H60.0932Z" fill="black"/>
</g>
<defs>
<clipPath id="clip0_1948_143">
<rect width="81" height="81" fill="white" transform="translate(0.450195 0.5)"/>
</clipPath>
</defs>
</svg>
