<svg width="81" height="81" viewBox="0 0 81 81" fill="none" xmlns="http://www.w3.org/2000/svg">
<rect x="0.234619" y="0.943115" width="80" height="80" fill="white"/>
<path d="M40.2346 10.9431C23.6929 10.9431 10.2346 24.4001 10.2346 40.9431C10.2346 57.4862 23.6929 70.9431 40.2346 70.9431C56.7764 70.9431 70.2346 57.4862 70.2346 40.9431C70.2346 24.4001 56.7764 10.9431 40.2346 10.9431ZM31.1042 53.9866H25.8868V34.4214H31.1042V53.9866ZM28.4955 30.5083C27.0542 30.5083 25.8868 29.3409 25.8868 27.8996C25.8868 26.4583 27.0542 25.2909 28.4955 25.2909C29.9368 25.2909 31.1042 26.4583 31.1042 27.8996C31.1042 29.3409 29.9368 30.5083 28.4955 30.5083ZM55.8868 53.9866H50.6694V47.4649V44.204C50.6694 41.6931 48.6151 39.6388 46.1042 39.6388C43.5933 39.6388 41.539 41.6931 41.539 44.204V53.9866H36.3216V34.4214H41.539V36.7901C43.0624 35.3266 45.1285 34.4214 47.4085 34.4214C52.0911 34.4214 55.8868 38.217 55.8868 42.8996V53.9866Z" fill="#C0C0C0"/>
</svg>
