<svg width="61" height="68" viewBox="0 0 61 68" fill="none" xmlns="http://www.w3.org/2000/svg">
<path d="M50.7373 0.368408C48.0851 0.368408 45.5416 1.42198 43.6662 3.29734C41.7909 5.1727 40.7373 7.71624 40.7373 10.3684C40.7393 10.9956 40.8004 11.6212 40.9196 12.2369L17.2021 26.0715C15.3957 24.5412 13.1048 23.7015 10.7373 23.7017C8.08514 23.7017 5.5416 24.7553 3.66624 26.6307C1.79087 28.506 0.737305 31.0496 0.737305 33.7017C0.737305 36.3539 1.79087 38.8974 3.66624 40.7728C5.5416 42.6482 8.08514 43.7017 10.7373 43.7017C13.1012 43.6971 15.387 42.8552 17.1891 41.3254L40.9196 55.1666C40.8004 55.7823 40.7393 56.4079 40.7373 57.0351C40.7373 59.6872 41.7909 62.2308 43.6662 64.1061C45.5416 65.9815 48.0851 67.0351 50.7373 67.0351C53.3895 67.0351 55.933 65.9815 57.8084 64.1061C59.6837 62.2308 60.7373 59.6872 60.7373 57.0351C60.7373 54.3829 59.6837 51.8394 57.8084 49.964C55.933 48.0886 53.3895 47.0351 50.7373 47.0351C48.3712 47.0382 46.0828 47.8802 44.279 49.4114L20.555 35.5702C20.6742 34.9545 20.7353 34.3289 20.7373 33.7017C20.7353 33.0746 20.6742 32.449 20.555 31.8333L44.2725 17.9986C46.0789 19.5289 48.3698 20.3687 50.7373 20.3684C53.3895 20.3684 55.933 19.3148 57.8084 17.4395C59.6837 15.5641 60.7373 13.0206 60.7373 10.3684C60.7373 7.71624 59.6837 5.1727 57.8084 3.29734C55.933 1.42198 53.3895 0.368408 50.7373 0.368408Z" fill="#512BD4"/>
</svg>
