<svg width="61" height="67" viewBox="0 0 61 67" fill="none" xmlns="http://www.w3.org/2000/svg">
<path d="M50.7373 0.276428C48.0851 0.276428 45.5416 1.33 43.6662 3.20536C41.7909 5.08072 40.7373 7.62426 40.7373 10.2764C40.7393 10.9036 40.8004 11.5292 40.9196 12.1449L17.2021 25.9796C15.3957 24.4492 13.1048 23.6095 10.7373 23.6098C8.08514 23.6098 5.5416 24.6633 3.66624 26.5387C1.79087 28.4141 0.737305 30.9576 0.737305 33.6098C0.737305 36.2619 1.79087 38.8055 3.66624 40.6808C5.5416 42.5562 8.08514 43.6098 10.7373 43.6098C13.1012 43.6051 15.387 42.7632 17.1891 41.2335L40.9196 55.0746C40.8004 55.6903 40.7393 56.3159 40.7373 56.9431C40.7373 59.5953 41.7909 62.1388 43.6662 64.0142C45.5416 65.8895 48.0851 66.9431 50.7373 66.9431C53.3895 66.9431 55.933 65.8895 57.8084 64.0142C59.6837 62.1388 60.7373 59.5953 60.7373 56.9431C60.7373 54.2909 59.6837 51.7474 57.8084 49.872C55.933 47.9967 53.3895 46.9431 50.7373 46.9431C48.3712 46.9462 46.0828 47.7882 44.279 49.3194L20.555 35.4783C20.6742 34.8625 20.7353 34.2369 20.7373 33.6098C20.7353 32.9826 20.6742 32.357 20.555 31.7413L44.2725 17.9066C46.0789 19.4369 48.3698 20.2767 50.7373 20.2764C53.3895 20.2764 55.933 19.2229 57.8084 17.3475C59.6837 15.4721 60.7373 12.9286 60.7373 10.2764C60.7373 7.62426 59.6837 5.08072 57.8084 3.20536C55.933 1.33 53.3895 0.276428 50.7373 0.276428Z" fill="#242424"/>
</svg>
