<svg width="81" height="81" viewBox="0 0 81 81" fill="none" xmlns="http://www.w3.org/2000/svg">
<rect x="0.234619" y="0.943115" width="80" height="80" fill="white"/>
<path d="M40.2346 10.9431C23.6664 10.9431 10.2346 24.444 10.2346 41.0973C10.2346 56.2155 21.3142 68.698 35.751 70.8787V49.0895H28.3287V41.1631H35.751V35.8889C35.751 27.1565 39.9837 23.3228 47.2042 23.3228C50.6623 23.3228 52.491 23.5805 53.3569 23.6983V30.6174H48.4314C45.366 30.6174 44.2955 33.5382 44.2955 36.8305V41.1631H53.2792L52.0601 49.0895H44.2955V70.9431C58.9383 68.9461 70.2346 56.3622 70.2346 41.0973C70.2346 24.444 56.8028 10.9431 40.2346 10.9431Z" fill="#C0C0C0"/>
</svg>
