<svg width="81" height="81" viewBox="0 0 81 81" fill="none" xmlns="http://www.w3.org/2000/svg">
<rect x="0.234619" y="0.368408" width="80" height="80" fill="white"/>
<path d="M40.2346 10.3684C23.6664 10.3684 10.2346 23.8693 10.2346 40.5226C10.2346 55.6408 21.3142 68.1233 35.751 70.304V48.5148H28.3287V40.5884H35.751V35.3142C35.751 26.5818 39.9837 22.7481 47.2042 22.7481C50.6623 22.7481 52.491 23.0058 53.3569 23.1236V30.0427H48.4314C45.366 30.0427 44.2955 32.9635 44.2955 36.2558V40.5884H53.2792L52.0601 48.5148H44.2955V70.3684C58.9383 68.3714 70.2346 55.7875 70.2346 40.5226C70.2346 23.8693 56.8028 10.3684 40.2346 10.3684Z" fill="url(#paint0_linear_362_50)"/>
<defs>
<linearGradient id="paint0_linear_362_50" x1="40.2346" y1="10.3684" x2="40.2346" y2="70.3684" gradientUnits="userSpaceOnUse">
<stop stop-color="#129AF7"/>
<stop offset="1" stop-color="#1877F2"/>
</linearGradient>
</defs>
</svg>
