<svg width="81" height="81" viewBox="0 0 81 81" fill="none" xmlns="http://www.w3.org/2000/svg">
<rect x="0.234619" y="0.368408" width="80" height="80" fill="white"/>
<path d="M40.2346 10.3684C23.6929 10.3684 10.2346 23.8254 10.2346 40.3684C10.2346 56.9115 23.6929 70.3684 40.2346 70.3684C56.7764 70.3684 70.2346 56.9115 70.2346 40.3684C70.2346 23.8254 56.7764 10.3684 40.2346 10.3684ZM31.1042 53.4119H25.8868V33.8467H31.1042V53.4119ZM28.4955 29.9336C27.0542 29.9336 25.8868 28.7662 25.8868 27.3249C25.8868 25.8836 27.0542 24.7162 28.4955 24.7162C29.9368 24.7162 31.1042 25.8836 31.1042 27.3249C31.1042 28.7662 29.9368 29.9336 28.4955 29.9336ZM55.8868 53.4119H50.6694V46.8901V43.6293C50.6694 41.1184 48.6151 39.0641 46.1042 39.0641C43.5933 39.0641 41.539 41.1184 41.539 43.6293V53.4119H36.3216V33.8467H41.539V36.2154C43.0624 34.7519 45.1285 33.8467 47.4085 33.8467C52.0911 33.8467 55.8868 37.6423 55.8868 42.3249V53.4119Z" fill="#007BB5"/>
</svg>
