<svg width="58" height="51" viewBox="0 0 58 51" fill="none" xmlns="http://www.w3.org/2000/svg">
<path d="M45.0798 9.85703C40.4574 7.22095 38.6432 9.80054 38.3136 11.4335C38.2387 11.7195 38.6623 12.029 39.6605 12.5567C40.4499 12.974 41.2908 13.3649 42.1834 13.3442C44.2373 13.2967 45.1151 11.5616 45.3408 10.4041C45.3672 10.2684 45.3504 10.1508 45.2717 10.0371C45.2265 9.97191 45.1488 9.89634 45.0798 9.85703Z" fill="url(#paint0_linear_1659_1073)"/>
<path d="M51.9435 24.9862C49.9988 20.0331 46.9675 20.903 45.6862 21.9676C45.4483 22.1432 45.5839 22.65 46.03 23.6873C46.3827 24.5076 46.7921 25.3396 47.5001 25.8837C49.129 27.1355 50.9013 26.3355 51.8034 25.5759C51.9091 25.4869 51.9699 25.3848 51.9799 25.2469C51.9856 25.1677 51.9725 25.0601 51.9435 24.9862Z" fill="url(#paint1_linear_1659_1073)"/>
<path d="M49.4731 36.7024C50.1808 31.4284 47.1088 30.7155 45.4716 31.0231C45.1783 31.061 45.0505 31.5698 44.9362 32.6932C44.8458 33.5815 44.7992 34.5076 45.1536 35.3272C45.9688 37.2129 47.9065 37.3751 49.064 37.1497C49.1997 37.1232 49.3024 37.0635 49.3782 36.9479C49.4217 36.8815 49.4625 36.7811 49.4731 36.7024Z" fill="url(#paint2_linear_1659_1073)"/>
<path d="M36.3075 48.2125C40.994 45.6921 39.7695 42.7859 38.56 41.6404C38.3573 41.4251 37.8702 41.6201 36.8934 42.1864C36.1209 42.6342 35.3435 43.1398 34.8876 43.9075C33.8385 45.6738 34.8437 47.3383 35.7053 48.1435C35.8063 48.238 35.9149 48.2861 36.053 48.2797C36.1323 48.2759 36.2376 48.2501 36.3075 48.2125Z" fill="url(#paint3_linear_1659_1073)"/>
<path d="M39.5741 46.9268C44.2083 44.3115 46.0109 46.8992 46.3331 48.5336C46.4068 48.82 45.9818 49.1275 44.9812 49.6508C44.19 50.0646 43.3474 50.4516 42.4548 50.427C40.4012 50.3702 39.5311 48.6312 39.3107 47.4727C39.2848 47.3369 39.3021 47.2194 39.3814 47.1061C39.4269 47.0411 39.5049 46.9658 39.5741 46.9268Z" fill="url(#paint4_linear_1659_1073)"/>
<path d="M46.5339 40.3201C50.4499 36.7172 52.7949 38.8259 53.4812 40.3438C53.6183 40.6058 53.2746 41.0022 52.4196 41.7397C51.7435 42.323 51.0113 42.892 50.1366 43.0714C48.1242 43.4843 46.8806 41.9894 46.4019 40.9117C46.3457 40.7853 46.3358 40.6669 46.3871 40.5386C46.4166 40.4649 46.4755 40.3738 46.5339 40.3201Z" fill="url(#paint5_linear_1659_1073)"/>
<path d="M50.6679 33.0675C52.5585 28.0934 55.5991 28.9304 56.892 29.9809C57.1317 30.154 57.0016 30.6622 56.5669 31.7043C56.2232 32.5284 55.8228 33.3648 55.1208 33.9165C53.5056 35.186 51.7247 34.4054 50.8144 33.6556C50.7077 33.5677 50.6458 33.4663 50.6343 33.3285C50.6277 33.2494 50.6397 33.1417 50.6679 33.0675Z" fill="url(#paint6_linear_1659_1073)"/>
<path d="M51.7255 23.0969C51.5247 17.7794 54.6507 17.3631 56.2511 17.8257C56.5394 17.8914 56.618 18.4101 56.6245 19.5392C56.6297 20.4321 56.5876 21.3585 56.1566 22.1405C55.1651 23.9397 53.2207 23.9161 52.09 23.5812C51.9575 23.5419 51.8609 23.4727 51.7965 23.3503C51.7596 23.2801 51.7285 23.1762 51.7255 23.0969Z" fill="url(#paint7_linear_1659_1073)"/>
<path d="M48.0904 12.9357C47.8896 7.61819 51.0156 7.20188 52.616 7.66444C52.9043 7.73017 52.9829 8.24887 52.9894 9.37797C52.9946 10.2709 52.9525 11.1972 52.5215 11.9792C51.53 13.7785 49.5856 13.7549 48.4549 13.4199C48.3224 13.3807 48.2258 13.3114 48.1614 13.1891C48.1245 13.1188 48.0934 13.015 48.0904 12.9357Z" fill="url(#paint8_linear_1659_1073)"/>
<path d="M41.9378 6.24037C41.737 0.922892 44.863 0.506576 46.4634 0.969143C46.7517 1.03487 46.8303 1.55356 46.8369 2.68267C46.842 3.57556 46.7999 4.50191 46.369 5.28392C45.3774 7.08318 43.4331 7.05959 42.3024 6.72463C42.1698 6.68536 42.0732 6.61613 42.0089 6.49376C41.9719 6.42353 41.9408 6.31967 41.9378 6.24037Z" fill="url(#paint9_linear_1659_1073)"/>
<path d="M11.9419 9.85703C16.5643 7.22095 18.3785 9.80054 18.7081 11.4335C18.7831 11.7195 18.3595 12.029 17.3612 12.5567C16.5719 12.974 15.731 13.3649 14.8383 13.3442C12.7845 13.2967 11.9066 11.5616 11.681 10.4041C11.6545 10.2684 11.6713 10.1508 11.75 10.0371C11.7952 9.97191 11.873 9.89634 11.9419 9.85703Z" fill="url(#paint10_linear_1659_1073)"/>
<path d="M5.07819 24.9862C7.02293 20.0331 10.0542 20.903 11.3356 21.9676C11.5734 22.1432 11.4378 22.65 10.9918 23.6873C10.6391 24.5076 10.2296 25.3396 9.52163 25.8837C7.89269 27.1355 6.1204 26.3355 5.21837 25.5759C5.1126 25.4869 5.05185 25.3848 5.04184 25.2469C5.03609 25.1677 5.04919 25.0601 5.07819 24.9862Z" fill="url(#paint11_linear_1659_1073)"/>
<path d="M7.54863 36.7024C6.84093 31.4284 9.91294 30.7155 11.5502 31.0231C11.8434 31.061 11.9712 31.5698 12.0855 32.6932C12.1759 33.5815 12.2225 34.5076 11.8682 35.3272C11.053 37.2129 9.11524 37.3751 7.95773 37.1497C7.82201 37.1232 7.71931 37.0635 7.64353 36.9479C7.60004 36.8815 7.55918 36.7811 7.54863 36.7024Z" fill="url(#paint12_linear_1659_1073)"/>
<path d="M20.7142 48.2125C16.0277 45.6921 17.2523 42.7859 18.4618 41.6404C18.6645 41.4251 19.1515 41.6201 20.1283 42.1864C20.9008 42.6342 21.6782 43.1398 22.1342 43.9075C23.1832 45.6738 22.178 47.3383 21.3164 48.1435C21.2154 48.238 21.1068 48.2861 20.9687 48.2797C20.8894 48.2759 20.7841 48.2501 20.7142 48.2125Z" fill="url(#paint13_linear_1659_1073)"/>
<path d="M17.4477 46.9268C12.8135 44.3115 11.0109 46.8992 10.6886 48.5336C10.6149 48.82 11.0399 49.1275 12.0405 49.6508C12.8317 50.0646 13.6744 50.4516 14.5669 50.427C16.6205 50.3702 17.4906 48.6312 17.711 47.4727C17.7369 47.3369 17.7196 47.2194 17.6403 47.1061C17.5949 47.0411 17.5168 46.9658 17.4477 46.9268Z" fill="url(#paint14_linear_1659_1073)"/>
<path d="M10.4879 40.3201C6.57185 36.7172 4.22684 38.8259 3.54049 40.3438C3.40346 40.6058 3.74716 41.0022 4.60211 41.7397C5.27819 42.323 6.01042 42.892 6.8851 43.0714C8.89758 43.4843 10.1411 41.9894 10.6199 40.9117C10.676 40.7853 10.6859 40.6669 10.6346 40.5386C10.6051 40.4649 10.5463 40.3738 10.4879 40.3201Z" fill="url(#paint15_linear_1659_1073)"/>
<path d="M6.35388 33.0675C4.4632 28.0934 1.42262 28.9304 0.129765 29.9809C-0.110011 30.154 0.0200921 30.6622 0.454798 31.7043C0.798559 32.5284 1.19891 33.3648 1.90093 33.9165C3.51614 35.186 5.29704 34.4054 6.20729 33.6556C6.31403 33.5677 6.37588 33.4663 6.3874 33.3285C6.394 33.2494 6.38207 33.1417 6.35388 33.0675Z" fill="url(#paint16_linear_1659_1073)"/>
<path d="M5.29622 23.0969C5.49706 17.7794 2.37101 17.3631 0.770644 17.8257C0.482342 17.8914 0.403747 18.4101 0.397205 19.5392C0.392031 20.4321 0.434137 21.3585 0.865097 22.1405C1.85665 23.9397 3.801 23.9161 4.93169 23.5812C5.06427 23.5419 5.16081 23.4727 5.22519 23.3503C5.26214 23.2801 5.29322 23.1762 5.29622 23.0969Z" fill="url(#paint17_linear_1659_1073)"/>
<path d="M8.93131 12.9357C9.13216 7.61819 6.0061 7.20188 4.40574 7.66444C4.11744 7.73017 4.03884 8.24887 4.0323 9.37797C4.02713 10.2709 4.06923 11.1972 4.50019 11.9792C5.49175 13.7785 7.4361 13.7549 8.56679 13.4199C8.69937 13.3807 8.7959 13.3114 8.86029 13.1891C8.89724 13.1188 8.92832 13.015 8.93131 12.9357Z" fill="url(#paint18_linear_1659_1073)"/>
<path d="M15.0839 6.24037C15.2847 0.922892 12.1587 0.506576 10.5583 0.969143C10.27 1.03487 10.1914 1.55356 10.1849 2.68267C10.1797 3.57556 10.2218 4.50191 10.6528 5.28392C11.6443 7.08318 13.5887 7.05959 14.7194 6.72463C14.8519 6.68536 14.9485 6.61613 15.0129 6.49376C15.0498 6.42353 15.0809 6.31967 15.0839 6.24037Z" fill="url(#paint19_linear_1659_1073)"/>
<path d="M27.5582 14.1462C27.8763 13.1672 29.2613 13.1672 29.5794 14.1462L31.6754 20.5969C31.8176 21.0347 32.2256 21.3311 32.686 21.3311H39.4686C40.498 21.3311 40.926 22.6484 40.0932 23.2534L34.6059 27.2402C34.2335 27.5107 34.0776 27.9904 34.2199 28.4282L36.3159 34.8789C36.634 35.8579 35.5134 36.672 34.6807 36.0669L29.1934 32.0802C28.821 31.8096 28.3166 31.8096 27.9442 32.0802L22.4569 36.0669C21.6241 36.672 20.5036 35.8579 20.8217 34.8789L22.9177 28.4282C23.0599 27.9904 22.9041 27.5107 22.5317 27.2402L17.0444 23.2534C16.2116 22.6484 16.6396 21.3311 17.669 21.3311H24.4516C24.912 21.3311 25.32 21.0347 25.4622 20.5969L27.5582 14.1462Z" fill="url(#paint20_linear_1659_1073)"/>
<path d="M27.158 14.1444C27.4761 13.1654 28.8611 13.1654 29.1792 14.1444L30.3396 17.716L28.8445 22.3177C28.7022 22.7555 28.2942 23.0519 27.8338 23.0519H21.0512C20.0218 23.0519 19.5938 24.3692 20.4266 24.9742L25.9139 28.961C26.2863 29.2315 26.4422 29.7112 26.2999 30.149L25.0949 33.8578L22.0567 36.0651C21.2239 36.6702 20.1034 35.8561 20.4215 34.8771L22.5175 28.4264C22.6597 27.9886 22.5039 27.5089 22.1314 27.2384L16.6442 23.2516C15.8114 22.6466 16.2394 21.3293 17.2688 21.3293H24.0514C24.5117 21.3293 24.9197 21.0329 25.062 20.5951L27.158 14.1444Z" fill="url(#paint21_linear_1659_1073)"/>
<path d="M20.2922 4.42578C1.26159 11.1423 -1.59317 40.64 21.6384 48.2709C26.209 49.7723 31.2361 49.9396 35.7976 48.4108C55.6346 41.7628 58.7751 14.0984 36.8592 4.42578" stroke="url(#paint22_linear_1659_1073)" stroke-width="2" stroke-linecap="round"/>
<defs>
<linearGradient id="paint0_linear_1659_1073" x1="2.62758" y1="28.5031" x2="59.6984" y2="29.2849" gradientUnits="userSpaceOnUse">
<stop stop-color="#00A7FF"/>
<stop offset="1" stop-color="#00FF3B"/>
</linearGradient>
<linearGradient id="paint1_linear_1659_1073" x1="2.62758" y1="28.5031" x2="59.6984" y2="29.2849" gradientUnits="userSpaceOnUse">
<stop stop-color="#00A7FF"/>
<stop offset="1" stop-color="#00FF3B"/>
</linearGradient>
<linearGradient id="paint2_linear_1659_1073" x1="2.62758" y1="28.5031" x2="59.6984" y2="29.2849" gradientUnits="userSpaceOnUse">
<stop stop-color="#00A7FF"/>
<stop offset="1" stop-color="#00FF3B"/>
</linearGradient>
<linearGradient id="paint3_linear_1659_1073" x1="2.62758" y1="28.5031" x2="59.6984" y2="29.2849" gradientUnits="userSpaceOnUse">
<stop stop-color="#00A7FF"/>
<stop offset="1" stop-color="#00FF3B"/>
</linearGradient>
<linearGradient id="paint4_linear_1659_1073" x1="2.62758" y1="28.5031" x2="59.6984" y2="29.2849" gradientUnits="userSpaceOnUse">
<stop stop-color="#00A7FF"/>
<stop offset="1" stop-color="#00FF3B"/>
</linearGradient>
<linearGradient id="paint5_linear_1659_1073" x1="2.62758" y1="28.5031" x2="59.6984" y2="29.2849" gradientUnits="userSpaceOnUse">
<stop stop-color="#00A7FF"/>
<stop offset="1" stop-color="#00FF3B"/>
</linearGradient>
<linearGradient id="paint6_linear_1659_1073" x1="2.62758" y1="28.5031" x2="59.6984" y2="29.2849" gradientUnits="userSpaceOnUse">
<stop stop-color="#00A7FF"/>
<stop offset="1" stop-color="#00FF3B"/>
</linearGradient>
<linearGradient id="paint7_linear_1659_1073" x1="2.62758" y1="28.5031" x2="59.6984" y2="29.2849" gradientUnits="userSpaceOnUse">
<stop stop-color="#00A7FF"/>
<stop offset="1" stop-color="#00FF3B"/>
</linearGradient>
<linearGradient id="paint8_linear_1659_1073" x1="2.62758" y1="28.5031" x2="59.6984" y2="29.2849" gradientUnits="userSpaceOnUse">
<stop stop-color="#00A7FF"/>
<stop offset="1" stop-color="#00FF3B"/>
</linearGradient>
<linearGradient id="paint9_linear_1659_1073" x1="2.62758" y1="28.5031" x2="59.6984" y2="29.2849" gradientUnits="userSpaceOnUse">
<stop stop-color="#00A7FF"/>
<stop offset="1" stop-color="#00FF3B"/>
</linearGradient>
<linearGradient id="paint10_linear_1659_1073" x1="2.62758" y1="28.5031" x2="59.6984" y2="29.2849" gradientUnits="userSpaceOnUse">
<stop stop-color="#00A7FF"/>
<stop offset="1" stop-color="#00FF3B"/>
</linearGradient>
<linearGradient id="paint11_linear_1659_1073" x1="2.62758" y1="28.5031" x2="59.6984" y2="29.2849" gradientUnits="userSpaceOnUse">
<stop stop-color="#00A7FF"/>
<stop offset="1" stop-color="#00FF3B"/>
</linearGradient>
<linearGradient id="paint12_linear_1659_1073" x1="2.62758" y1="28.5031" x2="59.6984" y2="29.2849" gradientUnits="userSpaceOnUse">
<stop stop-color="#00A7FF"/>
<stop offset="1" stop-color="#00FF3B"/>
</linearGradient>
<linearGradient id="paint13_linear_1659_1073" x1="2.62758" y1="28.5031" x2="59.6984" y2="29.2849" gradientUnits="userSpaceOnUse">
<stop stop-color="#00A7FF"/>
<stop offset="1" stop-color="#00FF3B"/>
</linearGradient>
<linearGradient id="paint14_linear_1659_1073" x1="2.62758" y1="28.5031" x2="59.6984" y2="29.2849" gradientUnits="userSpaceOnUse">
<stop stop-color="#00A7FF"/>
<stop offset="1" stop-color="#00FF3B"/>
</linearGradient>
<linearGradient id="paint15_linear_1659_1073" x1="2.62758" y1="28.5031" x2="59.6984" y2="29.2849" gradientUnits="userSpaceOnUse">
<stop stop-color="#00A7FF"/>
<stop offset="1" stop-color="#00FF3B"/>
</linearGradient>
<linearGradient id="paint16_linear_1659_1073" x1="2.62758" y1="28.5031" x2="59.6984" y2="29.2849" gradientUnits="userSpaceOnUse">
<stop stop-color="#00A7FF"/>
<stop offset="1" stop-color="#00FF3B"/>
</linearGradient>
<linearGradient id="paint17_linear_1659_1073" x1="2.62758" y1="28.5031" x2="59.6984" y2="29.2849" gradientUnits="userSpaceOnUse">
<stop stop-color="#00A7FF"/>
<stop offset="1" stop-color="#00FF3B"/>
</linearGradient>
<linearGradient id="paint18_linear_1659_1073" x1="2.62758" y1="28.5031" x2="59.6984" y2="29.2849" gradientUnits="userSpaceOnUse">
<stop stop-color="#00A7FF"/>
<stop offset="1" stop-color="#00FF3B"/>
</linearGradient>
<linearGradient id="paint19_linear_1659_1073" x1="2.62758" y1="28.5031" x2="59.6984" y2="29.2849" gradientUnits="userSpaceOnUse">
<stop stop-color="#00A7FF"/>
<stop offset="1" stop-color="#00FF3B"/>
</linearGradient>
<linearGradient id="paint20_linear_1659_1073" x1="17.321" y1="26.1677" x2="41.681" y2="26.4767" gradientUnits="userSpaceOnUse">
<stop stop-color="#00A7FF"/>
<stop offset="1" stop-color="#00FF3B"/>
</linearGradient>
<linearGradient id="paint21_linear_1659_1073" x1="17.321" y1="26.1677" x2="41.681" y2="26.4767" gradientUnits="userSpaceOnUse">
<stop stop-color="#00A7FF"/>
<stop offset="1" stop-color="#00FF3B"/>
</linearGradient>
<linearGradient id="paint22_linear_1659_1073" x1="5.11194" y1="4.42578" x2="52.0253" y2="4.42578" gradientUnits="userSpaceOnUse">
<stop stop-color="#00A7FF"/>
<stop offset="1" stop-color="#00F74C"/>
</linearGradient>
</defs>
</svg>
