<svg width="51" height="51" viewBox="0 0 51 51" fill="none" xmlns="http://www.w3.org/2000/svg">
<rect x="0.0335693" y="0.119873" width="50" height="50" fill="white"/>
<path d="M25.0337 18.245C24.1308 18.245 23.2368 18.4228 22.4027 18.7683C21.5686 19.1138 20.8107 19.6202 20.1723 20.2586C19.5339 20.897 19.0275 21.6549 18.682 22.489C18.3365 23.3231 18.1587 24.2171 18.1587 25.12C18.1587 26.0228 18.3365 26.9168 18.682 27.7509C19.0275 28.585 19.5339 29.3429 20.1723 29.9813C20.8107 30.6197 21.5686 31.1261 22.4027 31.4716C23.2368 31.8171 24.1308 31.9949 25.0337 31.9949C26.857 31.9949 28.6057 31.2706 29.895 29.9813C31.1843 28.692 31.9086 26.9433 31.9086 25.12C31.9086 23.2966 31.1843 21.5479 29.895 20.2586C28.6057 18.9693 26.857 18.245 25.0337 18.245ZM20.2767 25.12C20.2767 23.8583 20.7779 22.6484 21.67 21.7563C22.5621 20.8642 23.772 20.363 25.0337 20.363C26.2953 20.363 27.5052 20.8642 28.3974 21.7563C29.2895 22.6484 29.7906 23.8583 29.7906 25.12C29.7906 26.3816 29.2895 27.5915 28.3974 28.4837C27.5052 29.3758 26.2953 29.8769 25.0337 29.8769C23.772 29.8769 22.5621 29.3758 21.67 28.4837C20.7779 27.5915 20.2767 26.3816 20.2767 25.12Z" fill="url(#paint0_linear_1094_28)"/>
<path d="M28.8374 11.0204C27.7212 7.22921 22.3458 7.22921 21.2296 11.0204L21.0305 11.696C20.9525 11.9607 20.8164 12.2045 20.6319 12.4097C20.4475 12.6149 20.2195 12.7762 19.9646 12.8818C19.7097 12.9874 19.4345 13.0346 19.159 13.02C18.8835 13.0054 18.6147 12.9293 18.3724 12.7974L17.754 12.4585C14.2805 10.5693 10.483 14.3689 12.3743 17.8403L12.7111 18.4587C12.843 18.701 12.9191 18.9698 12.9337 19.2453C12.9483 19.5208 12.9011 19.796 12.7955 20.0509C12.6899 20.3058 12.5286 20.5338 12.3234 20.7182C12.1182 20.9027 11.8744 21.0389 11.6097 21.1168L10.9341 21.3159C7.1429 22.4321 7.1429 27.8075 10.9341 28.9237L11.6097 29.1228C11.8744 29.2007 12.1182 29.3369 12.3234 29.5213C12.5286 29.7058 12.6899 29.9338 12.7955 30.1887C12.9011 30.4435 12.9483 30.7188 12.9337 30.9943C12.9191 31.2698 12.843 31.5386 12.7111 31.7808L12.3722 32.3993C10.483 35.8728 14.2805 39.6724 17.754 37.779L18.3724 37.4422C18.6147 37.3102 18.8835 37.2342 19.159 37.2196C19.4345 37.205 19.7097 37.2522 19.9646 37.3578C20.2195 37.4634 20.4475 37.6247 20.6319 37.8299C20.8164 38.035 20.9525 38.2789 21.0305 38.5435L21.2296 39.2192C22.3458 43.0104 27.7212 43.0104 28.8374 39.2192L29.0365 38.5435C29.1144 38.2789 29.2506 38.035 29.435 37.8299C29.6195 37.6247 29.8475 37.4634 30.1024 37.3578C30.3572 37.2522 30.6325 37.205 30.908 37.2196C31.1835 37.2342 31.4522 37.3102 31.6945 37.4422L32.313 37.7811C35.7865 39.6724 39.5861 35.8707 37.6927 32.3993L37.3559 31.7808C37.2239 31.5386 37.1479 31.2698 37.1333 30.9943C37.1186 30.7188 37.1659 30.4435 37.2715 30.1887C37.3771 29.9338 37.5384 29.7058 37.7436 29.5213C37.9487 29.3369 38.1926 29.2007 38.4572 29.1228L39.1329 28.9237C42.9241 27.8075 42.9241 22.4321 39.1329 21.3159L38.4572 21.1168C38.1926 21.0389 37.9487 20.9027 37.7436 20.7182C37.5384 20.5338 37.3771 20.3058 37.2715 20.0509C37.1659 19.796 37.1186 19.5208 37.1333 19.2453C37.1479 18.9698 37.2239 18.701 37.3559 18.4587L37.6948 17.8403C39.5861 14.3668 35.7844 10.5693 32.313 12.4606L31.6945 12.7974C31.4522 12.9293 31.1835 13.0054 30.908 13.02C30.6325 13.0346 30.3572 12.9874 30.1024 12.8818C29.8475 12.7762 29.6195 12.6149 29.435 12.4097C29.2506 12.2045 29.1144 11.9607 29.0365 11.696L28.8374 11.0204ZM23.2607 11.6198C23.7818 9.85127 26.2852 9.85127 26.8062 11.6198L27.0053 12.2954C27.1727 12.8632 27.465 13.3864 27.8608 13.8265C28.2567 14.2666 28.746 14.6126 29.2929 14.8391C29.8398 15.0655 30.4305 15.1667 31.0216 15.1352C31.6127 15.1037 32.1893 14.9403 32.709 14.657L33.3254 14.3181C34.9435 13.4391 36.7141 15.2076 35.8331 16.8279L35.4963 17.4463C35.2134 17.9662 35.0504 18.5427 35.0193 19.1336C34.9881 19.7246 35.0895 20.3151 35.3162 20.8618C35.5428 21.4084 35.8889 21.8975 36.329 22.2931C36.7692 22.6887 37.2923 22.9807 37.86 23.1479L38.5335 23.347C40.302 23.8681 40.302 26.3715 38.5335 26.8925L37.8579 27.0916C37.2901 27.259 36.7669 27.5513 36.3268 27.9471C35.8866 28.343 35.5406 28.8323 35.3142 29.3792C35.0878 29.9261 34.9866 30.5168 35.0181 31.1079C35.0496 31.699 35.213 32.2756 35.4963 32.7953L35.8352 33.4117C36.7141 35.0298 34.9456 36.8004 33.3254 35.9194L32.709 35.5826C32.1891 35.2993 31.6124 35.136 31.0212 35.1046C30.43 35.0733 29.8392 35.1746 29.2923 35.4013C28.7453 35.6279 28.256 35.9742 27.8603 36.4145C27.4646 36.8549 27.1724 37.3783 27.0053 37.9463L26.8062 38.6198C26.2852 40.3883 23.7818 40.3883 23.2607 38.6198L23.0616 37.9442C22.8942 37.3767 22.6019 36.8538 22.2063 36.4139C21.8106 35.974 21.3215 35.6281 20.7748 35.4017C20.2282 35.1753 19.6378 35.074 19.0469 35.1053C18.4561 35.1366 17.8797 35.2997 17.36 35.5826L16.7416 35.9215C15.1235 36.8004 13.3528 35.0319 14.2339 33.4117L14.5707 32.7953C14.8544 32.2755 15.0181 31.6988 15.0498 31.1074C15.0815 30.516 14.9804 29.9251 14.754 29.3779C14.5275 28.8307 14.1814 28.3411 13.741 27.9451C13.3006 27.5492 12.7772 27.2568 12.2091 27.0895L11.5335 26.8904C9.76496 26.3694 9.76496 23.8659 11.5335 23.3449L12.2091 23.1458C12.7763 22.9783 13.2989 22.6861 13.7386 22.2906C14.1783 21.895 14.524 21.4062 14.7504 20.8598C14.9768 20.3134 15.0781 19.7233 15.047 19.1327C15.0159 18.5421 14.8532 17.9659 14.5707 17.4463L14.2318 16.8279C13.3528 15.2098 15.1213 13.4391 16.7416 14.3202L17.36 14.657C17.8797 14.9399 18.4561 15.103 19.0469 15.1343C19.6378 15.1656 20.2282 15.0643 20.7748 14.8379C21.3215 14.6115 21.8106 14.2656 22.2063 13.8257C22.6019 13.3858 22.8942 12.8629 23.0616 12.2954L23.2607 11.6198Z" fill="url(#paint1_linear_1094_28)"/>
<defs>
<linearGradient id="paint0_linear_1094_28" x1="18.1587" y1="18.245" x2="31.9086" y2="18.245" gradientUnits="userSpaceOnUse">
<stop offset="0.145833" stop-color="#0049D8"/>
<stop offset="1" stop-color="#00A3FF"/>
</linearGradient>
<linearGradient id="paint1_linear_1094_28" x1="8.0907" y1="8.177" x2="41.9763" y2="8.177" gradientUnits="userSpaceOnUse">
<stop offset="0.145833" stop-color="#0049D8"/>
<stop offset="1" stop-color="#00A3FF"/>
</linearGradient>
</defs>
</svg>
