<svg width="51" height="51" viewBox="0 0 51 51" fill="none" xmlns="http://www.w3.org/2000/svg">
<rect x="0.118286" y="0.119873" width="50" height="50" fill="white"/>
<path d="M25.1184 18.245C24.2155 18.245 23.3215 18.4228 22.4874 18.7683C21.6533 19.1138 20.8954 19.6202 20.257 20.2586C19.6186 20.897 19.1122 21.6549 18.7667 22.489C18.4212 23.3231 18.2434 24.2171 18.2434 25.12C18.2434 26.0228 18.4212 26.9168 18.7667 27.7509C19.1122 28.585 19.6186 29.3429 20.257 29.9813C20.8954 30.6197 21.6533 31.1261 22.4874 31.4716C23.3215 31.8171 24.2155 31.9949 25.1184 31.9949C26.9417 31.9949 28.6904 31.2706 29.9797 29.9813C31.269 28.692 31.9933 26.9433 31.9933 25.12C31.9933 23.2966 31.269 21.5479 29.9797 20.2586C28.6904 18.9693 26.9417 18.245 25.1184 18.245ZM20.3614 25.12C20.3614 23.8583 20.8626 22.6484 21.7547 21.7563C22.6468 20.8642 23.8567 20.363 25.1184 20.363C26.38 20.363 27.59 20.8642 28.4821 21.7563C29.3742 22.6484 29.8754 23.8583 29.8754 25.12C29.8754 26.3816 29.3742 27.5915 28.4821 28.4837C27.59 29.3758 26.38 29.8769 25.1184 29.8769C23.8567 29.8769 22.6468 29.3758 21.7547 28.4837C20.8626 27.5915 20.3614 26.3816 20.3614 25.12Z" fill="url(#paint0_linear_1196_360)"/>
<path d="M28.9221 11.0204C27.8059 7.22921 22.4305 7.22921 21.3143 11.0204L21.1152 11.696C21.0373 11.9607 20.9011 12.2045 20.7166 12.4097C20.5322 12.6149 20.3042 12.7762 20.0493 12.8818C19.7944 12.9874 19.5192 13.0346 19.2437 13.02C18.9682 13.0054 18.6994 12.9293 18.4571 12.7974L17.8387 12.4585C14.3652 10.5693 10.5677 14.3689 12.459 17.8403L12.7958 18.4587C12.9278 18.701 13.0038 18.9698 13.0184 19.2453C13.033 19.5208 12.9858 19.796 12.8802 20.0509C12.7746 20.3058 12.6133 20.5338 12.4081 20.7182C12.2029 20.9027 11.9591 21.0389 11.6944 21.1168L11.0188 21.3159C7.22762 22.4321 7.22762 27.8075 11.0188 28.9237L11.6944 29.1228C11.9591 29.2007 12.2029 29.3369 12.4081 29.5213C12.6133 29.7058 12.7746 29.9338 12.8802 30.1887C12.9858 30.4435 13.033 30.7188 13.0184 30.9943C13.0038 31.2698 12.9278 31.5386 12.7958 31.7808L12.4569 32.3993C10.5677 35.8728 14.3652 39.6724 17.8387 37.779L18.4571 37.4422C18.6994 37.3102 18.9682 37.2342 19.2437 37.2196C19.5192 37.205 19.7944 37.2522 20.0493 37.3578C20.3042 37.4634 20.5322 37.6247 20.7166 37.8299C20.9011 38.035 21.0373 38.2789 21.1152 38.5435L21.3143 39.2192C22.4305 43.0104 27.8059 43.0104 28.9221 39.2192L29.1212 38.5435C29.1991 38.2789 29.3353 38.035 29.5197 37.8299C29.7042 37.6247 29.9322 37.4634 30.1871 37.3578C30.4419 37.2522 30.7172 37.205 30.9927 37.2196C31.2682 37.2342 31.537 37.3102 31.7792 37.4422L32.3977 37.7811C35.8712 39.6724 39.6708 35.8707 37.7774 32.3993L37.4406 31.7808C37.3086 31.5386 37.2326 31.2698 37.218 30.9943C37.2034 30.7188 37.2506 30.4435 37.3562 30.1887C37.4618 29.9338 37.6231 29.7058 37.8283 29.5213C38.0335 29.3369 38.2773 29.2007 38.542 29.1228L39.2176 28.9237C43.0088 27.8075 43.0088 22.4321 39.2176 21.3159L38.542 21.1168C38.2773 21.0389 38.0335 20.9027 37.8283 20.7182C37.6231 20.5338 37.4618 20.3058 37.3562 20.0509C37.2506 19.796 37.2034 19.5208 37.218 19.2453C37.2326 18.9698 37.3086 18.701 37.4406 18.4587L37.7795 17.8403C39.6708 14.3668 35.8691 10.5693 32.3977 12.4606L31.7792 12.7974C31.537 12.9293 31.2682 13.0054 30.9927 13.02C30.7172 13.0346 30.4419 12.9874 30.1871 12.8818C29.9322 12.7762 29.7042 12.6149 29.5197 12.4097C29.3353 12.2045 29.1991 11.9607 29.1212 11.696L28.9221 11.0204ZM23.3454 11.6198C23.8665 9.85127 26.3699 9.85127 26.8909 11.6198L27.09 12.2954C27.2574 12.8632 27.5497 13.3864 27.9455 13.8265C28.3414 14.2666 28.8307 14.6126 29.3776 14.8391C29.9245 15.0655 30.5152 15.1667 31.1063 15.1352C31.6974 15.1037 32.274 14.9403 32.7938 14.657L33.4101 14.3181C35.0282 13.4391 36.7989 15.2076 35.9178 16.8279L35.581 17.4463C35.2981 17.9662 35.1351 18.5427 35.104 19.1336C35.0728 19.7246 35.1743 20.3151 35.4009 20.8618C35.6275 21.4084 35.9736 21.8975 36.4138 22.2931C36.8539 22.6887 37.377 22.9807 37.9447 23.1479L38.6182 23.347C40.3867 23.8681 40.3867 26.3715 38.6182 26.8925L37.9426 27.0916C37.3748 27.259 36.8516 27.5513 36.4115 27.9471C35.9713 28.343 35.6254 28.8323 35.3989 29.3792C35.1725 29.9261 35.0713 30.5168 35.1028 31.1079C35.1343 31.699 35.2977 32.2756 35.581 32.7953L35.9199 33.4117C36.7989 35.0298 35.0303 36.8004 33.4101 35.9194L32.7938 35.5826C32.2739 35.2993 31.6972 35.136 31.1059 35.1046C30.5147 35.0733 29.9239 35.1746 29.377 35.4013C28.83 35.6279 28.3408 35.9742 27.945 36.4145C27.5493 36.8549 27.2572 37.3783 27.09 37.9463L26.8909 38.6198C26.3699 40.3883 23.8665 40.3883 23.3454 38.6198L23.1464 37.9442C22.9789 37.3767 22.6867 36.8538 22.291 36.4139C21.8953 35.974 21.4062 35.6281 20.8596 35.4017C20.3129 35.1753 19.7225 35.074 19.1317 35.1053C18.5408 35.1366 17.9644 35.2997 17.4448 35.5826L16.8263 35.9215C15.2082 36.8004 13.4375 35.0319 14.3186 33.4117L14.6554 32.7953C14.9391 32.2755 15.1028 31.6988 15.1345 31.1074C15.1662 30.516 15.0651 29.9251 14.8387 29.3779C14.6122 28.8307 14.2661 28.3411 13.8257 27.9451C13.3854 27.5492 12.8619 27.2568 12.2938 27.0895L11.6182 26.8904C9.84968 26.3694 9.84968 23.8659 11.6182 23.3449L12.2938 23.1458C12.861 22.9783 13.3836 22.6861 13.8233 22.2906C14.263 21.895 14.6087 21.4062 14.8351 20.8598C15.0615 20.3134 15.1628 19.7233 15.1317 19.1327C15.1006 18.5421 14.9379 17.9659 14.6554 17.4463L14.3165 16.8279C13.4375 15.2098 15.2061 13.4391 16.8263 14.3202L17.4448 14.657C17.9644 14.9399 18.5408 15.103 19.1317 15.1343C19.7225 15.1656 20.3129 15.0643 20.8596 14.8379C21.4062 14.6115 21.8953 14.2656 22.291 13.8257C22.6867 13.3858 22.9789 12.8629 23.1464 12.2954L23.3454 11.6198Z" fill="url(#paint1_linear_1196_360)"/>
<defs>
<linearGradient id="paint0_linear_1196_360" x1="18.2434" y1="25.12" x2="31.9933" y2="25.12" gradientUnits="userSpaceOnUse">
<stop stop-color="#FF3087"/>
<stop offset="1" stop-color="#FFC42E"/>
</linearGradient>
<linearGradient id="paint1_linear_1196_360" x1="8.17542" y1="25.1198" x2="42.061" y2="25.1198" gradientUnits="userSpaceOnUse">
<stop stop-color="#FF3087"/>
<stop offset="1" stop-color="#FFC42E"/>
</linearGradient>
</defs>
</svg>
