<svg width="51" height="51" viewBox="0 0 51 51" fill="none" xmlns="http://www.w3.org/2000/svg">
<rect x="0.203247" y="0.119873" width="50" height="50" fill="white"/>
<path d="M25.2033 18.245C24.3005 18.245 23.4065 18.4228 22.5724 18.7683C21.7383 19.1138 20.9804 19.6202 20.342 20.2586C19.7036 20.897 19.1972 21.6549 18.8517 22.489C18.5062 23.3231 18.3284 24.2171 18.3284 25.12C18.3284 26.0228 18.5062 26.9168 18.8517 27.7509C19.1972 28.585 19.7036 29.3429 20.342 29.9813C20.9804 30.6197 21.7383 31.1261 22.5724 31.4716C23.4065 31.8171 24.3005 31.9949 25.2033 31.9949C27.0267 31.9949 28.7754 31.2706 30.0647 29.9813C31.354 28.692 32.0783 26.9433 32.0783 25.12C32.0783 23.2966 31.354 21.5479 30.0647 20.2586C28.7754 18.9693 27.0267 18.245 25.2033 18.245ZM20.4464 25.12C20.4464 23.8583 20.9475 22.6484 21.8396 21.7563C22.7317 20.8642 23.9417 20.363 25.2033 20.363C26.465 20.363 27.6749 20.8642 28.567 21.7563C29.4591 22.6484 29.9603 23.8583 29.9603 25.12C29.9603 26.3816 29.4591 27.5915 28.567 28.4837C27.6749 29.3758 26.465 29.8769 25.2033 29.8769C23.9417 29.8769 22.7317 29.3758 21.8396 28.4837C20.9475 27.5915 20.4464 26.3816 20.4464 25.12Z" fill="url(#paint0_linear_1211_551)"/>
<path d="M29.0071 11.0204C27.8909 7.22921 22.5154 7.22921 21.3993 11.0204L21.2002 11.696C21.1222 11.9607 20.986 12.2045 20.8016 12.4097C20.6172 12.6149 20.3892 12.7762 20.1343 12.8818C19.8794 12.9874 19.6041 13.0346 19.3286 13.02C19.0531 13.0054 18.7844 12.9293 18.5421 12.7974L17.9237 12.4585C14.4502 10.5693 10.6526 14.3689 12.544 17.8403L12.8807 18.4587C13.0127 18.701 13.0888 18.9698 13.1034 19.2453C13.118 19.5208 13.0708 19.796 12.9652 20.0509C12.8596 20.3058 12.6982 20.5338 12.4931 20.7182C12.2879 20.9027 12.044 21.0389 11.7794 21.1168L11.1038 21.3159C7.31258 22.4321 7.31258 27.8075 11.1038 28.9237L11.7794 29.1228C12.044 29.2007 12.2879 29.3369 12.4931 29.5213C12.6982 29.7058 12.8596 29.9338 12.9652 30.1887C13.0708 30.4435 13.118 30.7188 13.1034 30.9943C13.0888 31.2698 13.0127 31.5386 12.8807 31.7808L12.5419 32.3993C10.6526 35.8728 14.4502 39.6724 17.9237 37.779L18.5421 37.4422C18.7844 37.3102 19.0531 37.2342 19.3286 37.2196C19.6041 37.205 19.8794 37.2522 20.1343 37.3578C20.3892 37.4634 20.6172 37.6247 20.8016 37.8299C20.986 38.035 21.1222 38.2789 21.2002 38.5435L21.3993 39.2192C22.5154 43.0104 27.8909 43.0104 29.0071 39.2192L29.2061 38.5435C29.2841 38.2789 29.4203 38.035 29.6047 37.8299C29.7891 37.6247 30.0172 37.4634 30.272 37.3578C30.5269 37.2522 30.8022 37.205 31.0777 37.2196C31.3532 37.2342 31.6219 37.3102 31.8642 37.4422L32.4827 37.7811C35.9561 39.6724 39.7558 35.8707 37.8623 32.3993L37.5256 31.7808C37.3936 31.5386 37.3175 31.2698 37.3029 30.9943C37.2883 30.7188 37.3356 30.4435 37.4412 30.1887C37.5468 29.9338 37.7081 29.7058 37.9132 29.5213C38.1184 29.3369 38.3623 29.2007 38.6269 29.1228L39.3026 28.9237C43.0937 27.8075 43.0937 22.4321 39.3026 21.3159L38.6269 21.1168C38.3623 21.0389 38.1184 20.9027 37.9132 20.7182C37.7081 20.5338 37.5468 20.3058 37.4412 20.0509C37.3356 19.796 37.2883 19.5208 37.3029 19.2453C37.3175 18.9698 37.3936 18.701 37.5256 18.4587L37.8644 17.8403C39.7558 14.3668 35.954 10.5693 32.4827 12.4606L31.8642 12.7974C31.6219 12.9293 31.3532 13.0054 31.0777 13.02C30.8022 13.0346 30.5269 12.9874 30.272 12.8818C30.0172 12.7762 29.7891 12.6149 29.6047 12.4097C29.4203 12.2045 29.2841 11.9607 29.2061 11.696L29.0071 11.0204ZM23.4304 11.6198C23.9514 9.85127 26.4549 9.85127 26.9759 11.6198L27.175 12.2954C27.3424 12.8632 27.6347 13.3864 28.0305 13.8265C28.4263 14.2666 28.9157 14.6126 29.4626 14.8391C30.0095 15.0655 30.6002 15.1667 31.1913 15.1352C31.7824 15.1037 32.359 14.9403 32.8787 14.657L33.4951 14.3181C35.1132 13.4391 36.8838 15.2076 36.0027 16.8279L35.666 17.4463C35.3831 17.9662 35.2201 18.5427 35.1889 19.1336C35.1578 19.7246 35.2592 20.3151 35.4858 20.8618C35.7125 21.4084 36.0586 21.8975 36.4987 22.2931C36.9389 22.6887 37.462 22.9807 38.0296 23.1479L38.7032 23.347C40.4717 23.8681 40.4717 26.3715 38.7032 26.8925L38.0275 27.0916C37.4597 27.259 36.9366 27.5513 36.4964 27.9471C36.0563 28.343 35.7103 28.8323 35.4839 29.3792C35.2574 29.9261 35.1563 30.5168 35.1878 31.1079C35.2193 31.699 35.3827 32.2756 35.666 32.7953L36.0049 33.4117C36.8838 35.0298 35.1153 36.8004 33.4951 35.9194L32.8787 35.5826C32.3588 35.2993 31.7821 35.136 31.1909 35.1046C30.5997 35.0733 30.0089 35.1746 29.462 35.4013C28.915 35.6279 28.4257 35.9742 28.03 36.4145C27.6343 36.8549 27.3421 37.3783 27.175 37.9463L26.9759 38.6198C26.4549 40.3883 23.9514 40.3883 23.4304 38.6198L23.2313 37.9442C23.0639 37.3767 22.7716 36.8538 22.3759 36.4139C21.9802 35.974 21.4912 35.6281 20.9445 35.4017C20.3979 35.1753 19.8075 35.074 19.2166 35.1053C18.6258 35.1366 18.0494 35.2997 17.5297 35.5826L16.9113 35.9215C15.2931 36.8004 13.5225 35.0319 14.4036 33.4117L14.7403 32.7953C15.024 32.2755 15.1878 31.6988 15.2195 31.1074C15.2512 30.516 15.1501 29.9251 14.9236 29.3779C14.6972 28.8307 14.351 28.3411 13.9107 27.9451C13.4703 27.5492 12.9469 27.2568 12.3788 27.0895L11.7032 26.8904C9.93464 26.3694 9.93464 23.8659 11.7032 23.3449L12.3788 23.1458C12.946 22.9783 13.4686 22.6861 13.9083 22.2906C14.348 21.895 14.6937 21.4062 14.9201 20.8598C15.1464 20.3134 15.2478 19.7233 15.2167 19.1327C15.1856 18.5421 15.0228 17.9659 14.7403 17.4463L14.4015 16.8279C13.5225 15.2098 15.291 13.4391 16.9113 14.3202L17.5297 14.657C18.0494 14.9399 18.6258 15.103 19.2166 15.1343C19.8075 15.1656 20.3979 15.0643 20.9445 14.8379C21.4912 14.6115 21.9802 14.2656 22.3759 13.8257C22.7716 13.3858 23.0639 12.8629 23.2313 12.2954L23.4304 11.6198Z" fill="url(#paint1_linear_1211_551)"/>
<defs>
<linearGradient id="paint0_linear_1211_551" x1="18.3284" y1="25.12" x2="32.0783" y2="25.12" gradientUnits="userSpaceOnUse">
<stop offset="0.154706" stop-color="#00A3FF"/>
<stop offset="1" stop-color="#00FF38"/>
</linearGradient>
<linearGradient id="paint1_linear_1211_551" x1="8.26038" y1="25.1198" x2="42.1459" y2="25.1198" gradientUnits="userSpaceOnUse">
<stop offset="0.154706" stop-color="#00A3FF"/>
<stop offset="1" stop-color="#00FF38"/>
</linearGradient>
</defs>
</svg>
