<svg width="76" height="76" viewBox="0 0 76 76" fill="none" xmlns="http://www.w3.org/2000/svg">
<circle opacity="0.5" cx="38" cy="38" r="32.5" stroke="#512BD4"/>
<circle opacity="0.15" cx="38" cy="38" r="37.6" stroke="#512BD4" stroke-width="0.8"/>
<circle cx="38" cy="38" r="28" fill="#512BD4"/>
<path d="M40.8189 40.2534L42.6389 37.1011C42.7559 36.9058 42.7039 36.6583 42.5349 36.515L40.6109 35.004C40.6499 34.7174 40.6759 34.4178 40.6759 34.1182C40.6759 33.8186 40.6499 33.519 40.6109 33.2194L42.5349 31.7084C42.7039 31.5651 42.7559 31.3176 42.6389 31.1222L40.8189 27.9699C40.7019 27.7745 40.4679 27.6964 40.2599 27.7745L37.9979 28.6864C37.5299 28.3216 37.0229 28.022 36.4639 27.7876L36.1259 25.3778C36.0869 25.1693 35.892 25 35.671 25H32.031C31.81 25 31.615 25.1693 31.576 25.3908L31.238 27.8006C30.692 28.0351 30.172 28.3347 29.704 28.6994L27.4421 27.7876C27.2341 27.7094 27.0001 27.7876 26.8831 27.983L25.0631 31.1352C24.9461 31.3306 24.9981 31.5781 25.1671 31.7214L27.0911 33.2324C27.0521 33.519 27.0261 33.8186 27.0261 34.1182C27.0261 34.4178 27.0521 34.7174 27.0911 35.017L25.1671 36.528C24.9981 36.6713 24.9461 36.9188 25.0631 37.1142L26.8831 40.2665C27.0001 40.4619 27.2341 40.54 27.4421 40.4619L29.704 39.55C30.172 39.9148 30.679 40.2144 31.238 40.4488L31.576 42.8586C31.615 43.0671 31.81 43.2364 32.031 43.2364H35.671C35.892 43.2364 36.0869 43.0671 36.1259 42.8456L36.4639 40.4358C37.0099 40.2013 37.5299 39.9017 37.9979 39.537L40.2599 40.4488C40.4679 40.527 40.7019 40.4488 40.8189 40.2534ZM33.851 36.7234C32.421 36.7234 31.251 35.5511 31.251 34.1182C31.251 32.6853 32.421 31.513 33.851 31.513C35.281 31.513 36.4509 32.6853 36.4509 34.1182C36.4509 35.5511 35.281 36.7234 33.851 36.7234Z" fill="white"/>
<path d="M50.8935 46.7148L49.6455 45.7509C49.6715 45.5686 49.6975 45.3732 49.6975 45.1778C49.6975 44.9824 49.6845 44.787 49.6455 44.6046L50.8805 43.6407C50.9845 43.5495 51.0235 43.3932 50.9455 43.263L49.7755 41.2439C49.7105 41.1137 49.5545 41.0746 49.4115 41.1137L47.9685 41.6998C47.6696 41.4654 47.3446 41.27 46.9806 41.1267L46.7596 39.5896C46.7466 39.4333 46.6166 39.3291 46.4866 39.3291H44.1596C44.0166 39.3291 43.8866 39.4333 43.8736 39.5766L43.6526 41.1137C43.3016 41.27 42.9636 41.4523 42.6646 41.6868L41.2216 41.1006C41.0916 41.0485 40.9356 41.1006 40.8576 41.2309L39.6877 43.2499C39.6227 43.3802 39.6357 43.5365 39.7527 43.6277L40.9876 44.5916C40.9616 44.774 40.9486 44.9694 40.9486 45.1647C40.9486 45.3601 40.9616 45.5555 40.9876 45.7379L39.7527 46.7018C39.6487 46.793 39.6097 46.9493 39.6877 47.0796L40.8576 49.0986C40.9226 49.2289 41.0786 49.2679 41.2216 49.2289L42.6646 48.6427C42.9636 48.8772 43.2886 49.0725 43.6526 49.2158L43.8736 50.7529C43.8996 50.8962 44.0166 51.0004 44.1596 51.0004H46.4866C46.6296 51.0004 46.7596 50.8962 46.7726 50.7529L46.9936 49.2158C47.3446 49.0595 47.6826 48.8772 47.9685 48.6427L49.4245 49.2289C49.5545 49.281 49.7105 49.2289 49.7885 49.0986L50.9585 47.0796C51.0365 46.9623 50.9975 46.806 50.8935 46.7148ZM45.3166 46.9233C44.3546 46.9233 43.5616 46.1417 43.5616 45.1647C43.5616 44.1878 44.3416 43.4062 45.3166 43.4062C46.2916 43.4062 47.0716 44.1878 47.0716 45.1647C47.0716 46.1417 46.2786 46.9233 45.3166 46.9233Z" fill="white"/>
</svg>
