<svg width="1058" height="573" viewBox="0 0 1058 573" fill="none" xmlns="http://www.w3.org/2000/svg">
<path fill-rule="evenodd" clip-rule="evenodd" d="M130.008 136.105C133.853 134.686 135.82 130.419 134.402 126.574C132.983 122.729 128.716 120.762 124.871 122.18C121.025 123.599 119.058 127.866 120.477 131.711C121.896 135.557 126.163 137.524 130.008 136.105ZM132.834 143.763C140.909 140.784 145.039 131.823 142.06 123.748C139.081 115.673 130.12 111.543 122.045 114.522C113.97 117.501 109.84 126.462 112.819 134.537C115.798 142.612 124.759 146.743 132.834 143.763Z" fill="#D4CDEE"/>
<path fill-rule="evenodd" clip-rule="evenodd" d="M55.4576 124.852C59.3028 123.434 61.2698 119.167 59.851 115.321C58.4323 111.476 54.1652 109.509 50.3201 110.928C46.4749 112.347 44.508 116.614 45.9267 120.459C47.3454 124.304 51.6125 126.271 55.4576 124.852ZM58.2833 132.511C66.3581 129.532 70.4887 120.57 67.5095 112.496C64.5302 104.421 55.5691 100.29 47.4944 103.27C39.4196 106.249 35.289 115.21 38.2683 123.285C41.2475 131.359 50.2086 135.49 58.2833 132.511Z" fill="#D4CDEE"/>
<path fill-rule="evenodd" clip-rule="evenodd" d="M105.861 70.6602C109.707 69.2415 111.674 64.9744 110.255 61.1293C108.836 57.2841 104.569 55.3172 100.724 56.7359C96.8788 58.1546 94.9118 62.4217 96.3305 66.2668C97.7492 70.112 102.016 72.079 105.861 70.6602ZM108.687 78.3187C116.762 75.3394 120.893 66.3783 117.913 58.3036C114.934 50.2288 105.973 46.0982 97.8982 49.0775C89.8235 52.0567 85.6928 61.0178 88.6721 69.0925C91.6513 77.1673 100.612 81.2979 108.687 78.3187Z" fill="#D4CDEE"/>
<path fill-rule="evenodd" clip-rule="evenodd" d="M154.155 201.55C158 200.131 159.967 195.864 158.548 192.019C157.13 188.173 152.862 186.206 149.017 187.625C145.172 189.044 143.205 193.311 144.624 197.156C146.043 201.001 150.31 202.968 154.155 201.55ZM156.981 209.208C165.055 206.229 169.186 197.268 166.207 189.193C163.227 181.118 154.266 176.987 146.192 179.967C138.117 182.946 133.986 191.907 136.966 199.982C139.945 208.057 148.906 212.187 156.981 209.208Z" fill="#D4CDEE"/>
<path fill-rule="evenodd" clip-rule="evenodd" d="M205.255 147.1C209.1 145.682 211.067 141.414 209.648 137.569C208.23 133.724 203.963 131.757 200.117 133.176C196.272 134.595 194.305 138.862 195.724 142.707C197.143 146.552 201.41 148.519 205.255 147.1ZM208.081 154.759C216.155 151.779 220.286 142.818 217.307 134.744C214.328 126.669 205.366 122.538 197.292 125.518C189.217 128.497 185.086 137.458 188.066 145.533C191.045 153.607 200.006 157.738 208.081 154.759Z" fill="#D4CDEE"/>
<path fill-rule="evenodd" clip-rule="evenodd" d="M80.6317 193.082C84.4768 191.663 86.4438 187.396 85.0251 183.551C83.6064 179.706 79.3392 177.739 75.4941 179.157C71.649 180.576 69.682 184.843 71.1007 188.688C72.5194 192.534 76.7866 194.501 80.6317 193.082ZM83.4574 200.74C91.5321 197.761 95.6628 188.8 92.6835 180.725C89.7042 172.65 80.7432 168.52 72.6685 171.499C64.5937 174.478 60.463 183.439 63.4423 191.514C66.4216 199.589 75.3827 203.72 83.4574 200.74Z" fill="#D4CDEE"/>
<path fill-rule="evenodd" clip-rule="evenodd" d="M180.081 78.8709C183.926 77.4522 185.893 73.1851 184.474 69.34C183.056 65.4948 178.788 63.5278 174.943 64.9466C171.098 66.3653 169.131 70.6324 170.55 74.4775C171.969 78.3227 176.236 80.2896 180.081 78.8709ZM182.907 86.5293C190.981 83.5501 195.112 74.589 192.133 66.5143C189.153 58.4395 180.192 54.3089 172.118 57.2881C164.043 60.2674 159.912 69.2285 162.892 77.3032C165.871 85.378 174.832 89.5086 182.907 86.5293Z" fill="#D4CDEE"/>
<path fill-rule="evenodd" clip-rule="evenodd" d="M95.5583 76.8179L65.8513 109.927L60.8801 105.466L90.5871 72.3576L95.5583 76.8179Z" fill="#D4CDEE"/>
<path fill-rule="evenodd" clip-rule="evenodd" d="M170.76 85.4348L140.175 120.45L135.145 116.056L165.73 81.041L170.76 85.4348Z" fill="#D4CDEE"/>
<path fill-rule="evenodd" clip-rule="evenodd" d="M135.453 141.215L149.838 180.203L143.572 182.515L129.187 143.527L135.453 141.215Z" fill="#D4CDEE"/>
<path fill-rule="evenodd" clip-rule="evenodd" d="M195.678 152.968L165.092 187.983L160.062 183.589L190.647 148.574L195.678 152.968Z" fill="#D4CDEE"/>
<path fill-rule="evenodd" clip-rule="evenodd" d="M113.503 130.29L67.5041 123.533L68.4749 116.925L114.473 123.682L113.503 130.29Z" fill="#D4CDEE"/>
<path fill-rule="evenodd" clip-rule="evenodd" d="M138.42 197.824L92.4215 191.066L93.3923 184.458L139.391 191.216L138.42 197.824Z" fill="#D4CDEE"/>
<path fill-rule="evenodd" clip-rule="evenodd" d="M756.284 436.089C761.473 437.979 767.212 435.303 769.102 430.114C770.991 424.924 768.316 419.186 763.126 417.296C757.936 415.407 752.198 418.082 750.308 423.272C748.419 428.461 751.094 434.2 756.284 436.089ZM752.521 446.426C763.419 450.393 775.47 444.775 779.438 433.877C783.406 422.979 777.787 410.928 766.889 406.96C755.991 402.992 743.94 408.61 739.972 419.509C736.004 430.407 741.623 442.458 752.521 446.426Z" fill="#D4CDEE"/>
<path fill-rule="evenodd" clip-rule="evenodd" d="M689.417 359.599C694.607 361.488 700.345 358.813 702.235 353.623C704.124 348.433 701.449 342.695 696.259 340.805C691.07 338.916 685.331 341.591 683.442 346.781C681.552 351.97 684.228 357.709 689.417 359.599ZM685.654 369.935C696.552 373.903 708.603 368.284 712.571 357.386C716.539 346.488 710.921 334.437 700.022 330.469C689.124 326.501 677.073 332.12 673.105 343.018C669.138 353.916 674.756 365.967 685.654 369.935Z" fill="#D4CDEE"/>
<path fill-rule="evenodd" clip-rule="evenodd" d="M788.442 347.761C793.631 349.651 799.37 346.975 801.259 341.786C803.149 336.596 800.474 330.857 795.284 328.968C790.094 327.078 784.356 329.754 782.466 334.943C780.577 340.133 783.252 345.872 788.442 347.761ZM784.679 358.097C795.577 362.065 807.628 356.447 811.596 345.549C815.564 334.651 809.945 322.599 799.047 318.632C788.149 314.664 776.098 320.282 772.13 331.18C768.162 342.078 773.78 354.13 784.679 358.097Z" fill="#D4CDEE"/>
<path fill-rule="evenodd" clip-rule="evenodd" d="M724.126 524.417C729.316 526.307 735.054 523.632 736.944 518.442C738.833 513.252 736.158 507.514 730.968 505.624C725.778 503.735 720.04 506.41 718.15 511.6C716.261 516.789 718.936 522.528 724.126 524.417ZM720.363 534.754C731.261 538.721 743.312 533.103 747.28 522.205C751.248 511.307 745.629 499.256 734.731 495.288C723.833 491.32 711.782 496.938 707.814 507.837C703.846 518.735 709.465 530.786 720.363 534.754Z" fill="#D4CDEE"/>
<path fill-rule="evenodd" clip-rule="evenodd" d="M824.09 512.922C829.28 514.812 835.019 512.136 836.908 506.947C838.797 501.757 836.122 496.018 830.932 494.129C825.743 492.24 820.004 494.915 818.115 500.105C816.225 505.294 818.901 511.033 824.09 512.922ZM820.327 523.259C831.225 527.226 843.276 521.608 847.244 510.71C851.212 499.812 845.594 487.76 834.696 483.793C823.797 479.825 811.746 485.443 807.778 496.341C803.811 507.24 809.429 519.291 820.327 523.259Z" fill="#D4CDEE"/>
<path fill-rule="evenodd" clip-rule="evenodd" d="M655.891 451.685C661.08 453.575 666.819 450.899 668.708 445.71C670.598 440.52 667.923 434.781 662.733 432.892C657.543 431.003 651.805 433.678 649.915 438.868C648.026 444.057 650.701 449.796 655.891 451.685ZM652.128 462.022C663.026 465.989 675.077 460.371 679.045 449.473C683.012 438.575 677.394 426.524 666.496 422.556C655.598 418.588 643.547 424.206 639.579 435.104C635.611 446.003 641.229 458.054 652.128 462.022Z" fill="#D4CDEE"/>
<path fill-rule="evenodd" clip-rule="evenodd" d="M857.617 420.835C862.806 422.725 868.545 420.05 870.434 414.86C872.324 409.67 869.648 403.932 864.459 402.042C859.269 400.153 853.53 402.828 851.641 408.018C849.752 413.207 852.427 418.946 857.617 420.835ZM853.853 431.172C864.752 435.139 876.803 429.521 880.771 418.623C884.738 407.725 879.12 395.674 868.222 391.706C857.324 387.738 845.273 393.356 841.305 404.255C837.337 415.153 842.955 427.204 853.853 431.172Z" fill="#D4CDEE"/>
<path fill-rule="evenodd" clip-rule="evenodd" d="M772.484 345.121L713.103 353.3L711.875 344.385L771.256 336.206L772.484 345.121Z" fill="#D4CDEE"/>
<path fill-rule="evenodd" clip-rule="evenodd" d="M842.316 419.469L780.371 428.843L779.025 419.944L840.969 410.57L842.316 419.469Z" fill="#D4CDEE"/>
<path fill-rule="evenodd" clip-rule="evenodd" d="M757.433 446.086L738.275 498.707L729.818 495.628L748.976 443.007L757.433 446.086Z" fill="#D4CDEE"/>
<path fill-rule="evenodd" clip-rule="evenodd" d="M809.131 510.616L747.187 519.99L745.84 511.091L807.785 501.717L809.131 510.616Z" fill="#D4CDEE"/>
<path fill-rule="evenodd" clip-rule="evenodd" d="M744.373 415.737L702.955 368.731L709.707 362.781L751.126 409.787L744.373 415.737Z" fill="#D4CDEE"/>
<path fill-rule="evenodd" clip-rule="evenodd" d="M711.189 506.884L669.771 459.879L676.523 453.929L717.942 500.934L711.189 506.884Z" fill="#D4CDEE"/>
<path fill-rule="evenodd" clip-rule="evenodd" d="M994.564 198.388C996.493 197.308 997.181 194.869 996.102 192.941C995.022 191.012 992.583 190.324 990.655 191.403C988.726 192.483 988.038 194.922 989.117 196.85C990.197 198.779 992.636 199.467 994.564 198.388ZM996.714 202.229C1000.76 199.962 1002.21 194.841 999.943 190.791C997.676 186.74 992.555 185.295 988.505 187.562C984.454 189.829 983.009 194.95 985.276 199C987.543 203.051 992.664 204.496 996.714 202.229Z" fill="#D4CDEE"/>
<path fill-rule="evenodd" clip-rule="evenodd" d="M953.906 198.673C955.835 197.594 956.523 195.155 955.444 193.226C954.364 191.298 951.925 190.609 949.997 191.689C948.068 192.769 947.38 195.207 948.459 197.136C949.539 199.064 951.978 199.753 953.906 198.673ZM956.056 202.514C960.107 200.247 961.552 195.126 959.285 191.076C957.018 187.026 951.897 185.581 947.847 187.848C943.796 190.115 942.351 195.236 944.618 199.286C946.885 203.336 952.006 204.782 956.056 202.514Z" fill="#D4CDEE"/>
<path fill-rule="evenodd" clip-rule="evenodd" d="M976.19 165.562C978.119 164.482 978.807 162.044 977.727 160.115C976.648 158.186 974.209 157.498 972.281 158.577C970.352 159.657 969.664 162.096 970.743 164.024C971.823 165.953 974.261 166.641 976.19 165.562ZM978.34 169.403C982.39 167.136 983.836 162.015 981.569 157.965C979.302 153.915 974.18 152.469 970.13 154.736C966.08 157.003 964.635 162.124 966.902 166.175C969.169 170.225 974.29 171.67 978.34 169.403Z" fill="#D4CDEE"/>
<path fill-rule="evenodd" clip-rule="evenodd" d="M1012.94 231.214C1014.87 230.134 1015.56 227.695 1014.48 225.767C1013.4 223.838 1010.96 223.15 1009.03 224.229C1007.1 225.309 1006.41 227.748 1007.49 229.676C1008.57 231.605 1011.01 232.293 1012.94 231.214ZM1015.09 235.055C1019.14 232.788 1020.58 227.667 1018.32 223.617C1016.05 219.566 1010.93 218.121 1006.88 220.388C1002.83 222.655 1001.38 227.776 1003.65 231.826C1005.92 235.877 1011.04 237.322 1015.09 235.055Z" fill="#D4CDEE"/>
<path fill-rule="evenodd" clip-rule="evenodd" d="M1035.57 197.906C1037.5 196.827 1038.19 194.388 1037.11 192.46C1036.03 190.531 1033.59 189.843 1031.66 190.922C1029.73 192.002 1029.05 194.44 1030.12 196.369C1031.2 198.298 1033.64 198.986 1035.57 197.906ZM1037.72 201.748C1041.77 199.481 1043.22 194.36 1040.95 190.309C1038.68 186.259 1033.56 184.814 1029.51 187.081C1025.46 189.348 1024.02 194.469 1026.28 198.519C1028.55 202.569 1033.67 204.015 1037.72 201.748Z" fill="#D4CDEE"/>
<path fill-rule="evenodd" clip-rule="evenodd" d="M973.062 232.896C974.991 231.816 975.679 229.378 974.6 227.449C973.52 225.52 971.082 224.832 969.153 225.912C967.224 226.991 966.536 229.43 967.616 231.358C968.695 233.287 971.134 233.975 973.062 232.896ZM975.213 236.737C979.263 234.47 980.708 229.349 978.441 225.299C976.174 221.249 971.053 219.803 967.003 222.07C962.953 224.337 961.507 229.458 963.774 233.509C966.041 237.559 971.163 239.004 975.213 236.737Z" fill="#D4CDEE"/>
<path fill-rule="evenodd" clip-rule="evenodd" d="M1016.42 163.684C1018.34 162.604 1019.03 160.166 1017.95 158.237C1016.87 156.308 1014.43 155.62 1012.51 156.7C1010.58 157.779 1009.89 160.218 1010.97 162.146C1012.05 164.075 1014.49 164.763 1016.42 163.684ZM1018.57 167.525C1022.62 165.258 1024.06 160.137 1021.79 156.087C1019.53 152.037 1014.41 150.591 1010.36 152.858C1006.31 155.125 1004.86 160.246 1007.13 164.297C1009.39 168.347 1014.52 169.792 1018.57 167.525Z" fill="#D4CDEE"/>
<path fill-rule="evenodd" clip-rule="evenodd" d="M971.221 169.71L958.185 189.847L955.162 187.89L968.197 167.752L971.221 169.71Z" fill="#D4CDEE"/>
<path fill-rule="evenodd" clip-rule="evenodd" d="M1012 167.965L998.661 189.192L995.611 187.276L1008.95 166.048L1012 167.965Z" fill="#D4CDEE"/>
<path fill-rule="evenodd" clip-rule="evenodd" d="M997.895 200.651L1008.84 220.207L1005.7 221.966L994.752 202.41L997.895 200.651Z" fill="#D4CDEE"/>
<path fill-rule="evenodd" clip-rule="evenodd" d="M1030.96 201.839L1017.62 223.066L1014.57 221.149L1027.91 199.922L1030.96 201.839Z" fill="#D4CDEE"/>
<path fill-rule="evenodd" clip-rule="evenodd" d="M985.283 196.681L960.212 196.955L960.172 193.354L985.243 193.079L985.283 196.681Z" fill="#D4CDEE"/>
<path fill-rule="evenodd" clip-rule="evenodd" d="M1004.24 230.554L979.173 230.829L979.133 227.227L1004.2 226.953L1004.24 230.554Z" fill="#D4CDEE"/>
</svg>
