<svg width="76" height="76" viewBox="0 0 76 76" fill="none" xmlns="http://www.w3.org/2000/svg">
<circle opacity="0.5" cx="38" cy="38" r="32.5" stroke="#E4007B"/>
<circle opacity="0.15" cx="38" cy="38" r="37.6" stroke="#E4007B" stroke-width="0.8"/>
<circle cx="38" cy="38" r="28" fill="#E4007B"/>
<path d="M43.7334 36.799L39.1724 32.3933L40.9891 30.6385L43.7205 33.2769L49.1834 28L51 29.7548L43.7334 36.799ZM36.5956 31.8208H25V34.3099H36.5956V31.8208ZM49.4797 39.7984L47.663 38.0436L44.3261 41.267L40.9891 38.0436L39.1724 39.7984L42.5094 43.0218L39.1724 46.2452L40.9891 48L44.3261 44.7766L47.663 48L49.4797 46.2452L46.1427 43.0218L49.4797 39.7984ZM36.5956 41.7772H25V44.2663H36.5956V41.7772Z" fill="white"/>
</svg>
