<svg width="210" height="210" viewBox="0 0 210 210" fill="none" xmlns="http://www.w3.org/2000/svg">
<g filter="url(#filter0_d_272_1198)">
<path d="M105 174C146.974 174 181 139.974 181 98C181 56.0264 146.974 22 105 22C63.0264 22 29 56.0264 29 98C29 139.974 63.0264 174 105 174Z" fill="white"/>
<path d="M105 172.5C146.145 172.5 179.5 139.145 179.5 98C179.5 56.8548 146.145 23.5 105 23.5C63.8548 23.5 30.5 56.8548 30.5 98C30.5 139.145 63.8548 172.5 105 172.5Z" stroke="#2B50D4" stroke-width="3"/>
<path d="M118.292 69.6302C117.585 69.6412 116.912 69.9321 116.42 70.4389C115.928 70.9456 115.657 71.627 115.667 72.3333V75.3281C113.637 75.8028 111.914 76.8051 110.625 78.1406L108.12 76.6927C107.659 76.4163 107.125 76.2855 106.589 76.3177C106.014 76.3536 105.466 76.5746 105.027 76.9477C104.588 77.3209 104.282 77.8261 104.154 78.3877C104.026 78.9494 104.084 79.5373 104.318 80.0636C104.552 80.5899 104.95 81.0262 105.453 81.3073L108.062 82.8125C107.823 83.7508 107.667 84.707 107.667 85.6667C107.667 86.6263 107.823 87.5825 108.062 88.5208L105.453 90.026C105.135 90.1933 104.855 90.423 104.628 90.7013C104.401 90.9797 104.232 91.301 104.133 91.6461C104.033 91.9911 104.004 92.3527 104.048 92.7091C104.091 93.0656 104.206 93.4096 104.386 93.7206C104.566 94.0315 104.806 94.303 105.093 94.5186C105.38 94.7343 105.708 94.8898 106.057 94.9757C106.406 95.0616 106.768 95.0762 107.123 95.0186C107.477 94.9611 107.816 94.8325 108.12 94.6406L110.625 93.1927C111.914 94.5282 113.637 95.5305 115.667 96.0052V99C115.662 99.3534 115.727 99.7042 115.859 100.032C115.99 100.36 116.186 100.659 116.434 100.91C116.682 101.162 116.978 101.362 117.304 101.498C117.63 101.634 117.98 101.705 118.333 101.705C118.687 101.705 119.037 101.634 119.363 101.498C119.689 101.362 119.984 101.162 120.232 100.91C120.481 100.659 120.676 100.36 120.808 100.032C120.94 99.7042 121.005 99.3534 121 99V96.0052C123.03 95.5305 124.753 94.5282 126.042 93.1927L128.547 94.6406C128.85 94.8325 129.19 94.9611 129.544 95.0186C129.899 95.0762 130.261 95.0616 130.61 94.9757C130.958 94.8898 131.286 94.7343 131.573 94.5186C131.86 94.303 132.101 94.0315 132.281 93.7206C132.46 93.4096 132.575 93.0656 132.619 92.7091C132.662 92.3527 132.633 91.9911 132.534 91.6461C132.434 91.301 132.266 90.9797 132.039 90.7013C131.812 90.423 131.531 90.1933 131.214 90.026L128.604 88.5208C128.843 87.5825 129 86.6263 129 85.6667C129 84.707 128.843 83.7508 128.604 82.8125L131.214 81.3073C131.72 81.0221 132.12 80.5791 132.352 80.0457C132.584 79.5123 132.635 78.9178 132.497 78.3527C132.36 77.7876 132.041 77.283 131.591 76.9156C131.14 76.5482 130.581 76.3382 130 76.3177C129.49 76.301 128.985 76.4312 128.547 76.6927L126.042 78.1406C124.753 76.8051 123.03 75.8028 121 75.3281V72.3333C121.005 71.9766 120.938 71.6224 120.804 71.2919C120.669 70.9614 120.47 70.6613 120.217 70.4092C119.965 70.1571 119.664 69.9583 119.333 69.8245C119.003 69.6907 118.648 69.6246 118.292 69.6302ZM118.073 80.3542C118.25 80.3718 118.427 80.3718 118.604 80.3542C120.425 80.4156 121.536 81.035 122.339 81.9375C122.42 82.0291 122.483 82.1405 122.557 82.2396C122.664 82.7695 122.929 83.2544 123.318 83.6302V83.6354C123.543 84.2717 123.667 84.9647 123.667 85.6667C123.667 86.437 123.509 87.1894 123.24 87.875C122.965 88.1827 122.765 88.55 122.656 88.9479C122.551 89.0987 122.458 89.2609 122.339 89.3958C121.534 90.3011 120.419 90.921 118.589 90.9792C118.49 90.9684 118.391 90.9632 118.292 90.9635C118.215 90.9655 118.139 90.9707 118.062 90.9792C116.242 90.9177 115.13 90.2984 114.328 89.3958C114.203 89.2556 114.103 89.0897 113.995 88.9323C113.888 88.5515 113.697 88.1992 113.437 87.901C113.161 87.2086 113 86.4468 113 85.6667C113 84.9647 113.124 84.2717 113.349 83.6354V83.6302C113.737 83.2544 114.003 82.7695 114.109 82.2396C114.184 82.1405 114.247 82.0291 114.328 81.9375C115.132 81.0332 116.245 80.4134 118.073 80.3542ZM94.292 90.9635C93.585 90.9746 92.912 91.2654 92.42 91.7722C91.928 92.279 91.657 92.9603 91.667 93.6667V96.5833C88.637 97.1286 86.107 98.5728 84.339 100.563C84.288 100.619 84.257 100.687 84.208 100.745L81.812 99.3594C81.351 99.0829 80.818 98.9522 80.281 98.9844C79.706 99.0202 79.158 99.2413 78.72 99.6144C78.281 99.9875 77.975 100.493 77.847 101.054C77.719 101.616 77.776 102.204 78.011 102.73C78.245 103.257 78.643 103.693 79.146 103.974L81.667 105.432C81.244 106.81 81 108.237 81 109.667C81 111.097 81.244 112.523 81.667 113.901L79.146 115.359C78.828 115.527 78.547 115.756 78.32 116.035C78.093 116.313 77.925 116.634 77.825 116.979C77.726 117.324 77.697 117.686 77.74 118.042C77.784 118.399 77.899 118.743 78.079 119.054C78.258 119.365 78.499 119.636 78.786 119.852C79.073 120.068 79.401 120.223 79.75 120.309C80.098 120.395 80.461 120.41 80.815 120.352C81.17 120.294 81.509 120.166 81.812 119.974L84.208 118.589C84.257 118.646 84.288 118.714 84.339 118.771C86.107 120.761 88.637 122.205 91.667 122.75V125.667C91.662 126.02 91.727 126.371 91.859 126.699C91.99 127.027 92.186 127.325 92.434 127.577C92.682 127.828 92.978 128.028 93.304 128.165C93.63 128.301 93.98 128.371 94.333 128.371C94.687 128.371 95.037 128.301 95.363 128.165C95.689 128.028 95.984 127.828 96.232 127.577C96.481 127.325 96.676 127.027 96.808 126.699C96.94 126.371 97.005 126.02 97 125.667V122.75C100.03 122.205 102.559 120.761 104.328 118.771C104.378 118.714 104.409 118.646 104.458 118.589L106.854 119.974C107.158 120.166 107.497 120.294 107.851 120.352C108.206 120.41 108.568 120.395 108.917 120.309C109.266 120.223 109.593 120.068 109.881 119.852C110.168 119.636 110.408 119.365 110.588 119.054C110.768 118.743 110.883 118.399 110.926 118.042C110.97 117.686 110.941 117.324 110.841 116.979C110.741 116.634 110.573 116.313 110.346 116.035C110.119 115.756 109.839 115.527 109.521 115.359L107 113.901C107.423 112.523 107.667 111.097 107.667 109.667C107.667 108.237 107.423 106.81 107 105.432L109.521 103.974C110.028 103.689 110.427 103.246 110.659 102.712C110.891 102.179 110.942 101.585 110.804 101.019C110.667 100.454 110.349 99.9496 109.898 99.5822C109.447 99.2149 108.888 99.0049 108.307 98.9844C107.797 98.9677 107.293 99.0979 106.854 99.3594L104.458 100.745C104.409 100.687 104.378 100.619 104.328 100.563C102.559 98.5728 100.03 97.1286 97 96.5833V93.6667C97.005 93.3099 96.938 92.9558 96.804 92.6253C96.669 92.2948 96.47 91.9946 96.217 91.7425C95.965 91.4905 95.664 91.2917 95.333 91.1578C95.003 91.024 94.648 90.958 94.292 90.9635ZM94.078 101.688C94.249 101.706 94.422 101.708 94.594 101.693C97.32 101.755 99.092 102.702 100.339 104.104C100.533 104.323 100.686 104.579 100.854 104.823C100.952 105.407 101.241 105.942 101.677 106.344C102.093 107.381 102.333 108.513 102.333 109.667C102.333 110.882 102.064 112.071 101.604 113.151C101.278 113.496 101.049 113.922 100.943 114.385C100.751 114.677 100.567 114.972 100.339 115.229C99.09 116.633 97.316 117.586 94.583 117.646C94.486 117.635 94.389 117.63 94.292 117.63C94.219 117.631 94.146 117.634 94.073 117.641C91.347 117.578 89.575 116.631 88.328 115.229C88.096 114.968 87.907 114.671 87.714 114.375C87.608 113.925 87.387 113.511 87.073 113.172C86.607 112.087 86.333 110.89 86.333 109.667C86.333 108.517 86.571 107.388 86.984 106.354C87.425 105.949 87.717 105.408 87.812 104.818C87.98 104.575 88.134 104.322 88.328 104.104C89.575 102.701 91.348 101.749 94.078 101.688ZM94.333 107C93.626 107 92.948 107.281 92.448 107.781C91.948 108.281 91.667 108.959 91.667 109.667C91.667 110.374 91.948 111.052 92.448 111.552C92.948 112.052 93.626 112.333 94.333 112.333C95.041 112.333 95.719 112.052 96.219 111.552C96.719 111.052 97 110.374 97 109.667C97 108.959 96.719 108.281 96.219 107.781C95.719 107.281 95.041 107 94.333 107Z" fill="url(#paint0_linear_272_1198)"/>
</g>
<defs>
<filter id="filter0_d_272_1198" x="0" y="0" width="210" height="210" filterUnits="userSpaceOnUse" color-interpolation-filters="sRGB">
<feFlood flood-opacity="0" result="BackgroundImageFix"/>
<feColorMatrix in="SourceAlpha" type="matrix" values="0 0 0 0 0 0 0 0 0 0 0 0 0 0 0 0 0 0 127 0" result="hardAlpha"/>
<feOffset dy="7"/>
<feGaussianBlur stdDeviation="14.5"/>
<feComposite in2="hardAlpha" operator="out"/>
<feColorMatrix type="matrix" values="0 0 0 0 0.392157 0 0 0 0 0.392157 0 0 0 0 0.435294 0 0 0 0.2 0"/>
<feBlend mode="normal" in2="BackgroundImageFix" result="effect1_dropShadow_272_1198"/>
<feBlend mode="normal" in="SourceGraphic" in2="effect1_dropShadow_272_1198" result="shape"/>
</filter>
<linearGradient id="paint0_linear_272_1198" x1="72.74" y1="81.6662" x2="139.199" y2="82.7546" gradientUnits="userSpaceOnUse">
<stop offset="0.15625" stop-color="#0049D8"/>
<stop offset="1" stop-color="#0066FF"/>
</linearGradient>
</defs>
</svg>
