<svg width="45" height="45" viewBox="0 0 45 45" fill="none" xmlns="http://www.w3.org/2000/svg">
<path d="M17.6298 12.5601L31.3945 32.1743H27.7352L13.9949 12.5601H17.6298ZM44.3892 22.3672C44.3892 34.5175 34.5394 44.3672 22.3892 44.3672V44.3672C10.2389 44.3672 0.38916 34.5175 0.38916 22.3672V22.3672C0.38916 10.2169 10.2389 0.367188 22.3892 0.367188V0.367188C34.5394 0.367188 44.3892 10.2169 44.3892 22.3672V22.3672ZM35.9265 34.5894L25.694 19.9472L34.0589 10.145H30.8543L24.2445 17.8694L18.8496 10.145H9.43849L19.072 23.9145L9.93716 34.5894H13.1956L20.5314 25.9947L26.5398 34.5894H35.9265Z" fill="black"/>
</svg>
