<svg width="93" height="93" viewBox="0 0 93 93" fill="none" xmlns="http://www.w3.org/2000/svg">
<rect x="0.393108" y="0.015625" width="92.383" height="92.383" fill="white"/>
<path d="M63.1536 30.4352C58.5311 27.7991 56.7169 30.3787 56.3874 32.0116C56.3124 32.2976 56.736 32.6071 57.7342 33.1348C58.5236 33.5522 59.3645 33.943 60.2572 33.9223C62.311 33.8748 63.1888 32.1397 63.4145 30.9822C63.4409 30.8465 63.4242 30.7289 63.3454 30.6153C63.3002 30.55 63.2225 30.4745 63.1536 30.4352Z" fill="url(#paint0_linear_1723_567)"/>
<path d="M70.0173 45.5644C68.0725 40.6112 65.0412 41.4812 63.7599 42.5457C63.522 42.7214 63.6577 43.2282 64.1037 44.2654C64.4564 45.0857 64.8658 45.9178 65.5738 46.4618C67.2028 47.7137 68.9751 46.9137 69.8771 46.1541C69.9829 46.065 70.0436 45.9629 70.0536 45.825C70.0594 45.7458 70.0463 45.6382 70.0173 45.5644Z" fill="url(#paint1_linear_1723_567)"/>
<path d="M67.5468 57.2805C68.2545 52.0065 65.1825 51.2936 63.5453 51.6012C63.252 51.6391 63.1243 52.148 63.0099 53.2713C62.9195 54.1596 62.873 55.0857 63.2273 55.9053C64.0425 57.791 65.9802 57.9532 67.1377 57.7278C67.2734 57.7013 67.3761 57.6417 67.4519 57.526C67.4954 57.4596 67.5363 57.3592 67.5468 57.2805Z" fill="url(#paint2_linear_1723_567)"/>
<path d="M54.3812 68.7907C59.0677 66.2703 57.8432 63.3641 56.6337 62.2185C56.431 62.0032 55.944 62.1982 54.9671 62.7645C54.1946 63.2124 53.4173 63.7179 52.9613 64.4856C51.9122 66.252 52.9175 67.9164 53.779 68.7217C53.88 68.8161 53.9886 68.8643 54.1268 68.8578C54.206 68.8541 54.3113 68.8283 54.3812 68.7907Z" fill="url(#paint3_linear_1723_567)"/>
<path d="M57.6478 67.505C62.282 64.8896 64.0846 67.4773 64.4068 69.1117C64.4805 69.3981 64.0555 69.7057 63.055 70.2289C62.2637 70.6427 61.4211 71.0298 60.5285 71.0051C58.4749 70.9483 57.6049 69.2093 57.3844 68.0509C57.3586 67.915 57.3759 67.7975 57.4551 67.6842C57.5006 67.6192 57.5787 67.544 57.6478 67.505Z" fill="url(#paint4_linear_1723_567)"/>
<path d="M64.6076 60.8982C68.5236 57.2954 70.8686 59.404 71.555 60.9219C71.692 61.184 71.3483 61.5803 70.4933 62.3179C69.8173 62.9011 69.085 63.4701 68.2104 63.6495C66.1979 64.0624 64.9543 62.5675 64.4756 61.4898C64.4195 61.3634 64.4095 61.2451 64.4608 61.1167C64.4903 61.043 64.5492 60.952 64.6076 60.8982Z" fill="url(#paint5_linear_1723_567)"/>
<path d="M68.7416 53.6456C70.6323 48.6716 73.6728 49.5085 74.9657 50.559C75.2055 50.7321 75.0754 51.2403 74.6407 52.2824C74.2969 53.1065 73.8965 53.9429 73.1945 54.4947C71.5793 55.7642 69.7984 54.9835 68.8882 54.2338C68.7814 54.1459 68.7196 54.0444 68.7081 53.9066C68.7014 53.8276 68.7134 53.7198 68.7416 53.6456Z" fill="url(#paint6_linear_1723_567)"/>
<path d="M69.7992 43.675C69.5984 38.3576 72.7244 37.9413 74.3248 38.4038C74.6131 38.4695 74.6917 38.9882 74.6982 40.1173C74.7034 41.0102 74.6613 41.9366 74.2304 42.7186C73.2388 44.5179 71.2945 44.4943 70.1638 44.1593C70.0312 44.12 69.9346 44.0508 69.8703 43.9284C69.8333 43.8582 69.8022 43.7543 69.7992 43.675Z" fill="url(#paint7_linear_1723_567)"/>
<path d="M66.1641 33.5138C65.9633 28.1963 69.0893 27.78 70.6897 28.2426C70.978 28.3083 71.0566 28.827 71.0632 29.9561C71.0683 30.849 71.0262 31.7753 70.5953 32.5573C69.6037 34.3566 67.6594 34.333 66.5287 33.9981C66.3961 33.9588 66.2996 33.8896 66.2352 33.7672C66.1982 33.697 66.1671 33.5931 66.1641 33.5138Z" fill="url(#paint8_linear_1723_567)"/>
<path d="M60.0116 26.8185C59.8107 21.501 62.9368 21.0847 64.5371 21.5473C64.8254 21.613 64.904 22.1317 64.9106 23.2608C64.9157 24.1537 64.8736 25.08 64.4427 25.862C63.4511 27.6613 61.5068 27.6377 60.3761 27.3028C60.2435 27.2635 60.147 27.1943 60.0826 27.0719C60.0456 27.0017 60.0146 26.8978 60.0116 26.8185Z" fill="url(#paint9_linear_1723_567)"/>
<path d="M30.0156 30.4352C34.6381 27.7991 36.4522 30.3787 36.7818 32.0116C36.8568 32.2976 36.4332 32.6071 35.435 33.1348C34.6456 33.5522 33.8047 33.943 32.912 33.9223C30.8582 33.8748 29.9803 32.1397 29.7547 30.9822C29.7282 30.8465 29.745 30.7289 29.8238 30.6153C29.8689 30.55 29.9467 30.4745 30.0156 30.4352Z" fill="url(#paint10_linear_1723_567)"/>
<path d="M23.1519 45.5644C25.0967 40.6112 28.1279 41.4812 29.4093 42.5457C29.6471 42.7214 29.5115 43.2282 29.0655 44.2654C28.7128 45.0857 28.3033 45.9178 27.5954 46.4618C25.9664 47.7137 24.1941 46.9137 23.2921 46.1541C23.1863 46.065 23.1256 45.9629 23.1156 45.825C23.1098 45.7458 23.1229 45.6382 23.1519 45.5644Z" fill="url(#paint11_linear_1723_567)"/>
<path d="M25.6224 57.2805C24.9146 52.0065 27.9867 51.2936 29.6239 51.6012C29.9171 51.6391 30.0449 52.148 30.1592 53.2713C30.2497 54.1596 30.2962 55.0857 29.9419 55.9053C29.1267 57.791 27.189 57.9532 26.0315 57.7278C25.8957 57.7013 25.793 57.6417 25.7172 57.526C25.6738 57.4596 25.6329 57.3592 25.6224 57.2805Z" fill="url(#paint12_linear_1723_567)"/>
<path d="M38.788 68.7907C34.1014 66.2703 35.326 63.3641 36.5355 62.2185C36.7382 62.0032 37.2252 62.1982 38.2021 62.7645C38.9745 63.2124 39.7519 63.7179 40.2079 64.4856C41.257 66.252 40.2517 67.9164 39.3902 68.7217C39.2891 68.8161 39.1805 68.8643 39.0424 68.8578C38.9631 68.8541 38.8579 68.8283 38.788 68.7907Z" fill="url(#paint13_linear_1723_567)"/>
<path d="M35.5214 67.505C30.8872 64.8896 29.0846 67.4773 28.7623 69.1117C28.6886 69.3981 29.1136 69.7057 30.1142 70.2289C30.9055 70.6427 31.7481 71.0298 32.6407 71.0051C34.6943 70.9483 35.5643 69.2093 35.7848 68.0509C35.8106 67.915 35.7933 67.7975 35.7141 67.6842C35.6686 67.6192 35.5905 67.544 35.5214 67.505Z" fill="url(#paint14_linear_1723_567)"/>
<path d="M28.5616 60.8982C24.6456 57.2954 22.3006 59.404 21.6142 60.9219C21.4772 61.184 21.8209 61.5803 22.6758 62.3179C23.3519 62.9011 24.0841 63.4701 24.9588 63.6495C26.9713 64.0624 28.2149 62.5675 28.6936 61.4898C28.7497 61.3634 28.7597 61.2451 28.7083 61.1167C28.6789 61.043 28.62 60.952 28.5616 60.8982Z" fill="url(#paint15_linear_1723_567)"/>
<path d="M24.4276 53.6456C22.5369 48.6716 19.4963 49.5085 18.2035 50.559C17.9637 50.7321 18.0938 51.2403 18.5285 52.2824C18.8723 53.1065 19.2726 53.9429 19.9747 54.4947C21.5899 55.7642 23.3708 54.9835 24.281 54.2338C24.3877 54.1459 24.4496 54.0444 24.4611 53.9066C24.4677 53.8276 24.4558 53.7198 24.4276 53.6456Z" fill="url(#paint16_linear_1723_567)"/>
<path d="M23.3699 43.675C23.5708 38.3576 20.4447 37.9413 18.8444 38.4038C18.5561 38.4695 18.4775 38.9882 18.4709 40.1173C18.4658 41.0102 18.5079 41.9366 18.9388 42.7186C19.9304 44.5179 21.8747 44.4943 23.0054 44.1593C23.138 44.12 23.2345 44.0508 23.2989 43.9284C23.3359 43.8582 23.3669 43.7543 23.3699 43.675Z" fill="url(#paint17_linear_1723_567)"/>
<path d="M27.005 33.5138C27.2059 28.1963 24.0798 27.78 22.4795 28.2426C22.1912 28.3083 22.1126 28.827 22.106 29.9561C22.1008 30.849 22.143 31.7753 22.5739 32.5573C23.5655 34.3566 25.5098 34.333 26.6405 33.9981C26.7731 33.9588 26.8696 33.8896 26.934 33.7672C26.971 33.697 27.002 33.5931 27.005 33.5138Z" fill="url(#paint18_linear_1723_567)"/>
<path d="M33.1576 26.8185C33.3585 21.501 30.2324 21.0847 28.632 21.5473C28.3437 21.613 28.2651 22.1317 28.2586 23.2608C28.2534 24.1537 28.2955 25.08 28.7265 25.862C29.718 27.6613 31.6624 27.6377 32.7931 27.3028C32.9257 27.2635 33.0222 27.1943 33.0866 27.0719C33.1235 27.0017 33.1546 26.8978 33.1576 26.8185Z" fill="url(#paint19_linear_1723_567)"/>
<path d="M45.6318 34.7243C45.9499 33.7453 47.3349 33.7453 47.653 34.7243L49.749 41.175C49.8912 41.6128 50.2992 41.9093 50.7596 41.9093H57.5422C58.5716 41.9093 58.9996 43.2265 58.1668 43.8315L52.6795 47.8183C52.3071 48.0889 52.1512 48.5685 52.2935 49.0063L54.3895 55.457C54.7076 56.436 53.587 57.2501 52.7543 56.645L47.267 52.6583C46.8946 52.3877 46.3902 52.3877 46.0178 52.6583L40.5305 56.645C39.6977 57.2501 38.5772 56.436 38.8953 55.457L40.9913 49.0063C41.1335 48.5685 40.9777 48.0889 40.6053 47.8183L35.118 43.8315C34.2852 43.2265 34.7132 41.9093 35.7426 41.9093H42.5252C42.9856 41.9093 43.3936 41.6128 43.5358 41.175L45.6318 34.7243Z" fill="url(#paint20_linear_1723_567)"/>
<path d="M45.2316 34.7225C45.5497 33.7435 46.9347 33.7435 47.2528 34.7225L48.4132 38.2941L46.9181 42.8958C46.7758 43.3336 46.3678 43.6301 45.9074 43.6301H39.1248C38.0954 43.6301 37.6674 44.9473 38.5002 45.5523L43.9875 49.5391C44.3599 49.8097 44.5158 50.2893 44.3735 50.7271L43.1685 54.4359L40.1303 56.6432C39.2975 57.2483 38.177 56.4342 38.4951 55.4552L40.5911 49.0045C40.7333 48.5667 40.5775 48.0871 40.205 47.8165L34.7178 43.8297C33.885 43.2247 34.313 41.9075 35.3424 41.9075H42.125C42.5853 41.9075 42.9933 41.611 43.1356 41.1732L45.2316 34.7225Z" fill="url(#paint21_linear_1723_567)"/>
<path d="M38.3658 25.0039C19.3352 31.7204 16.4804 61.2181 39.712 68.8491C44.2826 70.3504 49.3097 70.5177 53.8712 68.989C73.7082 62.3409 76.8487 34.6765 54.9328 25.0039" stroke="url(#paint22_linear_1723_567)" stroke-width="2" stroke-linecap="round"/>
<defs>
<linearGradient id="paint0_linear_1723_567" x1="9.63355" y1="51.3999" x2="79.9717" y2="50.3805" gradientUnits="userSpaceOnUse">
<stop stop-color="#EB00FF"/>
<stop offset="1" stop-color="#7900FF"/>
</linearGradient>
<linearGradient id="paint1_linear_1723_567" x1="9.63355" y1="51.3999" x2="79.9717" y2="50.3805" gradientUnits="userSpaceOnUse">
<stop stop-color="#EB00FF"/>
<stop offset="1" stop-color="#7900FF"/>
</linearGradient>
<linearGradient id="paint2_linear_1723_567" x1="9.63355" y1="51.3999" x2="79.9717" y2="50.3805" gradientUnits="userSpaceOnUse">
<stop stop-color="#EB00FF"/>
<stop offset="1" stop-color="#7900FF"/>
</linearGradient>
<linearGradient id="paint3_linear_1723_567" x1="9.63355" y1="51.3999" x2="79.9717" y2="50.3805" gradientUnits="userSpaceOnUse">
<stop stop-color="#EB00FF"/>
<stop offset="1" stop-color="#7900FF"/>
</linearGradient>
<linearGradient id="paint4_linear_1723_567" x1="9.63355" y1="51.3999" x2="79.9717" y2="50.3805" gradientUnits="userSpaceOnUse">
<stop stop-color="#EB00FF"/>
<stop offset="1" stop-color="#7900FF"/>
</linearGradient>
<linearGradient id="paint5_linear_1723_567" x1="9.63355" y1="51.3999" x2="79.9717" y2="50.3805" gradientUnits="userSpaceOnUse">
<stop stop-color="#EB00FF"/>
<stop offset="1" stop-color="#7900FF"/>
</linearGradient>
<linearGradient id="paint6_linear_1723_567" x1="9.63355" y1="51.3999" x2="79.9717" y2="50.3805" gradientUnits="userSpaceOnUse">
<stop stop-color="#EB00FF"/>
<stop offset="1" stop-color="#7900FF"/>
</linearGradient>
<linearGradient id="paint7_linear_1723_567" x1="9.63355" y1="51.3999" x2="79.9717" y2="50.3805" gradientUnits="userSpaceOnUse">
<stop stop-color="#EB00FF"/>
<stop offset="1" stop-color="#7900FF"/>
</linearGradient>
<linearGradient id="paint8_linear_1723_567" x1="9.63355" y1="51.3999" x2="79.9717" y2="50.3805" gradientUnits="userSpaceOnUse">
<stop stop-color="#EB00FF"/>
<stop offset="1" stop-color="#7900FF"/>
</linearGradient>
<linearGradient id="paint9_linear_1723_567" x1="9.63355" y1="51.3999" x2="79.9717" y2="50.3805" gradientUnits="userSpaceOnUse">
<stop stop-color="#EB00FF"/>
<stop offset="1" stop-color="#7900FF"/>
</linearGradient>
<linearGradient id="paint10_linear_1723_567" x1="9.63355" y1="51.3999" x2="79.9717" y2="50.3805" gradientUnits="userSpaceOnUse">
<stop stop-color="#EB00FF"/>
<stop offset="1" stop-color="#7900FF"/>
</linearGradient>
<linearGradient id="paint11_linear_1723_567" x1="9.63355" y1="51.3999" x2="79.9717" y2="50.3805" gradientUnits="userSpaceOnUse">
<stop stop-color="#EB00FF"/>
<stop offset="1" stop-color="#7900FF"/>
</linearGradient>
<linearGradient id="paint12_linear_1723_567" x1="9.63355" y1="51.3999" x2="79.9717" y2="50.3805" gradientUnits="userSpaceOnUse">
<stop stop-color="#EB00FF"/>
<stop offset="1" stop-color="#7900FF"/>
</linearGradient>
<linearGradient id="paint13_linear_1723_567" x1="9.63355" y1="51.3999" x2="79.9717" y2="50.3805" gradientUnits="userSpaceOnUse">
<stop stop-color="#EB00FF"/>
<stop offset="1" stop-color="#7900FF"/>
</linearGradient>
<linearGradient id="paint14_linear_1723_567" x1="9.63355" y1="51.3999" x2="79.9717" y2="50.3805" gradientUnits="userSpaceOnUse">
<stop stop-color="#EB00FF"/>
<stop offset="1" stop-color="#7900FF"/>
</linearGradient>
<linearGradient id="paint15_linear_1723_567" x1="9.63355" y1="51.3999" x2="79.9717" y2="50.3805" gradientUnits="userSpaceOnUse">
<stop stop-color="#EB00FF"/>
<stop offset="1" stop-color="#7900FF"/>
</linearGradient>
<linearGradient id="paint16_linear_1723_567" x1="9.63355" y1="51.3999" x2="79.9717" y2="50.3805" gradientUnits="userSpaceOnUse">
<stop stop-color="#EB00FF"/>
<stop offset="1" stop-color="#7900FF"/>
</linearGradient>
<linearGradient id="paint17_linear_1723_567" x1="9.63355" y1="51.3999" x2="79.9717" y2="50.3805" gradientUnits="userSpaceOnUse">
<stop stop-color="#EB00FF"/>
<stop offset="1" stop-color="#7900FF"/>
</linearGradient>
<linearGradient id="paint18_linear_1723_567" x1="9.63355" y1="51.3999" x2="79.9717" y2="50.3805" gradientUnits="userSpaceOnUse">
<stop stop-color="#EB00FF"/>
<stop offset="1" stop-color="#7900FF"/>
</linearGradient>
<linearGradient id="paint19_linear_1723_567" x1="9.63355" y1="51.3999" x2="79.9717" y2="50.3805" gradientUnits="userSpaceOnUse">
<stop stop-color="#EB00FF"/>
<stop offset="1" stop-color="#7900FF"/>
</linearGradient>
<linearGradient id="paint20_linear_1723_567" x1="30.6706" y1="47.8147" x2="60.6937" y2="47.4118" gradientUnits="userSpaceOnUse">
<stop stop-color="#EB00FF"/>
<stop offset="1" stop-color="#7900FF"/>
</linearGradient>
<linearGradient id="paint21_linear_1723_567" x1="30.6706" y1="47.8147" x2="60.6937" y2="47.4118" gradientUnits="userSpaceOnUse">
<stop stop-color="#EB00FF"/>
<stop offset="1" stop-color="#7900FF"/>
</linearGradient>
<linearGradient id="paint22_linear_1723_567" x1="23.1855" y1="25.0039" x2="70.0989" y2="25.0039" gradientUnits="userSpaceOnUse">
<stop stop-color="#DB00FF"/>
<stop offset="1" stop-color="#8500FF"/>
</linearGradient>
</defs>
</svg>
